<?xml version="1.0" encoding="UTF-8"?>
<svg id="Ebene_2" data-name="Ebene 2" xmlns="http://www.w3.org/2000/svg" viewBox="0 0 77.4 81.99">
  <defs>
    <style>
      .cls-1 {
        fill: #fbf0f1;
      }

      .cls-1, .cls-2, .cls-3, .cls-4, .cls-5, .cls-6, .cls-7, .cls-8, .cls-9, .cls-10, .cls-11, .cls-12, .cls-13, .cls-14, .cls-15, .cls-16, .cls-17, .cls-18, .cls-19, .cls-20, .cls-21, .cls-22, .cls-23, .cls-24, .cls-25, .cls-26, .cls-27, .cls-28, .cls-29, .cls-30, .cls-31, .cls-32, .cls-33, .cls-34, .cls-35, .cls-36, .cls-37, .cls-38 {
        stroke-width: 0px;
      }

      .cls-2 {
        fill: #d43650;
      }

      .cls-3 {
        fill: #e0dfde;
      }

      .cls-4 {
        fill: #41180d;
      }

      .cls-5 {
        fill: #35100e;
      }

      .cls-6 {
        fill: #9d6d65;
      }

      .cls-7 {
        fill: #661411;
      }

      .cls-8 {
        fill: #82837d;
      }

      .cls-9 {
        fill: #e35757;
      }

      .cls-10 {
        fill: #9d9e9f;
      }

      .cls-11 {
        fill: #b2b4b1;
      }

      .cls-12 {
        fill: #26241f;
      }

      .cls-13 {
        fill: #acafab;
      }

      .cls-14 {
        fill: #f7bcb3;
      }

      .cls-15 {
        fill: #e4e6dd;
      }

      .cls-16 {
        fill: #b9b9b9;
      }

      .cls-17 {
        fill: #10100e;
      }

      .cls-18 {
        fill: #ed7369;
      }

      .cls-19 {
        fill: #f2a328;
      }

      .cls-20 {
        fill: #f4a19e;
      }

      .cls-21 {
        fill: #628560;
      }

      .cls-22 {
        fill: #f28e2c;
      }

      .cls-23 {
        fill: #f28d74;
      }

      .cls-24 {
        fill: #d0d4d0;
      }

      .cls-25 {
        fill: #f4bc2e;
      }

      .cls-26 {
        fill: #caceca;
      }

      .cls-27 {
        fill: #a6aaa6;
      }

      .cls-28 {
        fill: #100f10;
      }

      .cls-29 {
        fill: #fbfbfb;
      }

      .cls-30 {
        fill: #6d6d6d;
      }

      .cls-31 {
        fill: #fdfdfd;
      }

      .cls-32 {
        fill: #e83b3a;
      }

      .cls-33 {
        fill: #4f7454;
      }

      .cls-34 {
        fill: #f5f0db;
      }

      .cls-35 {
        fill: #ec674c;
      }

      .cls-36 {
        fill: #323231;
      }

      .cls-37 {
        fill: #5b5a5a;
      }

      .cls-38 {
        fill: #fcfcfc;
      }
    </style>
  </defs>
  <g id="_1._Evalstufe" data-name="1. Evalstufe">
    <g>
      <path class="cls-33" d="M6.94,29.48v.15c-1.08-.62-.97-1.15,0-.15Z"/>
      <g>
        <path class="cls-28" d="M63.37,46.53c.34.04,3.23.89,3.39,1.06v.3c-.78-.48-1.76-.62-2.64-.75-.67-.1-1.96.19-2.49-.15-.89-.56,1.53-.47,1.74-.45Z"/>
        <path class="cls-21" d="M12.37,15.3c.25.46,1.83,3.15,1.66,3.47-.07-.02-.29-.14-.3-.15-.25-.3-.8-2.94-1.96-3.17.03,0,.13-.25.6-.15Z"/>
        <path class="cls-27" d="M6.64,26.62s.06-.04-.15-.15c-1.02-1.16-1.8-2.79-1.06-2.04.1.1,1.78,2.64,1.21,2.19Z"/>
        <path class="cls-28" d="M8.45,23.15c.16.38.44,1.69.6,2.26-1.03-1.65-1.28-3.85-.6-2.26Z"/>
        <path class="cls-26" d="M7.77,24.05c.27-.06.18.16.3.3.84.99.06.96-.3-.3Z"/>
        <path class="cls-28" d="M39.83,3.08c.04-.17-.12-.4.38-.75l-.38.75Z"/>
        <path class="cls-21" d="M6.94,29.63v-.15c.2.21.91.68,0,.15Z"/>
        <g>
          <path class="cls-28" d="M36.82.82c.02,2.08-1.17,3.53-1.21,4.3-.1,1.9.96-1.14.91.3,0,.27-1.93,1.83-.38,5.05,1.02-4.06-.05.35,1.06,2.26.63-2.68,1.37-4.5-.83-6.41,2.57,1.94.3-1.01.75-2.72l.45,1.21c.43-1.48-.52-5.66.45-2.26-.63,3.95,1.4,5,.91,2.26-.04-.22-.54-.71-.6-1.06-.02-.12.17-1.42-.15-2.34.55,1.09.48,1.65.83,2.72.46-2.61.53-4.22.53-.98l.3-.08c-.04.15-.21.85-.08.91.48-.55,1.06-1,1.58-1.51-.93,1.75-2.33,1.81-1.74,4.22l1.58-2.04c-.11-.91.42-1.64.6-2.49.13-.6.04-2.3.3-1.13.23,1.02-.47,2.34.08,2.79.3.01,1.26-4.34.83-1.13-.13,1-1.17,2.78-.15,3.47-.11-1.57.23-4.48.38-1.13.75-1.43.84-1.66.23,0-.3.8-1.11,2.24,0,2.64l.15-1.58c.06.54.21,1.11.23,1.66,2.02-.95-.3-1.65.91-5.28v3.32c.08,0,.29-1.37.38-1.58,1.14-2.91-.17,2.04.23,2.34,2.35-2.77,2.61-2.73.38.23l.23,2.19c.82-2.93,1.21-4.94.6-.3.64-1.29,3.18-6.31,1.58-2.04-.38,1.02-4.36,7.11-4,7.32,1.41-.15,2.01-.12,2.11-1.66-.04,1.35.69,1.54.91.3,1.29,2.06.93-2.25,1.13-4,.4,4.55-.18,3.23,1.81.3.03-.28-.79-1.97-.38-4l.6,3.32c2.12-4.34,1.85-3.09.23.53.98,2.08.55.59,2.26-.91-1.53,2.57-1.43,2.73.08,5.36,1.47-1.06.61-2.5.83-3.7.04-.23,1.35-3.81,1.06-1.96-.06.4-.7,1.48-.75,1.81-.57,3.5.75.1,1.74-2.94.34.09-1,3.23-.75,3.32,4.5-5.72-1.29,1.99-1.66,4.38,2.75.3,2.66-5.77,2.41-1.06.31-.4,1.02-1.35,1.43-1.51l-.53,3.02.83-3.02-.08,2.26,1.66-1.21.08.23c-1.21,1.05-1.91,2.01-2.57,3.47,5.33-4.56,1.46-.72-.75,1.51l.23.23c3.69-.46,4.36-5.62,2.19.83,1.98.16,1.4-.58,1.89-2.04.28.04-.26,1.39-.08,1.89.08.22.46-.51.45,0-2,2.94-1.27,3.68-.45,2.26.03-.05-.04-.9.23-.83.19.05-.11.72.38.23,1.11-1.12.67-3.32.83-3.39.12-.06.14.79.45.75.11-.01,1.31-2.32,1.28-1.43-2.16,3.54-3.93,6.53.75,1.81l-2.11,2.57c.13.09,2.78-1.04,1.89-.38-.26.19-7.38,3.08-3.02,2.11.91-.2,1.84-.85,2.79-.98-4.81,2.28-5.61,5.38-.68.68l-1.74,2.34c2.17-.12,2.84-2.04,1.21,1.06l.23.08,1.51-1.36c-.44,1.09-2.12,2,0,1.21,2.12-2.14-.36,1.16,0,1.36,2.86-1.63,2.3-3.84.91,1.96,4.5-5.91,2.68-2,.38.38-.26.27-3.25,2.29-3.02,2.57,2.25.47,2.37-.58,2.64-.68.07-.03.05.42.3.3.59-.28,1.71-1.45,2.57-1.66.39.19-2.95,4.51-3.24,4.9.42.55,6.26-1.71,1.89.23-2.21.02-5.04,1.7-3.02,1.51v.3c-1.65.13-4.83,1.02-1.21,1.36,2.32.21,4.28-.68,6.04-2.11-1.05,2.22-4.53,2.13-1.96,2.57,1.37-.83.51-.24.38,0-2.66.24-5.33-.05-7.92-.6-.99.93-2.63.34-3.32,1.81,1.9.05,6.21-2.64,2.26-.15.93.14,2.36-.95,3.02-.91,1.43.11-.64.3-1.13.83,3.58.96,1.18.26-.53.23-6.01-.13-4.84.23.45.75-2.43.4-5.29-.77-7.02.98,2.42,2.44,1.7,2.59,5.51,1.28-.98-1.17-.06-.26.75-.45.75-.18,3.49-2.23,5.13-2.11.68-.33,1.53-2.67.75-.15,1-.17,1.28-.32,1.89-1.06,3.13-.46.23.17.3.53,2.18.04,2.12.34-.08.38-1.52,1.56-3.99.35-6.87,2.34,4.72.54-.59.16-2.41,1.21,2.96,1.13,5.75,1.99,8.68.23l-2.49,1.28c.02.1,2.78-.16,1.58.23-.68.22-6.24-.43-1.51.6,1.67.36,1.75.18-.45.15-.24.1.34.22.23.6-.73-.82-7.12-3.05-7.54-2.49.93.71,4.64,4.39,2.64,1.28,3,3.4,4.04,2.22,5.51,2.41.28.04.52.03.75.23-.3.18-5.74.22-5.73.6.73.32,1.89,1.05,2.64,1.13,1.34.15,2.77-.63,2.11,0-1.86.44-2.17.41-3.85-.15-.43-.14-1.5-.79-2.04-1.06-2.46.69-5.1.77-2.72,1.36,1.5.37,4.3.11,4.53.15.11.02.08.21.08.3-6.62-.03-.05.87,1.43,1.96.13.1.13.2,0,.3l-8.6-2.72c.77.97,3.56,1.39,4.38,1.81.23.12.33.29,0,.3-.23,0-3.89-1.29-4.38-1.51-1.38-.62-6.83-4.19-7.85-4.07-3.3,2.46-5.82,5.76-7.92,9.28.2,3.78-.48,13.28,1.21,16.14.91,1.55,5.18,4.03,7.17,3.39.36,1.07,2.23.75,3.02.91.06.01.13.43.3.45,1.92.29,4.6.58,5.73-1.21l-.75,1.36c2.62-1.36,3.23-1.81.68.38,2.91-.06,5.84-1.03,8.37-2.49.31.14-1.55,1.22-1.81,1.36-3.09,1.69-5.01,2.13,1.13.38-1.63,1.45-3.94,1.34-5.96,1.89,1.99-.08,4.93.13,6.79-.15,2.41-.37,5.86-2.42,1.06.45,2.32-.93,5.26,1.18,6.79-1.51-.23,2.44-2.98,1.4-3.02,2.11,3.61-.32,5.77,1.83,9.73.83-3.15,1.5-6.49-.08-9.73-.38-3.45.59-12.5-.47-14.18-.15-1.56.3,1.61.49,1.58.68-5.44.57.62,1.25,2.49,1.13.33-.02,4.57-1.25,1.96,0-1,.48-8.77.58-10.26.45-1.18-.1-2.41-.74-3.62-.75l.91,1.06c-3.71-.41-12.3,1.04-13.13-1.21-2.85,3.09-1.99-3.01-3.17,1.36-5.6-1.74-3.09-.34-3.47-.15-.08.04-1.73.04-1.81,0-.24-.11.4-.72-.15-.75l-3.92.75c1.83-1.55.36-1.37-1.96-.45,4.16-4.34.85-1.22-1.66-1.06-1.06.07.13-.64-.3-.91-.61-.37-8.99,2.32-14.03.75,4.09-.58,8.43-.36,12.22-2.26-4.99,1.18-10.11,1.09-15.16,1.89l4.07-1.06c-4.18-1.13-3.97-.96.15-.6-.22-.63-.99-2.05-1.06-2.57-.21-1.58.69,1.65,1.89,2.79,2.89.41,5.2.18,7.92-.83-.39-.22-4.27.73-4.07.3,4.15-1.09,8.38-1.42,12.6-2.19-4.87-4,.72.73-.15-1.51,1.35,1.4,1.12.29,1.21.3.45.06,1.87,1.28,1.96,1.21.2-.15-.05-.75.15-.91.04-.03.7.6.75.6.11,0,.85-.76.91-.75.44.06-.35,1.79,1.81-.75,3.09-1.07,2.28-.27,2.41-.3.89-.18,2.27-2.25,1.66-3.32.12-.03.57,2.12,1.43.08.86-2.04,1.46-14.6-.83-16.82-5.35-.11-7.65-1.41-11.77-4.53l-2.87,1.51c.8-1.38,3.35-1.71-.23-1.28,4.34-1.67,1.44-1.47-1.13-.23-.03,1.35-1.06,4.78-.6,1.21l-2.11,2.26c-.2-1.25,2.55-2.79,1.81-3.17-.4-.2-7.49,3.29-3.09.83-2.34.26-7.98,2.31-2.11-.08.36-.15,3.43-1.47,3.47-1.28.02.1-1.84.91.53.38.49-.11,4.6-1.6,4.6-1.89,0-.6-1.12-.91-2.64.08,2-1.48.48-1.56-1.06-1.06-.49.16-.97,1.01-1.21.91-.4-.18,1.09-.96-.15-.91-1.34.06-2.71,2.55-4,3.17-.18-.51,1.16-.9.23-.91-1.48-.02-2.97.64-4.38,1.06,1.59-1.23,4.32-1.16.3-1.21-1.61-.75-.43-.29.38-.3,2.27-.04,1.69-.45,2.64-.75,2.15-.69,5.77-1.49,1.06-1.51-1.07.61-1.96,2.27-2.49,1.81.71-.42,1.06-1.2,1.66-1.74l-2.64-.53c3.45-.17-1.95-1.65-1.89-1.89l2.19.53c-1.81-3.57.28.06.6.15.22.06,1.55-.42,1.58-.68.01-.07-.63-.58-.75-1.28,1.51,2.33,4.84.43,0-.75-2.65-.65,2.55.32.53-.75-1.26-.67-5.1-1.54-6.71-1.74l3.77.15c-1.09-1.84-1.38-.53-1.74-.53-.24,0-1.85-1.51,0-.3.79-.7,4.52-.9,1.58-1.13,2.51-2.01-2.15-2.18-2.11-2.41l2.19.23c-1.93-2.29-.36-1.04.6.15.17-.05-.44-1.31.23-1.21-.31,1.1.7,2.25,1.96,1.89-.55-.76-1.27-1.28-1.96-1.89-.5-.44-1.17-.66-1.51-1.28l.08-.23c2.61,2.05,1.88,1.67.91-.75-1.67.99-.2-.29-.23-.38-.07-.25-3.59-.73-.3-.6-1.99-2.14.23.04.38.08.48.12,1.41-.26,1.96-.3.18-.19-1.02-.68-.83-1.51.91,1.82,2.36,1.79,4.22,1.28,0-.22-2.09-.66-3.92-1.89-1.18-.79-2.28-2.09-3.47-2.94.53,0,1.23.67,2.11,1.13.21.11.14.15.15.15.02,0,.08.34.38.3.73-.28-1.05-1.27-.6-2.57.9,3.92,5.19,3.86,1.28.68.21,0,1.3.48,1.36.53.42.38,2.66,6.1,2.04.6.81,1.07-.05,2.51,1.89,1.74-3.03-3.2,2.6,1.7.08-1.43l-.53-.08c.98.18.22-1.51-.08-1.74-.34-.26-2.24-.18-3.39-1.66.6.12.73.52,1.28.45-.82-2.68.85,1.61,1.74.38.16-.23-1.42-2.09-1.06-2.57-1.78-1.11-3.87-3.92-3.09-3.7,4.63,5.79,3.29,2.41-.08-1.43l1.13,1.13c-.85-3.31.63,1.11,1.06.91l-.3-1.81c1.72,3.01,3.42,2.27.38-.53,1.99,1.09.51.48.68-.68.24.17.21.3.23.3.91,1.53,1.53,4.97,3.32,4.6l-1.74-2.79c.41.48.67.9,1.13,1.36.02.02-.08.25.23.45l.08-.3c.21-3.98.04.88,1.28,1.81-.27-3.91.3-2.59.38.23.96.93,3.38,2.71,1.81,0-.22-.38-1.76-1.19-.53-.83.83-.68-2.64-4.23-4.6-4.68-1.55-2.82-.23-.53.08-.3.11.08,1.93.61,2.41,1.36.43-.21-2.45-5.92.91.45l-.15-2.72c.74,1.44.27,3.44,1.21,4.07l.08-4.15c-3.99-2.24-4.87-6.43-.23-1.13.15-1.46-.53-1.82-1.13-2.94,2.95,2.76,2.7,2.24.3-.6-1.44-3.56-.06.46,3.24,2.94.44-.06,0-1.94.98-2.26-1.02,1.6-.33,2.9,1.13,3.92l-.68-3.92-.15-.23.3-.08c.78,2.28.59,4.83,1.89,4.38.29-.1.53-3.64-1.89-4.38-.08-.25-.39-.36-.45-.53-1.15-2.97.12-.39.3-.15,1.58,2.08,2.49,1.13,1.28-1.13,1.38,1.91,1.79,5.43,1.36.3.24,1.29,1.53,4.74.45,2.72-.38.16,1.89,3.25,1.74,1.74-.04-.38-2.43-3.55.23-.38,1.42-1.48-2.91-6-2.94-6.71,0-.04.44-.26.45-.6.71,2.99,1.95,2.22-.6-1.51,2.38,2.89.66,1.48.91-.75.15,1.8,1.68,4.73,1.36,1.06h.3c-.41,2.1.58,2.45,1.13,4l.53-1.43c-.42,8.28.77.5.15-2.72.4,1.69.54,3.16.91,1.06.35-2.01-.86-6.88.45-1.21.07.57-.19,1.01-.15,1.58.28,3.93,1.13,2.57.3-.3.32-.18.21.2.45.08l.08-2.64c.22,0,.05,3.66.83,4l.3-1.96c.23,5.3.6.41,1.36-1.36-1-1.5.09-.52.68.53-.49-3.53.21-.04,1.06,1.36,1.84-1.1.01-2.6.08-3.85.08-1.63.28.52.3.6.19.59.85,1.12.91,1.81.02.26-.59,2.06-.08,2.04,1.22-1.83,1.01-2.62.98-4.75h.3c-.17,1.59.02,4.36.91,1.36.25-.84.15-3.17.3-1.13Z"/>
          <g>
            <path class="cls-31" d="M60.05,49.4l-.15.75c0-.09.04-.28-.08-.3-.22-.04-3.02.22-4.53-.15-2.38-.59.25-.67,2.72-1.36.54.27,1.61.91,2.04,1.06Z"/>
            <path class="cls-31" d="M8.75,42.16c-.04-.23.03-.51,0-.75,4.84,1.18,1.51,3.09,0,.75Z"/>
            <path class="cls-31" d="M41.42,37.48c.13-.03.45-.04.53.08.34,4.52,1.86,3.66-1.28,7.02l-.45-2.87c-.46,4.95.2,4.15-4.68,5.13-.47-.24,3.02-6.94,3.24-7.62l.38-.38c.71.69,2.01-1.31,2.26-1.36Z"/>
            <path class="cls-31" d="M22.78,37.63s.08-.25-.23-.45c-.26.29.23.43.23.45,0,.15.05.52-.08.6-2.34-1.52.49-2.17.38-2.64-1.61-.29,1.79-1.97,2.26-1.51,2.34,4.71,3.79,3.76,3.55,10.34-1.93-1.46-3.34-4.42-3.62-4.38-.13.02.11,1.22-1.89-.98.25-3.59.1-1.09-.23-.98-.03.01-.29-.37-.38-.45Z"/>
            <path class="cls-31" d="M24.82,46.68c.23-.02,3.72,1.16,4.53,1.21.67,1.67,1.24,2.97,2.49,4.3-3.35.04-7.35-1.29-9.2-4.22.02-.16,2.06-1.27,2.19-1.28Z"/>
            <path class="cls-31" d="M34.93,14.7c.55-.04,1.11.03,1.66,0,.65.46-1.92,9.56-2.41,9.51-.41-1.07-1.85-2.34-1.89-3.39,1.19-3.96-.07-5.93,2.64-6.11Z"/>
            <path class="cls-31" d="M37.34,25.41c.19-.07,1.01-.05,1.13.23.91,2.06-1.93,7.48-3.39,9.28-.12-.16-.51-.45-.53-.53-.06-.28.67-5.46.75-5.73.06-.18,1.86-3.18,2.04-3.24Z"/>
            <path class="cls-31" d="M60.13,28.88c1.5-.15,1.03,2.13,1.13,3.09-3.65,1.94-1.95.98-1.51.15.5-.94-.77.5-1.74,1.13v-.91l-1.36,1.51c1-3.7-.74,2.34-.6-.91-3.51,4.82-.41-1.58.38-2.34.15-.14,3.49-1.71,3.7-1.74Z"/>
            <path class="cls-31" d="M51.98,33.71c-.53,1.65-.76,3.33-.83,5.05l-4.75,2.04c-.13-3.11,1.08-2.67,2.72-4.22.98-.93,1.89-1.93,2.87-2.87Z"/>
            <path class="cls-31" d="M14.71,34.61c1-.17,5.53.73,5.21,2.19-.28,1.23-7.08,2.76-5.21-2.19Z"/>
            <path class="cls-31" d="M16.67,38.99c1.46-.11,3.96,1.53,4.6,2.94-.01.13-.83.48-.98.53-3.26.94-.88-.87-.83-1.13.39-1.9-1.09,1.02-1.43,1.13-2.72.9-2.47-1.18-2.19-3.09.07-.15.78-.37.83-.38Z"/>
            <path class="cls-31" d="M40.81,46.38c.14-.02.62-.04.68.08l-5.51,5.36-.38-3.7c.08-.27,4.72-1.67,5.21-1.74Z"/>
            <path class="cls-31" d="M9.43,32.8c3.74.93,4.91.86,4.45,4.15-.1.17-3.56-1.14-3.7-1.28-.42-.42-.32-2.22-.75-2.87Z"/>
            <path class="cls-31" d="M13.81,43.06c3.71-.14,2.8,1.14.3,2.57-4.5-.26-5.63-2.36-.3-2.57Z"/>
            <path class="cls-31" d="M7.77,36.12c1.7.1,3.44.29,4.9,1.28-3.3,1.73-3.03,4.48-4.9-1.28Z"/>
            <path class="cls-31" d="M16.52,43.21c1.37.32,4.34.02,4.53.15.06.04.25,1.37.23,1.43-.14.34-2.63.29-3.09.38l-1.66-1.96Z"/>
            <path class="cls-28" d="M22.78,37.63s-.49-.16-.23-.45c.31.21.21.43.23.45Z"/>
            <g>
              <path class="cls-31" d="M38.17,1.42c.32.92.13,2.22.15,2.34.06.35.56.83.6,1.06.49,2.74-1.54,1.68-.91-2.26-.98-3.4-.03.79-.45,2.26l-.45-1.21c-.45,1.7,1.82,4.65-.75,2.72,2.2,1.91,1.46,3.74.83,6.41-1.11-1.91-.04-6.32-1.06-2.26-1.56-3.22.37-4.78.38-5.05.05-1.44-1,1.6-.91-.3.04-.77,1.22-2.22,1.21-4.3.25.05.4-.04.6-.15.15.06.74.7.75.75Z"/>
              <path class="cls-31" d="M9.05,22.99c1.16,1.48,3.06,1.4,3.39,1.66.29.23,1.06,1.91.08,1.74l.53.08c2.53,3.13-3.1-1.77-.08,1.43-1.94.77-1.07-.67-1.89-1.74.62,5.49-1.62-.22-2.04-.6v-.15c-.16-.57-.44-1.88-.6-2.26.25-.14.28-.22.6-.15Z"/>
              <path class="cls-31" d="M63.52,46.38c-.02.07.02.17-.15.15-.21-.02-2.62-.11-1.74.45.53.34,1.82.05,2.49.15v.45c-1.47-.2-2.51.99-5.51-2.41,2,3.11-1.71-.57-2.64-1.28.43-.56,6.81,1.67,7.54,2.49Z"/>
              <path class="cls-31" d="M11.77,15.45c1.16.23,1.72,2.87,1.96,3.17-.46-.46-.72-.88-1.13-1.36l1.74,2.79c-1.79.36-2.41-3.08-3.32-4.6.25,0,.5-.01.75,0Z"/>
              <path class="cls-31" d="M7.54,28.88s.34-.25.3-.6c1.83,1.22,3.92,1.67,3.92,1.89-1.86.51-3.32.54-4.22-1.28Z"/>
              <path class="cls-31" d="M20.52,10.02l.68,3.92c-1.46-1.02-2.15-2.32-1.13-3.92.11-.04.31.02.45,0Z"/>
              <path class="cls-31" d="M41.79,2.17c-.18.85-.72,1.58-.6,2.49l-1.58,2.04c-.59-2.41.8-2.47,1.74-4.22.03-.03-.16-.4.45-.3Z"/>
              <path class="cls-31" d="M6.79,48.04c.56-.22.61-.1,1.21-.45.53.46,1.42-1.2,2.49-1.81,4.72.02,1.09.81-1.06,1.51-.95.31-.37.71-2.64.75Z"/>
              <path class="cls-31" d="M28.06,5.04c.21,0,.07-.17.3-.3.83,2.87-.02,4.23-.3.3Z"/>
              <path class="cls-31" d="M43.61,6.1l-.15,1.58c-1.11-.4-.3-1.84,0-2.64.28,0,.1.53.15,1.06Z"/>
              <path class="cls-31" d="M57.49,11.53l-.83,3.02.53-3.02c.2-.08.28-.26.3,0Z"/>
              <path class="cls-31" d="M51.45,26.47c-1.73-2.88,1.17,3.06,1.21,3.39.27,2.29-2.06,4.38-1.74,2.49.19,2.07-2.41,3.12-3.77,4.53l-.23-.23.91-5.58c2.93-2.75,4.17-1.08,4.38-1.51-.68-.31-.78-.14-1.36-.75-.8-.85-1.96-3.72-.15.3-2.64-.86-1.85-1.01.23-4.6.9,1.32,2.28,2.58,2.04,4.3-.3.54-1.09-2.86-1.43-2.79-.13.08-.07.27-.08.45Z"/>
              <path class="cls-31" d="M41.57,26.31c1.09,4.69-2.28,9.12-4.07,13.28l-1.74-2.94c2.35-3.2,4.29-6.67,5.81-10.34Z"/>
              <path class="cls-31" d="M48.28,21.34s.49-.4.23-.75c-.16.26-.24.44-.23.75-.91,1.97-1.72,3.14-.83,0-.1-.04-.82,1.53-1.21,1.66-3.09,1.03.41-1.69.98-2.34l-.23-.23c-3.86,1.67-1.76.8-.98-.6.94-.75,2.12-2.97,3.7-1.06l.53-.83c-1.98-.13-.68-.23,1.28-1.13.79,3.63.62,3.74-2.26,5.73-.77-.9,1.74-3.34-.08-2.04-.08-4.66.04,1.61-.83,1.28-.13-.08-.07-.27-.08-.45Z"/>
              <path class="cls-31" d="M56.66,24.96c2.01.67,5.89,1.66,7.54.6.21.09-1.44,2.62-1.36.75-.39,2.98-3.29,2.85-.98.38l-.23-.23c-2.13,2.1-3.42,3.53-1.43.08l-1.43,1.89c-.35-.22-.41-4.89-.6-.75l-1.06-1.81c.28,2.23,2.24,3.03,0,3.62-.76-3.37.57.56-1.66.91-.11-1.7-.14-3.96,1.21-5.43Z"/>
              <path class="cls-31" d="M25.12,20.73c.95-.74,3.61,3.16,4.15,3.85-.17,2.28,1.63,4.91,2.11,6.79.7,2.73-2.42-1.8-2.11-4.83h-.3c.58,4.11-.56,1.2-3.17-2.11-.16-.82.29-2.44.15-2.72-.08-.17-1.53-.44-.83-.98Z"/>
              <path class="cls-31" d="M17.43,14.09c.64.16,2.34.04,2.72.15.54.16,1.49,2.13,1.89,2.64-2.3.09-1.93-.69-2.49-2.49v2.11c-.75-.52-.36-3.03-.91-1.66-2.14-1.9,1.78,2.08-.53,1.43l1.96,1.96c.41,3.28,1.13,4.19-.98,1.13,1.61,3.49,1.89,2.95-1.43.83l-.23-6.11Z"/>
              <path class="cls-31" d="M48.96,23.75l-.98,2.34-.3-.6-.6,4.22c-5.28,2.2-1.19-.77-.83-3.24-.64.52-2.45,3.99-2.64,4.15-1.35,1.1,1.62-3.07,1.66-3.92.05-1.1-.82,1.65-2.04,3.09-.18-3.63,3.26-4.37,5.73-6.04Z"/>
              <path class="cls-31" d="M17.73,25.56c.08-.02,1.33.38,1.51.45,1.43.57,4.27,4.18,3.47,4.68-6.01-7-.44-.18-.68.23-2.48-.51-3.35-.62-3.55-3.24-.26.81.09,1.51.08,1.58-.13.91-2.36-3.28-.83-3.7Z"/>
              <path class="cls-31" d="M26.78,33.41c.31-.04,3.87,3.01,4,3.24.58,1.07.14,4.92-.68,6.11-.38-1.18-.27-2.88-.68-4-.43-1.18-4.1-5.15-2.64-5.36Z"/>
              <path class="cls-31" d="M60.58,32.8l.23.08c-1.94,2.5-4.46,4.55-7.02,6.41-.32-2.17-.15-2.36,1.89-2.94-4.77.75,1.94-2,4.9-3.55Z"/>
              <path class="cls-31" d="M54.7,19.37l.23.08c-.82,2.53-.09,5.26-1.13,7.77-.63-2.08-.57-5.17-.75-.91-.41-2.06-.19-.72-.45-.6-.11.04-1.29-1.75-1.28-1.89.02-.28,2.98-3.87,3.39-4.45Z"/>
              <path class="cls-31" d="M51.07,12.89c.15,0,.3-.05.38.08l.15,3.32c-3.21,1.48-1.53.64-1.51.15.04-.75-.53.5-1.28.83-3.24,1.44-1.5-1.1-.38-2.34.32-.35,2.37-2.05,2.64-2.04Z"/>
              <path class="cls-31" d="M26.78,29.78l4.45,3.24.08,2.79c-1.21-2.62-.65-.81-1.21-.75-.8.08-3.76-4.06-3.32-5.28Z"/>
              <path class="cls-31" d="M14.03,18.77c.17-.32-1.41-3.01-1.66-3.47,1.97.44,5.44,4,4.6,4.68-1.23-.36.31.45.53.83,1.57,2.71-.85.93-1.81,0-.08-2.82-.65-4.14-.38-.23-1.24-.93-1.07-5.79-1.28-1.81Z"/>
              <path class="cls-31" d="M34.63,8.96c.43.3-.51,1.3.3.6.74.6,1.94,4.09,1.74,4.45-4.38,1.04-5-.55-.75-2.26l-2.72.75c.31-.29.41-1.13.6-1.36.51-.59,2.84-.97.3-.6l.53-1.58Z"/>
              <path class="cls-31" d="M40.06,11.53c1.09,1.85,3.14,3.61.91,5.43l-.23-.08c1.05-3.58.01-.87-.53.83l.08-1.89c-1.53,3.05-.36-.12-.3-.75.2-2.4-.11-1.49-.68,1.13-.54-1.61.27-3.14.75-4.68Z"/>
              <path class="cls-31" d="M37.8,19.52c.2,0,.68,1.07.68,1.13-.02.66-.84.26-.6.6.13.19.66-.04.91.15.57.46,1.85,5.06-.15,3.17.15-4.2-.03.14-.15.3-1.02,1.43-.5-1.99-.38-2.34-1.87,4.46-.46-.53-.45-2.41l-.68,3.39c-.22-.19-.62-2.15-.6-2.26.02-.11,1.32-1.74,1.43-1.74Z"/>
              <path class="cls-31" d="M18.18,21.18c3.19,1.49,4.34,3.66,4.68,7.09-.46-.51-5.3-6.76-4.68-7.09Z"/>
              <path class="cls-31" d="M58.77,19.22c1.69-.25.36.92-.53,2.64-.77-4.35.44,1.75-1.36,1.21.92-5.52.23-1.53-.83.68-.52-2.53-1.37-.84-.98-2.94,1.24-.28,3.3-1.53,3.7-1.58Z"/>
              <path class="cls-31" d="M49.72,40.35c.22,0,.41-.07.38.23-1.86,2.9-2.83,2.58-5.51,4.15l-.23-.23c.59-.53,1.15-2.48,1.58-2.79.16-.12,3.57-1.36,3.77-1.36Z"/>
              <path class="cls-31" d="M33.72,36.88c1.42,3.15,2.24,3.17.15,5.88-1.84-2.93-1.52-2.82-.15-5.88Z"/>
              <path class="cls-31" d="M13.05,30.84c1.99.46,4.58.88,4.9,3.24-3.27.38-3.5-.58-4.9-3.24Z"/>
              <path class="cls-31" d="M31.61,3.08c1.77,1.97,1.19,3.07.6,5.43-.22-.04-.18-2.81-.23-3.09-.4-2.28.06,5.75-.98,5.36-.74-.68.21-7.68.6-7.7Z"/>
              <path class="cls-31" d="M45.19,31.29c.4-.01.75-.08.68.23-1.65,3.2-1.53,5.11-1.81.6-.5,1.17-.18,6.43-1.28,6.11-.59-.17.76-5.29.38-6.41.67-.12,1.89-.52,2.04-.53Z"/>
              <path class="cls-31" d="M45.49,14.09c.84-.1.09,1.71-.08,2.79-.62.55.08-3.17-.83-.83-.27-2.19-.69-.54-.08,2.19l-1.74,2.34c.42-2.33-.16-6.46,2.72-6.49Z"/>
              <path class="cls-31" d="M31.91,24.5c1.17,3.14,1.99,4.69,1.21,8.15-1.08-3.45-2.09-4.24-1.21-8.15Z"/>
              <path class="cls-31" d="M20.9,19.68c2.81,1.98,3,2.33,2.11,5.73-.32,0-.15-2.3-.45-.75-.88-.22-1.95-4.76-1.66-4.98Z"/>
              <path class="cls-31" d="M23.16,40.2c1.16.91,2.27,2.83,3.09,3.7,1.39,1.45,3.16,1.94,2.79,2.79-3.66.16-4.23-3.98-5.88-6.49Z"/>
              <path class="cls-31" d="M18.94,30.99l3.24.83c-.06,1.39.35,3.95-.91,3.32-.17-1.53-2.14-5.29-.91-1.81-.12.59-1.5-.42-1.43-2.34Z"/>
              <path class="cls-31" d="M12.45,38.08c.16.02,1.73,2.48,1.74,2.64,0,.3-.99,1.13-1.13,1.13-.13,0-2.15-1.16-2.19-1.28-.1-.35.64-2.59,1.58-2.49Z"/>
              <path class="cls-31" d="M60.73,34.46c2.31.63,3.36.17,2.26,1.06-.32.26-.84.6-1.06.15.24,1.18-2.62,1.84-3.85,1.28l2.64-2.49Z"/>
              <path class="cls-31" d="M13.2,28.28c.84-.05,4.87,1.4,4.75,1.89-2.57.98-8.55-1.68-4.75-1.89Z"/>
              <path class="cls-31" d="M28.74,17.26c.7,1.07,2.62,4.37,1.89,5.05.06.31,1.61-.45.53,4.6l-2.41-9.66Z"/>
              <path class="cls-31" d="M46.4,34.76c.22-.04.42-.03.38.23-.76,1.64.11,3.97-2.19,3.85-.18-.05.07-2.02-.23-2.64.31-.19,1.91-1.41,2.04-1.43Z"/>
              <path class="cls-31" d="M25.57,25.11c3.78,4.91,6.44,7.83.23,2.79l-.23-2.79Z"/>
              <path class="cls-31" d="M28.29,9.11c-.53.63.47,4.1-.3,2.11-.31.84.71,1.14.83,2.04.25,1.85-.79,4.02-.3-.3-.53.43-.25,1.64-.53,2.34-1.21-2.2-1.52-4.31.3-6.19Z"/>
              <path class="cls-31" d="M62.24,32.35l3.55.08c-.67,1.11-4,3.92-1.43.83-1.01.67-1.57,1.41-2.79.68,3.79-2.7-3.04,1.49.68-1.58Z"/>
              <path class="cls-31" d="M23.01,42.16c.52.05,1.68,3.05,1.51,3.17-2.97.11-2.84-1.48-2.57-1.66.17-.11,2.6.94-.68-.68-.01-.14,1.64-.84,1.74-.83Z"/>
              <path class="cls-31" d="M24.97,15.75c1.98,1.1,3.36.85,3.32,3.62-.93-.55-2.15-2.8-1.13-.68-.77,1.23-1.12-4.13-1.28-.38-1.17-.83-1.11-1.06-.91-2.57Z"/>
              <path class="cls-31" d="M31.61,41.86c.67,1.69,1.3,2.21.6,4.07-2.78-1.43-2.16-1.16-.6-4.07Z"/>
              <path class="cls-31" d="M24.82,13.79c.35.02,4.87,4.36.3,1.81-1.34-2.71.17.09-1.43-.83,1.99,1.91-.17,3.34-.3-.45.07-.19,1.36-.53,1.43-.53Z"/>
              <path class="cls-31" d="M35.99,21.94c.43,2.36.99,3.18-.6,5.13-1.26-1.66.1-3.38.6-5.13Z"/>
              <path class="cls-31" d="M20.67,9.72c2.41.74,2.17,4.27,1.89,4.38-1.3.45-1.11-2.1-1.89-4.38Z"/>
              <path class="cls-31" d="M44.44,23.15c2.45.33-.12.56-.98,1.28.36.2,2.37-.9,1.96-.15-.24.45-1.35.08-1.36.3-.02.36,1.96-.83-1.13,2.34-.71-2.3-.12-2.52,1.51-3.77Z"/>
              <path class="cls-31" d="M24.07,23.15c1.04,1.35.95,3.03.91,4.68-2.18-.79-1.28-2.6-.91-4.68Z"/>
              <path class="cls-31" d="M21.2,17.26c1.36-.19,1.58,1.15,1.66,2.26-2.59-3.08.07.48-.45.75-1.31-.05-2.97-2.77-1.21-3.02Z"/>
              <path class="cls-31" d="M9.28,30.84c2.46-.61,3.27,2.91,1.51,1.81-.52-.33-1.02-2.03-.6-.15-3.03.34-1.52-1.51-.91-1.66Z"/>
              <path class="cls-31" d="M44.28,39.14c.13-.05,1.36-.02,1.43.08.45.54-2.33,6.39-1.21,1.96-1.4,1.1-.62-1.87-.23-2.04Z"/>
              <path class="cls-31" d="M47.15,30.99l-.23,3.09-2.04,1.28c.18-.63,1.57-4.84,2.26-4.38Z"/>
              <path class="cls-31" d="M51.83,41.55c.56-.07,1.5.88,1.89,1.28l-1.66-.15c2.48,1.19.49.95-2.72.45.79-.42,1.32-1.21,2.19-.83-.26-.35-.15-.7.3-.75Z"/>
              <path class="cls-31" d="M14.71,25.56c.29-.23,2.49,2.92,2.64,3.24l-.23.23c-.99-.8-3.03-.28-2.64-2.04,1.54.87-.41-.92.23-1.43Z"/>
              <path class="cls-15" d="M29.2,6.4c1.47,2.26.62,5.02.6,7.54-.94-2.45-.4-5.01-.6-7.54Z"/>
              <path class="cls-31" d="M65.26,26.31c-.44,2.11-.43,2.7-2.26,3.92-.23-2.71.53-2.52,2.26-3.92Z"/>
              <path class="cls-31" d="M32.97,15.6l-1.06,4.98c-1.44-2.88-.63-3.01,1.06-4.98Z"/>
              <path class="cls-31" d="M38.85,9.57c1.11.52-.1,2.87-.45,5.28-1.08-1.68-.01-3.58.45-5.28Z"/>
              <path class="cls-31" d="M42.78,42.61c1.03,1.17.62,2.01-.75,2.57-2.94,1.18-.71-.92.75-2.57Z"/>
              <path class="cls-31" d="M38.85,17.11c.36.02.05.8.08.83.34.49.79.33.91.6.28.69.14,3.11-.91,1.81-1.06-1.32-.53-3.27-.08-3.24Z"/>
              <path class="cls-31" d="M33.87,7.3c1.3.11-.52,3.5-1.06,3.92-.68.02.32-3.98,1.06-3.92Z"/>
              <path class="cls-31" d="M54.54,44.12c.86-.23,1.85.41,2.26,1.21q-2.15.26-4.3.53c.31-.24,1.91-1.7,2.04-1.74Z"/>
              <path class="cls-31" d="M30.86,47.59c1.84,1.44,2.29,1.58,1.96,4.22-.32-.35-2.38-4.05-1.96-4.22Z"/>
              <path class="cls-31" d="M56.05,47.44c.44,0,1.83.65,1.21.91-.6-.13-4.49,1.27-4.15.08.04-.15,2.79-.98,2.94-.98Z"/>
              <path class="cls-31" d="M45.19,7.45c.55,1.51.58,2.68-.45,3.92-.4-1.88-1.12-2.45.45-3.92Z"/>
              <path class="cls-31" d="M49.41,23.75c1.6-.42-1.09,4.3-1.36,4.83-.26-.68.97-4.73,1.36-4.83Z"/>
              <path class="cls-31" d="M42.17,32.35c.5-.02.15,4.23-.3,4.22-1.26-1.87-.57-2.39.3-4.22Z"/>
              <path class="cls-31" d="M50.32,9.26c.21.02.56.87.53,1.13-.03.24-2.86,4.7-1.96,1.51.09-.32,1.23-2.66,1.43-2.64Z"/>
              <path class="cls-31" d="M41.12,5.34v4.38c-1.46-2.27-1.79-2.16,0-4.38Z"/>
              <path class="cls-15" d="M52.73,15c.92,1.65,1.63,2.84-.15,4.07l.15-4.07Z"/>
              <path class="cls-31" d="M19.99,38.54c1.69-.02,2.86,2.7,2.72,2.87-.76.9-1.4-2.64-4-2.64,1.02-.04,1.22-.23,1.28-.23Z"/>
              <path class="cls-31" d="M38.85,25.41c1.38-1.04.75,4.05-.15,4.38.16-.65-.04-4.23.15-4.38Z"/>
              <path class="cls-31" d="M12.3,22.69c6.23,1.41,1.07,2.11.23,1.13-.06-.06-.39-.96-.23-1.13Z"/>
              <path class="cls-31" d="M6.41,37.78c1.5-.26,1.66.8,2.34,1.74-.87.79-3.6-1.52-2.34-1.74Z"/>
              <path class="cls-31" d="M7.77,32.65c1.62-.62,1.88,1.59,1.66,2.72-.3-.26-2.41-2.43-1.66-2.72Z"/>
              <path class="cls-31" d="M40.36,10.62c.91-.65,3.01,2.85,2.41,3.02-1.28.37-1.84-5.42-1.58-.83-.08-.42-1.27-1.87-.83-2.19Z"/>
              <path class="cls-31" d="M59.52,22.99c1.4-.07-.62,1.77-.75,1.81-.37.1-1.1-.34-1.58-.38-.16-.23,1.8-1.41,2.34-1.43Z"/>
              <path class="cls-31" d="M46.02,19.83c-3.18,2.54-4.88,4.12-1.13-.3,1.41-.22,1.87-1.03,1.13.3Z"/>
              <path class="cls-31" d="M58.32,17.71c0,1.21-1.32,2.15-2.49,2.19,2.83-3.02-1.61,1.28-.08-1.28l2.57-.91Z"/>
              <path class="cls-31" d="M56.36,46.53c1.48.09,2.84.41,4.15,1.13-1.84.66-2.72.1-4.15-1.13Z"/>
              <path class="cls-31" d="M12,30.69c.47-.16,1.67,2.38,1.81,2.87-1.85.07-2.32-2.7-1.81-2.87Z"/>
              <path class="cls-31" d="M40.81,35.37c.29-.07.68,1.03.53,1.58-.08.3-3.72,4.25-.53-1.58Z"/>
              <path class="cls-31" d="M54.7,14.09l.38.08-.98,2.94c-.72-2.53-1.43-2.28.6-3.02Z"/>
              <path class="cls-31" d="M51.07,10.62c1.04,2.15-.16,1.48-2.26,3.47l2.26-3.47Z"/>
              <path class="cls-31" d="M17.13,11.98c.67-.55,4.13,2.69,1.51,1.66-.19-.08-1.37-2.4-.38-.23-.85.91-1.49-1.14-1.13-1.43Z"/>
              <path class="cls-31" d="M62.69,28.13c.13.1-.15,1.97-.23,2.19-.93,2.6-1.8-1.18.23-2.19Z"/>
              <path class="cls-31" d="M42.47,7.45c.18-.07,1.71.99-.45,3.17-.43,0,.3-3.11.45-3.17Z"/>
              <path class="cls-31" d="M25.12,6.55c1.09.77,1.08,3.26.75,3.32-.81-1.33-1.28-1.67-.75-3.32Z"/>
              <path class="cls-31" d="M56.66,12.43c-.42,1.76.22,2.26-1.36,3.47,0-1.33.19-2.67,1.36-3.47Z"/>
              <path class="cls-31" d="M46.25,21.03l-1.21,1.21c-3.84,2.81-2.31-.22,1.21-1.21Z"/>
              <path class="cls-31" d="M60.73,24.5c.09-.02,1.83,0,1.89.08.7.89-2.71,1.24-3.32.6.63-.13,1.32-.66,1.43-.68Z"/>
              <path class="cls-15" d="M55,27.52c.13.08-.15,2.96-.23,3.09-.85,1.53-1.34-1.35.23-3.09Z"/>
              <path class="cls-31" d="M53.19,37.48c.13,1.7.16,2.22-1.51,2.72-.6-.34.82-1.65,1.51-2.72Z"/>
              <path class="cls-31" d="M27.54,5.79c.62,1.42,1.33,2.54,0,3.62v-3.62Z"/>
              <path class="cls-31" d="M41.72,19.68c.37,0-.17,3.39-.6,4.07-.09-1.38-.37-2.94.6-4.07Z"/>
              <path class="cls-31" d="M51.53,46.68c1.13-.1,2.22.2,3.24.68-2.45,1.35-3.95-.48-1.06,0-.46-.49-2.01.02-2.19-.68Z"/>
              <path class="cls-15" d="M31.76,33.56l.98,1.74c-.83,4.16-.91-.02-.98-1.74Z"/>
              <path class="cls-31" d="M23.16,11.38c.94.96,2.47,2.51.08,2.04l-.08-2.04Z"/>
              <path class="cls-31" d="M17.58,24.35c.36,0,.45.05.75.15,2.52.83-1.59.75-2.94.53.22-.23,2.07-.68,2.19-.68Z"/>
              <path class="cls-31" d="M15.47,39.14c.22.15.49,3.23-1.74.38.03-.1,1.66-.43,1.74-.38Z"/>
              <path class="cls-31" d="M23.16,31.75c1.77-.86.2,2.91-.23,2.19.09-.44-.21-1.97.23-2.19Z"/>
              <path class="cls-15" d="M20.6,45.78l3.39.23c-1.25.31-2.79,1.32-3.39-.23Z"/>
              <path class="cls-31" d="M11.69,46.99c.84-.05-.7,1.99-2.64.98.55-.24,2.42-.97,2.64-.98Z"/>
              <path class="cls-31" d="M7.09,33.86c.69.61,1.41,1.13,1.96,1.89-1.27.36-2.27-.78-1.96-1.89Z"/>
              <path class="cls-15" d="M52.73,32.95l.23,2.34c-1.52,4.26-.76-.55-.23-2.34Z"/>
              <path class="cls-31" d="M23.76,27.97c.06-.05,1.4.61,1.43.68,1.02,2.16-2.62.15-1.43-.68Z"/>
              <path class="cls-31" d="M50.92,46.83c.67.57,1.57,1.08,1.06,1.36-1.43-.58-4.24-.85-1.06-1.36Z"/>
              <path class="cls-31" d="M7.62,30.99c.18-.03.89-.04.98.08.07.09-.81,2.33-.83.68.23,1.99-2-.47-.15-.75Z"/>
              <path class="cls-15" d="M23.76,17.11c.11-.09.81.61.83.68.56,1.89-.87,3.34-.83-.68Z"/>
              <path class="cls-31" d="M9.43,43.97c1.12.02,1.24,2.42-1.28.53.23-.09,1.21-.53,1.28-.53Z"/>
              <path class="cls-31" d="M46.4,13.79c.96-.37.25,2.44-.45,2.72-.11-.08.15-2.6.45-2.72Z"/>
              <path class="cls-31" d="M25.73,31.14c2.37,1.69.56,2.5.23,1.89-.04-.08-.33-1.82-.23-1.89Z"/>
              <path class="cls-31" d="M10.49,17.86c.39.57,1.36.77,1.51.91,1.59,1.42-.9,1.59-1.51-.91Z"/>
              <path class="cls-31" d="M13.96,10.77c.36.27.87.48,1.21.75,2.9,2.34-.34,1.61-1.21-.75Z"/>
              <path class="cls-15" d="M29.05,15.15c.06.87,1.38,2.44,1.43,2.79.26,1.61-2.5-2.58-1.43-2.79Z"/>
              <path class="cls-31" d="M7.92,27.52c.43.07,1.5.21,1.66.3,1.06.61.8,2.17-1.66-.3Z"/>
              <path class="cls-15" d="M15.16,22.39c1.09.02,2.38,2.13-1.13.38.24-.04,1.07-.38,1.13-.38Z"/>
              <path class="cls-15" d="M37.8,14.55c.33.41.45,1.24.38,1.74-.39,2.77-1.14-.58-.38-1.74Z"/>
              <path class="cls-31" d="M16.22,30.84l1.81.15c1.16,2.23-.83.46-1.81-.15Z"/>
              <path class="cls-31" d="M41.42,16.81l.23.08-.98,2.64c-.35-1.2-.33-1.94.75-2.72Z"/>
              <path class="cls-31" d="M13.05,37.93c.11-.05,1.94.8,2.19.98-2.16.57-2.39-.88-2.19-.98Z"/>
              <path class="cls-31" d="M42.02,4.59c.18.11.38,1.22.38,1.28,0,1.92-1.49-.34-.38-1.28Z"/>
              <path class="cls-31" d="M67.22,30.09c.58-.07-1.26,2.4-2.04,1.58l2.04-1.58Z"/>
              <path class="cls-31" d="M55.3,17.41l.23.08c-2.72,3.45-3.82,3.34-.23-.08Z"/>
              <path class="cls-31" d="M30.4,11.53c.72,1.2.37,2.04,0,3.32v-3.32Z"/>
              <path class="cls-15" d="M29.05,13.34c1.92,4.41.72,4.47.08,1.28-.04-.22-.14-1.27-.08-1.28Z"/>
              <path class="cls-31" d="M27.39,21.18c.36.16,1.29.41,1.43.83.63,1.89-1.14.13-1.43-.83Z"/>
              <path class="cls-31" d="M14.26,41.4l.98.83c-.1.12-3.25.55-.98-.83Z"/>
              <path class="cls-15" d="M47.91,13.34c.83.02-.07.8-.75,2.11.08-.66-.18-2.14.75-2.11Z"/>
              <path class="cls-31" d="M39.61,7.76c1.6,2.18.69,2.85.23,1.89-.04-.09-.3-1.62-.23-1.89Z"/>
              <path class="cls-15" d="M25.57,13.64c1.21-.27,1.35.65,1.51,1.66l-1.51-1.66Z"/>
              <path class="cls-31" d="M41.57,6.7c1.06.32.22,1.64.15,2.57l-.15-2.57Z"/>
              <path class="cls-15" d="M21.95,14.24c.83-.23,1.32,1.02.91,1.36-.11.09-1.61-1.17-.91-1.36Z"/>
              <path class="cls-15" d="M55.3,31.29c.09,0,.19-.03.23.08-2.55,3.84-1.54,0-.23-.08Z"/>
              <path class="cls-31" d="M15.62,25.41c2.18-.24,1.18,1.18,1.06,1.21-.08.02-1.02-.98-1.06-1.21Z"/>
              <path class="cls-15" d="M56.05,45.63c.58,0,1.17-.1,1.58.38-1.25.33-5.18-.34-1.58-.38Z"/>
              <path class="cls-15" d="M31.46,13.79c.14-.06.52.32.53.38.14.66-1.36,3.14-.53-.38Z"/>
              <path class="cls-31" d="M13.05,24.96c1.02-.57,1.27,1.13.75,1.36-.21.09-.83-1.32-.75-1.36Z"/>
              <path class="cls-15" d="M25.73,28.88c.15,0,.78,1.88.6,1.96-1.15-.77-.92-1.96-.6-1.96Z"/>
              <path class="cls-15" d="M21.65,15.45c.97.41,1.3.9,1.21,1.96l-1.21-1.96Z"/>
              <path class="cls-15" d="M53.64,32.2c.12.09.09.65.08.83-.3,2.8-1.35.28-.08-.83Z"/>
              <path class="cls-38" d="M51.98,12.89c.22-.02.29,2.14.23,2.49-.23,1.37-.46-.25-.23-2.49Z"/>
              <path class="cls-31" d="M32.36,22.99c.02.37,1.16,1.92,1.13,2.04-.24,1.17-1.48-1.88-1.13-2.04Z"/>
              <path class="cls-31" d="M56.2,15.6c.12.16-.34,1.08-.38,1.13-.94,1.14-1.5.46.38-1.13Z"/>
              <path class="cls-31" d="M48.66,29.18c.28-.06.64-.05.83.23-2.47,1.63-1.42-.1-.83-.23Z"/>
              <path class="cls-15" d="M24.22,32.5c.16-.05,1.42.84-.45,1.21-.17-.08.39-1.19.45-1.21Z"/>
              <path class="cls-31" d="M10.79,41.1c2.7,1.25.86,1.46,0,.45-.21-.25-.33-.17,0-.45Z"/>
              <path class="cls-31" d="M24.22,20.43c.19.14.46.28.53.53.48,1.67-.72,1.55-.53-.53Z"/>
              <path class="cls-15" d="M55.15,23.3c.12.15.68.92.68.98-.01.15-1.19,1.65-.68-.98Z"/>
              <path class="cls-31" d="M16.52,44.72c.41-.08.58.32.83.53-2.26.82-1.18-.46-.83-.53Z"/>
              <path class="cls-31" d="M32.82,11.68c.78-.05-1.02,2.46-.83.83,0-.06.77-.83.83-.83Z"/>
              <path class="cls-15" d="M16.37,22.39c.21-.02,1.63.9,1.58.98-.32.52-1.61-.4-1.58-.98Z"/>
              <path class="cls-31" d="M32.52,14.24c.13-.05.98.45-.45,1.81-.09-.03.37-1.78.45-1.81Z"/>
              <path class="cls-31" d="M22.71,19.98c.61-.36,1.08,1.11.91,1.21-.32.18-1.18-1.05-.91-1.21Z"/>
              <path class="cls-31" d="M42.02,17.56c.43,1.34-.48,1.86-.6,1.81-.2-.09.53-1.61.6-1.81Z"/>
              <path class="cls-15" d="M46.4,18.02c2.04-.63-.8,1.61-.53.53,0-.04.49-.52.53-.53Z"/>
              <path class="cls-31" d="M19.54,45.93c.43-.05.89.54.83.68-.26.6-1.75-.57-.83-.68Z"/>
              <path class="cls-15" d="M40.51,24.5c.09,3.05-.8,1.72-.38.38.03-.08.28-.25.38-.38Z"/>
              <path class="cls-31" d="M25.12,18.32c.6-.34,1.2,1.38.6,1.36-.07,0-.67-1.32-.6-1.36Z"/>
              <path class="cls-31" d="M39.61,20.88c.54-.13.42,1.45.3,1.51-.12-.28-.87-1.37-.3-1.51Z"/>
              <path class="cls-38" d="M37.95,6.55l.75,1.96c-.46-.56-.96-1.17-.75-1.96Z"/>
              <path class="cls-15" d="M48.81,21.64c.06.17-.2,1.08-.23,1.13-.58.94-1.25.52.23-1.13Z"/>
              <path class="cls-31" d="M51.07,22.54c.16.58-.9,1.37-1.13.83-.1-.24.98-.67,1.13-.83Z"/>
              <path class="cls-31" d="M53.64,46.53l2.19.53c-.49.18-2.19-.16-2.19-.53Z"/>
              <path class="cls-31" d="M27.54,19.68c1.18.18,1.52,1.5.45.75-.12-.08-.46-.58-.45-.75Z"/>
              <path class="cls-31" d="M34.78,5.04c.23.14-.11,1.52-.3,1.51-.52-.52.23-1.55.3-1.51Z"/>
              <path class="cls-31" d="M42.93,10.02l-.45,1.51c-.56-.42.15-1.06.45-1.51Z"/>
              <path class="cls-15" d="M27.08,19.52c.06,0,.66.99.3,1.06-.96.19-.61-1.08-.3-1.06Z"/>
              <path class="cls-15" d="M10.49,39.59c.3.02.22.09.23.38.03,1.68-1.41-.45-.23-.38Z"/>
              <path class="cls-15" d="M20.14,34.16c.48-.34.79,1.15.6,1.21-.22-.37-.94-.97-.6-1.21Z"/>
              <path class="cls-31" d="M36.74,18.62c.64,0-.23,1.39-.3,1.36-.25-.11.1-1.36.3-1.36Z"/>
              <path class="cls-31" d="M23.61,29.48c1.25.5,1.02,1.09.45.91-.05-.02-.59-.74-.45-.91Z"/>
              <path class="cls-15" d="M43.08,11.08v1.51c-.58-.56-.35-.88,0-1.51Z"/>
              <path class="cls-38" d="M28.74,9.87c.01.49.39,1.83.23,2.19-.18.4-.49-2.19-.23-2.19Z"/>
              <path class="cls-31" d="M20.29,37.18c.08.01.87.99-.6.75-.07-.15.56-.76.6-.75Z"/>
              <path class="cls-15" d="M21.65,47.14c1.61-.21.32.82-.68.23.39-.03.64-.22.68-.23Z"/>
              <path class="cls-31" d="M35.23,6.55l-.15,1.51c-.42-.26-.04-1.11.15-1.51Z"/>
              <path class="cls-31" d="M7.17,35.97c.06,0,.52,1.11.3,1.21-.26.12-.77-1.2-.3-1.21Z"/>
              <path class="cls-31" d="M22.26,48.34c.23,0,1.94,2.2-.23.23.09-.07.19-.23.23-.23Z"/>
              <path class="cls-15" d="M45.94,23.75c1.54-.67.26.82-.15.6-.18-.09-.07-.51.15-.6Z"/>
              <path class="cls-31" d="M57.86,37.48c1.12-.02.06.65-.98.38.17-.09.93-.38.98-.38Z"/>
              <path class="cls-38" d="M38.25,8.66c.38-.1-.04,1.32-.15,1.51l.15-1.51Z"/>
              <path class="cls-31" d="M14.26,25.86l-.15,1.36c-.36-.43-.07-.91.15-1.36Z"/>
              <path class="cls-31" d="M24.37,6.4c.13-.1.37.35.38.38.26,1.7-.88.01-.38-.38Z"/>
              <path class="cls-31" d="M24.97,31.6c.15,0,.25-.04.38.08.41.36.36,1.91-.38-.08Z"/>
              <path class="cls-11" d="M42.17,22.54c.04,1.95-.75,2.26-.08.08l.08-.08Z"/>
              <path class="cls-31" d="M43.23,38.23c.54.36-.82,2.16-.38.38,0-.03.35-.39.38-.38Z"/>
              <path class="cls-15" d="M42.47,13.94c.07-.04.32-.02.38.08.68,1.19-1.07.26-.38-.08Z"/>
              <path class="cls-15" d="M31.61,10.92c.39.14-.72,2.1-.38.53.01-.05.34-.54.38-.53Z"/>
              <path class="cls-15" d="M33.57,6.25c.38.02.03,1.04-.15.91-.2-.15-.06-.91.15-.91Z"/>
              <path class="cls-31" d="M41.72,3.83c.37-.08.5.52.15.6-.37.08-.5-.52-.15-.6Z"/>
              <path class="cls-15" d="M54.85,25.86c.27.01.21,1.01-.15.75-.21-.15-.02-.76.15-.75Z"/>
              <path class="cls-31" d="M51.45,26.47c.14.23.54.58.38.91-.27-.24-.39-.54-.38-.91Z"/>
              <path class="cls-15" d="M26.48,19.07c.47-.35.23.76,0,.6-.12-.08-.12-.51,0-.6Z"/>
              <path class="cls-31" d="M18.18,33.1c.13-.04.35.14.38.23.21.61-.56.25-.38-.23Z"/>
              <path class="cls-38" d="M24.22,5.64c.14-.06.54.35.53.38-.21.37-.71-.29-.53-.38Z"/>
              <path class="cls-29" d="M18.33,22.99c.22-.11.62.18.53.38-.06.13-.75-.26-.53-.38Z"/>
              <path class="cls-31" d="M55.6,33.86c.22.04-.21.77-.3.75-.22-.04.21-.77.3-.75Z"/>
              <path class="cls-31" d="M15.01,40.95c.49-.16.47.52.3.6-.03.01-.34-.52-.3-.6Z"/>
              <path class="cls-15" d="M25.42,22.24c.12,0,.12.91,0,.91s-.12-.91,0-.91Z"/>
              <path class="cls-38" d="M40.36,23.45c.12,0,.12.75,0,.75s-.12-.75,0-.75Z"/>
              <path class="cls-24" d="M25.12,19.37s.3.25.23.38c-.21.34-.47-.27-.23-.38Z"/>
              <path class="cls-29" d="M35.23,4.44c.13.06.19.46-.15.45-.11,0,.12-.46.15-.45Z"/>
              <path class="cls-31" d="M14.03,18.77l-.08.3c-.31-.21-.21-.43-.23-.45.01.01.23.13.3.15Z"/>
              <path class="cls-26" d="M51.83,21.49h.15l.08.08-.08.08-.08.08-.08.08-.08-.08v-.15l.08-.08Z"/>
              <path class="cls-26" d="M26.03,12.73h.15l.08.08v.15l-.08.08-.08-.08-.08-.08-.08-.08.08-.08Z"/>
              <path class="cls-28" d="M48.28,21.34c-.01-.32.07-.49.23-.75.26.36-.21.72-.23.75Z"/>
              <g>
                <path class="cls-31" d="M48.66,43.82c.3-.05,4.14.43,5.51.38-.55.27-2.49,2.34-3.02,1.66,1.78-1.72-.6.18-1.13.38-2.29.86-3.81-.34-2.26-.75.4-.11.6.19.75.15,2.54-.62-1.87-.72-1.81.3-2.2.37,1.75-2.08,1.96-2.11Z"/>
                <path class="cls-21" d="M50.32,44.87c.89-.08-1.75,1.64-1.89,1.28.31-.15,1.77-1.27,1.89-1.28Z"/>
              </g>
              <g>
                <path class="cls-31" d="M11.39,20.28c1.46-.03,2.62.77,3.85,1.43-1.1.81-1.97,1.11-3.24.68.48-3.55-.35.65-.6-2.11Z"/>
                <path class="cls-13" d="M12.75,21.18c.08-.04.19-.01.23.08.31.69-1.1.35-.23-.08Z"/>
              </g>
            </g>
          </g>
        </g>
      </g>
    </g>
    <g>
      <path class="cls-38" d="M27.43,53.86l-.11-.3c.22-.03.13-.21.18-.25.01,0,.03.08.06.06,0,.16.2.04.25.08.01.01-.14.13-.01.34-.17-.04-.21.01-.36.07Z"/>
      <path class="cls-38" d="M27.58,53.1s-.09-.13-.09-.14c.01-.07.31-.19.25.11-.03,0-.11.03-.16.03Z"/>
      <path class="cls-38" d="M27.03,54.09s-.05.12-.05.14c-.26-.19-.07-.31.05-.14Z"/>
      <g>
        <path class="cls-38" d="M28.56,53.15s0-.08.07-.08c.1.11.09.09.23.07l-.03.37c-.15-.15-.23.08-.3.05.05-.31-.29-.2.02-.41Z"/>
        <path class="cls-38" d="M28.62,52.77c-.12.02-.14-.14-.06-.16.13-.04.15.14.06.16Z"/>
      </g>
      <path class="cls-36" d="M28.27,54.67c-.5.21-1.33-.06.07-.06-.02,0-.06.06-.07.06Z"/>
      <path class="cls-38" d="M30.84,54.14s-.27.03-.27-.11c0-.29.44-.05.27.11Z"/>
      <g>
        <path class="cls-36" d="M26.72,54.71c0-.19.13-.41.14-.19,0,0-.08.04-.04.07l.74-.18v.07q-.42.12-.84.23Z"/>
        <path class="cls-37" d="M27.05,54.46l.05-.14s.04-.06.06-.03c.02.04-.12.1-.03.12.06.02.17-.15.15-.04-.02.08-.16.07-.22.08Z"/>
        <path class="cls-36" d="M28.03,54.21l-.67.09c-.05-.07.61-.27.67-.09Z"/>
      </g>
      <path class="cls-36" d="M29.43,54.33c-.69.05-.26-.13-.01-.07.03,0,.03.05.01.07Z"/>
      <g>
        <path class="cls-17" d="M34.43,58.56c.04-.06.06-.1.11-.15.15-.1-.09-.07-.09-.17.42-.33-.89-.04-.47.19-.05.03-.06.09-.12.09-.15-.25-1.41-.78-1.76-.87-.16.06-.19.22-.27.34-.26.45.03-.28-.41-.05l.54-.39c-.14-.06-.33-.06-.35-.06-.97-.3-1.53-.73-1.62-.72-.26.02.05.48-.42.52.29-.55-.05-.03-.19-.16.19-.16.36-.35.56-.51l-.56-.37c.02-.12-.13-.35.04-.38.02.08.02.17.04.25.49.15.71.56,1.22.84.4.22,1.13.53.65,0,.01,0,.25-.04.26-.04.05.53.56.43,1.06.64.37.16.72.36,1.06.57.15-.05.31-.1.47-.14.41-.09.73-.12,1.11-.83.21-.4-.17-.04.16-.48.13-.18.29-.35.46-.49-.05-.27-.07-1.67-.14-1.76-.02-.03-.15.07-.19.05.03-.17.02-.36.05-.53-.06-.15-.56.48-.12-.13.33-.47.27-.45.43-.94.05-.15.22-.66.25-.14.01.28-.53,1.07-.26,1.55.04.08.26.23.27.24.16.32-.2-.11-.21.15,0,.08.03.71.05.75.01.04.36.23.42.32.08.08,0,.04-.02.1-.01.05-.03.04-.03.04l-.32-.22c-.04.43-.05.69.27,1,0,.05.04.13,0,.17-.11.12-.41-.08-.5-.39-.14.21-.5.78-.54.99-.46.43-.62.53.06.63.04.12.01.09.02.1-.09-.01-.18-.01-.27-.03-.13-.02-.26-.08-.39-.04-.02.01-.06.11-.06.14,0,.02.08.04.04.23,0,0-.02.07-.02.07-.09.18-.18.2-.27,0Z"/>
        <path class="cls-17" d="M47.74,54.96c-.05-.08-.02-.11-.03-.16.04,0,.09,0,.14.01.07,0,.13.01.14.01.16.04.29.14.45.17.21-.35.5-.61.79-.89.4-.39.86-.72,1.16-1.2,0-.13-.09-.11-.14-.23.44.24.8-.88.92-1.25.02-.07.2-.51.14-.52-.02,0-.3.29-.07-.12.03-.05.77-.92.72-.97-.09-.1-.35.44-.21-.05.13-.46.89.16.71.49-.04-.04-.38-.31-.4-.31-.51.75-.47.73-.66,1.48-.02.07-.18.38-.13.44.22-.08.2-.02.27,0-.05.07-.55.23-.47.46.01.03.56.22.64.25-.01,0,.07.12-.2.1,0,.12,0,.12-.09.18-.02.01-.04.03-.06.04-.02-.1,0-.2-.08-.29-.29-.36-.92.57-1.05.8-.02.03-.15.15-.14.17,0,.05.18.1.22.12.06.03.11.05.18.07.15.31-.31-.08-.25.21-.08-.04-.19-.19-.29-.16-.16.05,0,.15.01.2-.09.04-.15-.14-.21-.14-.11,0-1.18.95-1.09,1.21l.59.24c-.09.04-.16-.02-.19,0-.1.14.08.18-.09.38-.05-.14-.13-.27-.13-.43-.48-.1-.72,0-.83.48-.02.1-.03.23-.09.32-.02,0-.05-.02-.07-.02-.01-.04,0-.09-.02-.13-.01-.05-.01-.11-.03-.16-.67-.06-.58.93-.89.12.37.03.43-.38.9-.36.32-.53.75-.41-.07-.56Z"/>
        <path class="cls-17" d="M43.17,57.75c-.11-.02-1.27-.01-1.43.09-.06.04-.09.12-.11.18,0,.03.03.13,0,.23h-.03c-.04-.15-.05-.31-.18-.3-.04,0-.28.11-.8.12-.4,0-1.24-.15-1.46.02-.1-.15-.18-.14-.32-.35.1-.02.08-.05.19-.06.13.25.31.16.4.17.64.07.83.06.95-.35.06.01.23-.06.3-.05-.35.5-.4.55.43.4.09-.02.17-.06.26-.07.33-.07.7-.26,1.25-.19l.12-.07c.02-.12.02-.17.09-.27h.17c-.32.59.43.16.78.36.06-.09.71-.2.64-.32-.75-.1-1.74.22-1.09-.12.86-.17,1.54.3,2.11-.44-.13-.07-.12-.12-.12-.13-.05-.07-.15-.15-.2-.22.03-.04.08-.12.08-.16h.03c.02.07.11.1.12.11.34.49.38.21.9.16-.02.05-.03.15-.07.18-.15.1-.6.06-.77.42h-.03c-.02.1-.09.17-.13.26-.06.12-.08.23-.11.35,0,.03-.02.04-.02.07l-.04-.03c.01-.07.09-.45.04-.48-.32.13-.67.21-.99.35-.19.09-.24.2-.25.21-.23.14-.2-.05-.29-.06-.2,0-.48.88-.28.03,0-.05-.07-.06-.11-.07Z"/>
        <path class="cls-17" d="M35.36,60.26c0,.13.07.31.06.41-.02.47-.32.61-.27.19.02-.21.09-.28.09-.3.02-.38-.1-.83-.1-.87,0-.03-.01-.07-.02-.1.08-.1.31.29.56.45l.39-.19h.1s0,.11.02.12c-.02.11-.36.15-.37.24,0,.07.71.97,1.04.86.03.16-.44.19.01.28,0,.04-.2-.04-.2.25-.22-.04-.09-.29-.17-.43,0-.01-.18-.07-.26-.16-.29-.34-.54-.7-.87-.99-.01,0-.02.2-.01.24Z"/>
        <path class="cls-17" d="M38.12,58.12c-.03-.39-.63-.26-1.02-.28.04-.1-.14-.22.36-.16.01-.63-.22-.32-.24-.35-.16-.22.15-.23.25-.36.01,0,.02,0,.03,0,.03-.01.07,0,.1-.02l.08.06s-.02.02-.03.04c-.16.23-.06.49.13.65.32.02.61.19.92.09,0,0,.03.02.12.15-.13.03-.27.03-.39.06-.07.02-.29.09-.32.12Z"/>
        <path class="cls-17" d="M51.92,48.51c-.08.01-.15.03-.23.04-.12.02-.31-.01-.44,0-.03-.07-.17.07-.19.1-.06-.05-.04-.11-.05-.13.68-.17.87-.04.92-.04.85-.06.47-.64.21-.6-.06,0-.14.2-.2.11-.18-.24.74-.21.81-.16-.48.11-.04.41-.33.6-.12.08-.35.06-.51.08Z"/>
        <path class="cls-36" d="M36.65,51.17c-.25.02-.45.12-.44,0,.16-.05.3-.1.47-.11l.06.04c-.03.07-.09.06-.09.06Z"/>
        <path class="cls-38" d="M50.22,53.4l.08.29s-.21-.07-.22-.12c0-.03.12-.14.14-.17Z"/>
        <path class="cls-38" d="M37.66,57.05l.13.65c-.19-.16-.29-.42-.13-.65Z"/>
        <path class="cls-17" d="M31.13,55.37c-.56.18-.81-.28-.92-.29-.21-.03-.54.2-.71-.11.42.13.58,0,1.01-.07v.07c-.51.07.06.33.61.41Z"/>
        <path class="cls-3" d="M31.58,55.14c-.27-.12-.06-.24-.19-.17-.09-.09,0-.11.04-.21.03,0,.07-.01.1-.02.01.01.05.27.24.03.04.1.07.19.08.29-.09,0-.15.08-.26.07Z"/>
        <path class="cls-37" d="M31.04,55.22c-.24.07-.27-.26,0-.23.17.01.12.2,0,.23Z"/>
        <path class="cls-17" d="M31.58,55.14c.1,0,.17-.06.26-.07.45-.04.14.25-.26.07Z"/>
        <path class="cls-38" d="M31.52,54.71c-.14-.27.05-.26.2-.03l-.2.03Z"/>
        <path class="cls-8" d="M31.43,54.76c-.03.09-.13.12-.04.21-.2.15-.29-.23.04-.21Z"/>
        <path class="cls-30" d="M31.52,54.74s0-.02,0-.03l.2-.03s.03.05.05.09c-.19.24-.23-.02-.24-.03Z"/>
        <path class="cls-3" d="M36.4,55.9s0,.26.01.3c-.11.07-.04.32-.06.48-.32-.31-.31-.57-.27-1l.32.22Z"/>
        <path class="cls-16" d="M35.33,57.45c-.02.15.01.48.06.63-.68-.1-.52-.2-.06-.63Z"/>
        <path class="cls-38" d="M33.97,58.43c-.42-.23.89-.52.47-.19,0,.1.24.07.09.17-.23-.19-.34-.12-.57.02Z"/>
        <path class="cls-38" d="M34.68,58.25s.04-.13.06-.14c.13-.04.26.02.39.04-.11.13-.3.05-.45.1Z"/>
        <path class="cls-17" d="M35.06,58.93c-.02-.07-.06-.1-.09-.15.03-.02.06-.05.09-.08.14-.15.29-.29.44-.44.02.02.11.11.12.12l-.49.55h-.07Z"/>
        <g>
          <path class="cls-38" d="M52.45,50.24c.18-.33-.58-.95-.71-.49-.56.11-.96-.69-.67-1.1.02-.02.15-.17.19-.1-.06.06-.15.2-.16.28-.05.67.26.04.41.51-.39.13.08.35.1.13.28.19,0-.06-.04-.18-.04-.14,0-.43-.06-.58.05.02.12.05.17,0,.1-.08.04-.07,0-.17.08-.01.15-.02.23-.04.15.24.53.49.36.8.11.09.03-.03.1,0,.02.06.03.43.11.42.01,0,.02-.18.14-.26.03.02.02-.12.1.09.95-1.12,2.18.67,1.09,1.18-.91.42-1.26-.39-1.37-.49Z"/>
          <g>
            <path class="cls-12" d="M52.38,49.31c.31.14.25.15.26.16-.12.08-.13.25-.14.26-.08.02-.1-.36-.11-.42Z"/>
            <g>
              <path class="cls-3" d="M53.77,50.03c-.04-.12-.15-.1-.18-.11l.27-.08c-.33-.34-.06,0,.06-.24.3.22.17.36-.15.43Z"/>
              <path class="cls-16" d="M53.58,49.93s.15-.01.18.11c-.15.03-.46-.06-.49.08-.02,0-.27.03-.24-.16.21-.03.33-.06.55-.02Z"/>
              <path class="cls-16" d="M53.27,50.11c.11.05.2.11.31.15.99,0-.33.25-.31-.15Z"/>
              <path class="cls-16" d="M53.27,50.41c-.14.12-.68-.48-.22-.1.2-.13.26.07.22.1Z"/>
            </g>
            <g>
              <path class="cls-3" d="M51.25,48.54c.13-.01.32.02.44,0,.03.1.09.09,0,.17-.09-.05-.24-.15-.31-.04.01.01.06,0,.14.03.05.15.01.44.06.58.04.12.33.36.04.18-.03.22-.5,0-.1-.13-.16-.47-.46.17-.41-.51,0-.08.09-.22.16-.28Z"/>
              <path class="cls-36" d="M51.51,48.7c-.08-.03-.13-.01-.14-.03.07-.12.22-.01.31.04-.05.04-.12.01-.17,0Z"/>
            </g>
          </g>
        </g>
        <g>
          <path class="cls-38" d="M29.37,57.12c.14.12.48-.4.19.16.48-.04.16-.5.42-.52-.19.46.23.57.36,1.15l.59-.53.06.04c-.19.66.56.53.61.06.02,0,.21,0,.35.06l-.54.39c.44-.23.15.5.41.05.03.9-1.23,1.25-1.55.27-1.1,1.13-2-.05-1.34-.83.12-.14.36-.23.44-.3Z"/>
          <g>
            <path class="cls-3" d="M31.27,58.68c-.85.29-.26-.46-.26-.51,0-.09-.21-.02-.24-.38-.13.17-.17.39-.12.61-.16.06-.11-.5.14-.71.12,0-.05.49.48.38-.76.56-.17.73-.08.55.02-.04-.28-.54.4-.46-.6.16-.41.49-.19.38.06-.03.09-.22.1-.22.13.04.03.29-.21.37Z"/>
            <g>
              <path class="cls-3" d="M29.74,58.07c-.34.09-.11-.7.02-.74.1.14.2.69-.02.74Z"/>
              <path class="cls-3" d="M29.25,58.59c-.3,0,.12-.75.19-.73.09.46,0,.52-.05.14-.13.2-.26.33-.14.59Z"/>
              <path class="cls-16" d="M30.01,58.3c-.03-.9.14-.73.11-.24,0,.03-.09.24-.11.24Z"/>
              <path class="cls-16" d="M29.64,58.56c-.12.03-.31,0-.28-.18.08.06.46.13.28.18Z"/>
              <path class="cls-16" d="M28.89,58.24c-.07,0-.04-.42.04-.41l-.04.41Z"/>
              <path class="cls-16" d="M29.23,57.85s-.18,0-.16-.06c.02-.06.23,0,.16.06Z"/>
            </g>
          </g>
        </g>
        <g>
          <path class="cls-38" d="M46.16,56.68s.05-.13.07-.18c.06-.16.17-.11.18-.13.06-.07.1-.06.05-.14-.05-.06-.39-.23-.49-.38-.38-.53-.09-.93.53-.92-.55-1.43,1.45-1.49,1.49-.11,0,0-.07,0-.14-.01.13-.85-1.09-1.2-1.33-.58-.26.64.4,1.31,1.04.9.08-.05.09-.16.18-.16.82.15.39.03.07.56-.47-.02-.53.39-.9.36.31.81.22-.18.89-.12-.47.52-.8,1.18-.02,1.58.03.02.09.04.08.09-.53.03-.66-.55-.71-.56-.37.17-.78.21-.99-.18Z"/>
          <g>
            <path class="cls-30" d="M46.42,56.37l.05-.14c.06.08.02.08-.05.14Z"/>
            <path class="cls-3" d="M46.74,55.95c-1.56-.23-.41-1.56-.11-.52-.57-.69-.43.05.11.52Z"/>
            <path class="cls-32" d="M47.77,57.34c-.78-.4-.45-1.06.02-1.58.01.05.01.11.03.16-.16.16-.33.46-.3.68-.17.12.05.8.44.67v.03c-.06.02-.13.01-.19.03Z"/>
            <path class="cls-16" d="M47.19,55.65c-.27.04-.39-.11-.43-.37.07-.03.09.39.42.31v.07Z"/>
            <path class="cls-3" d="M46.74,56.86c-.05,0-.13.03-.16.03-.2-.04-.04-.29.16-.03Z"/>
            <path class="cls-16" d="M46.76,56.72c-.09.04-.22-.21-.04-.06.04.03.08.04.04.06Z"/>
          </g>
        </g>
        <g>
          <path class="cls-38" d="M51.27,52.6c.07.09.06.19.08.29.07.36.02.86.59,1.08.6.23,0-.19.06-.24,1.16.45.06-.04-.3-.42-.16.02.2.4.16.5-.38-.14-.39-.59-.45-.95.09-.07.09-.06.09-.18.27.02.19-.09.2-.1.64-.27,1.42.38,1.27,1.06-.2.91-2.09.73-1.7-1.03Z"/>
          <path class="cls-3" d="M51.35,52.89s.04-.03.06-.04c.06.36.07.82.45.95.04-.09-.32-.48-.16-.5.36.38,1.46.87.3.42-.07.06.54.48-.06.24-.57-.22-.52-.72-.59-1.08Z"/>
          <path class="cls-16" d="M52.38,53.54c-.09-.03-.72-.38-.69-.45.06-.15.65.34.69.45Z"/>
        </g>
        <g>
          <g>
            <path class="cls-38" d="M37.03,62.32c-.11-.13-.35-.56-.35-.72,0-.29.2-.21.2-.25-.45-.1.02-.13-.01-.28.1.15.12-.23.68-.24.62-.01,1.18.75,1.03,1.35-.3.66-1.11.69-1.56.14Z"/>
            <g>
              <path class="cls-3" d="M38.28,61.83s-.21-.17-.21-.19c-.07-.27.26-.73.21.19Z"/>
              <path class="cls-16" d="M37.85,62.53s-.14-.07-.17-.09c-.51-.6.48-.08.17.09Z"/>
              <path class="cls-16" d="M37.57,62.51c-.11-.08-.22-.16-.29-.27-.47-.73.18-.05.29.27Z"/>
              <path class="cls-16" d="M38.18,62.41l-.11-.05c0-.05-.08-.11-.06-.18.03-.12.42,0,.17.23Z"/>
              <path class="cls-16" d="M37.7,61.98c-.07,0-.54-.35-.46-.4l.46.4Z"/>
              <path class="cls-30" d="M38.07,62.36l.11.05s-.06,0-.13.12c-.06-.01.03-.13.02-.17Z"/>
            </g>
          </g>
          <g>
            <path class="cls-38" d="M35.16,60.86c-.04.41.25.27.27-.19,0-.1-.06-.28-.06-.41.05-.02.19.17.2.19.02.08-.14,1.33-.38,1.59-.67.72-1.77.13-1.45-.83.24-.72,1.76-.98.76.03-.11-.17.17-.33.01-.34-.18.16-.26.79.09.59.09-.05.25-.85.56-.62Z"/>
            <path class="cls-3" d="M34.7,61.84c-.22-.06-.36.14-.31.38-.33,0-.09-.75.46-.61l-.03-.2c.08-.02.03.49.43.08-.21.2-.23.62-.53.69.3-.32.16-.3-.02-.35Z"/>
            <path class="cls-3" d="M34.26,61.51v-.44s-.62.88-.41.28c.01-.03.35-.39.39-.41.4-.21.02.06.02.57Z"/>
            <path class="cls-16" d="M34.39,62.23c-.05-.25.09-.44.31-.38-.21.04-.2.38-.31.38Z"/>
          </g>
        </g>
        <g>
          <path class="cls-38" d="M27.75,55.32c.32-.57.98-.54,1.4-.1.35.37.25.59.27.65-.18.02-.03.26-.04.38-.03.22-.65.36-.83.36-.51,0-1.12-.69-.79-1.29Z"/>
          <path class="cls-3" d="M28.26,56.42s-.07.06-.1.03c-.03-.03-.28-.57-.11-.74.18.09.52.45.97.42-.26.28-.23.11-.3.15-.03.01-.02.13-.03.14h-.44Z"/>
          <path class="cls-16" d="M29.02,56.14c-.45.03-.79-.33-.97-.42-.08-.04-.58-.11-.13-.17-.05-.06.17-.39.19-.38.07.42.54.36.76.67-1.5-.82-.59.17-.01.25.11.02.23-.1.28-.03-.03.08-.12.06-.12.07Z"/>
          <path class="cls-3" d="M28.96,55.64c-.15-.16-.63-.26-.72-.41-.1-.17.05-.1.05-.14,0,0-.18-.01-.06-.07.16-.08.59.07.69.21.28.39-.35-.26-.59-.14.09-.03.7.53.64.56Z"/>
          <path class="cls-16" d="M28.26,56.42h.44c-.17.13-.27.07-.44,0Z"/>
        </g>
        <g>
          <path class="cls-18" d="M48.13,57.22c-.12-.32-.07-.17-.16.06-.39.13-.61-.55-.44-.67,0,0,.14,0,.16-.04.2,1.17.3.07.16-.51.02,0,.05.01.07.02.05.02.17-.07.28.31.09.29.07.57,0,.86-.02.01-.04-.03-.07-.02Z"/>
          <path class="cls-32" d="M47.92,56.08c.06-.08.06-.21.09-.32.59.21.76,1.16.19,1.48.07-.29.09-.57,0-.86-.11-.38-.24-.29-.28-.31Z"/>
          <path class="cls-18" d="M47.53,56.61c-.03-.23.14-.52.3-.68.01.04,0,.09.02.13.14.58.04,1.68-.16.51-.02.04-.15.04-.16.04Z"/>
          <path class="cls-7" d="M47.97,57.31v-.03c.08-.22.03-.37.15-.06-.04.02-.02.05-.15.09Z"/>
        </g>
        <g>
          <path class="cls-38" d="M50.24,52.66c.05.12.14.1.14.23-.3.49-.76.81-1.16,1.2.1-.35.64-.45.61-.85-.23.27-.92-.02-1.02-.28-.25-.7.91-1.56,1.43-.3Z"/>
          <g>
            <path class="cls-16" d="M48.95,52.89c-.19-.05-.01-1.08.85-.69-.47-.04-.72.03-.82.53,0,.01.17.21-.03.16Z"/>
            <path class="cls-3" d="M49.27,52.78c-.3.14-.14-.5.07-.45-.08.18-.03.43-.07.45Z"/>
            <path class="cls-16" d="M49.57,52.76c-.12.04-.18-.1-.18-.19,0-.46.41.11.18.19Z"/>
            <path class="cls-3" d="M49.68,53.25c-.1.05-.35,0-.31-.14,0-.03.47.27.25-.14.17-.04.17.22.06.28Z"/>
            <path class="cls-16" d="M49.87,52.72c-.1.05-.18-.23-.17-.24.06-.05.3.18.17.24Z"/>
            <path class="cls-3" d="M49.98,53l-.09-.12c.07.04.13.02.09.12Z"/>
          </g>
        </g>
        <g>
          <g>
            <path class="cls-18" d="M41.37,58.06s.08-.03.05-.11c.13,0,.14.15.18.31,0,.01,0,.02,0,.03-.1,0-.05.06-.05.14.01.18.2.13.22.15.02.03.21.61.21.71.04.05.2-.12.21-.15.01.12.06.03.14.01-.39.8-1.76.1-.97-1.09Z"/>
            <path class="cls-1" d="M41.37,58.06c-.78,1.2.58,1.89.97,1.09.24-.49-.09-1.27-.71-1.13.01-.07.04-.15.11-.18,1.08.4.84,1.46.38,1.69-.81.4-1.56-.85-.75-1.46Z"/>
            <path class="cls-18" d="M41.56,58.43c.2.09.05-.13.05-.14,0-.01,0-.02,0-.03h.03c.45-.03.78.48.57.88-.01.03-.17.2-.21.15,0-.09-.19-.68-.21-.71-.02-.02-.21.03-.22-.15Z"/>
            <path class="cls-32" d="M42.21,59.14c.21-.4-.12-.91-.57-.89.03-.11,0-.21,0-.23.63-.14.95.64.71,1.13-.07.01-.12.11-.14-.01Z"/>
            <path class="cls-1" d="M41.56,58.43c0-.08-.05-.14.05-.14,0,.01.15.23-.05.14Z"/>
          </g>
          <g>
            <path class="cls-3" d="M40.67,57.46c.11.02.09.11.15.18-.1-.83.04-.1.32-.44-.08-.17.14-.23.21-.37.21-.4-.08-.55.18-.58.18.21.21.32.19.61-.17,0-.17.29-.35.46-.31.29-.76.18-.27.55-.83.15-.78.1-.43-.4Z"/>
            <path class="cls-38" d="M41.11,57.86c-.49-.37-.04-.25.27-.55.18-.17.18-.46.35-.46-.04.65-.66.78-.36.93-.09.02-.17.06-.26.07Z"/>
            <g>
              <path class="cls-38" d="M40.67,57.46c-.07,0-.23.06-.3.05-.06-.01-.19-.21-.21-.25-.25-.79.78-1.67,1.36-1-.26.03.03.18-.18.58-.07.13-.29.19-.21.37-.28.33-.42-.39-.32.44-.05-.07-.03-.16-.15-.18Z"/>
              <path class="cls-3" d="M41.12,56.99c-.14-.19.04-.44.04-.49,0-.55-.49.05-.47.56-.19-.22-.39.03-.42-.02.08-.29.05-.53.31-.74.41-.34.99-.25.66.49-.04.08-.12.08-.12.2Z"/>
            </g>
          </g>
        </g>
        <g>
          <path class="cls-38" d="M34.18,57.99c-2-.81.59-2.89,1.28-1.31-.33.44.05.08-.16.48-.38.71-.7.73-1.11.83Z"/>
          <path class="cls-16" d="M34.51,56.9c-.21.11-.11.35-.6.36-.63-.19,0,0,.03-.12.1-.41-.31-.18-.26-.4.02-.08.29-.24.57-.1.55-.51.6.03.45.07-.02,0-.29-.2-.39-.11-.01.01-.04.42-.07.09-.48.16-.15.82-.12.29.03-.03.13.05.22-.19.11-.04.05.05.17.11Z"/>
          <path class="cls-16" d="M34.23,57.62c-.4.1-.89-.42-.18-.07.17-.01.34-.09.47-.21.09.08-.26.27-.29.28Z"/>
          <path class="cls-3" d="M34.51,56.9c.14-.07.37.03.35-.34.13-.29.15.58-.35.34Z"/>
        </g>
        <g>
          <g>
            <path class="cls-38" d="M35.98,54.69c.01-.26.37.17.21-.15,0-.02-.23-.17-.27-.24.18-.63,1.09-.89,1.55-.42.77.78-.51,2.06-1.49.82Z"/>
            <path class="cls-3" d="M36.74,54.41c-.41.27-.15-.03-.28.01-.06.02-.08.28-.09.28-.03,0-.09-.24-.31-.4.27-.53,1.64-.59.66.05l.03.06Z"/>
            <path class="cls-16" d="M36.74,54.41c.13-.09.15-.1.27-.21-.11.18.44-.05.53.2.14.37-.54.85-.61.48.51.2.52-.24-.29-.24.49-.23.72.37.85.04.14-.38-.36-.44-.75-.27Z"/>
            <path class="cls-3" d="M37.01,54.2c.12-.12.32-.52.15-.02-.1.08-.14.01-.15.02Z"/>
          </g>
          <g>
            <path class="cls-38" d="M35.51,53.83c-.44.61.06-.02.12.13-.03.17-.02.36-.05.53-.13.7-.49.68-.54.75-.02.04-.02.65-.52-.09-1.62-.4.04-2.38.99-1.33Z"/>
            <g>
              <path class="cls-3" d="M34.54,55.02c-.42.12-.73-.54.34-.66-.25.36-.02.19,0,.29,0,.03-.25.35-.33.37Z"/>
              <path class="cls-16" d="M34.03,54.56c-.21.04.29-.54.86-.54.08,0,.3.1.41.12-.19.15-.59.36-.2,0-.32-.16-.86.13-1.06.42Z"/>
              <path class="cls-16" d="M34.14,54.2c-.09-.03.12-.38.14-.39.43-.35.09.34-.14.39Z"/>
              <path class="cls-16" d="M34.55,54.01c-.07,0,.04-.63.59-.18-.04.17-.31-.33-.59.18Z"/>
              <path class="cls-16" d="M34.83,55.14c-.4.16.14-.11.26-.51.03,0,.04.74-.09.28-.02.06-.13.21-.17.23Z"/>
            </g>
          </g>
        </g>
        <g>
          <path class="cls-38" d="M31.59,56.92s-.25.04-.26.04c-.1,0-.33-.18-.38-.26-.38-.71.41-1.68.35-1.23-.02.15-.34.4-.2.9.11.41.42.35.44.32.04-.06-.08-.31-.07-.54,0-.1.34-1.3-.02-.53-.25.53.18,1.23-.16.93-.38-.33.06-1.25.29-1.27.03,0,.45.23.54.37.38.54.06,1.13-.54,1.28Z"/>
          <path class="cls-3" d="M31.77,56.69c-.22.07.08-.06-.06-.71.39-1.05.1.36.13.42.06.12.16-.13.17-.19.02-.1.03-.72.08-.11.01.17-.15.55-.33.6Z"/>
        </g>
        <g>
          <path class="cls-19" d="M33.86,58.58v-.03s0-.02-.01-.03c.07,0,.07-.06.12-.09.23-.14.34-.21.57-.02-.05.05-.07.09-.11.15-.31.5-.45.93-.49.97-.17.15-.16-.47-.06-.51,0,0,.07.06.08.06.17-.04-.21-.25.22-.62-.04-.05-.28.1-.32.13Z"/>
          <g>
            <path class="cls-25" d="M34.41,59.94c0-.06-.05-.07-.05-.09,0-.05.08-.03.05-.09,0-.02-.15-.05-.14-.25-.42-.17-.41.52.03.38v.07s-.05.07-.13.06c-.56-.09-.92-.94-.3-1.43.04-.03.28-.18.32-.13-.43.38-.05.58-.22.62-.01,0-.07-.06-.08-.06-.1.04-.11.66.06.51.04-.04.17-.46.49-.97.09.19.18.17.27,0,.09,0,.23.16.27.23.04.06.07.09.09.15.18.51-.17.87-.65,1.01Z"/>
            <g>
              <path class="cls-34" d="M34.7,58.55s.02-.06.02-.07c.11,0,.3.11.34.22-.03.03-.06.06-.09.08-.04-.07-.18-.23-.27-.23Z"/>
              <g>
                <path class="cls-34" d="M33.86,58.55v.03c-.61.49-.25,1.35.31,1.43.08.01.12-.05.14-.06.06,0,.04,0,.1-.02.48-.14.83-.5.65-1.01h.07c.16.3,0,.42,0,.66,0,.03.01.07.02.1-.25,0-.42.27-.67.34-.89.24-1.41-.95-.62-1.48Z"/>
                <path class="cls-4" d="M34.31,59.95v-.07s.02-.04.05-.04c0,.03.06.04.05.09-.06.02-.04.01-.1.02Z"/>
                <path class="cls-22" d="M34.61,59.81c-.2.03-.2-.35.22-.42-.57-1.29.21-.52.19-.06,0,.13-.3.46-.41.48Z"/>
                <path class="cls-19" d="M34.36,59.85s-.03.03-.06.04c-.43.13-.44-.55-.03-.38-.01.2.13.23.14.25.02.06-.05.04-.05.09Z"/>
              </g>
            </g>
          </g>
        </g>
        <g>
          <path class="cls-32" d="M37.51,56.98c.24-.33.15-.83-.11-1.14-.4-.48-.55-.1-.66.05l-.22-.13c.05-.13.17-.19.26-.28.82-.18,1.57.91.83,1.48-.03,0-.07,0-.1.02Z"/>
          <path class="cls-38" d="M37.61,56.96c.74-.57-.01-1.66-.83-1.48.05-.05.18-.23.22-.23.06-.01,0,.12.13.18.62.03,1.03.79.79,1.34-.06.14-.22.24-.23.25l-.08-.06Z"/>
          <path class="cls-5" d="M36.61,55.94s-.11-.09-.18-.07c.02-.06.09-.02.02-.1h.07q.11.06.22.12s.12.1-.13.05Z"/>
          <path class="cls-32" d="M36.42,56.2s-.01-.29-.01-.3c0,0,.02.01.03-.04.07-.02.17.07.18.07-.16.53.13.89.61,1.11-.58-.05-.76-.31-.8-.85Z"/>
          <g>
            <path class="cls-35" d="M37.22,57.05c-.48-.22-.76-.59-.61-1.11.25.05.12-.04.13-.05.11-.15.26-.53.66-.05.26.31.35.81.11,1.14,0,0-.02,0-.03,0-.01,0-.01-.06-.26.07Z"/>
            <path class="cls-23" d="M37.39,56.93c-.06.07-.74-1.06-.27-.9.3.11.25.65.27.9Z"/>
          </g>
        </g>
        <g>
          <path class="cls-38" d="M35.87,57.67c-.05-.07-.05-.12-.07-.12-.03,0-.24.18-.11.45h-.07c-.08-.28-.2-.37-.04-.67.15-.28.37-.45.66-.29-.16.13-.2.03-.25.11-.03.04.02.37.03.43-.1.13.13.68-.09.1-.02-.03-.06,0-.07,0Z"/>
          <path class="cls-38" d="M35.69,58c-.13-.27.09-.46.11-.45.02,0,.02.06.07.12-.03.11.07.34.13.43.05.08.59.52-.06.13-.07-.04-.23-.17-.25-.23Z"/>
          <g>
            <path class="cls-38" d="M36.19,59.97s0-.07-.02-.11h-.1c-.15-.45.31-.85.68-1.03-.19-.07-.15-.2-.19-.22-.04-.02-.19.11-.84-.24-.02,0-.1.03-.11.02,0,0-.1-.09-.12-.12,0,0-.08-.08-.08-.09,0,0,.03.03-.02-.1-.05-.15-.09-.48-.06-.63.03-.21.39-.78.54-.99.09.31.39.52.5.39.03-.04-.01-.12,0-.17.02-.16-.05-.41.06-.48.04.54.23.8.8.85.25-.13.24-.07.26-.07-.1.12-.41.14-.25.36.02.03.25-.28.24.35-.5-.07-.32.06-.36.16-.07.19-.09.32-.1.32-.03,0-.1-.24-.19-.24.02-.19.64-1.24.03-.58-.05-.03.03-.3-.36-.35-.17.06.51.29.04.67-.06-.02.14-.4-.28-.63-.3-.16-.51,0-.66.29-.16.31-.05.4.04.68.06.19.53.44.69.46.53.09.13-.03-.02-.22-.15-.19-.23-.45-.27-.68-.01-.06-.06-.39-.03-.43.53.54.18.26.19.39.03.21.53.37.6.43.2.16.22.29,0,.45.27-.15.36-.08.37.23.01.29-.26.68.25.3,0,0,.1-.02.16.16.3.84-.75,1.58-1.38.87Z"/>
            <g>
              <path class="cls-17" d="M37.16,58.64c.09.05.18.2.25.3-.51.39-.24,0-.25-.3Z"/>
              <g>
                <path class="cls-3" d="M35.99,57.14c.05-.08.09.02.25-.11.42.23.23.61.28.63.48-.37-.2-.61-.04-.67.39.05.31.32.36.35.61-.67,0,.39-.03.58,0,0-.04,0-.03.04-.07-.06-.57-.21-.6-.43-.02-.13.34.15-.19-.39Z"/>
                <path class="cls-3" d="M35.62,58.01h.07s.19.18.25.22c.65.4.12-.04.06-.13-.06-.09-.16-.32-.13-.43,0,0,.05-.02.07,0,.22.58-.02.04.09-.1.04.23.12.49.27.68.14.19.55.3.02.22-.16-.03-.64-.27-.69-.46Z"/>
                <path class="cls-10" d="M36.6,58.39c-.06-.01-.25-.39-.23-.4.04-.03.37.06.23.4Z"/>
              </g>
              <g>
                <path class="cls-3" d="M37.28,59.83s-.16.2-.22.23c-.62.32.17-.19.22-.23Z"/>
                <g>
                  <path class="cls-3" d="M37.28,59.83c-.19-.04-.37.07-.52-.1.59-.94,1-.33.52.1Z"/>
                  <path class="cls-38" d="M37.19,59.78c-.14.04-.18-.09-.17-.12.01-.09.22-.1.21-.17,0-.02-.37-.2.03-.12.18.03.19.34-.07.41Z"/>
                </g>
                <g>
                  <path class="cls-3" d="M36.56,59.64c-.14,0-.08-.35-.2-.2-.09-.1.33-.53.5-.33.18.2-.27.53-.3.53Z"/>
                  <path class="cls-38" d="M36.76,59.41c0-.19-.35-.31.05-.23l-.05.23Z"/>
                </g>
              </g>
            </g>
          </g>
        </g>
        <g>
          <path class="cls-38" d="M49.36,56.49c-.36-.34-.35-.67-.39-.78.18-.2,0-.24.09-.38.02-.01.1.05.19,0,.2-.09.37-.24.6-.28-.5-.58.12-.98.11-1.04-.01-.05-.17-.15-.01-.2.1-.03.21.11.29.16-.06-.28.4.1.25-.21,0,0,0-.07.08-.05.52.2.9.7.65,1.26-.23.51-.7.18-.65.57,0,.05.28.44.07.86-.2.4-.83.49-1.26.08Z"/>
          <g>
            <g>
              <path class="cls-3" d="M50.23,56.59c-.23.04-.46-.29-.4-.49.09-.29.04.49.35.4.25-.07.19-.63-.37-.85-.12-.05-.08.05-.09.05-.03,0-.05-.12-.37-.13-.04-.12.65.04.8.18.2.19.33,1.01.3.39-.03-.68-.7-.66-.69-.77.02-.2.51.09.52.21-.04-.23.07-.28.16-.46.21.22.03.26.03.28,0,.29.21,1.11-.24,1.19Z"/>
              <path class="cls-3" d="M50.2,56.39c-.16.03.11-.18-.38-.48-.4-.24-.9-.13-.53-.39,0,.22.53.32.68.26,0,.17.44.56.23.6Z"/>
              <path class="cls-16" d="M49.82,56.55c-.44-.12-.73-1.09-.16-.18.04-.55.2.13.16.18Z"/>
            </g>
            <g>
              <path class="cls-3" d="M50.24,54.91c-.21,0-.03-1.15-.25-.62-.07.18.01.79-.12.09.05-.14.17-.32.34-.3.26.03.03.39,0,.27-.27.53.4.02.15.31-.01.02-.12,0-.15.04,0,.01.23.21.02.22Z"/>
              <path class="cls-3" d="M50.75,54.63c-.45.08-.09-.43.07-.23.09.12-.4-.05-.07.23Z"/>
              <g>
                <path class="cls-3" d="M50.75,54.63c.05,0,.11-.13.2.02-.1-.75-.55-.21-.59-.23-.05-.02,0-.22.09-.17-.36-.33.18-.28.43-.03.68.67-.31,1.51-.45.69-.07-.02-.32.53-.26.19.08-.44.67-.1.68-.37,0-.13-.11-.09-.12-.1Z"/>
                <path class="cls-38" d="M50.78,55.2s-.08.02-.1.02c-.28-.07.26-.09.29-.48.06.15-.04.43-.2.47Z"/>
              </g>
            </g>
          </g>
        </g>
        <g>
          <path class="cls-32" d="M47.85,54.81s-.09-.01-.14-.01c-.05-.32-.22-.61-.54-.69-.39-.1-.51.14-.2.43.13.51.61.25.6.39-.03.27-.7-.16-.74-.31.02.53.35.44.73.49-.64.41-1.3-.25-1.04-.9.25-.61,1.46-.26,1.33.58Z"/>
          <path class="cls-23" d="M46.97,54.54c.05.05.51.39.54.24.04-.18-.34-.49-.34-.67.33.08.5.37.54.69,0,.06-.02.08.03.16-.09,0-.1.11-.18.16-.38-.05-.71.04-.73-.49.04.15.71.58.74.31.02-.14-.47.11-.6-.39Z"/>
          <path class="cls-35" d="M46.97,54.54c-.31-.29-.19-.53.2-.43,0,.17.38.49.34.67-.03.16-.49-.19-.54-.24Z"/>
        </g>
        <g>
          <g>
            <path class="cls-38" d="M43,57.27c.08-.14.53-.37.35-1.01-.11-.39-.77-.57-.73-.36,0,.04.34.19.51.61.09-.03-.21-.94.06-.39.38.78-.3,1.07-.36,1.15-.08.1-.08.14-.09.27l-.12.07c.1-.47-.14-.28-.35-.53-.24-.28-.28-.68-.09-.99.54-.87,1.91.07,1.15,1.12-.65.33.34.02,1.09.12.07.11-.58.23-.64.32-.34-.2-1.09.23-.78-.35Z"/>
            <path class="cls-3" d="M42.83,57.26c.06-.07.74-.36.36-1.15-.26-.55.03.37-.06.39-.17-.42-.51-.57-.51-.61-.04-.22.62-.03.73.36.18.64-.27.87-.35,1.01h-.17Z"/>
            <path class="cls-3" d="M42.45,56.92c-.18-.12-.29-.42-.25-.62.12-.51.02.26.25.62Z"/>
            <path class="cls-16" d="M42.56,56.53c-.11-.02-.24-.51-.18-.51l.18.51Z"/>
            <path class="cls-16" d="M42.72,56.91s-.11-.12-.24-.11c.15-.18.27.1.24.11Z"/>
          </g>
          <g>
            <path class="cls-38" d="M43.17,57.75s.12.02.11.07c-.2.85.09-.03.28-.03.09,0,.06.19.29.06,1.58.65.31,2.47-.58,1.45-.54-.62-.04-.94-.1-1.55Z"/>
            <path class="cls-3" d="M44.21,59.4c-.16.07-.01-.17-.01-.18,0-.43-.13-.82-.27-1.22.08-.06.48.73.28.85l.06.04c.27-.71.11.44-.06.51Z"/>
            <path class="cls-3" d="M43.8,59.43c.03-.24.06-.5.05-.75.19.13.09,1.09-.05.75Z"/>
            <g>
              <path class="cls-3" d="M43.85,58.68c0,.25-.03.5-.05.75-.06-.14.06-1.85-.22-1.19-.17.39.23.68-.14.86.74.73-.21.21-.18-.31.42-.96.56-1.13.59-.11Z"/>
              <path class="cls-38" d="M43.41,58.99c-.19-.04-.02-.55.1-.3.1.21-.08.31-.1.3Z"/>
            </g>
          </g>
        </g>
        <g>
          <g>
            <path class="cls-32" d="M38.35,58.09c.03.1-.04.16-.06.24-.15.44-.14.97.4,1.08.09.21.25.05.28-.14.02-.14,0-.23-.02-.37.11-.04.09.43.24.23.06-.08.12-.87-.29-1.03-.08-.03-.12-.01-.11-.08.03,0,.07,0,.1-.02,0,0,.13.02.22.12.73,1.13-.35,1.82-.89,1.21-.3-.34-.33-1.06.14-1.25Z"/>
            <path class="cls-18" d="M38.72,58.53c-.02-.11,0-.2-.09-.12-.03-.13-.05-.09-.05-.09,0-.03.04-.05.02-.1.08-.11-.15-.15-.09.05,0,.01,0,.03,0,.03-.07.03-.11-.05-.12-.05s-.03.09-.1.08c.03-.08.1-.15.06-.24.05-.02.12.01.09-.08.13-.03.27-.03.39-.06.02.03.03.05.04.06-.03,0-.07,0-.1.02-.28.05.06.29.17.88.02.13.04.23.02.37-.21-.13-.2-.49-.25-.73Z"/>
            <path class="cls-18" d="M38.29,58.33c.07,0,.09-.08.1-.08s.06.07.12.05c0,0,0,.04.04.03-.08.18.06.93.13,1.09-.54-.11-.55-.64-.4-1.08Z"/>
            <path class="cls-9" d="M38.69,59.41c-.07-.16-.21-.91-.13-1.09h.03s.02-.04.05.09c0,0-.1.12.09.12.04.24.04.6.25.73-.03.2-.19.36-.28.14Z"/>
            <path class="cls-32" d="M38.95,58.9c-.11-.59-.45-.83-.17-.88,0,.07.04.05.11.08-.01.19.13.33.18.49.07.27.02.55.12.54-.14.19-.13-.28-.24-.23Z"/>
            <path class="cls-32" d="M38.89,58.11c.41.16.35.95.29,1.03-.1.01-.04-.27-.12-.54-.05-.17-.19-.31-.18-.49Z"/>
            <path class="cls-18" d="M38.64,58.41c.08-.08.07.01.09.12-.18,0-.08-.11-.09-.12Z"/>
            <path class="cls-7" d="M38.61,58.22l-.09.05c-.06-.2.17-.16.09-.05Z"/>
            <path class="cls-1" d="M38.52,58.3s0-.02,0-.03l.09-.05c.02.05-.02.07-.02.1h-.03s-.03-.02-.04-.02Z"/>
          </g>
          <g>
            <g>
              <path class="cls-38" d="M38.12,58.12s.25-.1.32-.12c.03.1-.04.06-.09.08-.47.19-.45.9-.14,1.25.54.61,1.61-.08.89-1.21-.09-.09-.21-.11-.22-.12-.01-.01-.02-.03-.04-.06-.1-.13-.12-.14-.12-.15-.27-.39-.52-1.24.06-1.49.78-.33,1.3.53.88,1.26-.1.17-.33.22-.22.29-.08,0-.27.07-.4-.17.52-.08-.08-.04.02-.31.19.3.49.19.55.07.16-.36-.26-.67-.58-.26,0,0-.08-.06-.08-.07-.03-.2.07-.77.39-.65.02,0,.27.29.26.04,0-.05-.53-.42-.75.15-.1.26.04.48-.08.47-.24-.39.16-.67.02-.74-.37.32-.19,1.01.06,1.37.15.21.22.2.32.35.61.88.01,1.82-.8,1.47-.52-.23-.61-1.14-.24-1.44Z"/>
              <path class="cls-38" d="M39.03,57.68c-.11.02-.09.04-.19.06-.25-.36-.43-1.05-.06-1.37.14.07-.26.35-.02.74.12.01-.02-.21.08-.47.22-.57.75-.2.75-.15.01.24-.24-.04-.26-.04-.32-.13-.41.45-.39.65,0,.02.08.07.08.07,0,.02-.06.06.03.2-.1.27.5.23-.02.31Z"/>
              <path class="cls-3" d="M39.66,57.08c-.4-.53-.66.07-.68-.18-.01-.19.62-.25.68.18Z"/>
              <path class="cls-16" d="M39.74,56.97c-.13-.15-.22-.21-.13-.38l.13.38Z"/>
            </g>
            <g>
              <path class="cls-3" d="M39.05,57.38c-.09-.13-.03-.18-.03-.2.31-.41.74-.09.58.26-.06.13-.36.23-.55-.07Z"/>
              <path class="cls-38" d="M39.42,57.52c-.27.08-.4-.36-.14-.45.32-.1.36.38.14.45Z"/>
            </g>
          </g>
        </g>
        <g>
          <g>
            <path class="cls-38" d="M45.21,56.59c-.07-.11-.26-.16-.17,0-.35-.03-.73-.06-.91-.45-.11-.25-.13-.72.16-.73-.15.08.05.03.16.14.14.15.24.38.27.41.12.15.11.17.34.12.09-.69.12-.3.14.15,0,.04-.04.13-.08.16.06.07.15.15.2.22-.04.02-.07-.02-.1-.02Z"/>
            <path class="cls-3" d="M44.71,55.97c.03-.29-.21-.47.17-.63.33.15.41.57.34.89h-.03c-.02-.44-.05-.83-.14-.14-.23.05-.22.03-.34-.12Z"/>
            <path class="cls-38" d="M45.22,56.22c.07-.32,0-.74-.34-.89-.64-.29-.1.41-.46-.03-.27.15.04-.24.53-.05.36.14.63.76.39,1.08,0,0-.1-.04-.12-.12Z"/>
          </g>
          <path class="cls-17" d="M45.04,56.59c-.09-.15.1-.11.17,0-.06,0-.11,0-.17,0Z"/>
          <g>
            <path class="cls-6" d="M45.05,57.76l.04.03s-.02.04-.02.07c-.09-.03-.02-.09-.02-.1Z"/>
            <path class="cls-18" d="M45.18,57.74s-.02-.04-.07-.02c.03-.12.06-.24.11-.35.06.05-.06.23.02.26.01,0,.16-.12.17-.13.02-.01.05.06.13-.02.14.19.36.4.46.62.17.36.18.7-.13.34-.08.13-.2-.06-.24-.06-.24-.02-.03.27-.2.11-.17-.16-.15-.61-.25-.75Z"/>
            <path class="cls-2" d="M45.23,57.36c.04-.09.11-.16.13-.25.14.07.13.08.1.22,0,0-.14.14-.04.17,0,0-.15.13-.17.13-.08-.04.04-.22-.02-.26Z"/>
            <path class="cls-7" d="M45.42,57.5c-.1-.04.04-.17.04-.17,0,.04.04.03.04.03.05.04.04.11.05.13-.08.08-.11,0-.13.02Z"/>
            <g>
              <path class="cls-38" d="M45.07,57.86s.02-.04.02-.07c0-.03.02-.04.02-.07.05-.02.04-.01.07.02-.3.62.52,1.39,1.06.88.44-.42-.12-1.55-.75-1.26,0,0-.04.01-.04-.03.03-.14.03-.15-.1-.22h.03c.66.05,1.3.62,1.08,1.32-.21.67-1.54.59-1.4-.57Z"/>
              <path class="cls-32" d="M45.18,57.74c.1.14.08.6.25.75.17.16-.04-.14.2-.11.05,0,.16.19.24.06.31.36.3.02.13-.34-.1-.22-.32-.43-.46-.62-.01-.02,0-.08-.05-.13.63-.29,1.19.84.75,1.26-.54.51-1.36-.26-1.06-.88Z"/>
              <path class="cls-20" d="M46.22,58.45l.02-.54c.07.17.09.38-.02.54Z"/>
              <path class="cls-14" d="M46.09,58.04c-.15.03-.09-.24,0-.23.1.01.07.22,0,.23Z"/>
            </g>
          </g>
        </g>
        <g>
          <path class="cls-17" d="M36.47,51.53s.06-.05.09-.08c.23-.22.43-.24.73-.3-.16.13-.38.2-.4.21-.07.05-.11.1-.18.16-.47.43-.59,1.35-.64.89,0-.05.37-.85.4-.88Z"/>
          <g>
            <path class="cls-38" d="M36.47,51.53s-.41.84-.4.88c.05.46.16-.45.64-.89.54.45.22,1.42-.52,1.22-.02-.52-.2-.01-.25.14-.18-.27-.25-.62-.14-.93.07-.21.71-.96.67-.42Z"/>
            <g>
              <path class="cls-3" d="M36.52,52.63c-.32.08-.27-.32-.17-.53.41-.86.69.39.17.53Z"/>
              <path class="cls-38" d="M36.47,52.54s-.12-.05-.13-.06c-.13-.21.1,0,.21-.08.3-.26-.38-.34.04-.38.24.13.05.52-.12.52Z"/>
            </g>
          </g>
        </g>
        <g>
          <g>
            <path class="cls-38" d="M51.53,51.86c-.07-.03-.05-.09-.27,0-.04-.06.11-.37.13-.44.16-.04.23-.25.44-.34.85-.36,1.15.49,1.01.45-.11-.24-.3-.45-.59-.43,0,.03.39.24.45.3.09.1.06.25.2.24-.04.59-1.19.81-1.31.2-.03-.04-.04.04-.06.03Z"/>
            <path class="cls-3" d="M51.61,51.64c-.19,0,.08-.44.29-.51.4-.14,0,.09-.05.14-.13.14-.22.37-.24.37Z"/>
            <path class="cls-16" d="M52.47,51.98c-.23-.23.1-.43.2-.15-.15-.06-.18,0-.2.15Z"/>
            <g>
              <path class="cls-3" d="M52.12,52.07c-.57.14-.43-.83-.03-.87.13-.01-.03.43.43.17.52.56.12.2.03.16-.71-.25.08.42-.42.54Z"/>
              <path class="cls-38" d="M52.14,52c-.2.07-.56-.28-.31-.46.3-.21.6.35.31.46Z"/>
            </g>
          </g>
          <g>
            <path class="cls-38" d="M51.23,50.76c-.23.41.05.12.07.12.06.02-.11.45-.14.52-.51-.78.02.15-.67.31-.23-.13-.52.16-.67-.32-.3-.94.83-1.57,1.41-.64Z"/>
            <g>
              <path class="cls-3" d="M50.33,51.24c.18.72.57-.21.31-.08-.02.01.05.07,0,.15-.16.25-.2.03-.31-.07-.1-.08-.07-.03-.11-.05-.02,0-.04.04-.04.04-.07-.13-.14-.11-.26-.06,0-.7.22-.46.25-.47.03-.02-.02-.44.42-.33.26.06.17.4.12.47-.06.09-.34.02-.45.14.23.2.58-.02.56.35-.02.28-.57.56-.48-.08Z"/>
              <path class="cls-38" d="M49.91,51.17c.12-.05.19-.07.26.06,0,0,.02-.05.04-.04.1.08-.1.06-.25.24-.09-.07-.06-.17-.06-.26Z"/>
              <path class="cls-3" d="M50.23,51.62c-.07.05-.27-.03-.26-.08.38-.3.33.03.26.08Z"/>
              <path class="cls-30" d="M51,50.93s-.16-.04-.16-.06c0-.04.29-.02.16.06Z"/>
              <path class="cls-38" d="M50.33,51.24c.12.1.15.32.31.07.05-.08-.03-.14,0-.15.27-.13-.12.8-.31.08Z"/>
            </g>
          </g>
        </g>
      </g>
      <path class="cls-37" d="M28.42,54.35c-.08.04-.45.02-.61.04,0-.04.85-.16.61-.04Z"/>
    </g>
  </g>
</svg>