<?xml version="1.0" encoding="UTF-8"?>
<svg id="Ebene_2" data-name="Ebene 2" xmlns="http://www.w3.org/2000/svg" viewBox="0 0 77.4 81.99">
  <defs>
    <style>
      .cls-1 {
        fill: #b2b4b1;
      }

      .cls-1, .cls-2, .cls-3, .cls-4, .cls-5, .cls-6, .cls-7, .cls-8, .cls-9, .cls-10, .cls-11, .cls-12, .cls-13, .cls-14 {
        stroke-width: 0px;
      }

      .cls-2 {
        fill: #acafab;
      }

      .cls-3 {
        fill: #e4e6dd;
      }

      .cls-4 {
        fill: #628560;
      }

      .cls-5 {
        fill: #d0d4d0;
      }

      .cls-6 {
        fill: #caceca;
      }

      .cls-7 {
        fill: #a6aaa6;
      }

      .cls-8 {
        fill: #100f10;
      }

      .cls-9 {
        fill: #fbfbfb;
      }

      .cls-10 {
        fill: #fdfdfd;
      }

      .cls-11 {
        fill: #4f7454;
      }

      .cls-12 {
        fill: #fcfcfc;
      }

      .cls-13 {
        fill: #f2b029;
      }

      .cls-14 {
        fill: #f1871f;
      }
    </style>
  </defs>
  <g id="Ebene_7" data-name="Ebene 7">
    <ellipse class="cls-14" cx="36.89" cy="64.47" rx="28.34" ry="17.34"/>
    <circle class="cls-13" cx="36.8" cy="64.47" r="15.55"/>
    <g>
      <path class="cls-11" d="M6.94,29.48v.15c-1.08-.62-.97-1.15,0-.15Z"/>
      <g>
        <path class="cls-8" d="M63.37,46.53c.34.04,3.23.89,3.39,1.06v.3c-.78-.48-1.76-.62-2.64-.75-.67-.1-1.96.19-2.49-.15-.89-.56,1.53-.47,1.74-.45Z"/>
        <path class="cls-4" d="M12.37,15.3c.25.46,1.83,3.15,1.66,3.47-.07-.02-.29-.14-.3-.15-.25-.3-.8-2.94-1.96-3.17.03,0,.13-.25.6-.15Z"/>
        <path class="cls-7" d="M6.64,26.62s.06-.04-.15-.15c-1.02-1.16-1.8-2.79-1.06-2.04.1.1,1.78,2.64,1.21,2.19Z"/>
        <path class="cls-8" d="M8.45,23.15c.16.38.44,1.69.6,2.26-1.03-1.65-1.28-3.85-.6-2.26Z"/>
        <path class="cls-6" d="M7.77,24.05c.27-.06.18.16.3.3.84.99.06.96-.3-.3Z"/>
        <path class="cls-8" d="M39.83,3.08c.04-.17-.12-.4.38-.75l-.38.75Z"/>
        <path class="cls-4" d="M6.94,29.63v-.15c.2.21.91.68,0,.15Z"/>
        <g>
          <path class="cls-8" d="M36.82.82c.02,2.08-1.17,3.53-1.21,4.3-.1,1.9.96-1.14.91.3,0,.27-1.93,1.83-.38,5.05,1.02-4.06-.05.35,1.06,2.26.63-2.68,1.37-4.5-.83-6.41,2.57,1.94.3-1.01.75-2.72l.45,1.21c.43-1.48-.52-5.66.45-2.26-.63,3.95,1.4,5,.91,2.26-.04-.22-.54-.71-.6-1.06-.02-.12.17-1.42-.15-2.34.55,1.09.48,1.65.83,2.72.46-2.61.53-4.22.53-.98l.3-.08c-.04.15-.21.85-.08.91.48-.55,1.06-1,1.58-1.51-.93,1.75-2.33,1.81-1.74,4.22l1.58-2.04c-.11-.91.42-1.64.6-2.49.13-.6.04-2.3.3-1.13.23,1.02-.47,2.34.08,2.79.3.01,1.26-4.34.83-1.13-.13,1-1.17,2.78-.15,3.47-.11-1.57.23-4.48.38-1.13.75-1.43.84-1.66.23,0-.3.8-1.11,2.24,0,2.64l.15-1.58c.06.54.21,1.11.23,1.66,2.02-.95-.3-1.65.91-5.28v3.32c.08,0,.29-1.37.38-1.58,1.14-2.91-.17,2.04.23,2.34,2.35-2.77,2.61-2.73.38.23l.23,2.19c.82-2.93,1.21-4.94.6-.3.64-1.29,3.18-6.31,1.58-2.04-.38,1.02-4.36,7.11-4,7.32,1.41-.15,2.01-.12,2.11-1.66-.04,1.35.69,1.54.91.3,1.29,2.06.93-2.25,1.13-4,.4,4.55-.18,3.23,1.81.3.03-.28-.79-1.97-.38-4l.6,3.32c2.12-4.34,1.85-3.09.23.53.98,2.08.55.59,2.26-.91-1.53,2.57-1.43,2.73.08,5.36,1.47-1.06.61-2.5.83-3.7.04-.23,1.35-3.81,1.06-1.96-.06.4-.7,1.48-.75,1.81-.57,3.5.75.1,1.74-2.94.34.09-1,3.23-.75,3.32,4.5-5.72-1.29,1.99-1.66,4.38,2.75.3,2.66-5.77,2.41-1.06.31-.4,1.02-1.35,1.43-1.51l-.53,3.02.83-3.02-.08,2.26,1.66-1.21.08.23c-1.21,1.05-1.91,2.01-2.57,3.47,5.33-4.56,1.46-.72-.75,1.51l.23.23c3.69-.46,4.36-5.62,2.19.83,1.98.16,1.4-.58,1.89-2.04.28.04-.26,1.39-.08,1.89.08.22.46-.51.45,0-2,2.94-1.27,3.68-.45,2.26.03-.05-.04-.9.23-.83.19.05-.11.72.38.23,1.11-1.12.67-3.32.83-3.39.12-.06.14.79.45.75.11-.01,1.31-2.32,1.28-1.43-2.16,3.54-3.93,6.53.75,1.81l-2.11,2.57c.13.09,2.78-1.04,1.89-.38-.26.19-7.38,3.08-3.02,2.11.91-.2,1.84-.85,2.79-.98-4.81,2.28-5.61,5.38-.68.68l-1.74,2.34c2.17-.12,2.84-2.04,1.21,1.06l.23.08,1.51-1.36c-.44,1.09-2.12,2,0,1.21,2.12-2.14-.36,1.16,0,1.36,2.86-1.63,2.3-3.84.91,1.96,4.5-5.91,2.68-2,.38.38-.26.27-3.25,2.29-3.02,2.57,2.25.47,2.37-.58,2.64-.68.07-.03.05.42.3.3.59-.28,1.71-1.45,2.57-1.66.39.19-2.95,4.51-3.24,4.9.42.55,6.26-1.71,1.89.23-2.21.02-5.04,1.7-3.02,1.51v.3c-1.65.13-4.83,1.02-1.21,1.36,2.32.21,4.28-.68,6.04-2.11-1.05,2.22-4.53,2.13-1.96,2.57,1.37-.83.51-.24.38,0-2.66.24-5.33-.05-7.92-.6-.99.93-2.63.34-3.32,1.81,1.9.05,6.21-2.64,2.26-.15.93.14,2.36-.95,3.02-.91,1.43.11-.64.3-1.13.83,3.58.96,1.18.26-.53.23-6.01-.13-4.84.23.45.75-2.43.4-5.29-.77-7.02.98,2.42,2.44,1.7,2.59,5.51,1.28-.98-1.17-.06-.26.75-.45.75-.18,3.49-2.23,5.13-2.11.68-.33,1.53-2.67.75-.15,1-.17,1.28-.32,1.89-1.06,3.13-.46.23.17.3.53,2.18.04,2.12.34-.08.38-1.52,1.56-3.99.35-6.87,2.34,4.72.54-.59.16-2.41,1.21,2.96,1.13,5.75,1.99,8.68.23l-2.49,1.28c.02.1,2.78-.16,1.58.23-.68.22-6.24-.43-1.51.6,1.67.36,1.75.18-.45.15-.24.1.34.22.23.6-.73-.82-7.12-3.05-7.54-2.49.93.71,4.64,4.39,2.64,1.28,3,3.4,4.04,2.22,5.51,2.41.28.04.52.03.75.23-.3.18-5.74.22-5.73.6.73.32,1.89,1.05,2.64,1.13,1.34.15,2.77-.63,2.11,0-1.86.44-2.17.41-3.85-.15-.43-.14-1.5-.79-2.04-1.06-2.46.69-5.1.77-2.72,1.36,1.5.37,4.3.11,4.53.15.11.02.08.21.08.3-6.62-.03-.05.87,1.43,1.96.13.1.13.2,0,.3l-8.6-2.72c.77.97,3.56,1.39,4.38,1.81.23.12.33.29,0,.3-.23,0-3.89-1.29-4.38-1.51-1.38-.62-6.83-4.19-7.85-4.07-3.3,2.46-5.82,5.76-7.92,9.28.2,3.78-.48,13.28,1.21,16.14.91,1.55,5.18,4.03,7.17,3.39.36,1.07,2.23.75,3.02.91.06.01.13.43.3.45,1.92.29,4.6.58,5.73-1.21l-.75,1.36c2.62-1.36,3.23-1.81.68.38,2.91-.06,5.84-1.03,8.37-2.49.31.14-1.55,1.22-1.81,1.36-3.09,1.69-5.01,2.13,1.13.38-1.63,1.45-3.94,1.34-5.96,1.89,1.99-.08,4.93.13,6.79-.15,2.41-.37,5.86-2.42,1.06.45,2.32-.93,5.26,1.18,6.79-1.51-.23,2.44-2.98,1.4-3.02,2.11,3.61-.32,5.77,1.83,9.73.83-3.15,1.5-6.49-.08-9.73-.38-3.45.59-12.5-.47-14.18-.15-1.56.3,1.61.49,1.58.68-5.44.57.62,1.25,2.49,1.13.33-.02,4.57-1.25,1.96,0-1,.48-8.77.58-10.26.45-1.18-.1-2.41-.74-3.62-.75l.91,1.06c-3.71-.41-12.3,1.04-13.13-1.21-2.85,3.09-1.99-3.01-3.17,1.36-5.6-1.74-3.09-.34-3.47-.15-.08.04-1.73.04-1.81,0-.24-.11.4-.72-.15-.75l-3.92.75c1.83-1.55.36-1.37-1.96-.45,4.16-4.34.85-1.22-1.66-1.06-1.06.07.13-.64-.3-.91-.61-.37-8.99,2.32-14.03.75,4.09-.58,8.43-.36,12.22-2.26-4.99,1.18-10.11,1.09-15.16,1.89l4.07-1.06c-4.18-1.13-3.97-.96.15-.6-.22-.63-.99-2.05-1.06-2.57-.21-1.58.69,1.65,1.89,2.79,2.89.41,5.2.18,7.92-.83-.39-.22-4.27.73-4.07.3,4.15-1.09,8.38-1.42,12.6-2.19-4.87-4,.72.73-.15-1.51,1.35,1.4,1.12.29,1.21.3.45.06,1.87,1.28,1.96,1.21.2-.15-.05-.75.15-.91.04-.03.7.6.75.6.11,0,.85-.76.91-.75.44.06-.35,1.79,1.81-.75,3.09-1.07,2.28-.27,2.41-.3.89-.18,2.27-2.25,1.66-3.32.12-.03.57,2.12,1.43.08.86-2.04,1.46-14.6-.83-16.82-5.35-.11-7.65-1.41-11.77-4.53l-2.87,1.51c.8-1.38,3.35-1.71-.23-1.28,4.34-1.67,1.44-1.47-1.13-.23-.03,1.35-1.06,4.78-.6,1.21l-2.11,2.26c-.2-1.25,2.55-2.79,1.81-3.17-.4-.2-7.49,3.29-3.09.83-2.34.26-7.98,2.31-2.11-.08.36-.15,3.43-1.47,3.47-1.28.02.1-1.84.91.53.38.49-.11,4.6-1.6,4.6-1.89,0-.6-1.12-.91-2.64.08,2-1.48.48-1.56-1.06-1.06-.49.16-.97,1.01-1.21.91-.4-.18,1.09-.96-.15-.91-1.34.06-2.71,2.55-4,3.17-.18-.51,1.16-.9.23-.91-1.48-.02-2.97.64-4.38,1.06,1.59-1.23,4.32-1.16.3-1.21-1.61-.75-.43-.29.38-.3,2.27-.04,1.69-.45,2.64-.75,2.15-.69,5.77-1.49,1.06-1.51-1.07.61-1.96,2.27-2.49,1.81.71-.42,1.06-1.2,1.66-1.74q-1.32-.26-2.64-.53c3.45-.17-1.95-1.65-1.89-1.89l2.19.53c-1.81-3.57.28.06.6.15.22.06,1.55-.42,1.58-.68.01-.07-.63-.58-.75-1.28,1.51,2.33,4.84.43,0-.75-2.65-.65,2.55.32.53-.75-1.26-.67-5.1-1.54-6.71-1.74l3.77.15c-1.09-1.84-1.38-.53-1.74-.53-.24,0-1.85-1.51,0-.3.79-.7,4.52-.9,1.58-1.13,2.51-2.01-2.15-2.18-2.11-2.41l2.19.23c-1.93-2.29-.36-1.04.6.15.17-.05-.44-1.31.23-1.21-.31,1.1.7,2.25,1.96,1.89-.55-.76-1.27-1.28-1.96-1.89-.5-.44-1.17-.66-1.51-1.28l.08-.23c2.61,2.05,1.88,1.67.91-.75-1.67.99-.2-.29-.23-.38-.07-.25-3.59-.73-.3-.6-1.99-2.14.23.04.38.08.48.12,1.41-.26,1.96-.3.18-.19-1.02-.68-.83-1.51.91,1.82,2.36,1.79,4.22,1.28,0-.22-2.09-.66-3.92-1.89-1.18-.79-2.28-2.09-3.47-2.94.53,0,1.23.67,2.11,1.13.21.11.14.15.15.15.02,0,.08.34.38.3.73-.28-1.05-1.27-.6-2.57.9,3.92,5.19,3.86,1.28.68.21,0,1.3.48,1.36.53.42.38,2.66,6.1,2.04.6.81,1.07-.05,2.51,1.89,1.74-3.03-3.2,2.6,1.7.08-1.43l-.53-.08c.98.18.22-1.51-.08-1.74-.34-.26-2.24-.18-3.39-1.66.6.12.73.52,1.28.45-.82-2.68.85,1.61,1.74.38.16-.23-1.42-2.09-1.06-2.57-1.78-1.11-3.87-3.92-3.09-3.7,4.63,5.79,3.29,2.41-.08-1.43l1.13,1.13c-.85-3.31.63,1.11,1.06.91l-.3-1.81c1.72,3.01,3.42,2.27.38-.53,1.99,1.09.51.48.68-.68.24.17.21.3.23.3.91,1.53,1.53,4.97,3.32,4.6l-1.74-2.79c.41.48.67.9,1.13,1.36.02.02-.08.25.23.45l.08-.3c.21-3.98.04.88,1.28,1.81-.27-3.91.3-2.59.38.23.96.93,3.38,2.71,1.81,0-.22-.38-1.76-1.19-.53-.83.83-.68-2.64-4.23-4.6-4.68-1.55-2.82-.23-.53.08-.3.11.08,1.93.61,2.41,1.36.43-.21-2.45-5.92.91.45l-.15-2.72c.74,1.44.27,3.44,1.21,4.07l.08-4.15c-3.99-2.24-4.87-6.43-.23-1.13.15-1.46-.53-1.82-1.13-2.94,2.95,2.76,2.7,2.24.3-.6-1.44-3.56-.06.46,3.24,2.94.44-.06,0-1.94.98-2.26-1.02,1.6-.33,2.9,1.13,3.92l-.68-3.92-.15-.23.3-.08c.78,2.28.59,4.83,1.89,4.38.29-.1.53-3.64-1.89-4.38-.08-.25-.39-.36-.45-.53-1.15-2.97.12-.39.3-.15,1.58,2.08,2.49,1.13,1.28-1.13,1.38,1.91,1.79,5.43,1.36.3.24,1.29,1.53,4.74.45,2.72-.38.16,1.89,3.25,1.74,1.74-.04-.38-2.43-3.55.23-.38,1.42-1.48-2.91-6-2.94-6.71,0-.04.44-.26.45-.6.71,2.99,1.95,2.22-.6-1.51,2.38,2.89.66,1.48.91-.75.15,1.8,1.68,4.73,1.36,1.06h.3c-.41,2.1.58,2.45,1.13,4l.53-1.43c-.42,8.28.77.5.15-2.72.4,1.69.54,3.16.91,1.06.35-2.01-.86-6.88.45-1.21.07.57-.19,1.01-.15,1.58.28,3.93,1.13,2.57.3-.3.32-.18.21.2.45.08l.08-2.64c.22,0,.05,3.66.83,4l.3-1.96c.23,5.3.6.41,1.36-1.36-1-1.5.09-.52.68.53-.49-3.53.21-.04,1.06,1.36,1.84-1.1.01-2.6.08-3.85.08-1.63.28.52.3.6.19.59.85,1.12.91,1.81.02.26-.59,2.06-.08,2.04,1.22-1.83,1.01-2.62.98-4.75h.3c-.17,1.59.02,4.36.91,1.36.25-.84.15-3.17.3-1.13Z"/>
          <g>
            <path class="cls-10" d="M60.05,49.4l-.15.75c0-.09.04-.28-.08-.3-.22-.04-3.02.22-4.53-.15-2.38-.59.25-.67,2.72-1.36.54.27,1.61.91,2.04,1.06Z"/>
            <path class="cls-10" d="M8.75,42.16c-.04-.23.03-.51,0-.75,4.84,1.18,1.51,3.09,0,.75Z"/>
            <path class="cls-10" d="M41.42,37.48c.13-.03.45-.04.53.08.34,4.52,1.86,3.66-1.28,7.02l-.45-2.87c-.46,4.95.2,4.15-4.68,5.13-.47-.24,3.02-6.94,3.24-7.62l.38-.38c.71.69,2.01-1.31,2.26-1.36Z"/>
            <path class="cls-10" d="M22.78,37.63s.08-.25-.23-.45c-.26.29.23.43.23.45,0,.15.05.52-.08.6-2.34-1.52.49-2.17.38-2.64-1.61-.29,1.79-1.97,2.26-1.51,2.34,4.71,3.79,3.76,3.55,10.34-1.93-1.46-3.34-4.42-3.62-4.38-.13.02.11,1.22-1.89-.98.25-3.59.1-1.09-.23-.98-.03.01-.29-.37-.38-.45Z"/>
            <path class="cls-10" d="M24.82,46.68c.23-.02,3.72,1.16,4.53,1.21.67,1.67,1.24,2.97,2.49,4.3-3.35.04-7.35-1.29-9.2-4.22.02-.16,2.06-1.27,2.19-1.28Z"/>
            <path class="cls-10" d="M34.93,14.7c.55-.04,1.11.03,1.66,0,.65.46-1.92,9.56-2.41,9.51-.41-1.07-1.85-2.34-1.89-3.39,1.19-3.96-.07-5.93,2.64-6.11Z"/>
            <path class="cls-10" d="M37.34,25.41c.19-.07,1.01-.05,1.13.23.91,2.06-1.93,7.48-3.39,9.28-.12-.16-.51-.45-.53-.53-.06-.28.67-5.46.75-5.73.06-.18,1.86-3.18,2.04-3.24Z"/>
            <path class="cls-10" d="M60.13,28.88c1.5-.15,1.03,2.13,1.13,3.09-3.65,1.94-1.95.98-1.51.15.5-.94-.77.5-1.74,1.13v-.91l-1.36,1.51c1-3.7-.74,2.34-.6-.91-3.51,4.82-.41-1.58.38-2.34.15-.14,3.49-1.71,3.7-1.74Z"/>
            <path class="cls-10" d="M51.98,33.71c-.53,1.65-.76,3.33-.83,5.05q-2.38,1.02-4.75,2.04c-.13-3.11,1.08-2.67,2.72-4.22.98-.93,1.89-1.93,2.87-2.87Z"/>
            <path class="cls-10" d="M14.71,34.61c1-.17,5.53.73,5.21,2.19-.28,1.23-7.08,2.76-5.21-2.19Z"/>
            <path class="cls-10" d="M16.67,38.99c1.46-.11,3.96,1.53,4.6,2.94-.01.13-.83.48-.98.53-3.26.94-.88-.87-.83-1.13.39-1.9-1.09,1.02-1.43,1.13-2.72.9-2.47-1.18-2.19-3.09.07-.15.78-.37.83-.38Z"/>
            <path class="cls-10" d="M40.81,46.38c.14-.02.62-.04.68.08l-5.51,5.36-.38-3.7c.08-.27,4.72-1.67,5.21-1.74Z"/>
            <path class="cls-10" d="M9.43,32.8c3.74.93,4.91.86,4.45,4.15-.1.17-3.56-1.14-3.7-1.28-.42-.42-.32-2.22-.75-2.87Z"/>
            <path class="cls-10" d="M13.81,43.06c3.71-.14,2.8,1.14.3,2.57-4.5-.26-5.63-2.36-.3-2.57Z"/>
            <path class="cls-10" d="M7.77,36.12c1.7.1,3.44.29,4.9,1.28-3.3,1.73-3.03,4.48-4.9-1.28Z"/>
            <path class="cls-10" d="M16.52,43.21c1.37.32,4.34.02,4.53.15.06.04.25,1.37.23,1.43-.14.34-2.63.29-3.09.38l-1.66-1.96Z"/>
            <path class="cls-8" d="M22.78,37.63s-.49-.16-.23-.45c.31.21.21.43.23.45Z"/>
            <g>
              <path class="cls-10" d="M38.17,1.42c.32.92.13,2.22.15,2.34.06.35.56.83.6,1.06.49,2.74-1.54,1.68-.91-2.26-.98-3.4-.03.79-.45,2.26l-.45-1.21c-.45,1.7,1.82,4.65-.75,2.72,2.2,1.91,1.46,3.74.83,6.41-1.11-1.91-.04-6.32-1.06-2.26-1.56-3.22.37-4.78.38-5.05.05-1.44-1,1.6-.91-.3.04-.77,1.22-2.22,1.21-4.3.25.05.4-.04.6-.15.15.06.74.7.75.75Z"/>
              <path class="cls-10" d="M9.05,22.99c1.16,1.48,3.06,1.4,3.39,1.66.29.23,1.06,1.91.08,1.74l.53.08c2.53,3.13-3.1-1.77-.08,1.43-1.94.77-1.07-.67-1.89-1.74.62,5.49-1.62-.22-2.04-.6v-.15c-.16-.57-.44-1.88-.6-2.26.25-.14.28-.22.6-.15Z"/>
              <path class="cls-10" d="M63.52,46.38c-.02.07.02.17-.15.15-.21-.02-2.62-.11-1.74.45.53.34,1.82.05,2.49.15v.45c-1.47-.2-2.51.99-5.51-2.41,2,3.11-1.71-.57-2.64-1.28.43-.56,6.81,1.67,7.54,2.49Z"/>
              <path class="cls-10" d="M11.77,15.45c1.16.23,1.72,2.87,1.96,3.17-.46-.46-.72-.88-1.13-1.36l1.74,2.79c-1.79.36-2.41-3.08-3.32-4.6.25,0,.5-.01.75,0Z"/>
              <path class="cls-10" d="M7.54,28.88s.34-.25.3-.6c1.83,1.22,3.92,1.67,3.92,1.89-1.86.51-3.32.54-4.22-1.28Z"/>
              <path class="cls-10" d="M20.52,10.02l.68,3.92c-1.46-1.02-2.15-2.32-1.13-3.92.11-.04.31.02.45,0Z"/>
              <path class="cls-10" d="M41.79,2.17c-.18.85-.72,1.58-.6,2.49l-1.58,2.04c-.59-2.41.8-2.47,1.74-4.22.03-.03-.16-.4.45-.3Z"/>
              <path class="cls-10" d="M6.79,48.04c.56-.22.61-.1,1.21-.45.53.46,1.42-1.2,2.49-1.81,4.72.02,1.09.81-1.06,1.51-.95.31-.37.71-2.64.75Z"/>
              <path class="cls-10" d="M28.06,5.04c.21,0,.07-.17.3-.3.83,2.87-.02,4.23-.3.3Z"/>
              <path class="cls-10" d="M43.61,6.1l-.15,1.58c-1.11-.4-.3-1.84,0-2.64.28,0,.1.53.15,1.06Z"/>
              <path class="cls-10" d="M57.49,11.53l-.83,3.02.53-3.02c.2-.08.28-.26.3,0Z"/>
              <path class="cls-10" d="M51.45,26.47c-1.73-2.88,1.17,3.06,1.21,3.39.27,2.29-2.06,4.38-1.74,2.49.19,2.07-2.41,3.12-3.77,4.53l-.23-.23.91-5.58c2.93-2.75,4.17-1.08,4.38-1.51-.68-.31-.78-.14-1.36-.75-.8-.85-1.96-3.72-.15.3-2.64-.86-1.85-1.01.23-4.6.9,1.32,2.28,2.58,2.04,4.3-.3.54-1.09-2.86-1.43-2.79-.13.08-.07.27-.08.45Z"/>
              <path class="cls-10" d="M41.57,26.31c1.09,4.69-2.28,9.12-4.07,13.28l-1.74-2.94c2.35-3.2,4.29-6.67,5.81-10.34Z"/>
              <path class="cls-10" d="M48.28,21.34s.49-.4.23-.75c-.16.26-.24.44-.23.75-.91,1.97-1.72,3.14-.83,0-.1-.04-.82,1.53-1.21,1.66-3.09,1.03.41-1.69.98-2.34l-.23-.23c-3.86,1.67-1.76.8-.98-.6.94-.75,2.12-2.97,3.7-1.06l.53-.83c-1.98-.13-.68-.23,1.28-1.13.79,3.63.62,3.74-2.26,5.73-.77-.9,1.74-3.34-.08-2.04-.08-4.66.04,1.61-.83,1.28-.13-.08-.07-.27-.08-.45Z"/>
              <path class="cls-10" d="M56.66,24.96c2.01.67,5.89,1.66,7.54.6.21.09-1.44,2.62-1.36.75-.39,2.98-3.29,2.85-.98.38l-.23-.23c-2.13,2.1-3.42,3.53-1.43.08l-1.43,1.89c-.35-.22-.41-4.89-.6-.75l-1.06-1.81c.28,2.23,2.24,3.03,0,3.62-.76-3.37.57.56-1.66.91-.11-1.7-.14-3.96,1.21-5.43Z"/>
              <path class="cls-10" d="M25.12,20.73c.95-.74,3.61,3.16,4.15,3.85-.17,2.28,1.63,4.91,2.11,6.79.7,2.73-2.42-1.8-2.11-4.83h-.3c.58,4.11-.56,1.2-3.17-2.11-.16-.82.29-2.44.15-2.72-.08-.17-1.53-.44-.83-.98Z"/>
              <path class="cls-10" d="M17.43,14.09c.64.16,2.34.04,2.72.15.54.16,1.49,2.13,1.89,2.64-2.3.09-1.93-.69-2.49-2.49v2.11c-.75-.52-.36-3.03-.91-1.66-2.14-1.9,1.78,2.08-.53,1.43l1.96,1.96c.41,3.28,1.13,4.19-.98,1.13,1.61,3.49,1.89,2.95-1.43.83l-.23-6.11Z"/>
              <path class="cls-10" d="M48.96,23.75l-.98,2.34-.3-.6q-.3,2.11-.6,4.22c-5.28,2.2-1.19-.77-.83-3.24-.64.52-2.45,3.99-2.64,4.15-1.35,1.1,1.62-3.07,1.66-3.92.05-1.1-.82,1.65-2.04,3.09-.18-3.63,3.26-4.37,5.73-6.04Z"/>
              <path class="cls-10" d="M17.73,25.56c.08-.02,1.33.38,1.51.45,1.43.57,4.27,4.18,3.47,4.68-6.01-7-.44-.18-.68.23-2.48-.51-3.35-.62-3.55-3.24-.26.81.09,1.51.08,1.58-.13.91-2.36-3.28-.83-3.7Z"/>
              <path class="cls-10" d="M26.78,33.41c.31-.04,3.87,3.01,4,3.24.58,1.07.14,4.92-.68,6.11-.38-1.18-.27-2.88-.68-4-.43-1.18-4.1-5.15-2.64-5.36Z"/>
              <path class="cls-10" d="M60.58,32.8l.23.08c-1.94,2.5-4.46,4.55-7.02,6.41-.32-2.17-.15-2.36,1.89-2.94-4.77.75,1.94-2,4.9-3.55Z"/>
              <path class="cls-10" d="M54.7,19.37l.23.08c-.82,2.53-.09,5.26-1.13,7.77-.63-2.08-.57-5.17-.75-.91-.41-2.06-.19-.72-.45-.6-.11.04-1.29-1.75-1.28-1.89.02-.28,2.98-3.87,3.39-4.45Z"/>
              <path class="cls-10" d="M51.07,12.89c.15,0,.3-.05.38.08l.15,3.32c-3.21,1.48-1.53.64-1.51.15.04-.75-.53.5-1.28.83-3.24,1.44-1.5-1.1-.38-2.34.32-.35,2.37-2.05,2.64-2.04Z"/>
              <path class="cls-10" d="M26.78,29.78l4.45,3.24.08,2.79c-1.21-2.62-.65-.81-1.21-.75-.8.08-3.76-4.06-3.32-5.28Z"/>
              <path class="cls-10" d="M14.03,18.77c.17-.32-1.41-3.01-1.66-3.47,1.97.44,5.44,4,4.6,4.68-1.23-.36.31.45.53.83,1.57,2.71-.85.93-1.81,0-.08-2.82-.65-4.14-.38-.23-1.24-.93-1.07-5.79-1.28-1.81Z"/>
              <path class="cls-10" d="M34.63,8.96c.43.3-.51,1.3.3.6.74.6,1.94,4.09,1.74,4.45-4.38,1.04-5-.55-.75-2.26l-2.72.75c.31-.29.41-1.13.6-1.36.51-.59,2.84-.97.3-.6l.53-1.58Z"/>
              <path class="cls-10" d="M40.06,11.53c1.09,1.85,3.14,3.61.91,5.43l-.23-.08c1.05-3.58.01-.87-.53.83l.08-1.89c-1.53,3.05-.36-.12-.3-.75.2-2.4-.11-1.49-.68,1.13-.54-1.61.27-3.14.75-4.68Z"/>
              <path class="cls-10" d="M37.8,19.52c.2,0,.68,1.07.68,1.13-.02.66-.84.26-.6.6.13.19.66-.04.91.15.57.46,1.85,5.06-.15,3.17.15-4.2-.03.14-.15.3-1.02,1.43-.5-1.99-.38-2.34-1.87,4.46-.46-.53-.45-2.41l-.68,3.39c-.22-.19-.62-2.15-.6-2.26.02-.11,1.32-1.74,1.43-1.74Z"/>
              <path class="cls-10" d="M18.18,21.18c3.19,1.49,4.34,3.66,4.68,7.09-.46-.51-5.3-6.76-4.68-7.09Z"/>
              <path class="cls-10" d="M58.77,19.22c1.69-.25.36.92-.53,2.64-.77-4.35.44,1.75-1.36,1.21.92-5.52.23-1.53-.83.68-.52-2.53-1.37-.84-.98-2.94,1.24-.28,3.3-1.53,3.7-1.58Z"/>
              <path class="cls-10" d="M49.72,40.35c.22,0,.41-.07.38.23-1.86,2.9-2.83,2.58-5.51,4.15l-.23-.23c.59-.53,1.15-2.48,1.58-2.79.16-.12,3.57-1.36,3.77-1.36Z"/>
              <path class="cls-10" d="M33.72,36.88c1.42,3.15,2.24,3.17.15,5.88-1.84-2.93-1.52-2.82-.15-5.88Z"/>
              <path class="cls-10" d="M13.05,30.84c1.99.46,4.58.88,4.9,3.24-3.27.38-3.5-.58-4.9-3.24Z"/>
              <path class="cls-10" d="M31.61,3.08c1.77,1.97,1.19,3.07.6,5.43-.22-.04-.18-2.81-.23-3.09-.4-2.28.06,5.75-.98,5.36-.74-.68.21-7.68.6-7.7Z"/>
              <path class="cls-10" d="M45.19,31.29c.4-.01.75-.08.68.23-1.65,3.2-1.53,5.11-1.81.6-.5,1.17-.18,6.43-1.28,6.11-.59-.17.76-5.29.38-6.41.67-.12,1.89-.52,2.04-.53Z"/>
              <path class="cls-10" d="M45.49,14.09c.84-.1.09,1.71-.08,2.79-.62.55.08-3.17-.83-.83-.27-2.19-.69-.54-.08,2.19l-1.74,2.34c.42-2.33-.16-6.46,2.72-6.49Z"/>
              <path class="cls-10" d="M31.91,24.5c1.17,3.14,1.99,4.69,1.21,8.15-1.08-3.45-2.09-4.24-1.21-8.15Z"/>
              <path class="cls-10" d="M20.9,19.68c2.81,1.98,3,2.33,2.11,5.73-.32,0-.15-2.3-.45-.75-.88-.22-1.95-4.76-1.66-4.98Z"/>
              <path class="cls-10" d="M23.16,40.2c1.16.91,2.27,2.83,3.09,3.7,1.39,1.45,3.16,1.94,2.79,2.79-3.66.16-4.23-3.98-5.88-6.49Z"/>
              <path class="cls-10" d="M18.94,30.99l3.24.83c-.06,1.39.35,3.95-.91,3.32-.17-1.53-2.14-5.29-.91-1.81-.12.59-1.5-.42-1.43-2.34Z"/>
              <path class="cls-10" d="M12.45,38.08c.16.02,1.73,2.48,1.74,2.64,0,.3-.99,1.13-1.13,1.13-.13,0-2.15-1.16-2.19-1.28-.1-.35.64-2.59,1.58-2.49Z"/>
              <path class="cls-10" d="M60.73,34.46c2.31.63,3.36.17,2.26,1.06-.32.26-.84.6-1.06.15.24,1.18-2.62,1.84-3.85,1.28l2.64-2.49Z"/>
              <path class="cls-10" d="M13.2,28.28c.84-.05,4.87,1.4,4.75,1.89-2.57.98-8.55-1.68-4.75-1.89Z"/>
              <path class="cls-10" d="M28.74,17.26c.7,1.07,2.62,4.37,1.89,5.05.06.31,1.61-.45.53,4.6l-2.41-9.66Z"/>
              <path class="cls-10" d="M46.4,34.76c.22-.04.42-.03.38.23-.76,1.64.11,3.97-2.19,3.85-.18-.05.07-2.02-.23-2.64.31-.19,1.91-1.41,2.04-1.43Z"/>
              <path class="cls-10" d="M25.57,25.11c3.78,4.91,6.44,7.83.23,2.79l-.23-2.79Z"/>
              <path class="cls-10" d="M28.29,9.11c-.53.63.47,4.1-.3,2.11-.31.84.71,1.14.83,2.04.25,1.85-.79,4.02-.3-.3-.53.43-.25,1.64-.53,2.34-1.21-2.2-1.52-4.31.3-6.19Z"/>
              <path class="cls-10" d="M62.24,32.35l3.55.08c-.67,1.11-4,3.92-1.43.83-1.01.67-1.57,1.41-2.79.68,3.79-2.7-3.04,1.49.68-1.58Z"/>
              <path class="cls-10" d="M23.01,42.16c.52.05,1.68,3.05,1.51,3.17-2.97.11-2.84-1.48-2.57-1.66.17-.11,2.6.94-.68-.68-.01-.14,1.64-.84,1.74-.83Z"/>
              <path class="cls-10" d="M24.97,15.75c1.98,1.1,3.36.85,3.32,3.62-.93-.55-2.15-2.8-1.13-.68-.77,1.23-1.12-4.13-1.28-.38-1.17-.83-1.11-1.06-.91-2.57Z"/>
              <path class="cls-10" d="M31.61,41.86c.67,1.69,1.3,2.21.6,4.07-2.78-1.43-2.16-1.16-.6-4.07Z"/>
              <path class="cls-10" d="M24.82,13.79c.35.02,4.87,4.36.3,1.81-1.34-2.71.17.09-1.43-.83,1.99,1.91-.17,3.34-.3-.45.07-.19,1.36-.53,1.43-.53Z"/>
              <path class="cls-10" d="M35.99,21.94c.43,2.36.99,3.18-.6,5.13-1.26-1.66.1-3.38.6-5.13Z"/>
              <path class="cls-10" d="M20.67,9.72c2.41.74,2.17,4.27,1.89,4.38-1.3.45-1.11-2.1-1.89-4.38Z"/>
              <path class="cls-10" d="M44.44,23.15c2.45.33-.12.56-.98,1.28.36.2,2.37-.9,1.96-.15-.24.45-1.35.08-1.36.3-.02.36,1.96-.83-1.13,2.34-.71-2.3-.12-2.52,1.51-3.77Z"/>
              <path class="cls-10" d="M24.07,23.15c1.04,1.35.95,3.03.91,4.68-2.18-.79-1.28-2.6-.91-4.68Z"/>
              <path class="cls-10" d="M21.2,17.26c1.36-.19,1.58,1.15,1.66,2.26-2.59-3.08.07.48-.45.75-1.31-.05-2.97-2.77-1.21-3.02Z"/>
              <path class="cls-10" d="M9.28,30.84c2.46-.61,3.27,2.91,1.51,1.81-.52-.33-1.02-2.03-.6-.15-3.03.34-1.52-1.51-.91-1.66Z"/>
              <path class="cls-10" d="M44.28,39.14c.13-.05,1.36-.02,1.43.08.45.54-2.33,6.39-1.21,1.96-1.4,1.1-.62-1.87-.23-2.04Z"/>
              <path class="cls-10" d="M47.15,30.99l-.23,3.09-2.04,1.28c.18-.63,1.57-4.84,2.26-4.38Z"/>
              <path class="cls-10" d="M51.83,41.55c.56-.07,1.5.88,1.89,1.28l-1.66-.15c2.48,1.19.49.95-2.72.45.79-.42,1.32-1.21,2.19-.83-.26-.35-.15-.7.3-.75Z"/>
              <path class="cls-10" d="M14.71,25.56c.29-.23,2.49,2.92,2.64,3.24l-.23.23c-.99-.8-3.03-.28-2.64-2.04,1.54.87-.41-.92.23-1.43Z"/>
              <path class="cls-3" d="M29.2,6.4c1.47,2.26.62,5.02.6,7.54-.94-2.45-.4-5.01-.6-7.54Z"/>
              <path class="cls-10" d="M65.26,26.31c-.44,2.11-.43,2.7-2.26,3.92-.23-2.71.53-2.52,2.26-3.92Z"/>
              <path class="cls-10" d="M32.97,15.6l-1.06,4.98c-1.44-2.88-.63-3.01,1.06-4.98Z"/>
              <path class="cls-10" d="M38.85,9.57c1.11.52-.1,2.87-.45,5.28-1.08-1.68-.01-3.58.45-5.28Z"/>
              <path class="cls-10" d="M42.78,42.61c1.03,1.17.62,2.01-.75,2.57-2.94,1.18-.71-.92.75-2.57Z"/>
              <path class="cls-10" d="M38.85,17.11c.36.02.05.8.08.83.34.49.79.33.91.6.28.69.14,3.11-.91,1.81-1.06-1.32-.53-3.27-.08-3.24Z"/>
              <path class="cls-10" d="M33.87,7.3c1.3.11-.52,3.5-1.06,3.92-.68.02.32-3.98,1.06-3.92Z"/>
              <path class="cls-10" d="M54.54,44.12c.86-.23,1.85.41,2.26,1.21q-2.15.26-4.3.53c.31-.24,1.91-1.7,2.04-1.74Z"/>
              <path class="cls-10" d="M30.86,47.59c1.84,1.44,2.29,1.58,1.96,4.22-.32-.35-2.38-4.05-1.96-4.22Z"/>
              <path class="cls-10" d="M56.05,47.44c.44,0,1.83.65,1.21.91-.6-.13-4.49,1.27-4.15.08.04-.15,2.79-.98,2.94-.98Z"/>
              <path class="cls-10" d="M45.19,7.45c.55,1.51.58,2.68-.45,3.92-.4-1.88-1.12-2.45.45-3.92Z"/>
              <path class="cls-10" d="M49.41,23.75c1.6-.42-1.09,4.3-1.36,4.83-.26-.68.97-4.73,1.36-4.83Z"/>
              <path class="cls-10" d="M42.17,32.35c.5-.02.15,4.23-.3,4.22-1.26-1.87-.57-2.39.3-4.22Z"/>
              <path class="cls-10" d="M50.32,9.26c.21.02.56.87.53,1.13-.03.24-2.86,4.7-1.96,1.51.09-.32,1.23-2.66,1.43-2.64Z"/>
              <path class="cls-10" d="M41.12,5.34v4.38c-1.46-2.27-1.79-2.16,0-4.38Z"/>
              <path class="cls-3" d="M52.73,15c.92,1.65,1.63,2.84-.15,4.07l.15-4.07Z"/>
              <path class="cls-10" d="M19.99,38.54c1.69-.02,2.86,2.7,2.72,2.87-.76.9-1.4-2.64-4-2.64,1.02-.04,1.22-.23,1.28-.23Z"/>
              <path class="cls-10" d="M38.85,25.41c1.38-1.04.75,4.05-.15,4.38.16-.65-.04-4.23.15-4.38Z"/>
              <path class="cls-10" d="M12.3,22.69c6.23,1.41,1.07,2.11.23,1.13-.06-.06-.39-.96-.23-1.13Z"/>
              <path class="cls-10" d="M6.41,37.78c1.5-.26,1.66.8,2.34,1.74-.87.79-3.6-1.52-2.34-1.74Z"/>
              <path class="cls-10" d="M7.77,32.65c1.62-.62,1.88,1.59,1.66,2.72-.3-.26-2.41-2.43-1.66-2.72Z"/>
              <path class="cls-10" d="M40.36,10.62c.91-.65,3.01,2.85,2.41,3.02-1.28.37-1.84-5.42-1.58-.83-.08-.42-1.27-1.87-.83-2.19Z"/>
              <path class="cls-10" d="M59.52,22.99c1.4-.07-.62,1.77-.75,1.81-.37.1-1.1-.34-1.58-.38-.16-.23,1.8-1.41,2.34-1.43Z"/>
              <path class="cls-10" d="M46.02,19.83c-3.18,2.54-4.88,4.12-1.13-.3,1.41-.22,1.87-1.03,1.13.3Z"/>
              <path class="cls-10" d="M58.32,17.71c0,1.21-1.32,2.15-2.49,2.19,2.83-3.02-1.61,1.28-.08-1.28l2.57-.91Z"/>
              <path class="cls-10" d="M56.36,46.53c1.48.09,2.84.41,4.15,1.13-1.84.66-2.72.1-4.15-1.13Z"/>
              <path class="cls-10" d="M12,30.69c.47-.16,1.67,2.38,1.81,2.87-1.85.07-2.32-2.7-1.81-2.87Z"/>
              <path class="cls-10" d="M40.81,35.37c.29-.07.68,1.03.53,1.58-.08.3-3.72,4.25-.53-1.58Z"/>
              <path class="cls-10" d="M54.7,14.09l.38.08-.98,2.94c-.72-2.53-1.43-2.28.6-3.02Z"/>
              <path class="cls-10" d="M51.07,10.62c1.04,2.15-.16,1.48-2.26,3.47l2.26-3.47Z"/>
              <path class="cls-10" d="M17.13,11.98c.67-.55,4.13,2.69,1.51,1.66-.19-.08-1.37-2.4-.38-.23-.85.91-1.49-1.14-1.13-1.43Z"/>
              <path class="cls-10" d="M62.69,28.13c.13.1-.15,1.97-.23,2.19-.93,2.6-1.8-1.18.23-2.19Z"/>
              <path class="cls-10" d="M42.47,7.45c.18-.07,1.71.99-.45,3.17-.43,0,.3-3.11.45-3.17Z"/>
              <path class="cls-10" d="M25.12,6.55c1.09.77,1.08,3.26.75,3.32-.81-1.33-1.28-1.67-.75-3.32Z"/>
              <path class="cls-10" d="M56.66,12.43c-.42,1.76.22,2.26-1.36,3.47,0-1.33.19-2.67,1.36-3.47Z"/>
              <path class="cls-10" d="M46.25,21.03l-1.21,1.21c-3.84,2.81-2.31-.22,1.21-1.21Z"/>
              <path class="cls-10" d="M60.73,24.5c.09-.02,1.83,0,1.89.08.7.89-2.71,1.24-3.32.6.63-.13,1.32-.66,1.43-.68Z"/>
              <path class="cls-3" d="M55,27.52c.13.08-.15,2.96-.23,3.09-.85,1.53-1.34-1.35.23-3.09Z"/>
              <path class="cls-10" d="M53.19,37.48c.13,1.7.16,2.22-1.51,2.72-.6-.34.82-1.65,1.51-2.72Z"/>
              <path class="cls-10" d="M27.54,5.79c.62,1.42,1.33,2.54,0,3.62v-3.62Z"/>
              <path class="cls-10" d="M41.72,19.68c.37,0-.17,3.39-.6,4.07-.09-1.38-.37-2.94.6-4.07Z"/>
              <path class="cls-10" d="M51.53,46.68c1.13-.1,2.22.2,3.24.68-2.45,1.35-3.95-.48-1.06,0-.46-.49-2.01.02-2.19-.68Z"/>
              <path class="cls-3" d="M31.76,33.56l.98,1.74c-.83,4.16-.91-.02-.98-1.74Z"/>
              <path class="cls-10" d="M23.16,11.38c.94.96,2.47,2.51.08,2.04l-.08-2.04Z"/>
              <path class="cls-10" d="M17.58,24.35c.36,0,.45.05.75.15,2.52.83-1.59.75-2.94.53.22-.23,2.07-.68,2.19-.68Z"/>
              <path class="cls-10" d="M15.47,39.14c.22.15.49,3.23-1.74.38.03-.1,1.66-.43,1.74-.38Z"/>
              <path class="cls-10" d="M23.16,31.75c1.77-.86.2,2.91-.23,2.19.09-.44-.21-1.97.23-2.19Z"/>
              <path class="cls-3" d="M20.6,45.78l3.39.23c-1.25.31-2.79,1.32-3.39-.23Z"/>
              <path class="cls-10" d="M11.69,46.99c.84-.05-.7,1.99-2.64.98.55-.24,2.42-.97,2.64-.98Z"/>
              <path class="cls-10" d="M7.09,33.86c.69.61,1.41,1.13,1.96,1.89-1.27.36-2.27-.78-1.96-1.89Z"/>
              <path class="cls-3" d="M52.73,32.95l.23,2.34c-1.52,4.26-.76-.55-.23-2.34Z"/>
              <path class="cls-10" d="M23.76,27.97c.06-.05,1.4.61,1.43.68,1.02,2.16-2.62.15-1.43-.68Z"/>
              <path class="cls-10" d="M50.92,46.83c.67.57,1.57,1.08,1.06,1.36-1.43-.58-4.24-.85-1.06-1.36Z"/>
              <path class="cls-10" d="M7.62,30.99c.18-.03.89-.04.98.08.07.09-.81,2.33-.83.68.23,1.99-2-.47-.15-.75Z"/>
              <path class="cls-3" d="M23.76,17.11c.11-.09.81.61.83.68.56,1.89-.87,3.34-.83-.68Z"/>
              <path class="cls-10" d="M9.43,43.97c1.12.02,1.24,2.42-1.28.53.23-.09,1.21-.53,1.28-.53Z"/>
              <path class="cls-10" d="M46.4,13.79c.96-.37.25,2.44-.45,2.72-.11-.08.15-2.6.45-2.72Z"/>
              <path class="cls-10" d="M25.73,31.14c2.37,1.69.56,2.5.23,1.89-.04-.08-.33-1.82-.23-1.89Z"/>
              <path class="cls-10" d="M10.49,17.86c.39.57,1.36.77,1.51.91,1.59,1.42-.9,1.59-1.51-.91Z"/>
              <path class="cls-10" d="M13.96,10.77c.36.27.87.48,1.21.75,2.9,2.34-.34,1.61-1.21-.75Z"/>
              <path class="cls-3" d="M29.05,15.15c.06.87,1.38,2.44,1.43,2.79.26,1.61-2.5-2.58-1.43-2.79Z"/>
              <path class="cls-10" d="M7.92,27.52c.43.07,1.5.21,1.66.3,1.06.61.8,2.17-1.66-.3Z"/>
              <path class="cls-3" d="M15.16,22.39c1.09.02,2.38,2.13-1.13.38.24-.04,1.07-.38,1.13-.38Z"/>
              <path class="cls-3" d="M37.8,14.55c.33.41.45,1.24.38,1.74-.39,2.77-1.14-.58-.38-1.74Z"/>
              <path class="cls-10" d="M16.22,30.84l1.81.15c1.16,2.23-.83.46-1.81-.15Z"/>
              <path class="cls-10" d="M41.42,16.81l.23.08-.98,2.64c-.35-1.2-.33-1.94.75-2.72Z"/>
              <path class="cls-10" d="M13.05,37.93c.11-.05,1.94.8,2.19.98-2.16.57-2.39-.88-2.19-.98Z"/>
              <path class="cls-10" d="M42.02,4.59c.18.11.38,1.22.38,1.28,0,1.92-1.49-.34-.38-1.28Z"/>
              <path class="cls-10" d="M67.22,30.09c.58-.07-1.26,2.4-2.04,1.58l2.04-1.58Z"/>
              <path class="cls-10" d="M55.3,17.41l.23.08c-2.72,3.45-3.82,3.34-.23-.08Z"/>
              <path class="cls-10" d="M30.4,11.53c.72,1.2.37,2.04,0,3.32v-3.32Z"/>
              <path class="cls-3" d="M29.05,13.34c1.92,4.41.72,4.47.08,1.28-.04-.22-.14-1.27-.08-1.28Z"/>
              <path class="cls-10" d="M27.39,21.18c.36.16,1.29.41,1.43.83.63,1.89-1.14.13-1.43-.83Z"/>
              <path class="cls-10" d="M14.26,41.4l.98.83c-.1.12-3.25.55-.98-.83Z"/>
              <path class="cls-3" d="M47.91,13.34c.83.02-.07.8-.75,2.11.08-.66-.18-2.14.75-2.11Z"/>
              <path class="cls-10" d="M39.61,7.76c1.6,2.18.69,2.85.23,1.89-.04-.09-.3-1.62-.23-1.89Z"/>
              <path class="cls-3" d="M25.57,13.64c1.21-.27,1.35.65,1.51,1.66l-1.51-1.66Z"/>
              <path class="cls-10" d="M41.57,6.7c1.06.32.22,1.64.15,2.57l-.15-2.57Z"/>
              <path class="cls-3" d="M21.95,14.24c.83-.23,1.32,1.02.91,1.36-.11.09-1.61-1.17-.91-1.36Z"/>
              <path class="cls-3" d="M55.3,31.29c.09,0,.19-.03.23.08-2.55,3.84-1.54,0-.23-.08Z"/>
              <path class="cls-10" d="M15.62,25.41c2.18-.24,1.18,1.18,1.06,1.21-.08.02-1.02-.98-1.06-1.21Z"/>
              <path class="cls-3" d="M56.05,45.63c.58,0,1.17-.1,1.58.38-1.25.33-5.18-.34-1.58-.38Z"/>
              <path class="cls-3" d="M31.46,13.79c.14-.06.52.32.53.38.14.66-1.36,3.14-.53-.38Z"/>
              <path class="cls-10" d="M13.05,24.96c1.02-.57,1.27,1.13.75,1.36-.21.09-.83-1.32-.75-1.36Z"/>
              <path class="cls-3" d="M25.73,28.88c.15,0,.78,1.88.6,1.96-1.15-.77-.92-1.96-.6-1.96Z"/>
              <path class="cls-3" d="M21.65,15.45c.97.41,1.3.9,1.21,1.96l-1.21-1.96Z"/>
              <path class="cls-3" d="M53.64,32.2c.12.09.09.65.08.83-.3,2.8-1.35.28-.08-.83Z"/>
              <path class="cls-12" d="M51.98,12.89c.22-.02.29,2.14.23,2.49-.23,1.37-.46-.25-.23-2.49Z"/>
              <path class="cls-10" d="M32.36,22.99c.02.37,1.16,1.92,1.13,2.04-.24,1.17-1.48-1.88-1.13-2.04Z"/>
              <path class="cls-10" d="M56.2,15.6c.12.16-.34,1.08-.38,1.13-.94,1.14-1.5.46.38-1.13Z"/>
              <path class="cls-10" d="M48.66,29.18c.28-.06.64-.05.83.23-2.47,1.63-1.42-.1-.83-.23Z"/>
              <path class="cls-3" d="M24.22,32.5c.16-.05,1.42.84-.45,1.21-.17-.08.39-1.19.45-1.21Z"/>
              <path class="cls-10" d="M10.79,41.1c2.7,1.25.86,1.46,0,.45-.21-.25-.33-.17,0-.45Z"/>
              <path class="cls-10" d="M24.22,20.43c.19.14.46.28.53.53.48,1.67-.72,1.55-.53-.53Z"/>
              <path class="cls-3" d="M55.15,23.3c.12.15.68.92.68.98-.01.15-1.19,1.65-.68-.98Z"/>
              <path class="cls-10" d="M16.52,44.72c.41-.08.58.32.83.53-2.26.82-1.18-.46-.83-.53Z"/>
              <path class="cls-10" d="M32.82,11.68c.78-.05-1.02,2.46-.83.83,0-.06.77-.83.83-.83Z"/>
              <path class="cls-3" d="M16.37,22.39c.21-.02,1.63.9,1.58.98-.32.52-1.61-.4-1.58-.98Z"/>
              <path class="cls-10" d="M32.52,14.24c.13-.05.98.45-.45,1.81-.09-.03.37-1.78.45-1.81Z"/>
              <path class="cls-10" d="M22.71,19.98c.61-.36,1.08,1.11.91,1.21-.32.18-1.18-1.05-.91-1.21Z"/>
              <path class="cls-10" d="M42.02,17.56c.43,1.34-.48,1.86-.6,1.81-.2-.09.53-1.61.6-1.81Z"/>
              <path class="cls-3" d="M46.4,18.02c2.04-.63-.8,1.61-.53.53,0-.04.49-.52.53-.53Z"/>
              <path class="cls-10" d="M19.54,45.93c.43-.05.89.54.83.68-.26.6-1.75-.57-.83-.68Z"/>
              <path class="cls-3" d="M40.51,24.5c.09,3.05-.8,1.72-.38.38.03-.08.28-.25.38-.38Z"/>
              <path class="cls-10" d="M25.12,18.32c.6-.34,1.2,1.38.6,1.36-.07,0-.67-1.32-.6-1.36Z"/>
              <path class="cls-10" d="M39.61,20.88c.54-.13.42,1.45.3,1.51-.12-.28-.87-1.37-.3-1.51Z"/>
              <path class="cls-12" d="M37.95,6.55l.75,1.96c-.46-.56-.96-1.17-.75-1.96Z"/>
              <path class="cls-3" d="M48.81,21.64c.06.17-.2,1.08-.23,1.13-.58.94-1.25.52.23-1.13Z"/>
              <path class="cls-10" d="M51.07,22.54c.16.58-.9,1.37-1.13.83-.1-.24.98-.67,1.13-.83Z"/>
              <path class="cls-10" d="M53.64,46.53l2.19.53c-.49.18-2.19-.16-2.19-.53Z"/>
              <path class="cls-10" d="M27.54,19.68c1.18.18,1.52,1.5.45.75-.12-.08-.46-.58-.45-.75Z"/>
              <path class="cls-10" d="M34.78,5.04c.23.14-.11,1.52-.3,1.51-.52-.52.23-1.55.3-1.51Z"/>
              <path class="cls-10" d="M42.93,10.02l-.45,1.51c-.56-.42.15-1.06.45-1.51Z"/>
              <path class="cls-3" d="M27.08,19.52c.06,0,.66.99.3,1.06-.96.19-.61-1.08-.3-1.06Z"/>
              <path class="cls-3" d="M10.49,39.59c.3.02.22.09.23.38.03,1.68-1.41-.45-.23-.38Z"/>
              <path class="cls-3" d="M20.14,34.16c.48-.34.79,1.15.6,1.21-.22-.37-.94-.97-.6-1.21Z"/>
              <path class="cls-10" d="M36.74,18.62c.64,0-.23,1.39-.3,1.36-.25-.11.1-1.36.3-1.36Z"/>
              <path class="cls-10" d="M23.61,29.48c1.25.5,1.02,1.09.45.91-.05-.02-.59-.74-.45-.91Z"/>
              <path class="cls-3" d="M43.08,11.08v1.51c-.58-.56-.35-.88,0-1.51Z"/>
              <path class="cls-12" d="M28.74,9.87c.01.49.39,1.83.23,2.19-.18.4-.49-2.19-.23-2.19Z"/>
              <path class="cls-10" d="M20.29,37.18c.08.01.87.99-.6.75-.07-.15.56-.76.6-.75Z"/>
              <path class="cls-3" d="M21.65,47.14c1.61-.21.32.82-.68.23.39-.03.64-.22.68-.23Z"/>
              <path class="cls-10" d="M35.23,6.55l-.15,1.51c-.42-.26-.04-1.11.15-1.51Z"/>
              <path class="cls-10" d="M7.17,35.97c.06,0,.52,1.11.3,1.21-.26.12-.77-1.2-.3-1.21Z"/>
              <path class="cls-10" d="M22.26,48.34c.23,0,1.94,2.2-.23.23.09-.07.19-.23.23-.23Z"/>
              <path class="cls-3" d="M45.94,23.75c1.54-.67.26.82-.15.6-.18-.09-.07-.51.15-.6Z"/>
              <path class="cls-10" d="M57.86,37.48c1.12-.02.06.65-.98.38.17-.09.93-.38.98-.38Z"/>
              <path class="cls-12" d="M38.25,8.66c.38-.1-.04,1.32-.15,1.51l.15-1.51Z"/>
              <path class="cls-10" d="M14.26,25.86l-.15,1.36c-.36-.43-.07-.91.15-1.36Z"/>
              <path class="cls-10" d="M24.37,6.4c.13-.1.37.35.38.38.26,1.7-.88.01-.38-.38Z"/>
              <path class="cls-10" d="M24.97,31.6c.15,0,.25-.04.38.08.41.36.36,1.91-.38-.08Z"/>
              <path class="cls-1" d="M42.17,22.54c.04,1.95-.75,2.26-.08.08l.08-.08Z"/>
              <path class="cls-10" d="M43.23,38.23c.54.36-.82,2.16-.38.38,0-.03.35-.39.38-.38Z"/>
              <path class="cls-3" d="M42.47,13.94c.07-.04.32-.02.38.08.68,1.19-1.07.26-.38-.08Z"/>
              <path class="cls-3" d="M31.61,10.92c.39.14-.72,2.1-.38.53.01-.05.34-.54.38-.53Z"/>
              <path class="cls-3" d="M33.57,6.25c.38.02.03,1.04-.15.91-.2-.15-.06-.91.15-.91Z"/>
              <path class="cls-10" d="M41.72,3.83c.37-.08.5.52.15.6-.37.08-.5-.52-.15-.6Z"/>
              <path class="cls-3" d="M54.85,25.86c.27.01.21,1.01-.15.75-.21-.15-.02-.76.15-.75Z"/>
              <path class="cls-10" d="M51.45,26.47c.14.23.54.58.38.91-.27-.24-.39-.54-.38-.91Z"/>
              <path class="cls-3" d="M26.48,19.07c.47-.35.23.76,0,.6-.12-.08-.12-.51,0-.6Z"/>
              <path class="cls-10" d="M18.18,33.1c.13-.04.35.14.38.23.21.61-.56.25-.38-.23Z"/>
              <path class="cls-12" d="M24.22,5.64c.14-.06.54.35.53.38-.21.37-.71-.29-.53-.38Z"/>
              <path class="cls-9" d="M18.33,22.99c.22-.11.62.18.53.38-.06.13-.75-.26-.53-.38Z"/>
              <path class="cls-10" d="M55.6,33.86c.22.04-.21.77-.3.75-.22-.04.21-.77.3-.75Z"/>
              <path class="cls-10" d="M15.01,40.95c.49-.16.47.52.3.6-.03.01-.34-.52-.3-.6Z"/>
              <path class="cls-3" d="M25.42,22.24c.12,0,.12.91,0,.91s-.12-.91,0-.91Z"/>
              <path class="cls-12" d="M40.36,23.45c.12,0,.12.75,0,.75s-.12-.75,0-.75Z"/>
              <path class="cls-5" d="M25.12,19.37s.3.25.23.38c-.21.34-.47-.27-.23-.38Z"/>
              <path class="cls-9" d="M35.23,4.44c.13.06.19.46-.15.45-.11,0,.12-.46.15-.45Z"/>
              <path class="cls-10" d="M14.03,18.77l-.08.3c-.31-.21-.21-.43-.23-.45.01.01.23.13.3.15Z"/>
              <path class="cls-6" d="M51.83,21.49h.15l.08.08-.08.08-.08.08-.08.08-.08-.08v-.15l.08-.08Z"/>
              <path class="cls-6" d="M26.03,12.73h.15l.08.08v.15l-.08.08-.08-.08-.08-.08-.08-.08.08-.08Z"/>
              <path class="cls-8" d="M48.28,21.34c-.01-.32.07-.49.23-.75.26.36-.21.72-.23.75Z"/>
              <g>
                <path class="cls-10" d="M48.66,43.82c.3-.05,4.14.43,5.51.38-.55.27-2.49,2.34-3.02,1.66,1.78-1.72-.6.18-1.13.38-2.29.86-3.81-.34-2.26-.75.4-.11.6.19.75.15,2.54-.62-1.87-.72-1.81.3-2.2.37,1.75-2.08,1.96-2.11Z"/>
                <path class="cls-4" d="M50.32,44.87c.89-.08-1.75,1.64-1.89,1.28.31-.15,1.77-1.27,1.89-1.28Z"/>
              </g>
              <g>
                <path class="cls-10" d="M11.39,20.28c1.46-.03,2.62.77,3.85,1.43-1.1.81-1.97,1.11-3.24.68.48-3.55-.35.65-.6-2.11Z"/>
                <path class="cls-2" d="M12.75,21.18c.08-.04.19-.01.23.08.31.69-1.1.35-.23-.08Z"/>
              </g>
            </g>
          </g>
        </g>
      </g>
    </g>
  </g>
</svg>