<?xml version="1.0" encoding="UTF-8"?>
<svg id="Ebene_2" data-name="Ebene 2" xmlns="http://www.w3.org/2000/svg" viewBox="0 0 109.6 92.34">
  <defs>
    <style>
      .cls-1 {
        fill: #2faa54;
      }

      .cls-1, .cls-2, .cls-3, .cls-4 {
        stroke-width: 0px;
      }

      .cls-2 {
        fill: #052633;
      }

      .cls-3 {
        fill: #0d602c;
      }

      .cls-4 {
        fill: #8ac47f;
      }
    </style>
  </defs>
  <g id="Ebene_6" data-name="Ebene 6">
    <ellipse class="cls-3" cx="54.8" cy="58.54" rx="52.49" ry="33.79"/>
    <ellipse class="cls-1" cx="53.79" cy="70.86" rx="30.5" ry="18.66"/>
    <circle class="cls-4" cx="53.7" cy="70.86" r="16.73"/>
    <path class="cls-2" d="M78.08,22.83l.13,2.11c1.23-2.45,3.03-8.48,3.43-11.01.45-2.85.03-4.98.53-7.32h.13c-.48,2.86-.11,4.63,1.38,7.12,1.32-2,2.03-5.28,2.04-7.65,0-.04,0-.09,0-.13.2-.74.43-1.55.53-2.31.08-.58-.06-2.71.26-1.71.24.73-.89,8.12-.59,9.83,1.2-2.15,2.19-4.48,3.76-6.4-1.81,3.47-4.46,6.87-3.63,11.01.46-3.23,1.94-5.76,4.02-8.18-2.76,4.46-3.12,4.34-4.09,11.01h.26c.28-.28,2.05-5.73,3.03-7.19-1.23,2.68-1.62,5.76-3.03,8.37-.34,3.1-.41,6.3-.92,9.36-.01.07-.42.38-.53.53.07,1.88-.26,2.77.59,2.31,1.71-.93,4.25-4.03,3.82-6.2.72,2.01-.59,4.25-.4,4.35,1.96-.78,3.01-1.7,2.77-3.96,1.1,3.44-1.23,3.5-2.37,4.48-1.5,1.29-3.52,3.37-5.21,4.88-.88.79-1.94,1.45-2.84,2.24-2.73,2.49-4.71,5.63-7.32,8.24-.4.44-.52,1.04-.79,1.52-1.95,3.46-4,8.31-5.01,12.13-.14.51-1.27,4.16-.99,4.35,4.66-1.24,7.52-.6,10.22-5.08,2.69-4.47,2.86-8.43,3.96-12.66.12-.45.47-.75.79-1.06,1.25-7.19,1.33-7.2.53.13,4.8-2.4,8.6-4.8,11.47-9.5.03-.22-.3-.77-.26-1.78.07-1.98.21-3.92.53-5.87-3.39-3.8-3.8-5.21.07-.46.25,0,.43-1.82.33-2.51l.4-.59v2.7c-.22,2.44-.66,4.86-.66,7.32l.26.13c.32-.72,1.91-2.61,1.98-2.77.72-1.69-.08-5.82,3.17-9.1.36-2.03,1.21-3.93,1.25-6,.4,1.9-.72,3.61-.86,5.47l2.24-1.98c-3.56,3.81-4.85,4.79-4.75,10.55.78-1.84,1.76-3.62,2.51-5.47l-.13,1.45c-.22.67-.65,1.89-.92,2.51-.02.03-.46-.16-.13.53-1.62,2.29-1.64,6.97.53.66l.26.4c-.1.33-.77,2.16-.59,2.24,1.27-1.32,3.33-2.7,2.31-1.58-.34.37-2.13,1.56-2.9,2.57v7.91c3.5-1.23,4.76-3.76,6.66-6.66l-1.52,2.97c6.54-3.63-1.19.82-1.06,1.85h3.17c-5.29.78-4.65,1.21.4.92.05.25-4.7.82-5.08.73-4.14,2.64-5.96,3.1-8.77,7.58,3.99-.86,7.95-.26,12-.26l-4.42.99c-5.35-1.15-11.04,1.48-15.96,3.43-.18,3.92-.97,7.53-4.02,10.22.11.22,3.54-1.27,3.89-1.52,2.04-1.44,5.02-8.42,2.18-4.55-.95,1.3-1.72,3.4-2.84,4.68,1.21-3.42,3.3-6.47,6.4-8.44-.93,1.07-2.19,2.21-2.51,3.63-.68,3.01,2.03-1.45,2.51-3.63.22-.26.41-.43.66-.66-.57,1.35-1.27,2.66-1.65,4.09.13.07,1.53-1.33,2.24-1.85,2.01-1.44,5.44-3.56,1.25-.33-2.79,5.55.87-.02,2.24-1.52-1.63,3.51-3.14,4.29-5.8,6.79,2.63-.14,4.61-1.76,6.86-2.9-3.55,4.03-10.56,4.1-4.42,4.42,6.37.33,3.24-3.93,6.99-6.73-4,4.82-.1,8.25-9.89,6.99l-2.04,2.31.2.2c4.56-1.11,9.55-1.22,12.53-5.41-1.42,2.38-1.27,2.79.59.59.43-.51,2.35-3.61.92-.79-.28.55-.96,1.03-1.12,1.65,1.85-.96,4.03-.96,5.61-2.37-1.42,1.84-2.23.81-4.55,4.75,3.32-.5,4.88-4.64,4.55-4.75.28-.37.48-.92.53-.46-2.09,5.96-3.74,4.85-5.47,5.61-4.37,1.91-4.28,2.38.4,1.06,2.61-.74,4.89-2.26,6.46-4.48-2.16,4.24-5.2,3.52-1.19,3.03,1.2-.14,2.79-.09,4.02-.13-.06.19-.13.12-.13.13-2.31-.07-4.51.53-6.73,1.12,2.08-.02,4.09.34,6.07.99-.04.1-.09.16-.13.26-4.12-1.44-8.46-.31-12.53.73,3.77.89,7.61,1.5,11.47,1.78-.02.06.02.2,0,.26-.61-.17-4.25-.29-4.48.07-.03.05-.03,1.03.07,1.12.13.13,2.98,1,3.5,1.19-.08.18-.13.12-.13.13-2.18-.55-3.54-1.4-5.87-1.06.78.66,2.02.93,2.9,1.45,2.84,1.68-3-1.11-3.3-1.19-.43-.11-3.5-.4-3.63-.2,2.42,1.64,4.96,3.16,7.39,4.75l-.2.07q-3.96-2.44-7.91-4.88c-.84-.09-2.47-.01-3.17-.13-6.72-1.15-4.5-1.82-1.25,2.18,2.37,2.91-1.11-.81-1.78-1.38-.83-.71-1.73-1.36-2.64-1.98-3.25,0-5.96-.69-8.97-1.85-4.91,1.01-11.89.86-14.44,6-.27.55-2.39,6.91-2.51,7.52-.56,2.97.04,4.43.59.73.74,2.99,1.12,3.8.59.07l.79,1.32.2-2.7c.55,2.36.28,4.7,1.19,1.98.1,2.54.52,1.44.66,1.45.12.01.02.41.13.4.17-.03-.04-3.43.13-3.43.29.66.08,3.82.66,2.37.07,2.23.4-.08.79-.92.2.03-.53,4.75.66,1.45.18.04-.47,1.93.33.99l-.07.86.33-1.12c.42-.09.03,1.17.46,1.78l.53-2.11c.13,1.8.18.57.33.73,1.42,5.74.69,1.37.99-1.52.98,2.68.42,5.51,1.25,3.63l-.07,1.52.66-1.71c.38,1.79.61.63.66-.66.56,3.19.09-1.46.73.99l.2-1.65c.23,1.42-.3,3.61.79.79l.13,1.98.66-2.11c.28,1.11-1.15,2.43.53,1.06l.53,1.98c.4-1.17.27-2,.92-2.9.21.03-.83,3.86.4,1.19.49.72-.57,1.99.59.66-.05.24-.09.49-.13.73l.26-.07c1.81-1.58.27,1.01.86.92l.92-1.32c-.26.74-.19,3.43.66,1.71.56,2.03.78,1.44.92-.79l1.45,3.17H22.09c3.07-2,1.41-4.61,2.64-.92l.2-1.91.66.92.2-2.44c.56.76.91.59.92,1.71.89-2.72.83-2.03,1.19.4.44-1.45-.21-3.24.4-.92l.53-1.85c.08,4.01-.14,1.71.99.86l.2,2.7c.4-2.73.05-3.72.92-1.85l.07-2.04h.26l.33,1.25c.61-2.39.45-.22.79,2.24,1.02-5.41,1.36-2.46,1.58-2.51.89-.19-.02-5.7,1.06-1.71.27-2.49.58-1.36.73-1.78.17-.48-.25-2.48-.2-3.23l.59,2.44c.29-1.83.33.11.73.73l.46-2.44h.26l.46,2.97.2-1.78c.68,1.64.36-.64.86-1.25l.13,1.98.66-1.32-.2,1.65c.68.04.78-1.54.99-2.18.99,3.54.74-.6,1.19-1.98l.2,2.31c.44.83,1.08-3.48.99-3.63.41,2.21.39,6.98,1.12,1.65-1.53-9.64-4.15-11.02-13.25-12.99-3.53,1.46-5.43,2.18-9.36,1.71-1.77,1.29-3.64,2.47-5.14,4.09-.26.03-.16-.13-.07-.33.12-.25,3.21-2.89,3.82-3.43-4.92.61-2.87.88-2.9,1.32-.03.54-1.6-.09-3.36.07-2.79.25-6.3,2.48-8.84,3.69.69-.59,1.83-1.27,2.64-1.71,5.32-2.91,6.13-1.64-.66-2.37-8.45,2.3-.61.04-.46-.33.05-.13-.74-1.22-.86-1.25-.06-.02-.47.14-1.25.13l-1.06-.26c3.07-.48,6.21-.68,9.17-1.71-2.52-.86-9.73-1.86-11.8-.79v-.13c1.74-.66,3.69-.92,5.54-.99-2.29-.83-3.71-1.38-6.2-.86,0,0-.07.05-.13-.13,3.81-1,5.45.47,5.54.2-.95-1.18-2.08-2.15-3.36-2.97,1.77.33,2.96,2.47,4.48,3.56,1.31.3,7.63,1.7,3.43-.13-1.22-.53-4.79-.8-5.41-3.96,1.09,2.14,3.67,3.52,5.87,3.36-.02-.19-2.16-2.37-2.7-2.7-.34-.2-3.73-1.34-3.56-1.45.53-.35.6,1.03.13-1.98.28.78.37,1.69,1.06,2.24.66-.15,6.02,2.49,6.13,2.18-4.68-3.63-4.49-4.5-.07-.33-1.4-4.19.34.27,1.45,1.06.46.32,1.13.32,1.58.66-.16-1.78-2.09-3.4-3.69-4.09v-.26c1.59.64,2.81,1.51,3.82,2.9,3.93.07,5.88.75,3.17-1.06-2.34-1.55-5.59-1.92-6.26-4.42-.69-2.58.55,1.13,1.52,1.78,5.99,1.92,5.24,3.05,1.91-1.32.45-.06.38.12.4.13.68.78,4.02,4.05,4.75,4.22.22.05.25-.11.4-.13.51.75,1.47,1.12,2.24,1.45.2.09.24.18.53.26.45.13,1.1.46,1.06.07-1.17-2.73-2.52-5.63-5.28-7.06,3.52.95,4.55,4.91,6.13,7.65.5.02,3.32,1.2,3.5.86-5.64-3.32-3.91-9.58-4.55-10.35-4.18-2.31-6.94-3.08-11.61-3.96-2.93.36-9.06.59-4.48-.26l-3.89-.59c3.98.25,7.94-.42,11.87.4-1.87-2.63-2.71-3.89-5.47-5.61-4.26-2.65-4.21-1.51-6.59-1.98-1.81-.35-3.44-2.02-.53-.4,5.48-.01,2.74.4-.33-2.04,3.13,1.61,4.72,2.26,1.52-.73-.74-.69-1.8-1.08-2.44-1.91,4.76,2.92,2.4,2.26,1.65-1.65,1.46,3.39,2.35,5.76,6.13,6.92l.53-6.59c-.73-1.35-2.56-2.45-3.17-3.23-.05-.07-.47-1.09-.92-1.52l.2-.07c.09.04.93,1.31,1.12,1.52,4.38,4.71.02-1.25.46-3.36.61,2.11,1.61,4.17,2.84,6-.02-.52.29-2.63.26-2.77-.04-.23-2.51-3.14-2.9-3.63.22,0,.03-.45,0-.53.06.01.26.12.26.13.02.03-.09.05.26.4.49.47.87,1.03,1.45,1.38-.4-2.95-.65-6.04-2.11-8.7-.41-.75-2.87-3.53-.59-1.12l-.2-1.78c.47-.02.14,1.5.86,2.57.13-2.89.25-1.4.2.33,2.17,3.2,1.6,7.1,3.1,9.96l.73-5.74c-.65-.98-2.22-2.35-2.51-3.43-.61-2.31-.07-3.7.4.4,2.32,3.02,2.69,3.74,1.98.07.06-.4-.04-.2.13-.13.52,1.33.45,2.98.4,4.42-.19,4.82-1.7,8.14,1.58,1.19-.12-.63-.19-1.27-.26-1.91.19,0,.27.08.4-.13.65-1.09-.14-5.16-.07-6.59l.66,4.88c.98-1.66,2.02-6.89,1.12-2.04-.59,1.69-1.37,3.33-1.45,5.14,4.28-3.68,2.55-2.09.13.92l-.13,7.65c.02.11.26.18.26.2.33,1.11.93,2.27,1.78,3.03q4.62,3.5,9.23,6.99.03-3.07.07-6.13c.28,4.8,1.49,14.31,3.82,18.33,2.91,5,6.05,4.28,10.62,6.53-.03-2.98-.69-6.13-1.52-8.84-.89-2.9-2.33-5.58-3.3-8.44-2.51-3.32-4.96-6.76-8.11-9.5-1.27-1.08-2.78-1.94-4.02-3.03-1.45-1.29-2.87-2.69-3.89-4.35-2.06-.21-3.06-2.19-2.37-4.09.01,1.58.63,3.47,2.51,3.43-.88-5.22-.09-1.85,1.38-.07.87,1.05,2.17,1.9,3.3,2.64.24-3.13-.76-3.5-.79-3.69-.24-1.46-.43-6.43-.66-8.57-2.03-3.77-2.23-5.92-3.17-8.9,1.13,2.45,1.43,5.29,3.17,7.45l-1.45-6.07,1.65,4.42c1.08-4.73-.31-6.61-2.18-10.55,1.01,1.53,2.05,3.14,2.51,4.95h.26c.25-2.8-.18-4.44-1.06-7.06h.13c1.49,3.22,1.33,5.47,1.58.2-1.29-5,.35-1.99.26,2.24-.02,1.03-.58,4.11-.53,6.07,2.42,3.21,1.16,5.37,4.62,10.02l1.45,1.45c-3.01-5.2-4.52-6.75-4.62-13.06.63,1.36.46,2.92.79,4.35.97,4.24.58.02.79-1.58.03-.27.8-3.25.92-3.03l-.4,6.86c.21.98.85,1.72,1.32,2.57.19.35.29.58.53.92.16.23.87,1.26.92,1.32.3.31.12-.35.66.26l.79-3.89c-.2-1.95.42-4.77-.26-5.54.49-1.3.18-3.93-.13-5.28-.37-1.57-2.08-4.24-.79-2.9.11-4.15.18-2.1.26.79.82,1.16.94,2.57,1.38,3.89.31-2.02-.3-4.87.33-6.53.99,4.74-.04,10.31,1.45,5.41.27-.9.15-2.51,1.06-3.03-1.05,2.11-.77,4.63-1.98,6.73l-.07,5.87c2.54-4.69,1.8-12.34,3.5-15.1.08-.12.25-.33.26,0,0,.19-.94,2.19-1.19,3.69-.28,1.68-.06,3.7-.53,5.41,1.69-2.04,4.01-9.76,1.98-2.9-2.05,3.12-2.51,6.79-3.96,10.16-.25,1.5.14,14.09.4,16.16.55,4.39,1.34,2.14,3.56,5.54,2.41,3.69,6.48,14.73,8.18,19.39,1.04,2.85,1.9,5.78,3.1,8.57-.38-2.64-.33-5-.2-7.65.38-7.47,1.78-7.85,2.9-14.31-.18,6.61-.55,4.97,2.9-.66-.38-4.56.34-9.1,1.71-13.45-.69-.95-1.45-1.85-2.11-2.84-1.52-2.28-2.28-3.54-4.48-5.47.35-4.3.43-8.65-1.71-12.53-.11-.2-2.69-3.73-1.32-2.24,1.7,1.85,2.9,4.73,3.56,7.12-.08-1.21.16-2.97-.13-4.09-.32-1.22-3.9-5.1-.33-1.38.74-.57-2.02-6.41-2.37-7.25,2.61,3.98,1.67,6.21,1.71-.13.03,1.51,1.01,6.92,1.38,7.85.82,2.04,1.07-.82.92-3.17.31-.55.48,2.72-.13,4.35,1.14,1.55,3.1,7.14,1.98,2.04.13,0,.26,0,.4,0,.31-.02.22-5.67.26-6.13-.1-.27-.75-3.09-.46-3.1.92,3.02,1.09,4.88,1.06,8.05.91-2.28,1.41-4.61,1.52-7.06.16,4.9-2.2,9.47-1.52,14.44l2.44-5.21c-.28-1.45.49-2.73.79-4.09.25-1.13.64-4.34.4-1.06-.11,1.52-.71,3.03-.86,4.55l1.91-3.23c.94-3.89.43-.43-.26,1.32-.58,1.46-4.45,7.98-4.62,9.1-.39,2.65,1.31,5.3,2.84,7.32q.03-3.46.07-6.92c.59,4.93.27,3.59,2.24.26.17-2.83,1.69-8.38.66-1.85l.2.07c2.45-2.68,5.6-7.99,1.52-10.62.49-.25.55.55.99-.07,2.62,3.59.6,8.47-2.31,11.28-.1,1.38-1.93,4.37-1.98,4.62-.09.45.35,4.59.59,4.68,1.71-.81,2.29-2.72,2.44-4.42.14,2.84-.08,2.78-1.19,4.29-.13.18-.74.57-.92.86,0,.37,0,.75,0,1.12-.01.45.36,4.69.59,4.75.91-.83,1.66-1.82,2.44-2.77,1.05-1.27,2.08-2.62,3.03-3.96.13-.18.91-.9,1.19-1.25,1.2-4.45.36-8.93.13-13.45-1.56-2.14-1.66-4.34-3.96-6.07-.87-1.82-2.47-4.37-1.19-2.77.24.3.75,1.55,1.06,1.98,1.62,2.3,2.05,2.59,1.58-.79-.1-.71-1.11-2.9-.53-2.11,1.13,1.52.03,4.86,2.77,8.18-.61-5.31-1.32-7.58-4.48-11.87.15-.17.27,0,.4.13.71.79,3.36,5.22,3.89,6.66-.5-2.24.16-4.58-.07-6.79-.13-1.28-1.06-3.21.13-.4.32,8.86.31.67,1.38-2.84l-.59,7.72q.46,7.78.92,15.56c.04.13.24-.06.26-.13.22-.67,1.11-12.23.79-14.11-.15-.92-1.48-2.77-.26-2.9-.68.79.48,2.44.66,3.96-.3,6.35.48-.34,1.71-2.51h.26c-1.88,4.88-2.09,10.22-2.31,15.37.33-.25,1.44-2.36,1.58-2.37,1.31-.16-2.13,5.16-2.18,5.47q.2,2.37.4,4.75c-.39.64-.8,1.27-1.19,1.91-.76,1.26-1.8,2.66-2.64,3.96-1.17,1.82-2.72,3.53-3.69,5.47-2.61,5.2-2.41,13.38-2.51,19.19-.03,1.58-.22,3.16-.07,4.75.77-1.94,1.18-3.98,1.91-5.94,1.59-4.25,6.87-13.81,9.63-17.54,1.16-1.57,2.58-3.74,4.22-4.55.64-1.04.61-2.21.79-3.36.86-5.35.67-10.76.92-16.16-1.33-4.85-5.15-6.26-4.48-10.95-.03,3.3,1.03,4.3,2.84,6.79.24-.11-.61-4.75-.73-5.21-.16-.67-1.32-2.48,0-.66.77,2.81.75,5.77,2.18,8.37-.02-1.28.24-3.54.07-4.68,0-.03-.36-.36-.4-.53-.5-2.43-2.13-7.02-2.24-7.91-.26-2.03.57,1.46.92,2.51.26.78,1.16,3.44,1.32,3.82.27.65.24.09.26.07.21-.16.1-.19.13-.26,0-.02.22.05.26-.07.5-1.5.32-10.19.53-10.68.07-.17.43-.31.53-.13.21.38-.25,6.83.13,8.7,3.5-8.84,1.45-4.07,0,1.71-.05,4.32-.53,8.77.46,12.99.18-.19.14-.46.2-.66Z"/>
  </g>
</svg>