<?xml version="1.0" encoding="UTF-8"?>
<svg id="Ebene_2" data-name="Ebene 2" xmlns="http://www.w3.org/2000/svg" xmlns:xlink="http://www.w3.org/1999/xlink" viewBox="0 0 109.6 92.34">
  <defs>
    <style>
      .cls-1 {
        fill: #0e6d69;
      }

      .cls-1, .cls-2, .cls-3, .cls-4, .cls-5, .cls-6, .cls-7, .cls-8, .cls-9, .cls-10, .cls-11, .cls-12, .cls-13, .cls-14, .cls-15, .cls-16, .cls-17, .cls-18, .cls-19, .cls-20, .cls-21, .cls-22, .cls-23, .cls-24, .cls-25, .cls-26, .cls-27, .cls-28, .cls-29, .cls-30, .cls-31, .cls-32, .cls-33, .cls-34, .cls-35, .cls-36, .cls-37, .cls-38, .cls-39, .cls-40, .cls-41, .cls-42 {
        stroke-width: 0px;
      }

      .cls-2 {
        fill: #a4262a;
      }

      .cls-3 {
        fill: #9fd3d0;
      }

      .cls-4 {
        fill: url(#Unbenannter_Verlauf_19);
      }

      .cls-5 {
        fill: url(#Unbenannter_Verlauf_21);
      }

      .cls-6 {
        fill: #73b3b1;
      }

      .cls-7 {
        fill: #c44853;
      }

      .cls-8 {
        fill: #22534d;
      }

      .cls-9 {
        fill: #d1534f;
      }

      .cls-10 {
        fill: #eb807f;
      }

      .cls-11 {
        fill: #40757b;
      }

      .cls-12 {
        fill: #69a29e;
      }

      .cls-13 {
        fill: #34100d;
      }

      .cls-14 {
        fill: #62989e;
      }

      .cls-15 {
        fill: #66391b;
      }

      .cls-16 {
        fill: #e4dbd1;
      }

      .cls-17 {
        fill: #052633;
      }

      .cls-18 {
        fill: #09494b;
      }

      .cls-19 {
        fill: #10393a;
      }

      .cls-20 {
        fill: #f29487;
      }

      .cls-21 {
        fill: #17878a;
      }

      .cls-22 {
        fill: #641315;
      }

      .cls-23 {
        fill: #bcd1d1;
      }

      .cls-24 {
        fill: #07272a;
      }

      .cls-25 {
        fill: #e94555;
      }

      .cls-26 {
        fill: #c9e6e9;
      }

      .cls-27 {
        fill: #9bc5c9;
      }

      .cls-28 {
        fill: #d9dbd5;
      }

      .cls-29 {
        fill: #181e1a;
      }

      .cls-30 {
        fill: #3ab0ac;
      }

      .cls-31 {
        fill: #36686a;
      }

      .cls-32 {
        fill: #040606;
      }

      .cls-33 {
        fill: #3f5c59;
      }

      .cls-34 {
        fill: #ec6462;
      }

      .cls-35 {
        fill: #fdfdfd;
      }

      .cls-36 {
        fill: #bf2c3d;
      }

      .cls-37 {
        fill: #f8ece8;
      }

      .cls-38 {
        fill: #56474d;
      }

      .cls-39 {
        fill: #ef7c6c;
      }

      .cls-40 {
        fill: #1f948f;
      }

      .cls-41 {
        fill: #468e95;
      }

      .cls-42 {
        fill: #ba4541;
      }
    </style>
    <linearGradient id="Unbenannter_Verlauf_19" data-name="Unbenannter Verlauf 19" x1="28.79" y1="66.96" x2="27.37" y2="68.88" gradientUnits="userSpaceOnUse">
      <stop offset="0" stop-color="#054b49"/>
      <stop offset="1" stop-color="#44a3a3"/>
    </linearGradient>
    <linearGradient id="Unbenannter_Verlauf_21" data-name="Unbenannter Verlauf 21" x1="27.49" y1="68.52" x2="20.19" y2="70" gradientUnits="userSpaceOnUse">
      <stop offset=".38" stop-color="#ef7870"/>
      <stop offset="1" stop-color="#e94b54"/>
    </linearGradient>
  </defs>
  <g id="_1._Evalstufe" data-name="1. Evalstufe">
    <path class="cls-17" d="M78.08,22.83l.13,2.11c1.23-2.45,3.03-8.48,3.43-11.01.45-2.85.03-4.98.53-7.32h.13c-.48,2.86-.11,4.63,1.38,7.12,1.32-2,2.03-5.28,2.04-7.65,0-.04,0-.09,0-.13.2-.74.43-1.55.53-2.31.08-.58-.06-2.71.26-1.71.24.73-.89,8.12-.59,9.83,1.2-2.15,2.19-4.48,3.76-6.4-1.81,3.47-4.46,6.87-3.63,11.01.46-3.23,1.94-5.76,4.02-8.18-2.76,4.46-3.12,4.34-4.09,11.01h.26c.28-.28,2.05-5.73,3.03-7.19-1.23,2.68-1.62,5.76-3.03,8.37-.34,3.1-.41,6.3-.92,9.36-.01.07-.42.38-.53.53.07,1.88-.26,2.77.59,2.31,1.71-.93,4.25-4.03,3.82-6.2.72,2.01-.59,4.25-.4,4.35,1.96-.78,3.01-1.7,2.77-3.96,1.1,3.44-1.23,3.5-2.37,4.48-1.5,1.29-3.52,3.37-5.21,4.88-.88.79-1.94,1.45-2.84,2.24-2.73,2.49-4.71,5.63-7.32,8.24-.4.44-.52,1.04-.79,1.52-1.95,3.46-4,8.31-5.01,12.13-.14.51-1.27,4.16-.99,4.35,4.66-1.24,7.52-.6,10.22-5.08,2.69-4.47,2.86-8.43,3.96-12.66.12-.45.47-.75.79-1.06,1.25-7.19,1.33-7.2.53.13,4.8-2.4,8.6-4.8,11.47-9.5.03-.22-.3-.77-.26-1.78.07-1.98.21-3.92.53-5.87-3.39-3.8-3.8-5.21.07-.46.25,0,.43-1.82.33-2.51l.4-.59v2.7c-.22,2.44-.66,4.86-.66,7.32l.26.13c.32-.72,1.91-2.61,1.98-2.77.72-1.69-.08-5.82,3.17-9.1.36-2.03,1.21-3.93,1.25-6,.4,1.9-.72,3.61-.86,5.47l2.24-1.98c-3.56,3.81-4.85,4.79-4.75,10.55.78-1.84,1.76-3.62,2.51-5.47l-.13,1.45c-.22.67-.65,1.89-.92,2.51-.02.03-.46-.16-.13.53-1.62,2.29-1.64,6.97.53.66l.26.4c-.1.33-.77,2.16-.59,2.24,1.27-1.32,3.33-2.7,2.31-1.58-.34.37-2.13,1.56-2.9,2.57v7.91c3.5-1.23,4.76-3.76,6.66-6.66l-1.52,2.97c6.54-3.63-1.19.82-1.06,1.85h3.17c-5.29.78-4.65,1.21.4.92.05.25-4.7.82-5.08.73-4.14,2.64-5.96,3.1-8.77,7.58,3.99-.86,7.95-.26,12-.26l-4.42.99c-5.35-1.15-11.04,1.48-15.96,3.43-.18,3.92-.97,7.53-4.02,10.22.11.22,3.54-1.27,3.89-1.52,2.04-1.44,5.02-8.42,2.18-4.55-.95,1.3-1.72,3.4-2.84,4.68,1.21-3.42,3.3-6.47,6.4-8.44-.93,1.07-2.19,2.21-2.51,3.63-.68,3.01,2.03-1.45,2.51-3.63.22-.26.41-.43.66-.66-.57,1.35-1.27,2.66-1.65,4.09.13.07,1.53-1.33,2.24-1.85,2.01-1.44,5.44-3.56,1.25-.33-2.79,5.55.87-.02,2.24-1.52-1.63,3.51-3.14,4.29-5.8,6.79,2.63-.14,4.61-1.76,6.86-2.9-3.55,4.03-10.56,4.1-4.42,4.42,6.37.33,3.24-3.93,6.99-6.73-4,4.82-.1,8.25-9.89,6.99l-2.04,2.31.2.2c4.56-1.11,9.55-1.22,12.53-5.41-1.42,2.38-1.27,2.79.59.59.43-.51,2.35-3.61.92-.79-.28.55-.96,1.03-1.12,1.65,1.85-.96,4.03-.96,5.61-2.37-1.42,1.84-2.23.81-4.55,4.75,3.32-.5,4.88-4.64,4.55-4.75.28-.37.48-.92.53-.46-2.09,5.96-3.74,4.85-5.47,5.61-4.37,1.91-4.28,2.38.4,1.06,2.61-.74,4.89-2.26,6.46-4.48-2.16,4.24-5.2,3.52-1.19,3.03,1.2-.14,2.79-.09,4.02-.13-.06.19-.13.12-.13.13-2.31-.07-4.51.53-6.73,1.12,2.08-.02,4.09.34,6.07.99-.04.1-.09.16-.13.26-4.12-1.44-8.46-.31-12.53.73,3.77.89,7.61,1.5,11.47,1.78-.02.06.02.2,0,.26-.61-.17-4.25-.29-4.48.07-.03.05-.03,1.03.07,1.12.13.13,2.98,1,3.5,1.19-.08.18-.13.12-.13.13-2.18-.55-3.54-1.4-5.87-1.06.78.66,2.02.93,2.9,1.45,2.84,1.68-3-1.11-3.3-1.19-.43-.11-3.5-.4-3.63-.2,2.42,1.64,4.96,3.16,7.39,4.75l-.2.07q-3.96-2.44-7.91-4.88c-.84-.09-2.47-.01-3.17-.13-6.72-1.15-4.5-1.82-1.25,2.18,2.37,2.91-1.11-.81-1.78-1.38-.83-.71-1.73-1.36-2.64-1.98-3.25,0-5.96-.69-8.97-1.85-4.91,1.01-11.89.86-14.44,6-.27.55-2.39,6.91-2.51,7.52-.56,2.97.04,4.43.59.73.74,2.99,1.12,3.8.59.07l.79,1.32.2-2.7c.55,2.36.28,4.7,1.19,1.98.1,2.54.52,1.44.66,1.45.12.01.02.41.13.4.17-.03-.04-3.43.13-3.43.29.66.08,3.82.66,2.37.07,2.23.4-.08.79-.92.2.03-.53,4.75.66,1.45.18.04-.47,1.93.33.99l-.07.86.33-1.12c.42-.09.03,1.17.46,1.78l.53-2.11c.13,1.8.18.57.33.73,1.42,5.74.69,1.37.99-1.52.98,2.68.42,5.51,1.25,3.63l-.07,1.52.66-1.71c.38,1.79.61.63.66-.66.56,3.19.09-1.46.73.99l.2-1.65c.23,1.42-.3,3.61.79.79l.13,1.98.66-2.11c.28,1.11-1.15,2.43.53,1.06l.53,1.98c.4-1.17.27-2,.92-2.9.21.03-.83,3.86.4,1.19.49.72-.57,1.99.59.66-.05.24-.09.49-.13.73l.26-.07c1.81-1.58.27,1.01.86.92l.92-1.32c-.26.74-.19,3.43.66,1.71.56,2.03.78,1.44.92-.79l1.45,3.17H22.09c3.07-2,1.41-4.61,2.64-.92l.2-1.91.66.92.2-2.44c.56.76.91.59.92,1.71.89-2.72.83-2.03,1.19.4.44-1.45-.21-3.24.4-.92l.53-1.85c.08,4.01-.14,1.71.99.86l.2,2.7c.4-2.73.05-3.72.92-1.85l.07-2.04h.26l.33,1.25c.61-2.39.45-.22.79,2.24,1.02-5.41,1.36-2.46,1.58-2.51.89-.19-.02-5.7,1.06-1.71.27-2.49.58-1.36.73-1.78.17-.48-.25-2.48-.2-3.23l.59,2.44c.29-1.83.33.11.73.73l.46-2.44h.26l.46,2.97.2-1.78c.68,1.64.36-.64.86-1.25l.13,1.98.66-1.32-.2,1.65c.68.04.78-1.54.99-2.18.99,3.54.74-.6,1.19-1.98l.2,2.31c.44.83,1.08-3.48.99-3.63.41,2.21.39,6.98,1.12,1.65-1.53-9.64-4.15-11.02-13.25-12.99-3.53,1.46-5.43,2.18-9.36,1.71-1.77,1.29-3.64,2.47-5.14,4.09-.26.03-.16-.13-.07-.33.12-.25,3.21-2.89,3.82-3.43-4.92.61-2.87.88-2.9,1.32-.03.54-1.6-.09-3.36.07-2.79.25-6.3,2.48-8.84,3.69.69-.59,1.83-1.27,2.64-1.71,5.32-2.91,6.13-1.64-.66-2.37-8.45,2.3-.61.04-.46-.33.05-.13-.74-1.22-.86-1.25-.06-.02-.47.14-1.25.13l-1.06-.26c3.07-.48,6.21-.68,9.17-1.71-2.52-.86-9.73-1.86-11.8-.79v-.13c1.74-.66,3.69-.92,5.54-.99-2.29-.83-3.71-1.38-6.2-.86,0,0-.07.05-.13-.13,3.81-1,5.45.47,5.54.2-.95-1.18-2.08-2.15-3.36-2.97,1.77.33,2.96,2.47,4.48,3.56,1.31.3,7.63,1.7,3.43-.13-1.22-.53-4.79-.8-5.41-3.96,1.09,2.14,3.67,3.52,5.87,3.36-.02-.19-2.16-2.37-2.7-2.7-.34-.2-3.73-1.34-3.56-1.45.53-.35.6,1.03.13-1.98.28.78.37,1.69,1.06,2.24.66-.15,6.02,2.49,6.13,2.18-4.68-3.63-4.49-4.5-.07-.33-1.4-4.19.34.27,1.45,1.06.46.32,1.13.32,1.58.66-.16-1.78-2.09-3.4-3.69-4.09v-.26c1.59.64,2.81,1.51,3.82,2.9,3.93.07,5.88.75,3.17-1.06-2.34-1.55-5.59-1.92-6.26-4.42-.69-2.58.55,1.13,1.52,1.78,5.99,1.92,5.24,3.05,1.91-1.32.45-.06.38.12.4.13.68.78,4.02,4.05,4.75,4.22.22.05.25-.11.4-.13.51.75,1.47,1.12,2.24,1.45.2.09.24.18.53.26.45.13,1.1.46,1.06.07-1.17-2.73-2.52-5.63-5.28-7.06,3.52.95,4.55,4.91,6.13,7.65.5.02,3.32,1.2,3.5.86-5.64-3.32-3.91-9.58-4.55-10.35-4.18-2.31-6.94-3.08-11.61-3.96-2.93.36-9.06.59-4.48-.26l-3.89-.59c3.98.25,7.94-.42,11.87.4-1.87-2.63-2.71-3.89-5.47-5.61-4.26-2.65-4.21-1.51-6.59-1.98-1.81-.35-3.44-2.02-.53-.4,5.48-.01,2.74.4-.33-2.04,3.13,1.61,4.72,2.26,1.52-.73-.74-.69-1.8-1.08-2.44-1.91,4.76,2.92,2.4,2.26,1.65-1.65,1.46,3.39,2.35,5.76,6.13,6.92l.53-6.59c-.73-1.35-2.56-2.45-3.17-3.23-.05-.07-.47-1.09-.92-1.52l.2-.07c.09.04.93,1.31,1.12,1.52,4.38,4.71.02-1.25.46-3.36.61,2.11,1.61,4.17,2.84,6-.02-.52.29-2.63.26-2.77-.04-.23-2.51-3.14-2.9-3.63.22,0,.03-.45,0-.53.06.01.26.12.26.13.02.03-.09.05.26.4.49.47.87,1.03,1.45,1.38-.4-2.95-.65-6.04-2.11-8.7-.41-.75-2.87-3.53-.59-1.12l-.2-1.78c.47-.02.14,1.5.86,2.57.13-2.89.25-1.4.2.33,2.17,3.2,1.6,7.1,3.1,9.96l.73-5.74c-.65-.98-2.22-2.35-2.51-3.43-.61-2.31-.07-3.7.4.4,2.32,3.02,2.69,3.74,1.98.07.06-.4-.04-.2.13-.13.52,1.33.45,2.98.4,4.42-.19,4.82-1.7,8.14,1.58,1.19-.12-.63-.19-1.27-.26-1.91.19,0,.27.08.4-.13.65-1.09-.14-5.16-.07-6.59l.66,4.88c.98-1.66,2.02-6.89,1.12-2.04-.59,1.69-1.37,3.33-1.45,5.14,4.28-3.68,2.55-2.09.13.92l-.13,7.65c.02.11.26.18.26.2.33,1.11.93,2.27,1.78,3.03q4.62,3.5,9.23,6.99.03-3.07.07-6.13c.28,4.8,1.49,14.31,3.82,18.33,2.91,5,6.05,4.28,10.62,6.53-.03-2.98-.69-6.13-1.52-8.84-.89-2.9-2.33-5.58-3.3-8.44-2.51-3.32-4.96-6.76-8.11-9.5-1.27-1.08-2.78-1.94-4.02-3.03-1.45-1.29-2.87-2.69-3.89-4.35-2.06-.21-3.06-2.19-2.37-4.09.01,1.58.63,3.47,2.51,3.43-.88-5.22-.09-1.85,1.38-.07.87,1.05,2.17,1.9,3.3,2.64.24-3.13-.76-3.5-.79-3.69-.24-1.46-.43-6.43-.66-8.57-2.03-3.77-2.23-5.92-3.17-8.9,1.13,2.45,1.43,5.29,3.17,7.45l-1.45-6.07,1.65,4.42c1.08-4.73-.31-6.61-2.18-10.55,1.01,1.53,2.05,3.14,2.51,4.95h.26c.25-2.8-.18-4.44-1.06-7.06h.13c1.49,3.22,1.33,5.47,1.58.2-1.29-5,.35-1.99.26,2.24-.02,1.03-.58,4.11-.53,6.07,2.42,3.21,1.16,5.37,4.62,10.02l1.45,1.45c-3.01-5.2-4.52-6.75-4.62-13.06.63,1.36.46,2.92.79,4.35.97,4.24.58.02.79-1.58.03-.27.8-3.25.92-3.03l-.4,6.86c.21.98.85,1.72,1.32,2.57.19.35.29.58.53.92.16.23.87,1.26.92,1.32.3.31.12-.35.66.26l.79-3.89c-.2-1.95.42-4.77-.26-5.54.49-1.3.18-3.93-.13-5.28-.37-1.57-2.08-4.24-.79-2.9.11-4.15.18-2.1.26.79.82,1.16.94,2.57,1.38,3.89.31-2.02-.3-4.87.33-6.53.99,4.74-.04,10.31,1.45,5.41.27-.9.15-2.51,1.06-3.03-1.05,2.11-.77,4.63-1.98,6.73l-.07,5.87c2.54-4.69,1.8-12.34,3.5-15.1.08-.12.25-.33.26,0,0,.19-.94,2.19-1.19,3.69-.28,1.68-.06,3.7-.53,5.41,1.69-2.04,4.01-9.76,1.98-2.9-2.05,3.12-2.51,6.79-3.96,10.16-.25,1.5.14,14.09.4,16.16.55,4.39,1.34,2.14,3.56,5.54,2.41,3.69,6.48,14.73,8.18,19.39,1.04,2.85,1.9,5.78,3.1,8.57-.38-2.64-.33-5-.2-7.65.38-7.47,1.78-7.85,2.9-14.31-.18,6.61-.55,4.97,2.9-.66-.38-4.56.34-9.1,1.71-13.45-.69-.95-1.45-1.85-2.11-2.84-1.52-2.28-2.28-3.54-4.48-5.47.35-4.3.43-8.65-1.71-12.53-.11-.2-2.69-3.73-1.32-2.24,1.7,1.85,2.9,4.73,3.56,7.12-.08-1.21.16-2.97-.13-4.09-.32-1.22-3.9-5.1-.33-1.38.74-.57-2.02-6.41-2.37-7.25,2.61,3.98,1.67,6.21,1.71-.13.03,1.51,1.01,6.92,1.38,7.85.82,2.04,1.07-.82.92-3.17.31-.55.48,2.72-.13,4.35,1.14,1.55,3.1,7.14,1.98,2.04.13,0,.26,0,.4,0,.31-.02.22-5.67.26-6.13-.1-.27-.75-3.09-.46-3.1.92,3.02,1.09,4.88,1.06,8.05.91-2.28,1.41-4.61,1.52-7.06.16,4.9-2.2,9.47-1.52,14.44l2.44-5.21c-.28-1.45.49-2.73.79-4.09.25-1.13.64-4.34.4-1.06-.11,1.52-.71,3.03-.86,4.55l1.91-3.23c.94-3.89.43-.43-.26,1.32-.58,1.46-4.45,7.98-4.62,9.1-.39,2.65,1.31,5.3,2.84,7.32q.03-3.46.07-6.92c.59,4.93.27,3.59,2.24.26.17-2.83,1.69-8.38.66-1.85l.2.07c2.45-2.68,5.6-7.99,1.52-10.62.49-.25.55.55.99-.07,2.62,3.59.6,8.47-2.31,11.28-.1,1.38-1.93,4.37-1.98,4.62-.09.45.35,4.59.59,4.68,1.71-.81,2.29-2.72,2.44-4.42.14,2.84-.08,2.78-1.19,4.29-.13.18-.74.57-.92.86,0,.37,0,.75,0,1.12-.01.45.36,4.69.59,4.75.91-.83,1.66-1.82,2.44-2.77,1.05-1.27,2.08-2.62,3.03-3.96.13-.18.91-.9,1.19-1.25,1.2-4.45.36-8.93.13-13.45-1.56-2.14-1.66-4.34-3.96-6.07-.87-1.82-2.47-4.37-1.19-2.77.24.3.75,1.55,1.06,1.98,1.62,2.3,2.05,2.59,1.58-.79-.1-.71-1.11-2.9-.53-2.11,1.13,1.52.03,4.86,2.77,8.18-.61-5.31-1.32-7.58-4.48-11.87.15-.17.27,0,.4.13.71.79,3.36,5.22,3.89,6.66-.5-2.24.16-4.58-.07-6.79-.13-1.28-1.06-3.21.13-.4.32,8.86.31.67,1.38-2.84l-.59,7.72q.46,7.78.92,15.56c.04.13.24-.06.26-.13.22-.67,1.11-12.23.79-14.11-.15-.92-1.48-2.77-.26-2.9-.68.79.48,2.44.66,3.96-.3,6.35.48-.34,1.71-2.51h.26c-1.88,4.88-2.09,10.22-2.31,15.37.33-.25,1.44-2.36,1.58-2.37,1.31-.16-2.13,5.16-2.18,5.47q.2,2.37.4,4.75c-.39.64-.8,1.27-1.19,1.91-.76,1.26-1.8,2.66-2.64,3.96-1.17,1.82-2.72,3.53-3.69,5.47-2.61,5.2-2.41,13.38-2.51,19.19-.03,1.58-.22,3.16-.07,4.75.77-1.94,1.18-3.98,1.91-5.94,1.59-4.25,6.87-13.81,9.63-17.54,1.16-1.57,2.58-3.74,4.22-4.55.64-1.04.61-2.21.79-3.36.86-5.35.67-10.76.92-16.16-1.33-4.85-5.15-6.26-4.48-10.95-.03,3.3,1.03,4.3,2.84,6.79.24-.11-.61-4.75-.73-5.21-.16-.67-1.32-2.48,0-.66.77,2.81.75,5.77,2.18,8.37-.02-1.28.24-3.54.07-4.68,0-.03-.36-.36-.4-.53-.5-2.43-2.13-7.02-2.24-7.91-.26-2.03.57,1.46.92,2.51.26.78,1.16,3.44,1.32,3.82.27.65.24.09.26.07.21-.16.1-.19.13-.26,0-.02.22.05.26-.07.5-1.5.32-10.19.53-10.68.07-.17.43-.31.53-.13.21.38-.25,6.83.13,8.7,3.5-8.84,1.45-4.07,0,1.71-.05,4.32-.53,8.77.46,12.99.18-.19.14-.46.2-.66Z"/>
    <g>
      <g>
        <path class="cls-14" d="M28.09,60.72l-.58.04c-.16-.15-.35-.28-.43-.51.5,0,1.01-.26,1.01.47Z"/>
        <path class="cls-29" d="M28.09,60.72c0,.14-.14.23-.22.33-.11-.1-.25-.18-.36-.29l.58-.04Z"/>
      </g>
      <path class="cls-32" d="M30.66,77.24c.82-.21.56.14.94.18.52.05.62-.08.83-.54.01,0,.03,0,.04,0,.3.5.3.36.8.43-.4.61-.8,1.36-1.54,1.59-2.12-.11-13.04.14-13.96,0-.12-.02-.26-.17-.42-.18-.08-.23-.29-.36-.43-.54-.24-.3-.5-.56-.36-.94.48-.3.29-.28.31-.29.1-.04.34,0,.42.07,0,0,0,.01.04.07.07.09.24.74.92.43.19-.09.24-.26.34-.4.56.08.59.26.65.29.33.18.42.4.9-.07.14-.14.23-.32.36-.47,0,0,.03-.01.04.04,0,.02,0,.05,0,.07.01.05-.01.7.56.76.32.04.75-.22.81-.54.07-.04.02-.09.05-.11.05-.03.05.04.05.04v.04c-.03.23.02.19.11.29.63.71,1.12-.31,1.19-.33.6,1.28,1.23.03,1.32,0,.03,0,.52,0,.54,0,.08.03.66,1.12,1.16-.07.4,1.06,1.62.85,1.45-.22.24.89,1.16,1.14,1.45.25.22.5.67.81,1.19.51.3-.17.21-.29.23-.36Z"/>
      <g>
        <path class="cls-13" d="M24.59,59.31s-.14.08-.4.07c-.01-1.08-.4-2.71-.18-3.58,0-.01.07-.1.07-.11.07-.09.29-.3.4-.36.13.18-.26.77-.22.85.04.07.16-.08.22.04.02.05-.09.38.11.43-.21.32,0,.48,0,.51.04.71-.04,1.44,0,2.15Z"/>
        <path class="cls-25" d="M27.3,55.62c-.26.21-.76.75-.58.76,0,0,0,.08-.11.02.06-.82,1.21-1.36.13-.99-.24.08-.46.3-.67.43.18-.42,1.37-1.05,1.23-.22Z"/>
        <g>
          <path class="cls-25" d="M26.07,55.84c.21-.13.43-.36.67-.43,1.09-.36-.07.17-.13.99.11.06.1-.02.11-.02.51.05,1.08-.03,1.27.33-.1.56-.05.28.18.65-.19.66-.81-.89-1.68-.33-.39.25-.41.95-.45,1.37-.03.34-.06.75,0,1.08-.01,0-.2.08-.27.07-.06,0-.44-.28-.51-.29-.03,0-.43.03-.67.04-.04-.71.04-1.44,0-2.15,0-.03-.21-.18,0-.51-.2-.05-.09-.38-.11-.43-.05-.11-.18.03-.22-.04-.04-.08.35-.67.22-.85.93-.49,1.34.65,1.43.65.05-.05.1-.1.16-.14Z"/>
          <path class="cls-36" d="M26.59,56.49c.16,0-.56.46-.65.51-.17.09-.34.22-.38.13,0-.06.97-.63,1.03-.63Z"/>
        </g>
      </g>
      <path class="cls-35" d="M34.78,67.26l-.74.76-.36-.18-.05.05c-.18.62-.82,1.45-1.01,1.95-.25.66-.39,2.29-.72,2.08.27-1.03.55-2.44.61-3.49.04-.58-.08-1.36.07-1.83.45.41.85.87,1.32,1.27l.29-.8c.09-.04.48.14.6.18Z"/>
      <g>
        <path class="cls-19" d="M19.42,74.89s.06-.02.07.02c.1.19.5,1.1.58,1.21l-2.78-.22c-.03-.53.05-.35.36-.43.03,0,.04.05.09.04.02,0,.21-.15.45-.2.01-.02-.2-.18-.4-.38.67-.84.48.22,1.64.04l-.02-.07Z"/>
        <path class="cls-32" d="M17.64,75.47c.19-.1.08-.35.11-.54,0,0,.03,0,.04,0,.19.2.41.36.4.38-.25.05-.43.19-.45.2-.05.01-.06-.04-.09-.04Z"/>
      </g>
      <g>
        <path class="cls-14" d="M24.19,59.38c.26,0,.38-.07.4-.07.23,0,.64-.04.67-.04.07.01.44.28.51.29.07,0,.26-.07.27-.07.83-.12,1.13-.53,1.12.14-.14.1-.59.21-.63.25-.14.13.12.21.13.22.03.03.06.16.13.18.05.01.14-.04.31-.04.08.22.27.35.43.51.11.11.25.19.36.29.2.18,1.43,1.26,1.54,1.3.38.15.4-.46.54.36l1.01.07s-.1.4-.09.42c.02.07.95.42,1.08.45.69.15.4-.51.63.51.14.02.94-.03.98,0,.04.03.02.43.11.47.18-.02.35-.03.52-.04.18,0,.29-.08.33.02.02.05-.18.59.7.38.01,0,.1-.11.23-.18.06-.03.09-.07.14-.11.07.12.48.1.51.11.03.01.09.05.11.07,0,.24.33,1.4.29,1.5-.02.04-.09,0-.11.02-.72-.69-.56-.69-.72-.07-.04.15-.06.4-.11.51-.41-.2-.71-.78-.72-.29-.07-.01-.11.06-.14.11-.79.25-1-.13-1.08-.85l-.63.02-.98-1.3c-.11.19.02.83-.36.58-.13-.08-.2-.93-.29-.98-.74.06-.75.21-.98-.54-1.06.22-.95.1-1.34-.8-.95.16-1.03.02-1.27-.87-.59.12-1.05.64-1.32-.18.07-.13.24-.23.33-.34-.14,0-.41-.05-.43-.05-.23-.38-.5-.02-.74-.11-.06-.02-.48-.8-.54-.8-.49.73-.34.95-1.37.76-.05.04-.05.07-.05.07-.04.03-.06.09-.07.14-.14.5.22.85-1.07.51-.13.09-.56.88-.61.9-.06.03-.41-.03-.51,0-.12.04-.52.7-.43.25-.15-.04-.11.96-1.19.4-.12,0-.02.11-.02.14,0,.15.03.21.04.29-.49.6-.72-.15-1.25.65-.26-.49,0,.29-.11.36l-.9-.07c-.36.9-.02.99-1.01,1.08.2.79-.72.82-1.03.65-.02-.01-.06-.02-.07-.04,0,0,.03-.1-.05-.14-.28.32-.2.68-.7.36-.2-.13-.1-.08-.18-.29-.05-.14-.13-.6-.2-.61-.16.08-.35.44-.49.29-.09-.1-.04-.1-.04-.22,0-.28.09-1.07.36-1.16.01,0,.15.11.25-.02l-.29-.34s.03.01.11-.04c0,0,.07-.02.14-.07.28.41-.11.46.33.51.54.06.53-.09.87-.36l.67.18c.65-.88.47-.28.76-.29.03,0,.51-.27.52-.31.01-.04-.08-.23-.02-.42.23.06.44.01.67-.04.23-.05.55-.17.76-.29.14-.09.21-.08.22-.09.07-.09-.26-.38-.07-.45.1.02.15.07.2.07.05,0,.83-.08.87-.11.1-.06.06-.43.11-.47.03-.02.43.12.51.11.1-.02,1.37-1.11,1.57-1.27.23-.18.46-.31.69-.51.01-.01.23-.06.22-.25.54.03.34-.07.4-.11.02-.01.05.04.05.04.53-.4-.01-.32-.67-.65,0-.02.16-.36.18-.4.36.02.7.23,1.05.18Z"/>
        <path class="cls-8" d="M14.1,64.77c-.11-.1-.18-.24-.04-.36l.29.34c-.1.12-.24.01-.25.02Z"/>
        <path class="cls-26" d="M34.71,66.65s-.07.17-.09.18c-.23.1-1.13.04-1.07-.92-.96.32-.75-.24-.87-.43-.12-.19-.45-.02-.52-.7-.01.77-.84.36-.81.31.05-.08.19.19.07-.51-.37.06.15-.18-.09-.31-.04-.02-.73.22-.92-.09-.06-.09-.01-.35-.05-.38-.07-.05-.61.11-.81.04-.24-.09-.43-.65-.54-.87-.19-.14-1.16.48-1.25-.9-.36.43-1.64.37-1.28-.33.27.82.73.3,1.32.18.24.89.32,1.03,1.27.87.39.89.27,1.02,1.34.8.23.76.23.6.98.54.09.04.16.89.29.98.38.25.25-.39.36-.58l.98,1.3.63-.02c.08.72.3,1.1,1.08.85Z"/>
        <path class="cls-26" d="M19.78,63.9c0,.07.06.13.04.2-.12.34-.84.15-.89.16-.03,0-.37.39-.38.42-.06.22.38.76-.92.31-.04.01-.07.12-.09.18-.07.18-.13.52-.22.72,0,0-.04.11-.05.11-.15.03-.49-.02-.69,0,.43.59-.91,1.17-1.1.58.31.17,1.23.14,1.03-.65.99-.09.66-.18,1.01-1.08l.9.07c.1-.07-.15-.85.11-.36.53-.8.75-.05,1.25-.65Z"/>
        <path class="cls-26" d="M21.3,63.07c-.19.14-.45.42-.58.61-.13.05-.15.14-.31.11l-.67-.18s-.1-.14.02-.14c1.08.57,1.04-.44,1.19-.4-.09.44.31-.22.43-.25.1-.03.44.03.51,0,.05-.02.48-.82.61-.9,1.29.35.92,0,1.07-.51.1.49.19.48-.09.69-.65.47-.84-.54-1.21.34.76-.28-.19.75-.85.49-.05.04-.12.14-.13.14Z"/>
        <path class="cls-26" d="M26.36,61.33c-.64,0-.85.37-1.25-.69-.41.85-.55.86-1.46.61,0,0,0-.03.05-.07,1.03.19.88-.03,1.37-.76.06,0,.48.77.54.8.24.09.51-.27.74.11Z"/>
        <path class="cls-27" d="M35.58,66.83c-.14.35-.29-.24-.43.14-.02-.02-.3-.06-.29-.43.02-.49.31.09.72.29Z"/>
        <path class="cls-29" d="M23.57,60.21c-.22-.22-.62-.42-.61-.61.66.33,1.2.25.67.65,0,0-.03-.05-.05-.04Z"/>
        <g>
          <path class="cls-41" d="M23.18,60.32c0,.19-.2.24-.22.25l-.87.22c-.09-.24.04-.33.16-.58.09-.03.77.1.92.11Z"/>
          <path class="cls-29" d="M22.96,60.58c-.23.19-.46.33-.69.51-.06-.1-.14-.18-.18-.29l.87-.22Z"/>
        </g>
        <path class="cls-26" d="M15.4,66.54c-.05.1-.24.48-.31.51-.13.04-.44-.14-.34.04-.01-.02-.15-.04-.11-.33.51.31.43-.04.7-.36.08.05.05.14.05.14Z"/>
        <path class="cls-41" d="M36.23,64.66c-.05.03-.22-.06-.11.14-.02,0-.43.01-.51-.11.14-.09.16-.03.16-.04.06-.04.35-.73.45,0Z"/>
        <path class="cls-23" d="M36.41,66.4c-.07.03-.15.06-.22.07-.01,0-.02,0-.04,0-.17-.42-.33-.68-.4,0-.06-.07,0-.13-.07-.14.16-.62,0-.62.72.07Z"/>
        <path class="cls-29" d="M26.65,60.11s-.26-.09-.13-.22c.04-.04.49-.15.63-.25,0,.31-.05.17-.51.47Z"/>
        <path class="cls-11" d="M19.02,62.74c-.19.08.14.36.07.45,0,0-.07,0-.22.09.02-.49-.09-.58.14-.54Z"/>
        <path class="cls-29" d="M20.72,63.68c.13-.2.39-.48.58-.61.16.34-.4.55-.58.61Z"/>
        <path class="cls-6" d="M14.35,66.47c-.19.02-.27-.12-.43-.14.33-.49.34-.44.43.14Z"/>
        <path class="cls-14" d="M36.15,66.47c-.16.03-.33.07-.4,0,.07-.68.23-.42.4,0Z"/>
      </g>
      <g>
        <path class="cls-3" d="M32.76,76.92c.43-.04.16.13.2.14.09.04.55-.02.56-.18.01,0,.02,0,.04,0-.12.22.33.35.36.22,0,0,.12.03.11.13-.04.28-.25.11-.51.09-.18-.01-.24,0-.25,0-.49-.07-.49.07-.8-.43.04.02.07-.05.16,0,.36.43.14.12.13.04Z"/>
        <path class="cls-33" d="M33.73,76.92c.16.11.21,0,.22.05,0,.03-.08,0-.04.13-.03.13-.48,0-.36-.22.05.01.02-.08.07-.07.04.05.05.07.11.11Z"/>
        <path class="cls-6" d="M32.21,75.33c-.15.44.3.5.65.76.05.03.1.07.14.11.13.1.56.39.61.45.02.03-.08.06,0,.16-.05,0-.02.08-.07.07-.01,0-.02,0-.04,0,0,0,.01-.07-.02-.07-.24,0-.51.07-.76.04-.04.01.01.03.02.07.01.08.24.39-.13-.04-.09-.05-.12.02-.16,0-.01,0-.03,0-.04,0-.03,0-.08,0-.11,0-.02,0,.06-.05-.36-.11-.18-.02-.62-.18-.58.04-.23.01-.79-.02-.83.22-.43-.05-.84-.05-1.27,0,0,0,0-.03-.05-.07-.03.01-.17.39-.4.47-.67.23-.86-.43-1.14-.87,0-.03,0-.07,0-.11.77-.05,1.53-.16,2.3-.25.14-.06.6-.92.7-1.12,1.6-.39.82-.13,1.52.25Z"/>
        <path class="cls-41" d="M33.52,76.88c0,.17-.47.22-.56.18-.04-.02.23-.19-.2-.14,0-.04-.06-.06-.02-.07.25.03.52-.04.76-.04.03,0,.01.07.02.07Z"/>
        <path class="cls-6" d="M27.69,76.45s0,.07,0,.11c-.07.35.16,1.03-.49,1.08-.63.05-.81-.87-.9-.87-.61,1.33-.8.3-1.3.11-.22-.09-.34-.06-.56-.07-.21,0-.44.02-.65.04l.04-.29s.05,0,.07,0c.83-.04,1.66-.03,2.49-.07.43-.02.87,0,1.3-.04Z"/>
        <path class="cls-3" d="M29.29,77.03c.26.34.38.62.89.54.48-.08.35-.42.38-.54.05-.23.6-.2.83-.22,0,.56.07.42.67.47.16-.08.12-.14.13-.14.03-.03.1-.19.14-.25.03,0,.08,0,.11,0-.21.46-.31.59-.83.54-.27-.07-.35-.46-.38-.47-.03-.01-.49.06-.51.07-.1.07-.03.15-.05.22-.02.07.06.19-.23.36-.52.3-.97,0-1.19-.51-.29.89-1.21.63-1.45-.25.18,1.07-1.04,1.28-1.45.22-.49,1.19-1.08.1-1.16.07-.03,0-.52,0-.54,0-.09.03-.72,1.28-1.32,0,.02,0,.05,0,.07,0,.11.53,1.18.45,1.17-.11-.04,0-.09,0-.13,0v-.22c.23,0,.34-.01.56.07.5.19.7,1.22,1.3-.11.09,0,.27.92.9.87.65-.05.41-.73.49-1.08.28.44.47,1.1,1.14.87.23-.08.37-.46.4-.47.06.04.05.07.05.07Z"/>
        <path class="cls-6" d="M30.55,77.03c-.02.13.1.46-.38.54-.5.08-.63-.2-.89-.54.43-.05.84-.05,1.27,0Z"/>
        <path class="cls-6" d="M31.96,76.77c-.13.13.08.32.22.36,0,0,.03.07-.13.14-.6-.05-.68.09-.67-.47-.04-.22.4-.06.58-.04Z"/>
        <path class="cls-14" d="M32.32,76.88c-.04.07-.11.22-.14.25-.13-.04-.34-.24-.22-.36.42.06.34.1.36.11Z"/>
        <g>
          <path class="cls-14" d="M15.69,77.42s-.05-.02-.04.11h-.11c-.06-.15-.02-.29-.04-.36.03-.17.28-.38.43-.51.28.28.11.07-.04.23-.12.13-.21.38-.22.52Z"/>
          <path class="cls-6" d="M17.28,75.9l2.78.22.13.14s.1-.01.13,0c.04.26-.74.34-1.12.65,0,0,.02-.06-.05-.11-.87-.17-.39.33-.94.58-.37.17-.66,0-.89-.29-.04-.06-.03-.07-.04-.07l.16-.22c-.37.08-.78-.04-1.14.04-.28.06-.27.21-.4.43-.01,0-.02.09-.22.14,0-.14.1-.4.22-.52.15-.16.32.05.04-.23.25-.2.65-.45.94-.58.05-.02.1-.05.14-.07l.25-.11Z"/>
          <path class="cls-26" d="M17.28,77.03c-.08-.08-.32-.12-.42-.07-.02,0,.17,0-.31.29-.06.04-.19.08-.27.11.17.28-.31.09-.63.18-.02-.13.04-.1.04-.11.2-.05.21-.14.22-.14.25-.16.84-.33.4-.43.36-.07.77.04,1.14-.04l-.16.22Z"/>
          <path class="cls-6" d="M20.72,76.34c-.43.41-.24.35-.22.54-.13.15-.22.33-.36.47-.03-.18-.46.41-.83-.13-.06-.08-.09-.27-.11-.31.38-.31,1.17-.39,1.12-.65.13.04.27.05.4.07Z"/>
          <path class="cls-3" d="M19.2,76.92s.05.23.11.31c.37.54.8-.05.83.13-.49.47-.57.25-.9.07,0-.28-.27-.54-.52-.47-.03,0-.08.12-.13.18-.11.13-.15.31-.34.4-.68.31-.85-.34-.92-.43.23.3.52.46.89.29.55-.25.07-.75.94-.58.07.05.05.1.05.11Z"/>
          <path class="cls-8" d="M16.31,76.84c.45.1-.14.27-.4.43.13-.22.11-.38.4-.43Z"/>
        </g>
        <path class="cls-19" d="M23.18,76.59c-.36.24-.77.35-1.16.54,0,0,0-.06-.05-.04-.04.02.01.07-.05.11,0,0-.15.03-.22.07.03-.14-.05-.22,0-.43,0-.02.15-.24.14-.33.13.02.49-.04.7.04-.65.69.15.02.22,0,.02,0,.09.07.42.04Z"/>
        <path class="cls-8" d="M21.84,76.52c0,.09-.14.31-.14.33.05-.62-.07-.2-.09-.18-.29.22-.62.38-.85.69-.14-.2-.12-.33-.22-.36,0-.02,0-.05,0-.07.23.09.33-.25.45-.36.06-.05.21,0,.16-.14.23.03.46.08.69.11Z"/>
        <path class="cls-27" d="M24.44,76.81v.22c-.23-.05-1.43-.23-1.05.11-.02,0-.05,0-.07,0-.07.02-.56,1.04-1.19.33,0-.16.09.03.13.04.03,0,.44-.07.65-.04.06-.02.16-.35.2-.43.03-.06.09-.12.11-.18.11.04.37.01.58,0,.21-.01.44-.04.65-.04Z"/>
        <path class="cls-31" d="M23.25,76.63c-.01.05-.02.17-.04.22-.02.06-.08.12-.11.18-.55.04-.7.44-1.08.14v-.04c.39-.19.8-.3,1.16-.54.03,0,.04.04.07.04Z"/>
        <path class="cls-11" d="M23.1,77.03c-.04.08-.14.41-.2.43-.21-.04-.62.04-.65.04-.03,0-.13-.2-.13-.04-.08-.09-.14-.06-.11-.29.39.29.53-.11,1.08-.14Z"/>
        <path class="cls-12" d="M20.75,77.35c.33.46.89.18.94-.07.07-.04.21-.07.22-.07-.06.32-.49.58-.81.54-.57-.06-.55-.71-.56-.76.09.03.07.17.22.36Z"/>
        <path class="cls-11" d="M21.15,76.41c.04.15-.1.09-.16.14-.12.11-.22.45-.45.36,0-.05-.04-.03-.04-.04-.02-.19-.21-.14.22-.54.14.03.29.05.43.07Z"/>
        <path class="cls-32" d="M31.6,77.42c-.38-.04-.12-.39-.94-.18.02-.07-.04-.15.05-.22.02-.02.48-.09.51-.07.03.01.11.4.38.47Z"/>
        <path class="cls-32" d="M19.23,77.42c-.06-.03-.09-.21-.65-.29.05-.06.1-.17.13-.18.25-.07.53.19.52.47Z"/>
        <path class="cls-11" d="M23.83,76.56l-.04.29c-.21.01-.47.04-.58,0,.02-.05.02-.16.04-.22.19-.02.37-.06.58-.07Z"/>
        <path class="cls-14" d="M24.44,77.03s.09,0,.13,0c0,.55-1.07.64-1.17.11-.38-.34.81-.16,1.05-.11Z"/>
        <path class="cls-19" d="M21.69,76.84c-.05.21.03.29,0,.43-.05.26-.61.53-.94.07.23-.31.56-.47.85-.69.02-.02.14-.44.09.18Z"/>
      </g>
      <g>
        <path class="cls-32" d="M17.68,66.54c-.48.43-.9.92-1.39,1.34l-.33-.83c-.07-.02-.59.25-.7.29-.07.03-.21.13-.27.11-.05-.08-.1-.18-.16-.25-.03-.03-.05-.07-.07-.11-.1-.17.21,0,.34-.04.07-.02.26-.41.31-.51.02.01.05.03.07.04.19.59,1.54.01,1.1-.58.2-.02.54.03.69,0,.01,0,.05-.11.05-.11.04-.01.07-.06.14-.04-.08.09.01.11.07.18-.04.1-1.12,1.36-1.34,1.54.03.03.04.06.09.05.11-.02,1.26-1.49,1.52-1.63.55-.32.98-.78,1.48-1.16l1.28-.72c.05-.02.1-.05.14-.07,1.12-.58,1.64-.61,2.93-1.55.21.13-.17.41-.45.61-1.31.98-3.2,1.35-5.51,3.43Z"/>
        <path class="cls-29" d="M20.57,64.12l-1.28.72c-.5.38-.93.84-1.48,1.16-.26.13-1.41,1.61-1.52,1.63-.05,0-.06-.03-.09-.05.22-.18,1.3-1.44,1.34-1.54.03-.09.06-.15-.07-.18-.07-.02-.1.02-.14.04.09-.2.14-.54.22-.72.53.15.16.51,1.05.13.15-.39,1.51-1.05,1.99-1.17Z"/>
        <path class="cls-29" d="M23.65,62.49c-1.28.94-1.8.97-2.93,1.55.03-.3.95-.56,1.39-.8.46-.25,1.72-.96,1.68-1.39.4-.33,1.12-.41.42.23-.03.02-.46.32-.56.4Z"/>
        <path class="cls-32" d="M28.06,63.14s.05.08.2.14c.01,0,.08-.06.27.04.46.24.79.52.83.54l-.04.14c-.34-.17-2.08-.98-2.19-1.05-.04-.02-.14-.13-.11-.14.4-.1.69.18,1.03.33Z"/>
        <path class="cls-29" d="M29.54,63.83c-.07.09-.1.07-.18.04-.04-.02-.37-.31-.83-.54.12-.24.56,0,.47-.36.11.22.31.78.54.87Z"/>
        <g>
          <path class="cls-32" d="M26.36,61.33s.3.06.43.05c-.09.12-.26.21-.33.34-.36.7.93.76,1.28.33.08,1.39,1.06.76,1.25.9.09.37-.35.12-.47.36-.19-.1-.26-.03-.27-.04-.14-.07-.19-.14-.2-.14.1-.13-.35-.3-.45-.61-.36.04-.65.05-.99-.11-.15-.07-.27-.2-.4-.29.19-.03-.05-.08-.04-.16,0-.02.14-.06.29-.33-1.14-.29-.6.02-.61.07,0,.03-.08.02-.11.02-.19-.14-.39-.35-.36-.16,0,.04.44.58.51.63-.21.2,0,.17.27.43l4.99,2.31.05-.05c-.59-.36-1.26-.59-1.88-.89l.04-.14c.08.04.11.05.18-.04.2.08.74-.09.81-.04.04.03,0,.29.05.38.19.31.88.07.92.09.24.13-.28.37.09.31.12.7-.02.42-.07.51-.03.05.8.47.81-.31.07.68.41.51.52.7.12.2-.09.75.87.43-.06.96.83,1.02,1.07.92.02,0,.06-.14.09-.18.03-.05.07-.12.14-.11-.01.38.27.41.29.43.08.07.29.18.29.23,0,.02-.22.27-.23.27-.03,0-.11-.05-.16-.07-.01,0-.13-.1-.25-.14-.11-.04-.5-.23-.6-.18l-.29.8c-.47-.39-.87-.85-1.32-1.27,0,0-.05-.17-.11-.02-.04.1.02,1.74-.04,2.06-.05.14-.51-.27-.54-.11.04.44.21,2,.18,2.21,0,.05-.26.83-.29.87-.05.07-.11.06-.18.05.03-.31-.18-.85.14-1.21-.03-.87.01-1.77-.23-2.62-.07-.04-.41.26-.43.25-.03,0-.12-.19-.31-.33-.24-.17-.46-.25-.47-.27-.13-.22.33-.61-1.01-.81-.02-.37.03-1.23-.07-.92,0,.03-.07.5-.07.52-.63-.32-1.39-1.44-1.92-1.08-.15-.41-.12-.71-.14-.29-.41-.46-1.01-.68-1.57-.9-.11-.07.08-.33.05-.42-.02-.07-.78-.57-1.25-.42-.07.02-.32.49-.4.58-.37-.04-.4,0-.67.18-.05.03-.09.06-.13.11.04-.43-.1-.08-.42.14-.06.04-.36.29-.38.29-.39.06-.24-.54-.89.29-.2.26-.32.53-.51.8-.03-.02-.26-.08-.38-.18-.19.35-.48.63-.67.98-.51-.52-.44.22-.6.29-.08.03-.28-.16-.4-.14-.44.05-.06.9-.23,1.55-.59.03-.49.16-.83.54-.07-.69-.13-1.37-.14-2.06,2.32-2.08,4.2-2.46,5.51-3.43.28-.21.66-.49.45-.61.1-.08.54-.37.56-.4.7-.64-.02-.56-.42-.23.04.44-1.22,1.14-1.68,1.39-.44.24-1.36.5-1.39.8-.05.02-.09.05-.14.07-.48.12-1.84.79-1.99,1.17-.89.38-.52.02-1.05-.13.02-.06.05-.17.09-.18,1.3.45.86-.09.92-.31,0-.03.35-.41.38-.42.05-.01.76.18.89-.16.02-.07-.03-.13-.04-.2,0-.08-.04-.14-.04-.29l.67.18c.16.03.17-.06.31-.11.18-.06.74-.28.58-.61,0,0,.07-.11.13-.14.66.27,1.61-.77.85-.49.37-.88.56.13,1.21-.34.28-.2.19-.2.09-.69.01-.05.03-.11.07-.14.91.25,1.05.23,1.46-.61.39,1.06.61.69,1.25.69Z"/>
          <g>
            <path class="cls-32" d="M26.61,62.42c.34.16.63.15.99.11.1.32.55.48.45.61-.34-.15-.63-.42-1.03-.33-.03.02.07.12.11.14.1.06,1.84.88,2.19,1.05.62.3,1.29.53,1.88.89l-.05.05-4.99-2.31c-.27-.27-.49-.23-.27-.43.16.13.56.41.72.22Z"/>
            <path class="cls-29" d="M28.69,64.01l2.17.98c.38.35,1.16.47,1.34.58.05.03,1.06.96.58.76-.75-.81-3.42-1.77-4.01-2.17-.04-.03-.12-.11-.07-.14Z"/>
            <path class="cls-24" d="M25.74,61.73c.16.12.3.28.47.4.13.09.25.22.4.29-.17.2-.56-.08-.72-.22-.06-.05-.5-.59-.51-.63-.03-.19.17.02.36.16Z"/>
            <path class="cls-24" d="M26.21,62.13c-.17-.12-.31-.28-.47-.4.03,0,.1.01.11-.02.01-.05-.53-.36.61-.07-.15.27-.29.3-.29.33-.02.08.23.13.04.16Z"/>
            <path class="cls-8" d="M29.29,66.69c0,.08,0,.17,0,.25l-.07-.04c0-.13-.08-.54-.07-.61,0-.03.06-.5.07-.52.1-.31.05.55.07.92Z"/>
          </g>
        </g>
        <path class="cls-32" d="M17.54,66.03c-.06-.07-.15-.09-.07-.18.13.03.11.09.07.18Z"/>
        <path class="cls-32" d="M27.19,67.66c.2.55.03.88.04.92.01.08.28.26.14.38-.04-.03-.09-.1-.14-.05-.15.14.06.43-.02.45-.19-.14-.23.21-.58.51-.66.57-1.7.71-2.51.43-.06-.02-.16-.07-.22-.11-.02-.01-.05-.02-.07-.04-.18-.12-.39-.37-.51-.54-.34-.51-.27-.77-.42-.72-.02,0-.25.35-.04-.11.22.16.03-.16.13-.63.46-2.29,3.62-2.08,4.19-.49Z"/>
        <g>
          <path class="cls-24" d="M19.89,66.36c-.5.91-.5,2.45-.61,3.52-.02.2-.11.26-.11.27-.02.22-.07,1.12-.04,1.25.02.09.11.01.11.02.13.18.21.24,0,.45-.24.23-.14-.1-.33-.13-.15-.46-.56-1.7-.94-1.81-.06-.41-.1-.82-.14-1.23.23.09.76-.39.83-.65.17-.66-.21-1.51.23-1.55.12-.01.32.18.4.14.16-.06.08-.81.6-.29Z"/>
          <path class="cls-24" d="M32.58,66.61c-.16.47-.04,1.25-.07,1.83-.07,1.05-.34,2.46-.61,3.49-.29,1.08-.67,2.16-1.19,3.15-.11.2-.57,1.06-.7,1.12-.76.1-1.53.2-2.3.25-.43.03-.87.01-1.3.04-.54-.26-.69.14-1.16-.22.49-.01.99-.01,1.48-.04.04,0,.07,0,.11,0,.61-.03,2.17-.12,2.64-.18.15-.02.3-.06.45-.04l.09-.09c.4-.89.74-1.81,1.08-2.73.22-.59.44-.82.51-1.52.07,0,.13.02.18-.05.02-.04.28-.82.29-.87.03-.21-.14-1.76-.18-2.21.03-.16.49.24.54.11.06-.32,0-1.96.04-2.06.06-.15.1.01.11.02Z"/>
          <path class="cls-24" d="M31.6,71.67c-.06.7-.29.93-.51,1.52-.05.01-.07-.02-.11-.04,0-.09-.04-.26-.04-.27.06-.41.43-1.64.51-2.24-.02-.27.07-.61-.11-.6,0-.07.06-.41-.02-.43l-.42.22-.36-.61c.01-.09.02-.17.04-.25.05-.32.18-.75.11-1.05.04-.05.1-.05.07-.14.18.13.28.32.31.33.03,0,.37-.29.43-.25.25.85.2,1.75.23,2.62-.32.36-.12.9-.14,1.21Z"/>
          <path class="cls-18" d="M20.93,65.56s.18.24.29.25c-.02.09-.05.17-.07.25-.42.13-.59.27-.92.47,0,0-.05-.07-.11-.04-.02.01-.16.18-.13.23.04.07.1-.05.14-.05l-.36.49c.27.44-.11,1.19-.04,1.63.03.17.3.34.36.74l-.31-.33s.08.32.09.36c-.5-.15-.5.55-.61.58-.03,0-.07,0-.11,0,0-.01.09-.07.11-.27.12-1.08.11-2.61.61-3.52.19-.35.48-.63.67-.98.12.1.35.16.38.18Z"/>
          <path class="cls-18" d="M22.78,64.44c-.08.09-1.19,1.83-1.23,1.93-.02.07.04.22-.04.23-.03-.19,0-.44,0-.65-.01-.34-.06-.67-.04-1.01.02-.07.1-.19-.04-.18.65-.83.5-.23.89-.29.02,0,.32-.25.38-.29l.07.25Z"/>
          <path class="cls-24" d="M30.77,67.77c.03.09-.03.09-.07.14-.12.15-.25.31-.4.43-.08-.13-.31-.32-.33-.47-.02-.13.09-.37.07-.45-.01-.05-.73-.67-.69-.09-.02-.29-.07-.38-.07-.4,0-.08,0-.17,0-.25,1.34.21.88.59,1.01.81.01.02.23.1.47.27Z"/>
          <path class="cls-24" d="M18.66,68.06c-.07.26-.6.74-.83.65,0-.04,0-.07,0-.11.34-.38.24-.51.83-.54Z"/>
          <path class="cls-24" d="M21.48,64.95c-.08.29-.17.58-.25.87-.11,0-.25-.23-.29-.25.18-.26.31-.54.51-.8.14,0,.06.11.04.18Z"/>
          <path class="cls-12" d="M27.22,65.2c.1.27.35.77.36,1.03,0,.02-.07.05-.07.05.01-.05-.02-.07-.04-.11-.13-.29-.24-.65-.4-.87,0-.11,0-.22,0-.33,0-.02,0-.05,0-.07.02-.42,0-.12.14.29Z"/>
          <path class="cls-8" d="M23.25,63.94s.06.05.07.07c-.17.15-.39.26-.54.43l-.07-.25c.31-.23.45-.57.42-.14.04-.04.08-.08.13-.11Z"/>
          <path class="cls-32" d="M18.91,71.75c.07.22.54,1.87.54,1.97,0,.17-.15.46-.14.54.68.8,1.06,2.17,2.37,1.72.3-.1.56-.42.78-.63.02-.1-.04-.15-.04-.16.06-.12.16-.2.25-.4.06.38.48-.19.8-.4.38,1.24.24.38.78.14.06-.03.09.08.09.07v.29c0,.13,0,.49.04.54-.11.07-.57.77-.61.87-.03.06-.11.16-.07.2.04.05.2-.02.22.05-.02,0-.05,0-.07,0-.2.01-.39.06-.58.07-.03,0-.04-.04-.07-.04-.32.03-.4-.04-.42-.04-.07.02-.86.69-.22,0-.21-.08-.57-.02-.7-.04-.22-.03-.46-.07-.69-.11-.14-.02-.29-.05-.43-.07-.13-.02-.27-.03-.4-.07-.03-.01-.09,0-.13,0l-.13-.14c-.08-.11-.48-1.02-.58-1.21-.02-.03-.07-.01-.07-.02-.06-.12-.12-.24-.18-.36-.68-1.45-1.04-3.02-1.27-4.59.38.11.79,1.35.94,1.81Z"/>
          <path class="cls-12" d="M27.37,68.96c.06.05.1.12.14.18.01.02.12.07.14.16.04.14,0,1.95.04,2.1.01.04.11-.01.11.05,0,.01,0,.09-.04.22-.01.05-.02.09-.04.14-.04.18-.19.37-.04.54-.09.31-.02.62-.04.94-.23-.04-.4-.51-.52-.54-.15-.03-.3.17-.47.14-.09-.01-.19-.3-.6-.22.04-.1.21-.46.22-.51.15-.87-.31-.59-.45-.65-.1-.18.03-.21-.13-.47-.16-.26-.04.07-.07.13-.01.03-.46.36-.49.34-.03-.02-.05-.34-.11-.33-.02,0-.09.3-.09.33-.03,0-.04.03-.07.04l-.16-.33-.09.29c-.11,0-.47-.04-.51-.04v-1.19c.81.28,1.85.14,2.51-.43.34-.3.39-.65.58-.51.08-.02-.14-.31.02-.45.05-.05.11.03.14.05Z"/>
          <g>
            <path class="cls-4" d="M29.14,66.29c0,.08.07.48.07.61,0,.23.02,1.03.04,1.1.01.04.11.08.11.09,0,0,.13.09.14.13.03.11-.03.42,0,.54.15.63.55.68-.23,1.25.03-1.23-.06-.34-.43,0-.08-.06.09-.92-.07-.8.07.67-.37.36-.45.49-.03.05.03.58,0,.72-.02.13-.43.8-.51,1.03,0-.06-.1-.02-.11-.05-.04-.14,0-1.96-.04-2.1-.03-.09-.13-.14-.14-.16,0-.57,0-1.13,0-1.7,0-.38.01-.77,0-1.16,0,0,.07-.03.07-.05-.01-.26-.27-.76-.36-1.03.52-.35,1.29.77,1.92,1.08Z"/>
            <path class="cls-39" d="M28.4,67.05c.18.02-.09,1.47-.13,1.54-.02.03-.06.01-.09.02.06-1.09-.46-1.02.22-1.55Z"/>
            <path class="cls-16" d="M29.29,66.94s.05.11.07.4c0,.06,0,.12,0,.18,0,.18,0,.36,0,.54v.04s-.1-.06-.11-.09c-.02-.07-.03-.87-.04-1.1l.07.04Z"/>
          </g>
          <path class="cls-24" d="M19.42,70.81c.06.29.16.62.22.89.19.94-.02,1.8.47.9.13-.24.18-.41.25-.67,0,.44.06,1.62.33,1.59-.17.19.16.7.22.92.12.46.06,1.36.7,1.17.23-.07.58-.5.74-.47.04,0,.04.04.07.04,0,.01.06.06.04.16-.22.21-.48.53-.78.63-1.31.45-1.69-.92-2.37-1.72,0-.08.15-.37.14-.54,0-.1-.47-1.75-.54-1.97.18.02.09.35.33.13.21-.21.13-.27,0-.45.05-.26.1-.64.18-.61Z"/>
          <path class="cls-41" d="M30.98,73.16c-.08-.03-.09-.02-.14.05-.16.2-1.18,2.36-1.37,2.84-.47.06-2.03.15-2.64.18l.58-1.45c.09.05.07.1.09.11.11.04.08-.07.09-.07.03,0,.08,0,.11,0,.08,0,.16-.03.22.05.26,1.05.16.54.47-.47,1.03.32.54.39.7,1.21.43-.94.78-1.92,1.07-2.91.03-.12-.04-.12-.04-.13.02-.09.33-1.15.42-1.08.03.49.03,1.61.31,1.39.17-.96.43-1.85.51-2.84.18-.02.09.32.11.6-.07.61-.45,1.83-.51,2.24,0,.01.03.18.04.27Z"/>
          <path class="cls-21" d="M26.5,75.15l.22,1.08c-.49.02-.99.02-1.48.04-.08,0-.17,0-.25,0,0-.04,0-.09,0-.11.52-.24.75-.77,1.03-1.23.23.06.09.39.49.22Z"/>
          <path class="cls-31" d="M30.98,73.16s.06.05.11.04c-.34.92-.68,1.84-1.08,2.73l-.09.09c-.16-.02-.3.02-.45.04.2-.48,1.22-2.64,1.37-2.84.06-.07.06-.08.14-.05Z"/>
          <path class="cls-30" d="M27.41,74.78l-.58,1.45s-.07,0-.11,0l-.22-1.08c.06-.03.57-.4.7-.43.19-.05.12.03.2.07Z"/>
          <path class="cls-29" d="M24.98,76.27c.08,0,.17,0,.25,0,.46.35.62-.04,1.16.22-.83.04-1.66.03-2.49.07-.01-.08-.17,0-.22-.05-.04-.04.04-.13.07-.2.25.03.34-.04.36-.04.3,0,.57,0,.87,0Z"/>
          <path class="cls-40" d="M24.4,64.59s.16.07.18.11c-.24-.02-.42.5-.76,1.03-.02.02.11.21-.34.38-.14-2.27-.31-1.89-.23.23-.42.25-.76,1.07-.89,1.54l-.78-.99c-.04-.09-.06-.17-.07-.27.08-.01.01-.16.04-.23.03-.11,1.15-1.85,1.23-1.93.15-.17.37-.29.54-.43.23.3.71.66,1.08.58Z"/>
          <path class="cls-40" d="M25.2,64.44c-.03.11-.05.25-.07.36-.03.13-.05.66-.16.69-.29.07-.31-.67-.38-.8-.02-.04-.14-.06-.18-.11,0,0,.02-.02.14-.07.27.01.4.02.65-.07Z"/>
          <path class="cls-18" d="M27.08,64.99c0,.11,0,.22,0,.33,0,.09,0,.19-.07.25-.01-.07.03-.16-.05-.22-.11-.04-.15,0-.2,0-.17,0-.19.05-.29.04-.34-.05-.5-.33-.69-.58.19-.03.64.43.81.4.06,0,.08-.24.49-.22Z"/>
          <path class="cls-8" d="M25.78,64.81c.18.25.35.53.69.58-.04.07-.09.13-.18.14-.35.04-.6-.38-.72-.65-.05-.11-.08-.37-.11-.43.03-.21.12.08.33.36Z"/>
          <g>
            <path class="cls-24" d="M27.08,64.91s0,.05,0,.07c-.41-.02-.43.21-.49.22-.18.03-.62-.42-.81-.4-.21-.29-.29-.58-.33-.36-.04-.11-.06-.24-.16-.33-.01,0-.09.19-.09.22.25-.4-.54.13-.58.14-.06.03-.07.03-.07.04-.13.05-.14.07-.14.07-.38.08-.86-.28-1.08-.58-.02-.02-.03-.07-.07-.07.27-.17.3-.22.67-.18.08-.09.32-.55.4-.58.46-.15,1.23.35,1.25.42.02.08-.16.34-.05.42.56.22,1.17.44,1.57.9Z"/>
            <path class="cls-1" d="M25.2,64.34s-.5.17-.58.14c.04-.02.83-.54.58-.14Z"/>
          </g>
          <path class="cls-1" d="M25.2,64.34s0,.08,0,.11c-.25.1-.38.09-.65.07,0,0,.01-.01.07-.04.08.02.56-.12.58-.14Z"/>
          <path class="cls-40" d="M30.91,69.83c-.26.12-.05.45-.23.51-.37.12-.15-.91-.13-1.12l.36.61Z"/>
          <path class="cls-8" d="M19.89,69.58c.07.24.13.54.25.76,0,.29,0,.56,0,.85,0,0-.05.06-.07.05-.17-.36-.21-.53-.54-.8-.04-.03-.09-.16-.18-.14-.03-.04-.05-.1-.07-.14.12-.03.11-.73.61-.58Z"/>
          <path class="cls-3" d="M21.51,65.96l-.43.47s.02-.07.04-.11c.04-.12.03-.22.04-.25.03-.09.05-.17.07-.25.08-.29.17-.58.25-.87-.03.34.02.68.04,1.01Z"/>
          <path class="cls-31" d="M21.11,66.32c-.08-.16-.14.06-.23.11-.04.02-.07-.06-.11-.04-.08.04-.43.28-.45.29-.03.01-.12,0-.18,0-.05,0-.1.12-.14.05-.03-.05.11-.22.13-.23.06-.03.1.04.11.04.34-.2.5-.34.92-.47,0,.03,0,.13-.04.25Z"/>
          <path class="cls-28" d="M20.1,69.54c.04.27.04.52.04.8-.13-.22-.19-.52-.25-.76-.01-.04-.14-.35-.09-.36l.31.33Z"/>
          <path class="cls-13" d="M25.67,73.08c-.21.33-.37.67-.54,1.01-.34.08-.55.37-.8.51,0,0-.03-.1-.09-.07-.54.24-.39,1.1-.78-.14-.06-.18-.13-.55-.18-.76.16-.27.12-.6.29-.87l.02.07c.22-.51.43.18.54.22.17.06,1.21-.07,1.54.04Z"/>
          <path class="cls-24" d="M23.28,73.63c.05.21.12.58.18.76-.32.21-.73.78-.8.4.16-.36.23-.77.43-1.12,0,0,.06.08.09.11.04-.17.09-.14.09-.14Z"/>
          <path class="cls-22" d="M25.13,74.1c-.15.3-.25.64-.47.9-.1-.04-.22-.07-.33-.11v-.29c.24-.13.45-.43.8-.51Z"/>
          <path class="cls-25" d="M24.66,75c.11.05.21.12.33.14-.05.19-.15.33-.14.54,0-.06-.12-.06-.14-.07-.04-.02-.32-.16-.33-.18-.03-.05-.04-.41-.04-.54.1.04.22.07.33.11Z"/>
          <path class="cls-24" d="M24.37,75.43s.28.16.33.18c-.18.02-.4.44-.58.65-.02,0-.12.06-.36.04.05-.1.5-.8.61-.87Z"/>
          <path class="cls-24" d="M21.15,73.99c.04.28-.04.62.18.8.28.23.68-.14.9-.36.08.24.11.47.11.72-.16-.03-.51.4-.74.47-.65.18-.59-.72-.7-1.17-.06-.23-.38-.74-.22-.92.05-.05.36-.2.4-.16.03.21.05.42.07.63Z"/>
          <path class="cls-30" d="M23.9,71.28s.1,0,.07.25c-.14.02-.08-.02-.22.07,0,0-.03.07-.04.07-.17.19-.71,1.26-.72,1.48-.21-.38-.07-.89-.11-1.32.23-.14.3-.56.29-.81.45.19.32-.2.58-.51,0,.15,0,.6.04.7.02.06.11.05.11.05Z"/>
          <path class="cls-19" d="M23.68,71.96c-.02.27-.06.53-.11.8-.17.27-.13.59-.29.87,0,0-.05-.02-.09.14-.03-.03-.09-.1-.09-.11-.02-.04-.11-.36-.11-.4,0-.04,0-.07,0-.11.01-.23.55-1.29.72-1.48-.02.1-.03.19-.04.29Z"/>
          <path class="cls-31" d="M21.98,73.92c.04.17.23.39.25.47,0,.01,0,.03,0,.04-.22.23-.62.59-.9.36,0-.03.02-.04.04-.07l.07-.11s.01,0,.04-.04c.07-.08.07-.1.07-.11.04-.07.07-.12.11-.18.08-.11.21-.35.33-.36Z"/>
          <path class="cls-40" d="M21.11,66.32s-.02.07-.04.11c-.11.29-.24.5-.42.76l-.34-.51s.37-.25.45-.29c.04-.02.07.06.11.04.1-.04.15-.26.23-.11Z"/>
          <path class="cls-21" d="M27.01,65.93c-.07.33-.22.33-.52.47-.08-.24-.16-.5-.16-.72.25-.1.46.17.69.25Z"/>
          <path class="cls-1" d="M26.75,65.35c-.04.14.15.1.25.29,0,.01,0,.21,0,.22,0,.02,0,.05,0,.07-.23-.08-.44-.36-.69-.25,0-.06,0-.09-.04-.14.09-.01.14-.07.18-.14.1.01.11-.04.29-.04Z"/>
          <path class="cls-30" d="M30.12,72.58s.07,0,.04.13c-.28.99-.64,1.97-1.07,2.91-.16-.83.33-.89-.7-1.21-.31,1.01-.21,1.52-.47.47-.06-.08-.14-.05-.22-.05.05-.22.1-.44.18-.65.03-.07.3-.61.34-.61.23.08.66,1,.76.98.13-.29.55-2.25.63-2.33.15-.15.2.16.51.38Z"/>
          <path class="cls-37" d="M27.84,73.34c.02.27-.05.56.04.83-.08.21-.13.43-.18.65-.03,0-.08,0-.11,0,.06-.52-.09-1.47.25-1.48Z"/>
          <g>
            <path class="cls-42" d="M30.59,68.96c-.05,0-.07-.07-.07-.07.09-.13-.12-.39-.22-.54.15-.12.27-.28.4-.43.07.3-.06.73-.11,1.05Z"/>
            <path class="cls-9" d="M29.97,67.88c.02.15.24.34.33.47.09.15.31.42.22.54-.16-.15-.66-.73-.7-.76-.26-.15-.04.12-.45-.07,0-.18,0-.36,0-.54.27-.03.28.49.61.36Z"/>
            <path class="cls-2" d="M29.97,67.88c-.33.13-.34-.4-.61-.36,0-.06,0-.12,0-.18-.05-.58.67.04.69.09.02.08-.09.32-.07.45Z"/>
            <g>
              <path class="cls-39" d="M30.51,68.89s.02.07.07.07c-.01.09-.03.16-.04.25-.02.21-.25,1.24.13,1.12.18-.06-.03-.38.23-.51l.42-.22c.07.02.02.36.02.43-.08.99-.33,1.88-.51,2.84-.28.22-.28-.9-.31-1.39-.09-.07-.39,1-.42,1.08-.31-.22-.35-.53-.51-.38-.09.09-.5,2.04-.63,2.33-.1.03-.53-.89-.76-.98-.04,0-.32.55-.34.61-.08-.27-.02-.56-.04-.83-.02-.22,0,0-.18-.04.02-.32-.05-.63.04-.94.51.81.26-.1.11-.47.16,0,.09-.11-.04-.22.04-.13.03-.21.04-.22.08-.23.48-.91.51-1.03.03-.14-.03-.67,0-.72.08-.13.52.19.45-.49.16-.12,0,.73.07.8.37-.34.47-1.23.43,0,.79-.57.39-.61.23-1.25-.03-.12.03-.43,0-.54-.01-.04-.14-.12-.14-.13v-.04c.41.19.19-.07.45.07.05.03.55.61.7.76Z"/>
              <path class="cls-34" d="M28.47,70.3l.09,2.84c-.41.05-.11-.06-.11-.07.02-.14-.07-.48-.07-.51,0-.31-.01-1.99,0-2.1,0,0,.08-.11.09-.16Z"/>
              <path class="cls-35" d="M27.8,71.89c.15.37.4,1.28-.11.47-.15-.18,0-.37.04-.54.02,0,.07.07.07.07Z"/>
              <path class="cls-25" d="M27.8,71.89s-.06-.07-.07-.07c.01-.05.02-.09.04-.14.13.11.19.22.04.22Z"/>
              <path class="cls-9" d="M28.33,73.19c.09.02-.29.5-.02.02,0-.01.01-.02.02-.02Z"/>
            </g>
          </g>
          <path class="cls-32" d="M25.02,72.18c.42,0,.84,0,1.27,0,0,.05-.17.41-.22.51-.02.06-.05.02-.07.07-.11-.09-.25.21-.33.33-.33-.1-1.37.02-1.54-.04-.12-.04-.33-.73-.54-.22l-.02-.07c.05-.27.09-.52.11-.8.18-.05.05.17.16.22.11.05.98,0,1.17,0Z"/>
          <path class="cls-25" d="M26.28,72.18c-.42,0-.84,0-1.27,0-.19.02-.07-.41-.16-.51-.04-.04-.96-.04-1.1-.07.13-.1.08-.05.22-.07.17-.03.14-.04.14-.04.04,0,.39.03.51.04.01,0-.06.07.25.04.04,0,.04-.04.07-.04,0,.03.05.1.05.14l.69-.14.02-.47c.16.26.03.29.13.47.14.06.6-.21.45.65Z"/>
          <path class="cls-36" d="M25.71,71.06l-.02.47-.69.14s-.05-.12-.05-.14c0-.02.07-.32.09-.33.06-.01.08.31.11.33.02.02.47-.32.49-.34.03-.06-.09-.39.07-.13Z"/>
          <path class="cls-15" d="M24.87,71.57c-.32.03-.24-.03-.25-.04l.09-.29.16.33Z"/>
          <path class="cls-8" d="M24.69,75.62s.14.02.14.07c0,.1.1.36.14.47,0,.02,0,.07,0,.11-.3,0-.57,0-.87,0,.18-.21.4-.63.58-.65Z"/>
          <path class="cls-8" d="M27.01,65.56s0,.05,0,.07c-.11-.19-.29-.15-.25-.29.05,0,.09-.04.2,0,.09.06.04.14.05.22Z"/>
          <path class="cls-36" d="M26,72.76c-.36.81-.75,1.49-1.01,2.39-.12-.02-.22-.1-.33-.14.22-.27.32-.6.47-.9.17-.34.34-.69.54-1.01.07-.11.21-.41.33-.33Z"/>
          <g>
            <path class="cls-10" d="M24.12,70.3v1.19s.03,0-.14.04c.03-.25-.07-.24-.07-.25v-1.08c.06.03.16.09.22.11Z"/>
            <path class="cls-28" d="M23.9,70.19v1.08s-.09,0-.11-.05c-.03-.1-.03-.55-.04-.7,0,0-.07.01-.07-.02,0-.02.21-.2.14-.34.02.01.05.02.07.04Z"/>
          </g>
          <path class="cls-13" d="M25.02,72.18c-.2,0-1.07.05-1.17,0-.11-.05.02-.27-.16-.22,0-.1.02-.19.04-.29,0,0,.03-.07.04-.07.14.03,1.06.03,1.1.07.1.09-.03.52.16.51Z"/>
          <g>
            <path class="cls-20" d="M27.51,67.44c0,.57,0,1.13,0,1.7-.04-.06-.08-.13-.14-.18.14-.12-.13-.3-.14-.38,0-.05.16-.37-.04-.92.32.02-.02-.29.33-.22Z"/>
            <path class="cls-7" d="M25.45,64.44c.02.07.06.33.11.43l-.43-.07c.02-.12.05-.25.07-.36,0-.03,0-.08,0-.11,0-.02.08-.21.09-.22.1.08.12.21.16.33Z"/>
            <path class="cls-36" d="M27.48,66.18l-.47-.33s0-.21,0-.22c0-.02,0-.05,0-.07.07-.07.07-.17.07-.25.16.21.26.58.4.87Z"/>
            <path class="cls-25" d="M23.1,73.66c-.21.35-.27.76-.43,1.12-.09.2-.19.28-.25.4-.03,0-.04-.03-.07-.04,0-.25-.03-.48-.11-.72,0-.01,0-.03,0-.04.28-.15.52-.79.76-1.12,0,.04.09.36.11.4Z"/>
            <path class="cls-39" d="M23.83,70.16c.06.15-.15.32-.14.34,0,.03.07.01.07.02-.26.31-.13.69-.58.51.21-.07.25-1.01.22-1.21,0-.06-.18-.17-.07-.2.12.18.33.43.51.54Z"/>
            <path class="cls-9" d="M21.58,74.31s.04-.04.07-.04c-.04.06-.06.11-.11.18l-.07.11s-.03.03-.04.04c-.05.05-.04.02-.07.11-.01.03-.03.04-.04.07-.22-.18-.15-.52-.18-.8.22-.05.32.29.43.33Z"/>
            <g>
              <path class="cls-5" d="M24.59,64.7c.07.13.09.86.38.8.12-.03.14-.56.16-.69l.43.07c.12.27.38.69.72.65.04.05.04.08.04.14,0,.23.08.48.16.72.31-.14.46-.14.52-.47,0-.02,0-.05,0-.07l.47.33s.05.06.04.11c.01.38,0,.77,0,1.16-.35-.07,0,.23-.33.22-.57-1.59-3.73-1.81-4.19.49-.09.47.09.79-.13.63-.21.45.01.12.04.11.15-.05.08.21.42.72-.11.03.06.14.07.2.03.2,0,1.14-.22,1.21.01.25-.06.67-.29.81.04.43-.1.94.11,1.32,0,.04,0,.07,0,.11-.23.33-.48.97-.76,1.12-.03-.08-.21-.3-.25-.47-.17-.69-.04-4.84-.14-6.02-.07-.08-.05-.03-.11-.02-.27.07-.43.97-.11.33.03,0,.11.08.11.09.06.29-.08,4.48.18,5.57-.13.14-.29.25-.33.45-.11-.03-.21-.38-.43-.33-.03-.21-.05-.42-.07-.63-.03-.04-.35.11-.4.16-.26.02-.33-1.15-.33-1.59,0-.05-.24-.58-.29-.69.02,0,.07-.05.07-.05,0-.29,0-.56,0-.85,0-.27,0-.52-.04-.8-.06-.4-.33-.57-.36-.74-.08-.44.3-1.18.04-1.63l.36-.49c.06,0,.15.01.18,0l.34.51c.17-.26.31-.47.42-.76l.43-.47c0,.21-.03.46,0,.65.02.1.04.18.07.27l.78.99c.12-.47.47-1.29.89-1.54-.08-2.13.1-2.5.23-.23.45-.17.33-.36.34-.38.34-.53.52-1.05.76-1.03Z"/>
              <path class="cls-34" d="M21.98,73.92c-.11,0-.25.25-.33.36-.03,0-.04.04-.07.04.03-.2.19-.32.33-.45-.26-1.09-.12-5.28-.18-5.57,0-.01-.08-.09-.11-.09.05-.1.08-.22.11-.33.05-.01.04-.07.11.02.1,1.18-.03,5.33.14,6.02Z"/>
              <path class="cls-35" d="M22.69,71.31c.3-.04-.03,1.49-.11,1.52,0,0-.17-.06-.18-.07-.05-.06.21-1.28.29-1.45Z"/>
              <path class="cls-35" d="M21.73,67.88c-.03.11-.06.22-.11.33-.32.64-.16-.26.11-.33Z"/>
              <path class="cls-25" d="M21.06,66.87c.12-.1.04.72,0,.72v-.72Z"/>
            </g>
            <g>
              <path class="cls-2" d="M19.27,70.16s.04.1.07.14l-.07.02c.02.17.11.33.14.49-.08-.03-.13.35-.18.61,0,0-.08.07-.11-.02-.04-.13.01-1.03.04-1.25.03,0,.08,0,.11,0Z"/>
              <path class="cls-25" d="M19.34,70.3c.04.06.09.15.18.14.34.27.37.43.54.8.05.11.28.64.29.69-.07.26-.12.43-.25.67-.49.89-.28.04-.47-.9-.05-.27-.15-.6-.22-.89-.04-.16-.12-.32-.14-.49l.07-.02Z"/>
              <path class="cls-2" d="M19.52,70.45c-.09,0-.14-.08-.18-.14.1-.02.14.11.18.14Z"/>
            </g>
            <path class="cls-24" d="M21.37,74.71c.03-.09.03-.05.07-.11l-.07.11Z"/>
            <path class="cls-38" d="M21.48,74.57l.07-.11s0,.02-.07.11Z"/>
          </g>
          <g>
            <path class="cls-34" d="M27.66,73.3c.18.03.16-.18.18.04-.34,0-.19.96-.25,1.48,0,0,.02.11-.09.07-.02,0,0-.06-.09-.11-.08-.04,0-.12-.2-.07-.14.04-.64.41-.7.43-.4.17-.26-.15-.49-.22-.29.46-.51.99-1.03,1.23-.05-.11-.14-.37-.14-.47,0-.21.09-.35.14-.54.26-.9.65-1.57,1.01-2.39.02-.06.05-.02.07-.07.41-.08.51.2.6.22.17.02.32-.18.47-.14.13.03.29.5.52.54Z"/>
            <path class="cls-34" d="M26.88,72.9c.26.05-.41,1.08-.51,1.23.01-.22.26-1.28.51-1.23Z"/>
          </g>
        </g>
      </g>
    </g>
  </g>
</svg>