<?xml version="1.0" encoding="UTF-8"?>
<svg id="Ebene_2" data-name="Ebene 2" xmlns="http://www.w3.org/2000/svg" viewBox="0 0 109.15 99.57">
  <defs>
    <style>
      .cls-1 {
        fill: #9e969a;
      }

      .cls-1, .cls-2, .cls-3, .cls-4, .cls-5, .cls-6, .cls-7, .cls-8, .cls-9, .cls-10, .cls-11, .cls-12, .cls-13, .cls-14, .cls-15, .cls-16, .cls-17, .cls-18, .cls-19, .cls-20, .cls-21, .cls-22 {
        stroke-width: 0px;
      }

      .cls-2 {
        fill: #e62043;
      }

      .cls-3 {
        fill: #aca4a7;
      }

      .cls-4 {
        fill: #852d40;
      }

      .cls-5 {
        fill: #ee7580;
      }

      .cls-6 {
        fill: #dbd8da;
      }

      .cls-7 {
        fill: #b7b0b3;
      }

      .cls-8 {
        fill: #8a8185;
      }

      .cls-9 {
        fill: #040505;
      }

      .cls-10 {
        fill: #e8e5e7;
      }

      .cls-11 {
        fill: #201f1c;
      }

      .cls-12 {
        fill: #b82d3e;
      }

      .cls-13 {
        fill: #c6c0c3;
      }

      .cls-14 {
        fill: #a8a0a4;
      }

      .cls-15 {
        fill: #928a8e;
      }

      .cls-16 {
        fill: #bab4b7;
      }

      .cls-17 {
        fill: #b2abae;
      }

      .cls-18 {
        fill: #d0ccce;
      }

      .cls-19 {
        fill: #faf8f9;
      }

      .cls-20 {
        fill: #eceaeb;
      }

      .cls-21 {
        fill: #f8f7f7;
      }

      .cls-22 {
        fill: #221c1b;
      }
    </style>
  </defs>
  <g id="Ebene_2-2" data-name="Ebene 2">
    <ellipse class="cls-2" cx="54.57" cy="49.79" rx="54.57" ry="49.79"/>
    <ellipse class="cls-19" cx="52.81" cy="28.88" rx="16.29" ry="13.5"/>
    <ellipse class="cls-4" cx="55.19" cy="60.09" rx="48.77" ry="31.4"/>
    <ellipse class="cls-12" cx="55" cy="74.67" rx="28.34" ry="17.34"/>
    <circle class="cls-5" cx="54.91" cy="74.67" r="15.55"/>
    <g>
      <g>
        <path class="cls-17" d="M59.7,87.8c0,.05,0,.11,0,.17l-.5.17c-.29-.88.49-2.09.5-.33Z"/>
        <path class="cls-17" d="M59.7,87.8v-.08c1.75-2.24.42.47,0,.08Z"/>
        <path class="cls-14" d="M57.7,88.13c-.39.06.03-.85.08-.83.17.05-.04.83-.08.83Z"/>
        <path class="cls-8" d="M59.2,88.13l.5-.17c-.06.55-.35.64-.5.17Z"/>
        <g>
          <path class="cls-17" d="M47.19,87.3s-.1,0-.17,0l-.08-.67.25.67Z"/>
          <path class="cls-1" d="M43.86,87.97c-.16.17-.72-1.38-.17-.75.06.07.24.67.17.75Z"/>
          <path class="cls-15" d="M46.53,86.97c-.19-.15-.64-.29-.42-.67l.42.67Z"/>
          <path class="cls-16" d="M38.69,89.47v.17c-.33-.17-.52-.41,0-.17Z"/>
          <path class="cls-8" d="M38.69,89.63v-.17c.56.27.42.38,0,.17Z"/>
        </g>
      </g>
      <g>
        <path class="cls-22" d="M28.61,22.79c1.86,1.44,1.59,3.42.33.83-.25,1.49,2.21,2.47.17,2.67l-1.42-1.08.08-.25c2.79,1.68-1.73-2.53.92-.42l-.08-1.75Z"/>
        <path class="cls-9" d="M45.03,17.63c-1.52,1.94-.56,3.78-.75,3.83-1.19-.64-.17-3.84.5-4.17.3-.15.23.33.25.33Z"/>
        <path class="cls-9" d="M46.28,11.63l.25,1.42.5-.5c-.58,4.33-1.96-.09-.67,1l-.08-1.92Z"/>
        <path class="cls-9" d="M46.61,24.13c.32.02.52.82.58,1.08.7,3.07-.71,2.37-.58-1.08Z"/>
        <path class="cls-9" d="M46.69,20.29c.37,2.1-1.25,8.04-.33.42.18-.35.33-.39.33-.42Z"/>
        <path class="cls-9" d="M46.44,14.96c1.03-.8.06,1.45-.33,1.5-.25-.14.17-1.37.33-1.5Z"/>
        <path class="cls-22" d="M84.11,35.3c-.06,1.59-1.12,1.55-.08.08l.08-.08Z"/>
        <path class="cls-1" d="M88.78,43.46c.39-.05.24.16-.17.5-1.26,1.05-.41-.42.17-.5Z"/>
        <path class="cls-1" d="M74.61,22.29c.25.07-.12.85-.17.83-.25-.07.12-.85.17-.83Z"/>
        <path class="cls-8" d="M87.45,37.3c.56.25-.42.67-.42.25,0-.02.39-.26.42-.25Z"/>
        <path class="cls-14" d="M47.94,19.46c.13,0,.13.67,0,.67s-.13-.67,0-.67Z"/>
        <path class="cls-22" d="M72.53,19.29c-.29.51-.32-.55-.08-.5.11.02.12.43.08.5Z"/>
        <path class="cls-9" d="M45.28,12.46c.13,0,.13.5,0,.5s-.13-.5,0-.5Z"/>
        <path class="cls-1" d="M29.78,26.63c.1-.05.42,0,.42.08,0,.19-.71.06-.42-.08Z"/>
        <path class="cls-11" d="M45.78,16.96c.13,0,.13.5,0,.5s-.13-.5,0-.5Z"/>
        <path class="cls-14" d="M48.11,32.29c.13,0,.13.5,0,.5s-.13-.5,0-.5Z"/>
        <path class="cls-6" d="M77.53,50.63s-.4.57-.5.67c-.32.21-1.8,1.24-2,.92.16-.11.23-.26.33-.42.75-.37,1.47-.7,2.17-1.17Z"/>
        <path class="cls-8" d="M81.61,60.3c.36.35.36.57.83.33.85.62-1.49,1.6-.83-.33Z"/>
        <path class="cls-8" d="M67.28,62.96c.65-.1.46.32-.33.5-.29-.21.28-.49.33-.5Z"/>
        <path class="cls-17" d="M65.53,64.13c-.54.14-.64-.21-.17-.33l.17.33Z"/>
        <path class="cls-8" d="M65.53,64.13l-.17-.33c.54-.14.64.21.17.33Z"/>
        <path class="cls-8" d="M42.69,64.96c1.15,1.06.79-.07-.5-1.42.06-.19,3.13,1.48,3.42,1.75,1.5,1.45-.95-.29-1.33-.5-.19-.11-.14.48-.83-.5-.6-.12,1.57,2.87.17,1.33-.26.83-.83-.57-.92-.67Z"/>
        <path class="cls-8" d="M37.61,65.96c.96-.24.77.47.58.58-.16.1-.26-.77-1.08.25-.27-.21.45-.82.5-.83Z"/>
        <path class="cls-15" d="M26.36,59.3l-1,.75c.12-.64.84-.67,1-.75Z"/>
        <path class="cls-17" d="M26.69,61.63l-.17.33s-.03.35-.33.08c.4-.27-.1-.48,0-.75.49.27.47.33.5.33Z"/>
        <path class="cls-22" d="M37.44,65.46c.63-.09-.05.69-.25.25,0-.02.23-.25.25-.25Z"/>
        <path class="cls-8" d="M27.03,61.63c-.09.06,0,.22-.5.33l.17-.33c.11,0,.26.02.33,0Z"/>
        <path class="cls-1" d="M34.86,65.63s.31-.06.33.08c.15.92-.29-.06-.33-.08Z"/>
        <g>
          <path class="cls-22" d="M79.2,25.13c-1.02,1.51-.26,3.4-.33,3.92-.1.69-3.56,10.11-4.92,10.75-.82-.37,3.28-7.85.58-3.92-.64,1.13-1.52,5.4-2.42,5.92-.1.06-.49.26-.42-.08.49-.81,1.76-4.19,1.83-4.67.53-3.53-1.96,4.17-2.33,4.67-.21.28-.36.34-.33,0l.42-1.08c-1.36,1.71-2.42,4.2-2.25,2.75.07-.6.61-1.66,1-2.17.44-.58,2.22-1.48,1.67-1.83.51-1.34,1.7-4.63.58-2.75-.33-.13,1.92-3.16,2.33-3.5-1.61,6.28.59-.31,2.33-.33,1.28-1.74-.07-.29-.25-.75-.05-.14,1.67-2.19,1.25-2.42-3.39,5.56-4.38,5.07-.92.58-1.35-.57,1.78-.68.75-2.42l-.75,1.42.42-2.58c-.75.85-.8,3.36-1.08,2.08-.05-.21-.35-3.01-.33-3.17.02-.16.49-.62.5-.67.39-1.74-1.48,1.87-.83,3.33-1.65,5.38.1,3.06.42-.75,1.05,4.98-4.57,5.93-1.58,5.25l-2.33,2.67,2.5-6.5-.17-3.33c.2-.33.82-1.57.83-1.67.41-2.43-1.41,3.42-.92.25-1.17,1.34.67,3.5-.5,5.5-.81-6.21-2.2-6.99-.25-.92.1,1.31-.16,1.19-.17,1.25l-.17-.17c.79-2.01-2.62,3.55-.33-1.25-.86-5.05.37-.31-1.5.67.93-1.98,1.53-7.29.08-1.92l-.42-3.08c-.63,2.37.86,4.38-.17,3.17v2.83c-2.12,6.02-2.25,3.95-.17-.5-.75-2.99.26-7.53-.67-5.67l.17-2.42c.24-.6.63-1.74.67-1.83.8-1.73.31,2.4.83.75.07-.21-.19-.27-.17-.42.39-.16.57-.55.83-.83,2.22-2.36-1.04,3.02.5,4.25l.67-1.33c.02-.72-.54.55-.83.5.79-4.49.26-1.02.42-.92.44.27.69-.83.92-.42.02,2-1.5,2.64-.58,5.25l.08-2.08c1.29-1.61,1.63-2.47,1.92-4.58.34.9-.4,2.09.58,2.42-1.72,2.96.51.11.75.08.84.67-1.22,3.7.83,1.17.03.73.65.4.75.75.03.11-.6,2.41.58.42l.08.33Z"/>
          <g>
            <path class="cls-10" d="M75.95,24.13c.35.17-.42.87-.75,1.75,0,.02.31.25.17.5-.53.95-1.07-.93.58-2.25Z"/>
            <path class="cls-10" d="M72.61,19.79c.37.08-.92,2.83-1,3-.61.11.81-2.63,1-3Z"/>
            <path class="cls-6" d="M75.78,35.3c.12.06.11.45.08.58-.34,1.81-2.43,3.87-.08-.58Z"/>
            <path class="cls-10" d="M72.11,22.29c.4,1.04.23,1.68-.17,2.67l.17-2.67Z"/>
            <path class="cls-6" d="M77.45,24.63l-.17,1.17.42-.92c.78.47-1.26,2.74-.67.33.02-.06.28-.46.42-.58Z"/>
            <path class="cls-6" d="M75.11,28.13c-.18,4.03-1.12,4.53-.08.08l.08-.08Z"/>
            <path class="cls-10" d="M71.45,20.96c.25.04-.23,2.03-.67,2.17l.67-2.17Z"/>
            <path class="cls-10" d="M76.61,25.46c.52,1.43.06,2.56-.08,1.92-.05-.25-.01-1.92.08-1.92Z"/>
            <path class="cls-6" d="M76.78,32.96c.15.01-.12.84-.17.83-.21-.02-.06-.85.17-.83Z"/>
            <path class="cls-6" d="M75.11,26.79c.13,0,.13.83,0,.83s-.13-.83,0-.83Z"/>
            <path class="cls-16" d="M71.11,23.13c.13,0,.13.67,0,.67s-.13-.67,0-.67Z"/>
            <path class="cls-13" d="M73.45,35.13l.08.08v.17l-.08.08h-.17l-.08-.08.08-.08.08-.08.08-.08Z"/>
          </g>
        </g>
        <g>
          <path class="cls-10" d="M79.2,25.13h.17c-.1.39-.07.87-.17,1.33.08-.08-.03-.46-.25-.33-.3.16.1.48.25.33-.75,3.63.4-.39.5.75-.55.75-1.08,2.47-.67,3-.04.15-.56.27-.67.67-1.44,5.21-.42,3.5.58-.25.57,1.45-.68,2.67-.75,2.92-.09.32.36.24.33.33-.05.16-1.91,3.96-.33,1.83.37-.5.64-2.35,2.92-4.25-.23,1.4-.86,1.01-.92,1.08-1.49,2.04-1.79,4.72-.08.92v1l.75-.75c-1-.19,1.4-3.47,1.17-2.33-.1.46-1.19,1.42-.92,2.08.45-.43.89-1.85,1.08-2.08.6-.71-.15.52.5.25-.24.55-.57,1.01-1,1.42h1c-1.86.63-5.38,4.84-5.75,4.92-1.38.29.01-1.24.08-1.58.46-2.16-1.55,2.5-1.67,2.67-4.32,3.07-5.94,11.12-6.33,11.67-.1.15-.23.14-.33,0,.75-1.88.6-5.33,2-6.67-.37.74-.53,1.44-.67,2.25,0,.03-.35,0-.08.5.17-.11.03-.41.08-.5.38-.71.81-1.41.83-2.25,3.87-4.76-2.24.38-2.58,2.42.03-3.7,3.14-11.07-.42-3.42-.88-.85,2.03-3.42,2-5.83h.33q-.13,1.79-.25,3.58c1.06-1.26,1.94-2.72,1.92-4.42-.26.89-1.39,3.53-.83.83.24-1.16,2.21-4.77,2.5-7.25,0-.06.27.06.17-1.25-1.95-6.08-.56-5.29.25.92,1.17-2-.67-4.16.5-5.5-.49,3.17,1.33-2.68.92-.25-.02.09-.63,1.34-.83,1.67l.17,3.33-2.5,6.5,2.33-2.67c-2.98.68,2.63-.27,1.58-5.25-.31,3.81-2.07,6.13-.42.75-.65-1.46,1.23-5.07.83-3.33-.01.05-.48.51-.5.67-.02.16.29,2.96.33,3.17.29,1.28.33-1.24,1.08-2.08l-.42,2.58.75-1.42c1.03,1.74-2.1,1.85-.75,2.42-3.47,4.49-2.47,4.98.92-.58.42.23-1.3,2.28-1.25,2.42.18.46,1.53-.99.25.75-1.75.03-3.95,6.62-2.33.33-.42.34-2.66,3.37-2.33,3.5,1.11-1.88-.08,1.41-.58,2.75.55.36-1.22,1.25-1.67,1.83-.39.51-.93,1.56-1,2.17-.17,1.45.89-1.04,2.25-2.75l-.42,1.08c-.03.34.12.28.33,0,.37-.5,2.87-8.2,2.33-4.67-.07.48-1.34,3.85-1.83,4.67-.08.35.31.14.42.08.9-.52,1.78-4.79,2.42-5.92,2.7-3.93-1.4,3.55-.58,3.92,1.36-.64,4.82-10.06,4.92-10.75.08-.52-.69-2.41.33-3.92Z"/>
          <path class="cls-14" d="M79.2,26.46c-.15.15-.55-.17-.25-.33.22-.12.33.25.25.33Z"/>
          <path class="cls-14" d="M70.61,42.3c.28.03-.15.67-.25.42-.06-.17.22-.42.25-.42Z"/>
          <path class="cls-17" d="M70.03,46.3c-.05.09.09.39-.08.5-.27-.49.08-.48.08-.5Z"/>
        </g>
        <g>
          <path class="cls-22" d="M82.7,31.63c-.65.27.1-.96-.5-.25-.2.23-.63,1.65-1.08,2.08-.27-.66.82-1.63.92-2.08.24-1.13-2.17,2.14-1.17,2.33l-.75.75v-1c-1.7,3.81-1.41,1.12.08-.92.06-.08.69.31.92-1.08-2.27,1.9-2.55,3.76-2.92,4.25-1.57,2.13.28-1.67.33-1.83.03-.09-.42-.02-.33-.33.07-.25,1.32-1.46.75-2.92-1,3.75-2.03,5.46-.58.25.11-.39.62-.51.67-.67-.41-.53.11-2.25.67-3-.1-1.14-1.25,2.88-.5-.75.09-.46.07-.94.17-1.33.01-.05.29-.59.33-.92h.33c-.77,2.15.67,1.44.75,2.75.21.16,1.77-2.75.58-.08,1.08,3.18-1.15,5.13,1.67,1.5-1.47,3.22.7.91-.33,3.25Z"/>
          <g>
            <path class="cls-10" d="M80.61,28.63c.17.67-1.04,1.65-1.08,2.08-.2,1.84.56-.32.83-.17-1.29,4.43-1.95-.61.25-1.92Z"/>
            <path class="cls-10" d="M80.11,27.13c.29.17.15.51.08.75-.42,1.57-2,1.84-.08-.75Z"/>
            <path class="cls-10" d="M81.03,29.79c0,.07.33-.37.33.08,0,.37-1.03,2.89-.33-.08Z"/>
            <path class="cls-14" d="M81.03,29.79c.03-.54-.17-1.3.42-1.83.18.05-.37,1.64-.42,1.83Z"/>
            <path class="cls-17" d="M81.11,27.13c.16-.1.33.04.17.33-.23.42-.39-.2-.17-.33Z"/>
            <path class="cls-13" d="M80.61,27.96c.28.03-.15.67-.25.42-.06-.17.22-.42.25-.42Z"/>
          </g>
        </g>
        <g>
          <path class="cls-9" d="M49.11,12.79c.73.65-.57,1.78-.17,2.67,1.81-6.88,1.49,2.84-.75,4.42,1.21-5.16-1.58-.31-.58,4.92-2.06-3.63.77-6.76,1.08-8.42.19-1.04-1.5,2.21-.83-1.33.13-.7.92-1.6,1.25-2.25Z"/>
          <path class="cls-10" d="M48.78,13.79l-.5,2.33c-.24-.77.13-1.64.5-2.33Z"/>
        </g>
        <g>
          <path class="cls-22" d="M43.78,12.96c.86,2.59.89-1.23,1.17,1,.95-1.83,1.06,2.04.58,2.92-.47.86-.08-.68-.08-.92l-1.67,1.67v-4.67Z"/>
          <path class="cls-10" d="M44.61,14.29c.18.1.14.81-.17.67-.28-.12.08-.72.17-.67Z"/>
        </g>
        <g>
          <path class="cls-10" d="M71.03,19.79c-.04.09-.43,1.23-.67,1.83-.71.18-.54,1.5-.42,1.5.07-.52.23-1.01.42-1.5l-.17,2.42c.92-1.86-.08,2.68.67,5.67-2.08,4.45-1.95,6.52.17.5v-2.83c1.03,1.21-.46-.8.17-3.17l.42,3.08c1.45-5.37.85-.06-.08,1.92,1.87-.97.64-5.72,1.5-.67-2.29,4.8,1.13-.76.33,1.25-.38.97-1.87,2.08-2.42,3-.21-.2,2.25-4.85,1.25-3.75-1.12,1.23-1.76,4.19-2.5,5.67-.41.82-1.83,2.61-2.33,3.83l-.33-.17c.19-1.85.92-1.84,1-2,1.51-3.2,1.06-4.39,1.67-7.67.1,5.18,1.28-1.89.33-1-.73.69-.54,2.45-1.75,3.08-.07-1.3-.72,1.13-2,2.5-.46-.19.29-5.15.58-5.75.08-.15.71.22,1.75-2.75.35,2.24-1.9,2.96-2.08,5.58-.09,1.34,1.03-2.14,1.33-1.5-2.84,6.99,1.23-2.2,2.17-3.83l-1-.17c-.06-.32.47-.28.5-.5.19-1.37-.06-7.51.42-4.08.85-1.06.28-.15,1.08-.5Z"/>
          <path class="cls-9" d="M70.11,25.63c.21,1.34-.85,2.35-1.33,3.5-.51-.24,1.17-3.06,1.33-3.5Z"/>
          <path class="cls-22" d="M70.36,21.63c-.19.49-.35.98-.42,1.5-.12,0-.29-1.32.42-1.5Z"/>
          <path class="cls-22" d="M70.28,20.46c.5.18-.92,1.99-.33.5.01-.03.3-.51.33-.5Z"/>
        </g>
        <path class="cls-9" d="M77.03,51.3c-.39.36-.73.84-1.17,1.17l-2,.92c.55.03,1.53-.57,2-.92l.33.08c-1.39,1.22-2.71,1.02-4.17,1.58-.1-.02-.33.05-.33-.08.68-.59,1.52-.96,2.33-1.33-1.21-.17.64-.57,1.33-.92-.1.16-.18.3-.33.42.2.32,1.68-.7,2-.92Z"/>
        <g>
          <path class="cls-6" d="M77.53,52.63c-.48.24-3.55,1.63-3.75,1.67-.09.01-1.66-.15-1.75-.17,1.45-.56,2.77-.36,4.17-1.58l-.33-.08c.44-.32.78-.81,1.17-1.17.09-.06,1.78-.97.5-.67.82-.55,1.45-1.41,2.25-2l-1.42,1.92,1.42-.75c-2.13,3.38,1.52-1.36,1.75-.58-2.21,2.5-2.4,2-3.75,2.75-.18.1-.34.47-.75.58.02.13.33.08.5.08Z"/>
          <path class="cls-9" d="M78.78,50.8c.22.2,0,.33-.17.5-1.17,1.12-3.56,1.42.17-.5Z"/>
          <path class="cls-9" d="M77.03,51.3c.1-.1.46-.66.5-.67,1.28-.3-.41.61-.5.67Z"/>
        </g>
        <g>
          <path class="cls-6" d="M77.53,52.63c3.22-1.59,2.65-1.83,5-3.5-.1.08-.19,1.08-1.33,2.25-2.6,2.67-6.59,2.54-1.67,1-.7-.18-1.3.27-2,.25Z"/>
          <path class="cls-15" d="M81.11,50.63l.25.08c-1.25,1.73-1.78,1.43-.25-.08Z"/>
        </g>
        <path class="cls-9" d="M82.53,42.8c.22-.43.33-.95.83-1.17-.08.13-.26.9-.83,1.17Z"/>
        <g>
          <path class="cls-9" d="M63.53,14.79l-.25.33c.37.06.21-.27.25-.33.1-.16.24-.34.33-.5l-.42,3.83c.73.1.63-3.35.75-3.75l-.33-.08c1.22-2.05-.02.09.67.75l.5-.33c-1.12,1.96,1.55.51.92,1.92.89.51.47-3.59,1.08-.25,1.45-.42.19.27.17.5-.02.21.24.31.17.75-.02.03-.49.05-.5.42-.01.55.31.72.5-.42,2.35-3.52.94,3.53,1.83-.42.02-.11-.36-.06-.33-.17,1.63-3.69.05,1.19,1.25-.42-.51,2.17.95-.67.17,2.5.82-1.32,1.3,0,2.17-2,.22.07-.48,1.47-.75,3-.03.15.23.2.17.42-.52,1.65-.03-2.48-.83-.75-.81.35-.23-.56-1.08.5-.48-3.43-.23,2.72-.42,4.08-.03.22-.56.18-.5.5l1,.17c-.94,1.63-5.01,10.83-2.17,3.83-.3-.64-1.43,2.84-1.33,1.5.19-2.62,2.44-3.34,2.08-5.58-1.04,2.97-1.67,2.6-1.75,2.75-.3.6-1.05,5.56-.58,5.75,1.28-1.37,1.93-3.8,2-2.5,1.21-.63,1.02-2.39,1.75-3.08.95-.89-.24,6.18-.33,1-.6,3.28-.15,4.47-1.67,7.67-.08.16-.81.15-1,2l.33.17c.51-1.22,1.92-3.01,2.33-3.83.74-1.47,1.38-4.44,2.5-5.67,1-1.1-1.46,3.55-1.25,3.75.55-.92,2.04-2.03,2.42-3l.17.17c-.29,2.48-2.26,6.09-2.5,7.25-.56,2.7.57.06.83-.83.02,1.7-.85,3.16-1.92,4.42q.13-1.79.25-3.58h-.33c.03,2.41-2.88,4.98-2,5.83,3.55-7.65.45-.29.42,3.42.34-2.04,6.45-7.17,2.58-2.42-.03.84-.45,1.54-.83,2.25.13-.81.3-1.51.67-2.25-1.4,1.34-1.25,4.79-2,6.67.11.14.23.15.33,0,.39-.55,2.02-8.6,6.33-11.67.11-.17,2.12-4.83,1.67-2.67-.07.34-1.47,1.87-.08,1.58.37-.08,3.89-4.28,5.75-4.92h-1c.43-.41.76-.87,1-1.42.16-.07,2.88-3.67,1.33-.75-.07.13-2.59,2.91-.75,1.42.42-.34.55-1.09,1.33-1.33-.7.92-.39,1.94-1.42,2.75,1-.49,3.17-2.68,1.17-.08-.02,0,.06-.32-.08-.33-.59-.07-2.58,3.79.08.33.09.04-.14.55,1.17-.08l-2.33,2.33c.23.18.22.76.17,1-.99,4.53.19-2.03,2.67-1.67-.49.43-2.97,4.44-1.42,2.25,1.7-.35,3.48-2.82,1,.67,1.03-2.36-3.56,2.92-1.25,1,.07.7-2.66,3.3-1.83,3.67-1.3,2.54,2.04-1.51.83-1.17.13-.21,1.57-2.58,1-2.5.87-.72,1.38-.85,2.5-1.25-1.86,2.72-2.69,5.41.5,1.17l-.25-.25c-2.01,2.97-.7.04-.25-.42.51-.51.09.26.75-.08.65-.33,1.41-1.61-.25,1.5-.32.23-.68.73-.58.83.71-.15.55-.77.58-.83.28-.2.67-.25.92-.5l.08.25c-.88.34-.31.62-.33.67-.62,1.23-2.22,2.75.92.25-1.19,3.03-1.54,1.74-1.67,1.83-.43.33-1.11,1.04-1.25,1.58,5.54-3.12,2.57-1.7.58,1.42,3.5-1.69,1.55-.68.92.08-.04.04.23.31-.33.92-.02.02-.05-.13-.5.33-.46.48-1,1.61-1.58.83-.73,1.18-2.34.58-2.58,1.67-2.35,1.67-1.78,1.91-5,3.5-.17,0-.48.05-.5-.08.41-.11.57-.48.75-.58,1.35-.75,1.54-.25,3.75-2.75-.23-.78-3.88,3.96-1.75.58l-1.42.75,1.42-1.92c-.8.59-1.43,1.45-2.25,2-.7.47-1.42.79-2.17,1.17.43-.71,2.06-1.44,2.67-2.25-1.11.42-7.25,4.44-7.58,4.75-1.5,1.39,1.44-.11,1.58-.17.09.02,1.66.18,1.75.17.2-.03,3.27-1.43,3.75-1.67.7.02,1.3-.43,2-.25-4.93,1.54-.93,1.67,1.67-1,1.14-1.17,1.23-2.17,1.33-2.25.4-.34,3.76-.37,2.5-.92.7-.26,1.2-.74,1.5-.92.05-.03.75-.31,1.17-.5.38-.18.8-.33,1.08-.67l.25.25-2.33,2.5,1.08-.25-.17-.33c1,.02,1.7-.31.33.83-.01.01-.19-.28-.33-.17-.16.13-.33.65-1.33,1.17-.13.07.42-.79-1.08.33-.03.02-.41.04-.67.25.51.31.63-.24.67-.25.19-.05.47.05.67,0-.03-.01-.6.27-.5.42.26.4,1.1-.21.5-.42,3.12-.75,4.1-2.36,1.67.75,3.1-.54.15.62.17,1.17,0,.16.52.3.5.33-.06.13-.82.02-.83.33,0,.17.85.46.83.5-.19.4-1.44-.65-.92.58-3.15.51,2.85.96-.83,1-.06.03.65,1.13-.5,0-1.81,1.02.89.13-.42,1-.04,0-.27-.5-.83.08.28.19.58.08.83-.08.1.01.12.26,1.5.25-.4.21-1.94.47-1,.83-1.81.83-1.97.54-2.08.58-1.59.54.14.57-.08.92-.18.28-.42-.18-.58-.08-1.01.64.36.48.92,1-1.59-.24-.56.76-1.5.58.57-1.86-1.02,0-1.58.08-.41.06-1.19-.98-.17.5.78-.55.71-.23-.25.5.03-.61-1.74-.77-.75,0,.05.04.74.14.75,0-.02.02.03.42-.25.5-.13.04-1.15-1.2-1.33,1.33-.36-.56-.41-1.48-1.33-1.17-.74.25,1.26.9.33,1.5-.1.06.07-.83-2.08,0-.28-.29-.78-.1-1-.5,1.53.25.87-.62.58-.67-1-.15-.52.2-.58.67,0,.03-.42.13-.33.42.34,1.09,1.25.11,1.33.08,1.86,1.91-1.5-.15-1.75.83-1.3-1.15-3.22,1.92-2.83-1-1.65,2.24-3.07-.07-3.83,1.17-.26-1.03-1.94.91-1.92-.08,0-.15,2.53-.84,2.75-1.08-.95.93,1.04.65.42-.42.47.16,1.61-.59,1.25-.75-3.68,1.53-.69-.21-1.83-.17-.23,0-4.85,2.65-2.42.92-1.32-.47.51-.46.75-.58.41-.21-.87-.91-2.33.83-.43-.27-3.15.48-2.25-.33,1.32-.51,1.67-.29,1.75-.33,2.57-1.24-.7-.3-.83-.33-1.88-.48.57-.31.67-.33,2.58-.51-3.32-1.36-3.25-.42,0,.12,1.56,1.04,1.67,1.42-2.19-1.14-1.29-1.92-5.08.33-5.57,3.31-6.5,7.75-2.42,12.92,3.74,5.82-2.92,13.34,2.92,8.92.45.23-2.48,2.68-1.33,2.67.16,0,.29-.51.33-.5.3.07-.13.63-.08.75.63,1.81,1.05-4.14,1.08.75.09-.14.23-.49.25-.5.11-.06.21-.13.33-.17-.41,1.49.33.49.33.08,0-.42-.1-.16-.33-.08.42-1.53,1.57-2.19.5.08l1.08,1.58c.08-.36.25-.35.42-.5-.06.31-.25.62-.17.92.31,1.12.47-.78.5-.83.31-.52,1.57-1.32,1.25-2.42-.75.63-.86,1.7-1.58,2.33.24-1.32,1.18-2.33,2.08-3.33.29.13-.66,2.31-.17,2.67,1.27-2.62-.29,1.36,0,1.5,1.37-1.54,3.51-4.96,1.42-.58l1.83-.67-2.75,2.58c2.44-.68,7.6-3.27,2.25-.42.16.03.39.25.42.25.23,0,1.59-1.17,4.17.67,1.68.35,5.54-.73,5.83-.67.14.03.37.48.58.67.22.2.21.79,1,1v.17c-14.44-.15-28.91.31-43.34,0,.55-.85,1.86-.62,2.75-1-1.94-1.45,1.53.86,1.83-1,1.33.65,1.69.03,1.17-.17-.08-.03-1.38.37-1.17-.67l2,1c.02-1.9-1.35-1.77.92-1.08l-.75-1.58,2.83,2.33-1.42-2.75c.37-.05.38.56.58-.08,2.4,3.92-.6-2.36,1,.5.12-1.01.52.03.67,0,.16-.04.04-.47.08-.5.1-.08.31.56.42-.5l1.33,1.83c.58-.28-2.23-5.38.5-1,.17-2.73.12.35.83,1.33l-.42-2.67c.1.08.43.34.5.33.07,0,.14.02.17,0,.76-.4-.43-2.36.92-.33-.26-2.4.66-.46.92.92h.33c7.31-11.23,1.67-10.58-1.67-18-1.23-2.73-.65-6.78-6.67-6.5.89.28,1.09.95,1.67,1.58-1.15,1.8-.8-.58-2.08.33.23-.64-1.94-1.69-.67-1.5.04,0,.42.4.58.5,0,.22.21.25.33.08.01-.48-.24-.02-.33-.08-.02-.47.57-.27.25-.83-.36.06-1.43-.18-1.58.25-.05.13,1.38,2.7-.08.42-1.01,1.99,2.08.78.5,2.33-.21-1.89-1.37,1.96-.58-.92-.53-.69-.48.34-.83.17-.34-.17.5-1.06.08-1.42-.07-.06-1.57,1.21-.08-.42-.69-.56-1.07.56-.92,1.25-2.13,1.36.39-1.24-.17-1.5-.7-.33-1.25,1.43-1.33,1.5-.06.05-.83-.66-.92.5-.45-.22-3.9.72-1.67-.42-.84-.83-.58,1.09-1.75-.42-.33.54-.41.21-1.17.5l.92-1.08h-1c2.91-1.2,2.61-1.88-.08-.58-.23-.96-1.21-.15-1.67-.33-.03-.01.06-.65.08-.67.1-.07.6.11.83-.08-.8-.28-.79.08-.83.08-1.77.06-2.21-.39-.25-.5,1.1-1.15-.33-.17-.42-.42-.15-.44,1.56-.83,1.75-1.08-1.08-.44-1.75.47-2.58,1,1.34-.42-.43-1.4-.83-.33-1.39-.75-.85-.1,2.17-1.42-2.13-1.63,2.18,1.14-.25-1.58-.64.8-1.32.78-1.75,1l-.08-.33-2.5.67c-.48-.97-.81-1.62.33-.33l2.08-.58-1.25.08c1.15-.82-1.05-.13-2-.33-2.24-.47,2.08-.25,2.08-.42-1.71-.55-1.57-1.83-2.75-1.42,1.23-.45-.33-1.19-.92-1.67-3.11-2.55.2.11.33-.92-1.28-1.05.35-.02.5-.33.37-.81-3.76-1.09-1.17-1.17l-1.33-1.17,2.67.17c-.7-.39-1.25-1.21-2.08-1.08-.19-.1.22-.28.08-.42-2.44-2.35-.18-.05,1.5-1-3.24-1.2.78-.24-1.42-1.42-.33-.18-1.46-.08.08-.25-.7-.54-1.92-.62-.83-.83-1.92-2.57,1.7,1.6.42-1.92-3.39-1.24,4.23,1.29.67-.5-.04-.02-.73-.08-.83,0-2.37-3.85-.07-.53,1.67.17.14-.26-2.19-2.88-1.83-3,.79.24,2.35,3.41,1.75.92-.14-.58-3.65-3.59.42-.42,2.96.11,2.97-.32.17-.33-2.4-2.05.52-.44-.08-1.25-.12-.17-.32.27-.5,0-.98-1.53-.5-2.3.25-.25.28-1.16.52-.4.92-.17.03.16.3,1.04.33,1.08.83,1.2,2.09.32-.33-1.08-.38-1.85.14.32,1-.08l-2-1.5c.08-.16,3.78,1.01.42-.75-.06-.03-.07.47-.33.33l-.42-1.08c3.22,1.64,2.49,1.69.67-1,1.18.22.73-1.07,0-2,4.15,3.43-.37-1.63,1.58-.25.16-.83.22-.29.42-.33,1.2.43.91,1.33,2.08,1.83.37-.63-1.42-1.09-.83-1.5,2.75,2.63.45-1.27-.83-.33-.29-1.02-.11-.07-.42,0l-.42-1.5.5.67c2.33,1.27-1.6-2.6,0-1.83,1.18,2.54.81-.23.08-1.08l.25-.08c3.21,2.56.99.63.92.42-.54-1.62.61-.09,1.67-.33-.64-.37-1.31-1.8-1.33-2-.15-1.08,1.55,2.46,1-.08,1.35,1.28,1.53.55.92,0-.14-.13-1.17-.48-.92,0-.23-1.1.51-.07,1.17-.25-2.8-3.44,1.14,1.48.08-1.42,1.17,1.35,4.58,3.13,2.25.42.27-1.58-.59-3.11-.5-3.33.09-.24.41.4.5.17.13-.33-.56-.99-.25-1.08.07-.02.87,1.32.58-.42-.02-.11-1.22-2.43.17-.5.1.14.21.92.75,1.42.26-.32-.39-.82-.42-.92-.22-.86.31-.38.33-.42l.92,1.83c.35-.12-.57-1.71-.92-1.83.13-.22-.29-.44-.08-.5,2.6,2.05-.5-2.04,1.5,0,.49.08-.42-1.04.75.08-.1-2.27.2-3.76.42-.25.23-.92-.25-1.93.92-1.08-.26-3.43.31,1.55.42-1.08l1.33,1.17c-.45-.64-.98-2.85-.17-1-.07-2.23.15.84.67-1.33.8,3.24.1.45,1.08.58-1.2-1.59,0-.41.08-.42.45-.06.13-2.11.92-.42-.81-2.63.2-1.7.42.25.27-4.42.12-1.2,1-1.33.66-.1.47-1.47.33-2l1,3.17-.25-2.42.83,1.17c-.68-3.34.85-1.66,1-.83.4,2.19-1.96-3.1-.08,1.25l.25-.25c-.19,1.57-.96,4.34-.83.83h-.33c.1,5.34,1.15.43,1.5,1.33l-1.08,2.42c-1-6.17-1.29-.23-.92.92.64,1.99.19-2.64.5-.83,1.63.54.49,1.9,2.08,3.08-.13-1.98-.1-3.92.42-5.83.22.06.13-.48.33-.25l-.17,3.17h.33c-.63,4.18.55-1.37,1.33-2.67-.67.18-1.66,4.16-1.33,1.33.08-.67,1.12-3.17,1.67-3.83.05-.29-.06-.7,0-.92.11.11.52-.76.25-.83-.05-.01-.37.71-.25.83,0-.04-.3-.18-.17-.75.99-1.19,1.32-3.88,1-.5,1-.04-.1.3-.33,1.33-.35,1.57-.29,4.12-.33,4.33-.03.16-.65,1.34-.67,1.42-.02-.09.05-.33-.08-.33-.89,1.06-.67,5.95-1.67,1.67-.36,1.33,1.38,3.69.42,3.58.18,1.82.47,2.05,1.17.5-1.06,3.19,3.07,10.66-.75,3.58-.81,2.26.83,2.47,1.25,3.08.37.53.38,1.58,1.42,2.25.75-3.08-1.39-3.81-1.75-6.75,3.07,5.55-.19,1.64,1.83-2l-.67-3.83c.35-1.4,3.69-6.79,3.67-7.83-.02-.89-1.23,2.07-1.33,2-.32-.15.46-4.57.83-3.83-.48,3.47.45.59.75-1.08-.22,3.19,1.08-.06.75,1.42-.22.98-1.9,5.19-2.17,7.67v-3c-1.11,6.46.28,3.09,1.58-.92-.03,10.09.44,1.76.42-2.75.46-1.02,1.31-4.16,1-1-.03.3-1.2,3.51-.75,3.58,1.01-3.47,1.43-6.08,1.33-2.67,1.28-.96-.29-4.61,1-1.17l.42-.75c-.79,4.57-.28,6.05,0,1l.92-1.08c.76,1.48-.59-2.89.5-.5,1.35-1.05-1.37,3.65-.83,5.17.29.02,1.8-7.06,1.92-4.58.02.53-1.18,3.56.25.42,1.36.85.25,1,.83,2.17l.75-2.42c0,3.44.42-.29.83.33-.05.53-.3,1.46.33,1.33-.04,3.32-.61,4.07-.17.5-.51-1-.54,5.57-.67,2.17h-.33l-.75,3.42c1.07-2.31,1.85-2.27,1.92-2.42.18-.39.12-3.76.83-4.33l1.83,1.92Z"/>
          <g>
            <g>
              <path class="cls-21" d="M60.03,89.13c.73-.64.83-1.71,1.58-2.33.32,1.1-.94,1.89-1.25,2.42-.03.06-.19,1.95-.5.83-.08-.3.11-.6.17-.92Z"/>
              <path class="cls-21" d="M62.95,89.13c.43-.21-.25,2.01-.83,1.67-.34-.2.76-1.45.83-1.67Z"/>
              <path class="cls-10" d="M61.45,88.63c.42,2.12-.85,2.72-.42.75,0-.04.31-.45.42-.75Z"/>
              <path class="cls-10" d="M58.45,88.3v1.5c-.7-.7-.22-.75,0-1.5Z"/>
              <path class="cls-6" d="M58.03,87.97c.24-.07.34-.33.33.08,0,.41-.75,1.41-.33-.08Z"/>
              <path class="cls-10" d="M58.78,88.97c.13,0,.13,1,0,1s-.13-1,0-1Z"/>
              <path class="cls-10" d="M60.78,89.63c.13,0,.13.67,0,.67s-.13-.67,0-.67Z"/>
              <path class="cls-13" d="M60.78,90.47c.13,0,.13.67,0,.67s-.13-.67,0-.67Z"/>
              <g>
                <path class="cls-10" d="M48.11,87.13c.32.53.58.54.58.58.05.54-.87-.12-.58-.58Z"/>
                <path class="cls-6" d="M45.61,89.63c.37,0,.31.44.17.5-.03.01-.29-.5-.17-.5Z"/>
                <path class="cls-13" d="M47.28,88.8c.13,0,.13.5,0,.5s-.13-.5,0-.5Z"/>
              </g>
              <path class="cls-10" d="M63.45,89.63l.08.08v.17l-.08.08h-.17l-.08-.08.08-.08.08-.08.08-.08Z"/>
            </g>
            <g>
              <path class="cls-21" d="M87.2,46.3l.5.5c-.41.19-1.11.47-1.17.5l.17-.67c.45-.46.48-.31.5-.33Z"/>
              <path class="cls-21" d="M46.28,57.96c.67-.13,1.32,1.42,1.5.17,5.78,5.59,3.01,6.36,2.33,13-2.96-3.52-3.29-8.55-4.08-12.92.1-.07.2-.24.25-.25Z"/>
              <path class="cls-21" d="M54.19,55.13c.18.09,2.55-.7,1.67,2.58,2.32-1.51-1.04,4.83-3.25,6.75-.62-5.9-3.65-4.29,1.5-8.33l1.25,1.42-.17-1.17c-.3,1.29-.7-.67-1-1.25Z"/>
              <path class="cls-21" d="M51.69,29.63c-1.16-4.96-.26-6.6-1.08-4-.69-.52-.44-1.5-.75-2.25h.33l.25,1.42c1.96-3.63.63-1.61,1.17,1.5,1.81-4.82-.83-.03,1.5,4.67l-.25-3.58c.9-.81.49-3.49,1-2l1-3.83c.29,2.57-.27,3.35-.83,5.67-.67-1.13-.86,1.43-.5,2.5.5,1.49.31-.8,1.5-1.5.01-6.64,1.46-10.84.67-1.67l.83-2c.23,1.03-.21,2.29-.83,3.17-.28,2.26.27,5.95-.75,1.08-.23,4.13-1.57,6.75-.5.67-2.47,4.58-1.72,6.57-1.75,1.08-.87-1.51-.95-.85-1-.92Z"/>
              <path class="cls-21" d="M66.86,59.13s.27-.09.5.25c-.99.22-.92,1.15-.5,1.58.29.29.53.69.83.25-.19-.12-.8-.22-.83-.25-.14-.13.18-1.32.25-1.33.16-.04,3.25,1.75.08.92.79.88,1.59.14,2.58.58-.7-1.62-.1-.76,1.42-1.33,1.58.77-2.37.55-1.25,1,.15.06.55-.06.67,0,.29.17,1.47,1.3,2,1.33.41,0-1.79-2.41.17-1.17.13.08-.02.68.67,1,.36-1.41,2.75-.24.42-.25,2.18,1.49-2.91.37-3.58-.42-.28.48-3.67.54-3.92.08-.1-.19.14-1.08-.08-1.25-.07-.05-.02.42-.33.33-1.7-.45.53.38-1,.67-.19.04-2.85-.61-3.58-.75l1.92-2.08c.12,2.21.41.99.5,1,.24.03.45,1,.17-.67l.83,1c-.11-.73,1.28-.3.67-.67-.08-.05-1.51-.18-1.67-.83,1.78.11,2.33,1.87,3.08,1Z"/>
              <path class="cls-21" d="M61.45,54.3c.23.17-.1,2.54-.33,2.5-.98-2.21.16,1.26.08,1.58-.1.42-3.38,3.07-4.08,3.42.47-3.92,1.45-5.05,4.33-7.5Z"/>
              <path class="cls-10" d="M40.69,33.29c.16.62.94,4.16.83,4.42-.04.1-1.11.29-1.25,1.25-.67-1.56,0,.25-.42,1.5-.19-.05-.25-2.25-.42.83.05-.79.35-.62.42-.83.32.08,1.97-2.74-.33,2.08.07,1.39.76,3.4.83,4.58,0,.03-.35,0-.08.5l.08-.5c1.01,1.56,2.73,3.61,1.42,2.83-.9-.53-1.55-3-1.5-1.67-.34-.06-2.11-3.23-1.58-3.75,1.95,4.81,1.01-.86.83-1.17h-.33c.44,4.26-1.27-3.47.75-5.75.03-.03.06.53.42.25,1.29-1.04-.63-3.23-.67-3.5-.16-1.17,1.16,1.88,1,.5-.03-.29-2.19-5.2,0-1.58Z"/>
              <path class="cls-21" d="M58.11,23.96c1.76-.9-.69,8.13-.75,8.58-.3,2.24-.17,1.66.67.5-.1.36-.47,1.06-.5,1.33-.29,2.34,1.69-3.07,1.5-6,1.36,3.14-1.09,5.94-1.58,9.08-1.37-4.32,0-6.22.08-6.92.16-1.36-.15-6.38.25-2.42,1.07-1.82-.27-1.3.17-2.67.35,1.8.56.66.42-.58,0-.06-.95-.56-.25-.92Z"/>
              <path class="cls-21" d="M64.2,40.46c2.15-2.59.94-1.01.83-.42,0,.03.29.17.17.67-1.13,4.59-5.07,8.38-.58.08l-3.5,5c-.47-.2,1.5-2.56,1.17-2.67-1.92,1.35-1.13,3.31-2.5,5-.54-3.23-.19-.08.42-1.25.31-.59.36-2.11.33-2.83,1.49-2.86,2.87-7.21,1.08-.75,1.2-2.32,1.86-.64,2.58-2.83Z"/>
              <path class="cls-21" d="M58.61,50.63l-.17.5,1.58-.42c-.97.63-1.51.54-1.58.58-1.52.97,2.38-.49,2.25,1.25-.03.34-2.37,2.96-2.92,3.42-.85-1.75-1.28-3.92,1.17-2.83,1.35-1.47-4.76.53-.33-2.5Z"/>
              <path class="cls-10" d="M35.69,36.63c.11-.13.35-.41.33-.58-.7-.91-.61-2.07-.67-2.17-.13-.22-2.57-1.2-1.25-1.75,2.83,1.64-.6-.28-1.58-4.83,1.35-4.24-.98,1.82,3,4.42,1.16,4.64.87,2.44.25,2.25-.19-.06-.3.06-.25.25,1.52,3.5,1.82,7.12,2.75,10.42l-.75-1.25-1-5.67-.83-1.08Z"/>
              <path class="cls-10" d="M45.69,38.8c-.03-.07.36-.72-.5-1.17-.32-.87-.7-2.06-.5-2.92-1.13-.37-2.15-6.11-1.83-6.25.51,1.62,2.3,3.71,3.5,3.75-.18.41-.22.59,0,1,.5.94,3.25,3.82-.08.42-.29,4.04.52-1.07-2.58-2.75-.13,2.26,1.05,2.97,1.17,3.33.56,1.67.85,4.7,2.33,6,.29,3.39-.07.78-.83-.67-.14-.27-.65-.7-.67-.75Z"/>
              <path class="cls-21" d="M73.61,41.46l-1.83,4.67c1.32-1.91,3.73-5.71,3.08-3.75-.31.95-2.89,3.61-3.33,4.33-1.44,2.35-.84,2.35,1.25-1.08.55.29-3.89,7.98-1.58,3.08l-.75.58-.17-.33c-1.91,3.52,1.55-5.52,3.33-7.5Z"/>
              <path class="cls-10" d="M38.86,35.13c-.6-1.65-1.38-3.24-2.42-4.67.43,5.07,3.9,6.02,2.75,7.42-1.8-3.03-3.67-4.25-3.08-8.25.79,1.54.34-1.17,1.58,1.25.18.34-.18.64-.17.67.65,1.12,2.14,1.52,1.33,3.58Z"/>
              <path class="cls-10" d="M62.86,16.29s-.36.03-.08.5c.17-.12.04-.43.08-.5.24-.35.18-.62.33-.42-.11,1.57.08,4.38-.67,4.33.64-6.47-1.04-.25-1.17,2.5.6-.67,1.14-4.56.83-1.5,1.55-.76-.88,1.77-.92,2.58-.59-.08-.14-8.5.58-6.42.06.17-.79,1.45-.42,1.58,1-1.03,1.74-6.98,1.42-2.67Z"/>
              <path class="cls-10" d="M40.53,25.63c-.2-.2-.34-.5-.58-.67-.22.35.29.69.58.67.54.55.96,1.2,1.67,1.58l-.25.25c-4.14-2.23-2.22-5.26-2.67-5.33-.12.41-.41,1.3-.42,1.58-.05,1.53,1.4,6.39-.33.33,1.33-4.75.36-2.64,1.5-.67.36.62,3.08,3.19-.17.5-.31-1.73-.56-.52,0,.5.24.43,1.61,1.18.67,1.25Z"/>
              <path class="cls-21" d="M40.69,33.29c-.27-1.05-1.14-2.92.5-.58,1.18,1.68.29,1.74.33,1.83.11.25,5.06,4.09.75,1.08-.43,1.86,1.17,3.78,2,5.5-3.06-2.19-1.93-5.11-3.58-7.83Z"/>
              <path class="cls-21" d="M65.45,30.63c.56.7.15,2.2-.08,3.08l.33.33-1.33,1.67c-.79,5.53-1.64-.99-1.17-2.17,1.23-3.04.34,1.48.33,1.67-.11,2.78.24.78.67-.17.68-1.51,1.07-1.36,1.25-4.42Z"/>
              <path class="cls-21" d="M68.78,37.96c.14.64-1.09,4.08-1.25,4.25-.86.95.02-1.03-.67-.33-.61.62-.61,1.75-.67,1.83-.36.56-3.23,3.08-.58,1.42.75-.1-1.34,2.12-1.58.58-.07-.42,2.75-4.75,3.67-4.83l1.08-2.92Z"/>
              <path class="cls-10" d="M27.61,38.13c.56.59,2.42,3.11.92,2.42-.05.41,4.81,5.12.42,1.25,4.62,5.08-.41.89-.58.58-.11-.19-1.15-4.21-.75-4.25Z"/>
              <path class="cls-10" d="M28.28,32.96c1.4,1.04,2.39,1.4,2.67,3.33-3.52-3.25.3.79.83,3.83-.58-.37-3.88-7.05-3.5-7.17Z"/>
              <path class="cls-21" d="M64.2,40.46l-.33-.08c-.15-2.32,1.28-2.66,2.33-4.67,1.01-1.92.61-3.19,2.42-4.58-1.04,1.67-2.17,5.66-2.92,6.75-.76,1.11-1.14.15-1.33.83,0,.55,0,1.23-.17,1.75Z"/>
              <path class="cls-10" d="M32.11,27.79c-.21,1.15.15,4.38.25,1.25-.08,1.77,1.1,3.21,1.17,3.5.02.09-.43-.04-.33.5.87,4.83-.22.42-.83-1.33-.24-.67-1.99-1.46-.25-3.92Z"/>
              <path class="cls-10" d="M81.53,45.63l-.75,2c1.32-.53,3.57-1.8,2.83-1-.96,1.04-3.37,1.26-4.5,2.17l1.67-2.33-2.75,2.25,3.08-3.58c-.53,1.1-.86,1.76.42.5Z"/>
              <path class="cls-10" d="M35.78,49.13l2.83,3.33c-4.06-.31-6.99-3.68-4.17-2.17.71.38,2.07,1.99,1.83.83,4.17,2.53-1.72-1.47-.5-2Z"/>
              <path class="cls-21" d="M62.03,62.8c-.11-.37-1.66-1.3-1.67-1.42-.07-.94,5.83-.09,3.25.42-.1.02-2.55-.14-.67.33.13.03,3.4-.91.83.33-.08.04-.43-.18-1.75.33Z"/>
              <path class="cls-10" d="M41.78,58.3c.3-.05.57.05.83.17.68.29,3.42,2.96.58.08,1.74-.03,1.94,1.37,2,2.83-1.19-.45-2.5-1.51-3.42-3.08Z"/>
              <path class="cls-10" d="M28.69,38.13s.08-.29-.42-.67c-.24.23.21.61.42.67.12.25.31.7.25,1-.9.29-2.06-4.78-1.67-1.67-1.3-1.65-1.29-.9-1.5-1-1.48-.75-2.32-4.22.17-.33.74-1.37,4.24,2.42,2.75,2Z"/>
              <path class="cls-10" d="M75.36,51.8c-.69.35-2.54.75-1.33.92-.82.37-1.66.75-2.33,1.33,0,.13.24.06.33.08-.14.06-3.08,1.56-1.58.17.33-.31,6.48-4.33,7.58-4.75-.61.81-2.23,1.54-2.67,2.25Z"/>
              <path class="cls-10" d="M42.19,31.13c.35,1.48.97,2.99-.25.83-.25-.04-.24.04-.25.25-.04.53,2.58,3.87-.83-.33-2.05-4.71-1.24-3.63.92-.25.18-.31-.07-.53.42-.5Z"/>
              <path class="cls-21" d="M51.69,57.46c.33-.25-.82-1.13-.33-.08.05.12.3.11.33.08-.73.59-.65,1.38-1.17,1.08.65-3.21,1.97-2.38,2.33-3.25,2.43.15.24,1.04-1.17,2.17Z"/>
              <path class="cls-10" d="M42.86,28.46l-1.25-4c.13-.05,1.89,1.94,1.92,2.08.2.94-1.63-1.33-.5,1,.58,1.21,3.73,3.71-.17.92Z"/>
              <path class="cls-10" d="M29.44,37.8c-.03.88,3.54,5.3,3.17,5.5-1.55-1.48-3.55-3.09-3.17-5.5Z"/>
              <path class="cls-21" d="M63.78,52.46c.47-.08-.1.4.17.5.03.01.47-.35.5-.33.57.33-2.62,4.2-2.83,4.83.23-.76,1.68-4.92,2.17-5Z"/>
              <path class="cls-10" d="M70.28,49.46c-.31,2.11-2.65,4.21-4.33,5.5,1.38-1.68,2.94-4.58,2.67-3.33l1.67-2.17Z"/>
              <path class="cls-10" d="M32.19,62.3s.06-.28-.08-.33c-.97-.32.07.29.08.33.32.91-2.05-.48-2-.58.16-.32,1.06.25,1.25.08.88-.75-1.71-1.86-1.33-2.83,1.23.54.81,1.99,1.17.83,1.29,1,.39,1.17.42,1.25.03.08,1.3.68,1.33,1.17.05.44-.58.18-.83.08Z"/>
              <path class="cls-10" d="M49.03,39.13c-.75-.42-.57-.49-.17,1.08-1.14-.52-1.19-3.42-1.33-3.83-.25-.26-1.42-1.67-.92-1.92,1.39,1.56,1.49,2.93,2.42,4.67Z"/>
              <path class="cls-10" d="M49.44,22.46c-.17.91,1.17,7.12-.17,6.5-.3-.14.07-5.68.17-6.5Z"/>
              <path class="cls-10" d="M32.69,50.13c.2.15.58.55.83.75-.1.34-5.17-2.45-5.33-4.33,1.36,1.42,2.97,2.44,4.5,3.58Z"/>
              <path class="cls-6" d="M27.36,41.63c-.15-.15-.31-.67-.67-.42.22.2.31.45.67.42,2.19,2.25.44,1.45-2.25-1.5l-.25.08c2.12,1.85-.75.66-.5,0,.13-.35,1.18-.75,1.75.58.25-.72,2.17.75,1.25.83Z"/>
              <path class="cls-10" d="M81.78,41.46l-2.25,4.42c.21.53,1.51-2.72,2.17-2-4.62,6.53-1.89.07.08-2.42Z"/>
              <path class="cls-10" d="M51.44,18.96l-.08,1.92.33-.17c-.65,4.92-1.77,2.22-1.17.33.33-1.03.31,1.82.67.83.13-.38-.59-1.75.25-2.92Z"/>
              <path class="cls-10" d="M27.69,48.46c1.31,1.16,2.42,2.4,4,3.25-2.04-.1-4.42-2.64-4.33-3.17.02-.14.33-.07.33-.08Z"/>
              <path class="cls-6" d="M76.45,40.8c.6.02-.08.82-.08,1.42-4.88,10.83-2.47,5.06.08-1.42Z"/>
              <path class="cls-10" d="M43.78,25.13c.6,2.23,2.21,3.05,1.5,4.67-.35-.45-2.27-4.67-1.5-4.67Z"/>
              <path class="cls-10" d="M27.61,43.96c.83.91,2.52,1.87,1.67,1.83l-.83-.67c3.08,3.88-.55,1.29-1.08-.92l.25-.25Z"/>
              <path class="cls-10" d="M24.78,46.63c.66.62,2.07,1.43,2.42,1.92,1.71,2.4-2.31-.19-2.42-1.92Z"/>
              <path class="cls-10" d="M57.78,13.46l-.42,3.42c.58-.39.93-.89,1.08-1.58.19,2.82-.4,1.6-.5,1.67-.39.26-.9.99-1.33,1.33l1.17-4.83Z"/>
              <path class="cls-10" d="M32.86,34.96l-.33.08c.24.7,2.05,3.14,1,.75.32.49.55.99.83,1.5,0,.59.4.85-.08.83-.4-.7-1.44-1.4-1.75-2.08-.37-.82-1.05-2.95.33-1.08Z"/>
              <path class="cls-10" d="M39.53,62.13c.36.35.65.66,1.17.75-2.64.8-4.33-.52-3.42-.58,1.87,1.08-.08-.74,1.33.17.14-.83.35-.41.92-.33Z"/>
              <path class="cls-17" d="M71.36,55.8c.28.23.31.66.33-.17.66-.08.51.36.58.33.09-.03.02-.3.42-.5-.02.13.04.18.17.17-.88.9,1.55.72.08.83-.19.02.19.64-.67-.17-.32.51-.69.26-1.08.33.1-.4-.52-.51-.83-.33.07-.11-.34-1.02,1.83-1.08-1.53.67-1.15.32-.83.58Z"/>
              <path class="cls-10" d="M70.53,58.8c-.26.12-.34-.23-.5-.08-.23.21.68.45.25.92-1.44.02-1.25-.19-1.33-.17-.07.02-.01,1.74-.58.25-.4-1.04,1.65-1.87,2.17-.92Z"/>
              <path class="cls-10" d="M30.11,30.46c.14,1.05,1.35,2.91,1.42,3.08,1.39,3.8-1.27.84-1.42-3.08Z"/>
              <path class="cls-10" d="M45.19,39.13c.32.89,1.04,1.82,1,1.92-.13.35-.61-.39-.67-.17-.04.16.87,1.8-.08,2.75-.66-.42.27-1.35.25-1.75,0-.15-.93-1.05-.83-2.83l.33.08Z"/>
              <path class="cls-10" d="M86.61,43.96c.12-.03.35-.04.42.08-1.07,1.44-2.52,1.69-4.17,2.17.35-.36,3.53-2.2,3.75-2.25Z"/>
              <path class="cls-10" d="M35.69,36.63c.15.52.59,1.03.67,1.58.39,2.94-1.49-1.27-1.92-3.42.51.65.66,1.37.83,2.17.3-.82.33-.22.42-.33Z"/>
              <path class="cls-6" d="M86.7,46.63l-.17.67c-.3.18-.8.66-1.5.92,1.26.54-2.1.57-2.5.92.24-1.09,1.85-.48,2.58-1.67.59.77,1.12-.35,1.58-.83Z"/>
              <path class="cls-10" d="M54.11,13.79c.18.04-.65,3.08-1.08,3.25-.07.6.03,2.06,0,2.17-.62,2.38-.78-2.64,1.08-5.42Z"/>
              <path class="cls-10" d="M40.28,20.46l1.67,3.83c-.72.33-1.85-3.15-1.67-3.83Z"/>
              <path class="cls-18" d="M36.11,19.79c.71-.56,1.31,1.91.08.42,1.22,3.34.19,4.59.5,2.5-.73.88-.96-2.62-.58-2.92Z"/>
              <path class="cls-6" d="M86.53,52.13c-.14.11.48.93-3,1.25-.05-.14,1.72-1.81,2.33-1.5-1.71,1.55-.88.83.67.25Z"/>
              <path class="cls-10" d="M36.53,41.8c-.7-1.56-1.32-3-2.17-4.5,0-.39-.26-.43-.08-.5.27-.11,2.22,3.61,2.42,4.08.37.88.57,1.43-.17.92Z"/>
              <path class="cls-10" d="M46.61,35.8c.11,1.1,1.72,4.18,1.75,4.42.21,1.7-1.58-1.02-1.75-4.42Z"/>
              <path class="cls-10" d="M47.61,47.46c.45,1.44.58,4.07,0,5v-5Z"/>
              <path class="cls-10" d="M81.2,35.13c1.23-1.96,3.45-3.61.75-.33,1.92-2.17.74.72-1.42,1.25.74-.6.64-.87.67-.92Z"/>
              <path class="cls-6" d="M25.28,41.46c.46-.22,3.36,2.33,3.58,2.92-.34-.3-4.14-2.65-3.58-2.92Z"/>
              <path class="cls-10" d="M48.94,32.13l1.17,4.67c-.94.46-1.43-4.13-1.17-4.67Z"/>
              <path class="cls-10" d="M43.94,47.3c.47.11.65,1.39,1,.5,1.8,6.01-.75,2.08-.17,1.67.05-.04.9.9.25-.58-.27-.61-1.06-.75-1.08-1.58Z"/>
              <path class="cls-10" d="M55.61,15.46l-.25,2.42.42-1.25c.74,2.95-1.92,3.2-.17-1.17Z"/>
              <path class="cls-10" d="M33.19,41.8c.06.19,1.14,2.3,1.5,3.58-.37-.31-2.21-2.74-1.67-2.92.03.07-.02.54.58.67l-.58-.67c-.17-.4-.35-.55-.33-.58.08-.15.35-.06.5-.08Z"/>
              <path class="cls-10" d="M27.53,32.79c-1.03-1.01-1.41.03-2.5-1.92,2.75.14.85.42,1.25.92,2.99.95,1.49.55,1.33.67-.14.11-.07.21-.08.33Z"/>
              <path class="cls-10" d="M33.11,37.46c.95.82,1.77,1.72,1,3l-1-3Z"/>
              <path class="cls-10" d="M45.44,34.79l.75,1.25c1.15,5.24-.15,2.69-.75-1.25Z"/>
              <path class="cls-6" d="M24.03,33.13c.3-.07.13-1.02.42,0,1.28-.94,3.58,2.96.83.33-.59.41,1.21.87.83,1.5-1.17-.5-.88-1.41-2.08-1.83Z"/>
              <path class="cls-10" d="M48.78,21.13l.17,5.17c-.17-1.67-1.31-3.96-.17-5.17Z"/>
              <path class="cls-10" d="M41.19,21.46c-.71-.93-.85-2.24-1.08-2.33-.38-.14-.38,2.6-.75.75-.11-.57.29-1.18.08-2.08,1.23,1.45,1.23,2.32,1.75,3.67Z"/>
              <path class="cls-10" d="M30.94,34.96c.85,1.3,2.33,2.81,2.17,4.33l-2.17-4.33Z"/>
              <path class="cls-10" d="M32.94,21.29c.08,2.18,1.27,2.9,1,4.33-.48.37-1.37-3.84-1-4.33Z"/>
              <path class="cls-18" d="M24.28,49.3c1.34.02,2.29.72,3.08,1.75-.08.16-3.11-1.35-3.08-1.75Z"/>
              <path class="cls-10" d="M32.94,62.96c2.12-.43.11,1.23-1.58,1.42-.2-.39,1.48-1.4,1.58-1.42Z"/>
              <path class="cls-21" d="M54.61,14.46c.33.06-.67,4.34-1.17,4.33-.43-.51.83-2.55,1.17-4.33Z"/>
              <path class="cls-10" d="M25.69,37.46c.07.11.08.82.58.83.11-.26-.57-.79-.58-.83-.02-.06-.14-.47-.08-.5.86-.47,1.66,3.2-.25,1.08-.66-.73-.52-1.76.08-1.42.08.05-.22.07.25.83Z"/>
              <path class="cls-10" d="M30.94,31.13c.9.16,1.65,2.62,1.5,2.67-.43-.59-1.32-1.1-1.42-1.25-.98-1.51,1.24.9-.08-1.42Z"/>
              <path class="cls-10" d="M50.61,40.63c.53-.29,1.41,2.43,1.42,2.58.04,1.43-1.79-2.38-1.42-2.58Z"/>
              <path class="cls-10" d="M37.53,60.8c.57,1.74-.77,1.94-.5-.25l-.33.17c-1.57-2.83.51-.89.83.08Z"/>
              <path class="cls-10" d="M85.36,46.8c-3.76,2.84-1.99-.05,0-.92-1.08.99-2.46,2.36,0,.92Z"/>
              <path class="cls-6" d="M26.61,54.63c.23-.08,4.48,1.45-.5,1,.05-.17.45-.98.5-1Z"/>
              <path class="cls-10" d="M29.28,49.13l3.58,2.25-1.92-.58.25-.25c-.78-.34-1.63-.51-1.92-1.42Z"/>
              <path class="cls-10" d="M75.95,39.3c.14,1.28-.1,2.47-.83,3.5-.02-1.23.21-2.42.83-3.5Z"/>
              <path class="cls-6" d="M82.11,37.8c0,1.69-.87,1.99-1.5,3-.31-.03,1.02-2.89,1.5-3Z"/>
              <path class="cls-10" d="M27.28,56.8c.83.1,2.19-.23,2,1-2.12-2.1,1.79,2.64-2-1Z"/>
              <path class="cls-21" d="M40.11,26.96c.16.26.53.65.58.75,1.85,3.67-.02,3.37-.58-.75Z"/>
              <path class="cls-10" d="M61.61,39.63c.28-.04.22.06.25.25.1.76-3.63,8.09-.25-.25Z"/>
              <path class="cls-10" d="M32.53,27.29c-.81-.2-.95-.53-1.17-1.25.57-2.17.04,2.58.75-.92.37,0,.2,1.17.42,2.17Z"/>
              <path class="cls-10" d="M42.53,54.96h-.17c-3.71-.39-4.56-2.64.17,0Z"/>
              <path class="cls-10" d="M26.94,34.13c.5,1.78,1.95,1.88,2.17,2.83-1.06-.95-2.78-1.01-2.17-2.83Z"/>
              <path class="cls-10" d="M34.19,60.96c.08.6.25,1.18-.58,1-.26-.06-1.39-.75-1.25-1.25,2.02,1.36,1.23-.19,1.42-.25.13-.05.23.5.42.5Z"/>
              <path class="cls-10" d="M83.28,38.63c.36,1.75.22,1.57-.83,3l.83-3Z"/>
              <path class="cls-10" d="M31.44,42.63c4.75,3.64.68,1.65,0,.67-.18-.26-.48-.27,0-.67Z"/>
              <path class="cls-21" d="M35.44,63.8l.25.25c-1.45,2.1-3.82,1.29-.25-.25Z"/>
              <path class="cls-10" d="M29.94,46.46c.42.53,1.74,1.58,1.92,1.92.72,1.34-2.15-.75-1.92-1.92Z"/>
              <path class="cls-10" d="M31.28,55.46l3.08,1.75c-.96-.05-2.83-.84-3.08-1.75Z"/>
              <path class="cls-10" d="M37.36,49.96c.36-.85-.48-.52-.42-1,2.51,1.3.78.8.75.92-.03.11,1.95,1.73.92,1.75-.11,0-1.03-1.42-1.25-1.67Z"/>
              <path class="cls-10" d="M34.28,43.3l2.42,2.42c0,.74-2.46-.95-2.42-2.42Z"/>
              <path class="cls-6" d="M30.36,54.8c0,.18.27.22.08.33-1.12.69-5.58-1.08-.08-.33Z"/>
              <path class="cls-10" d="M42.19,31.13c-.16-.67-.64-1.71-.42-1.83.53.27.73.53.92,1.08,1.09,3.18-.36.76-.5.75Z"/>
              <path class="cls-10" d="M23.78,43.8l2.42,2.08c-1.25.05-2.04-1.02-2.42-2.08Z"/>
              <path class="cls-18" d="M20.94,46.63c3.68,1.29,2.21,2.47.17.5-.17-.17-.39-.3-.17-.5Z"/>
              <path class="cls-10" d="M81.78,36.96l.25.08c-2.83,4.54-3.44,3.73-.25-.08Z"/>
              <path class="cls-10" d="M84.36,44.13c.79-.97,1.65-1.85,2.42-2.83-.19,1.92-2.31,2.67-2.42,2.83Z"/>
              <path class="cls-21" d="M41.61,43.13c.9,2.2.88,5.44.25,3.08-.15-.56-.21-2.28-.25-3.08Z"/>
              <path class="cls-10" d="M63.86,14.29l.33.08c-.12.4-.02,3.85-.75,3.75l.42-3.83Z"/>
              <path class="cls-10" d="M38.86,35.13c.1.28.54.44.25.83-2.23-2.62-3.14-5.94-.25-.83Z"/>
              <path class="cls-10" d="M37.11,35.96c.79,1.45.92,2.87.67,4.5l-.67-4.5Z"/>
              <path class="cls-10" d="M83.36,41.63c-.5.22-.61.74-.83,1.17-.83-.36,1.9-2.96,1.83-3.67.57-.08-.87,2.29-1,2.5Z"/>
              <path class="cls-21" d="M45.19,37.63c.23.63.28.67.5,1.17.16.39.89,1.72.58,1.83l-1.08-1.5c-.19-.53-.4-1.02-.5-1.58.17-.2.32,0,.5.08Z"/>
              <path class="cls-10" d="M40.94,51.3c.3.29,2.42,1.92,2.42,2.08-.02.92-2.13-1.16-2.42-2.08Z"/>
              <path class="cls-10" d="M39.44,51.46c3.21,2.47,2.05,2.88-.25.25l.25-.25Z"/>
              <path class="cls-6" d="M23.28,42.13c.07-.05,1.49.5,1.58.75.4,1.06-2.48-1.59-.08.92-.94-.6-2.15-1.23-1.5-1.67Z"/>
              <path class="cls-21" d="M70.11,34.46c-.1.49-.21,2.3-.25,2.42-.3.8-1.39-.09.25-2.42Z"/>
              <path class="cls-10" d="M33.19,52.46c-2.33-1.57.59-.42,2,.08-.98.42-1.27.06-2-.08Z"/>
              <path class="cls-10" d="M22.61,44.96c.43.21,1.34,1.08,1.58,1.42,1.8,2.57-.38.79-1.58-1.42Z"/>
              <path class="cls-10" d="M31.94,47.8l2.08,1.92c-.15.45-2.28-1.22-2.08-1.92Z"/>
              <path class="cls-10" d="M75.86,58.13c1.2,1.11-.34,2.79-.83.75,1.12.79.88.18.17-.5.09-.27.76.44.67-.25Z"/>
              <path class="cls-6" d="M34.69,48.3l-.5-.42c.07.16.48.39.5.42,1.99,3.21-1.7-1.01-.75-1.33.2-.07,1.53,1.48.75,1.33Z"/>
              <path class="cls-6" d="M23.69,47.63c-.54-.48-1.39-.64-1.25-2,.14.39,1.96,1.95,1.92,2.08-.08.26-.39-.14-.67-.08Z"/>
              <path class="cls-10" d="M73.78,45.3c-.33.58-1.31,3.42-1.42,3.58-.9,1.38-.15-1.6,1.42-3.58Z"/>
              <path class="cls-10" d="M31.44,43.63l1.75,1.58c-.02.96-2.4-1.11-1.75-1.58Z"/>
              <path class="cls-10" d="M76.45,49.13c.11-.03.35-.03.42.08-5.24,4.01-1.74.25-.42-.08Z"/>
              <path class="cls-13" d="M23.44,51.63c.44-.31,2.81.65,2.58,1.08l-2.58-1.08Z"/>
              <path class="cls-6" d="M37.11,18.29c.64,2.17,3.23,4.22.75,2.42-.23-.84-.88-1.57-.75-2.42Z"/>
              <path class="cls-10" d="M34.61,39.8l1,2.67c-.39.21-1.47-1.84-1-2.67Z"/>
              <path class="cls-10" d="M68.7,57.3c-.31.58-.41,1.7-.92,1.67-1.06-.07.4-1.51.58-1.83,0,.03.25-.12.33.17Z"/>
              <path class="cls-6" d="M66.7,20.96s-.27.06-.33-.08c.78-1.37,1.18-3.03,1.08-1.25,1.28-2.07.64-.34-.75,1.33Z"/>
              <path class="cls-10" d="M48.94,48.3c.26.44.49,1.09.58,1.58.73,3.71-.86.02-.58-1.58Z"/>
              <path class="cls-13" d="M41.86,21.63c-.02-.09-.76-.91-.83-1.58-.23-2.05.84-3.7.33.33.28.35.41.82.5,1.25Z"/>
              <path class="cls-6" d="M46.28,44.13c.22,0,.03,3.98-.08,4.25-.25.56-.2-4.25.08-4.25Z"/>
              <path class="cls-10" d="M38.28,22.96c.23.14-.36,1.84.33,3.5-.65-.9-1.16-2.71-.33-3.5Z"/>
              <path class="cls-21" d="M34.86,62.63c0,.17.24.29.33.42-1.96.32-3.19-1.68-.33-.42Z"/>
              <path class="cls-10" d="M41.86,21.63c.03.14.55.81.42,2.67-.33-.96-.72-1.89-1.08-2.83.03.04.51.17.58.83.12-.03.11-.54.08-.67Z"/>
              <path class="cls-18" d="M22.28,50.13c1.22-.24,3.51,2.06.83.83-.35-.16-.97-.66-.83-.83Z"/>
              <path class="cls-6" d="M84.78,48.8c.09,0,.21-.04.25.08-4.33,2.68-1.97-.17-.25-.08Z"/>
              <path class="cls-10" d="M22.69,39.8c2.42,1.41,1.17,2.28.33,1.08-.03-.05-.3-.93-.33-1.08Z"/>
              <path class="cls-18" d="M83.2,51.3c.56-.71,1.07-1.73,2.17-1.75.17.59-.94.71-2.17,1.75Z"/>
              <path class="cls-21" d="M62.28,46.46c-.48,3.84-1.59,3.4-.58.75.09-.23.54-.77.58-.75Z"/>
              <path class="cls-10" d="M43.11,22.29c.2.6.97,1.69,1.08,2.08.75,2.56-1.66-1.8-1.08-2.08Z"/>
              <path class="cls-10" d="M80.28,55.8c.08-.03.58.22.58.25,0,.17-1.52.27,1.17.67-2.33.81-2.31-.7-1.75-.92Z"/>
              <path class="cls-10" d="M29.11,61.46c.59-.18,1.5.83.67,1-1.26.26-1.37-.79-.67-1Z"/>
              <path class="cls-6" d="M23.69,47.63c.74.65,1.87,1.14,1.83,1.25-1.13.31-2.71-1.09-1.83-1.25Z"/>
              <path class="cls-6" d="M76.11,53.8c1.66-.22-2.25,1.2.58.75-1.09,1.4-2.29-.53-.58-.75Z"/>
              <path class="cls-10" d="M36.53,41.8c.29.64.87,1.34.83,1.42-.43.95-1.75-2.57-1.83-2.75.34.49.49.98,1,1.33Z"/>
              <path class="cls-10" d="M22.36,52.3c.19.31,1.02.51,1,.58-2.11-.11-3.46-1.41-1.92-1.08.09.02.43.37.92.5Z"/>
              <path class="cls-21" d="M67.28,49.96l-.83,2.5c-.36-1.14.17-1.67.83-2.5Z"/>
              <path class="cls-10" d="M54.11,20.79c.1.63.16,1.46.08,2.08-.42,3.65-.67-.6-.08-2.08Z"/>
              <path class="cls-18" d="M23.78,49.8l2.58,1.58c-.09.26-2.44-.84-2.58-1.58Z"/>
              <path class="cls-10" d="M29.78,57.46l1.17,1c.19-1.51,2.05,3.16-1.17-1Z"/>
              <path class="cls-10" d="M71.45,57.8l2.25.75c-.52.22-2.49-.03-2.25-.75Z"/>
              <path class="cls-10" d="M58.45,12.96c.05.35-.01,1.29-.08,1.58-.55,2.26-1.27,1.72.08-1.58Z"/>
              <path class="cls-10" d="M21.78,54.63l2.25.92c-1.06,0-2.46-.37-2.25-.92Z"/>
              <path class="cls-6" d="M25.44,53.8c.89,0,1.66-.12,2.42.42l-2.42-.08v-.33Z"/>
              <path class="cls-10" d="M25.78,56.8l2.08,1.08c-.2.41-1.92-.45-2.08-1.08Z"/>
              <path class="cls-10" d="M28.19,53.46c.4.1,1.29.05.75.5,2.77.96-2.72,0-.75-.5Z"/>
              <path class="cls-6" d="M23.61,36.46c.7.55,1.29,1.33,1.17,2.33-.36-.69-1.48-2.17-1.17-2.33Z"/>
              <path class="cls-10" d="M39.53,62.13c-1.62-1.58.39-.29,1.83.42-.1.29-1.55-.38-1.83-.42Z"/>
              <path class="cls-10" d="M84.28,54.3c1.87.16-1.27.3.58,1.25-1.2,1.41-1.1-1.08-.58-1.25Z"/>
              <path class="cls-10" d="M32.11,57.63c.26.48,1.37,1.53,1.42,1.75.3,1.33-1.04-.21-1.42-1.75Z"/>
              <path class="cls-6" d="M25.28,38.46l1.83,2c-.69-.66-1.99-.86-1.83-2Z"/>
              <path class="cls-6" d="M82.78,35.3c1.2-.31-2.78,3.13-1.42,1.25.1-.14,1.33-1.23,1.42-1.25Z"/>
              <path class="cls-10" d="M77.28,59.46c.58,1.74.3,1.74-1.25.92.92-.43,1.17.44,1.25-.92Z"/>
              <path class="cls-10" d="M71.2,59.8s-.02-.44.25-.5c.7-.16,3.08,1.86-.25.5Z"/>
              <path class="cls-10" d="M30.94,22.29l.67,2c-.33.19-1.04-1.31-.67-2Z"/>
              <path class="cls-21" d="M41.28,63.8c.05-.01.73.7.75.75.82,1.81-1.86-.44-.75-.75Z"/>
              <path class="cls-21" d="M49.78,54.63c.52,1.75.08,3.12-.08,2.42-.09-.41-.23-2.15,0-2.33l.08-.08Z"/>
              <path class="cls-10" d="M38.78,58.8c.2.07,1.64,1.17,1.58,1.25-.32.47-1.88-.61-1.58-1.25Z"/>
              <path class="cls-10" d="M70.11,62.63c.14,0,.82.7.67,1-2.62-.11-.8-1.01-.67-1Z"/>
              <path class="cls-10" d="M82.53,42.8c.57-.26.75-1.04.83-1.17,1.21-.34-2.14,3.71-.83,1.17Z"/>
              <path class="cls-10" d="M32.44,46.3c.43-.19,1.03,1.93.83,2-.74-.8-.84-1.13-.83-2Z"/>
              <path class="cls-10" d="M55.78,35.96c.33-.14.33,1.04.25,1.42-.39,1.95-.73-.53-.25-1.42Z"/>
              <path class="cls-18" d="M38.78,16.96c.07.48.41.87.42.92.36,1.77-.66,2.98-.42-.92Z"/>
              <path class="cls-10" d="M26.44,32.63c3.54,3.37-.2.79-.25.42,0-.02.24-.3.25-.42Z"/>
              <path class="cls-6" d="M21.94,42.63c.58.61,1.76.51,1.5,1.67-.65-1.14-1.86-.73-1.5-1.67Z"/>
              <path class="cls-10" d="M47.61,43.13c.97.62.82,1.84.67,2.83l-.67-2.83Z"/>
              <path class="cls-10" d="M37.78,46.46c2.71,1.98,2.25,2.98,0,.17l-.08-.08.08-.08Z"/>
              <path class="cls-10" d="M68.61,23.13c.17.04-.35,1.77-.42,1.92-.82,1.67-.83.22.42-1.92Z"/>
              <path class="cls-10" d="M62.28,53.8c.13.17.11.53.08.75-.26,2.39-1.61,3.01-.08-.75Z"/>
              <path class="cls-10" d="M32.11,58.8c1.55,2.08.84,2.84.08,1.25-.03-.06-.17-1.22-.08-1.25Z"/>
              <path class="cls-21" d="M38.11,41.3c.11.31.41.71.42.75.51,2.22-.58,2.35-.42-.75Z"/>
              <path class="cls-6" d="M33.44,22.13l.58,1.58.33-.5c.32,2.01-1.14.56-.92-1.08Z"/>
              <path class="cls-13" d="M48.61,54.8l.5,3.17-.58-2.08.08-1.08Z"/>
              <path class="cls-10" d="M26.61,42.96c2.06,3.94-.39.97-.25.25.01-.05.18-.15.25-.25Z"/>
              <path class="cls-6" d="M74.7,57.8c-.27-.15-1.12-.55-1.17-.75.19-.35.33-.39.33-.42.67.41.59.72,1.5.75l-.67.42Z"/>
              <path class="cls-6" d="M81.78,47.96c.74-.18-1.63,1.65-1.75,1.58-.67-.37,1.42-1.26,1.75-1.58Z"/>
              <path class="cls-10" d="M35.03,60.46c.59.58.54,1.54.42,2.33l-.42-2.33Z"/>
              <path class="cls-6" d="M69.45,55.13l1.08.08c-1.1.5-2.77,1.99-1.08-.08Z"/>
              <path class="cls-6" d="M34.94,27.13c1.36,3.7.7,4.04.08,1.42-.05-.19-.28-1.39-.08-1.42Z"/>
              <path class="cls-10" d="M72.86,55.63c-.13.02-.18-.04-.17-.17,4.72-2.4.54.11.17.17Z"/>
              <path class="cls-13" d="M71.2,56.63c-1.42.27-1.96,1.45-.83-.33.31-.18.93-.06.83.33Z"/>
              <path class="cls-6" d="M21.94,43.46c2.96,2.53.02,1.03-.08.75-.01-.04.19-.23.08-.75Z"/>
              <path class="cls-6" d="M83.45,49.96l-1.58,1.42c.37-.77.78-1.15,1.58-1.42Z"/>
              <path class="cls-10" d="M20.61,49.63c.17.02,1.12.3,1.17.33.98.69.78,1.75-1.17-.33Z"/>
              <path class="cls-6" d="M39.78,20.63l.67,2.83c-.24.09-.9-2.44-.67-2.83Z"/>
              <path class="cls-10" d="M41.86,59.46c3.99,3.2-.74.17-.67-.08.08-.26.37.12.67.08Z"/>
              <path class="cls-13" d="M24.69,56.96c-.09-.03-.24.03-.33,0l.33-.83c.08-.01,1.47.07,1.67.25-.73.1-1.09.05-1.67.58Z"/>
              <path class="cls-6" d="M36.94,57.8c.36-.03.68.17.92.42,1.03,1.04.86,2.12-.92-.42Z"/>
              <path class="cls-10" d="M81.11,55.3c1.39.15,2.4,1.34.83.83-.19-.06-.94-.59-.83-.83Z"/>
              <path class="cls-10" d="M66.86,59.13c-1.17.14-2.71-2.14-.92-1,.06.04.35.49.92,1Z"/>
              <path class="cls-6" d="M74.36,55.46c0,.54.68,1.32-.5,1.17.04-.32-.06-.78,0-.92.28-.68.41-.18.5-.25Z"/>
              <path class="cls-16" d="M78.28,59.8c.07,0,1.28.68,1.25.75-.46.94-.85-.22-.92-.25-.03-.01-.47.34-.5.33-.1-.02-.03-.82.17-.83Z"/>
              <path class="cls-10" d="M82.61,45.8l.25.08c-1.02,1.68-2.72,1.63-.25-.08Z"/>
              <path class="cls-10" d="M74.11,59.96l1.75.58c-.66.19-1.56.23-1.75-.58Z"/>
              <path class="cls-10" d="M62.11,14.29v2.67c-.52-.77-.24-1.73,0-2.67Z"/>
              <path class="cls-18" d="M34.78,23.13c1.05.67.07,2.46-.25,1.08-.01-.05.19-.13.25-1.08Z"/>
              <path class="cls-10" d="M27.44,34.46c.1-.06.99.58,1.08.75.52.96-1.02.4-1.08-.75Z"/>
              <path class="cls-10" d="M23.61,53.8c.4-.24,2.01,1.52.5,1-.18-.06-.75-.85-.5-1Z"/>
              <path class="cls-10" d="M28.61,26.79c.05,0,.73.7.75.75.83,1.82-1.75-.75-.75-.75Z"/>
              <path class="cls-10" d="M66.36,57.96l.92-1.33-.42,1.92h-.33c-.07-.18-.11-.41-.17-.58Z"/>
              <path class="cls-6" d="M84.36,44.13c-.04.06-.02.32.08.33l1.25-.58c-2.38,1.59-2.54,1.74-1.33.25Z"/>
              <path class="cls-10" d="M74.53,59.46c.39.85-3.47-.54-1.92-.5.1,0,.91.56,1.92.5Z"/>
              <path class="cls-6" d="M34.78,21.96c.47.5,1.13.7,1.17,1.5-.1,0-1.77-1.23-1.17-1.5Z"/>
              <path class="cls-6" d="M39.61,58.96l2.25,1.42c-.13.48-2.19-1.08-2.25-1.42Z"/>
              <path class="cls-10" d="M28.19,31.63c2.68,2.64,1.07,2.09.17.75-.15-.22-.1-.54-.17-.75Z"/>
              <path class="cls-10" d="M54.61,18.13c.54,2.93-.67,3.12-.08.08l.08-.08Z"/>
              <path class="cls-10" d="M25.19,46.13c.05.01.04-.38,1.08.17,1.75.91,1.95,1.81-1.08-.17Z"/>
              <path class="cls-10" d="M57.28,17.96l.25.08c-1.82,3.92-1.02-.01-.25-.08Z"/>
              <path class="cls-10" d="M40.44,15.96c.32-.04.25.16.25.42,0,1.25-1.43,3.46-.25-.42Z"/>
              <path class="cls-21" d="M76.03,63.46c-.08.03-.99,1.01-1.33-.08-.09-.29.33-.39.33-.42.22.4.72.21,1,.5Z"/>
              <path class="cls-6" d="M22.36,52.3c-.07-.12-.19-.26-.17-.42.41-.35,3.24,1.24.17.42Z"/>
              <path class="cls-10" d="M31.94,38.3c1.34,2.93.51,3.47-.08.08l.08-.08Z"/>
              <path class="cls-10" d="M41.28,16.96l-.5,2.5c-.21-.89-.15-1.82.5-2.5Z"/>
              <path class="cls-10" d="M77.95,60.8c.39-.15,1.26.73.5,1-.38.14-1.09-.78-.5-1Z"/>
              <path class="cls-21" d="M72.45,62.8c.38.76-.28,1.57-.67,1.33-.25-.15.44-1.21.67-1.33Z"/>
              <path class="cls-10" d="M37.53,60.8c-.03-.1-.03-.46.08-.5,2.22,1.58.34,1.7-.08.5Z"/>
              <path class="cls-10" d="M27.03,61.63c-.07.02-.23,0-.33,0-.03,0,0-.07-.5-.33.41-1.07,2.17-.08.83.33Z"/>
              <path class="cls-10" d="M84.78,40.46l.25.25c-1.31,2.18-1.66,1.42-.25-.25Z"/>
              <path class="cls-10" d="M30.44,62.3c1.01-.09,1.26.77-1.08.58.63-.17,1.02-.58,1.08-.58Z"/>
              <path class="cls-13" d="M37.36,49.96c-.03.08.06.31-.08.33-.26.04-3.47-4.21.08-.33Z"/>
              <path class="cls-10" d="M33.36,64.13c.13-.07.91-.58,1-.42.28.5-1.94,1.82-1,.42Z"/>
              <path class="cls-10" d="M27.69,48.46c-2.87-2.55-1.71-2-.25-.67.99.91.27.6.25.67Z"/>
              <path class="cls-10" d="M24.69,56.96c1.9.61,1,.91-.42.5-.16,0,.14-.24.42-.5Z"/>
              <path class="cls-6" d="M52.44,43.63c.62,3.98-.43,3.94-.25.75,0-.04.22-.33.25-.75Z"/>
              <path class="cls-21" d="M59.95,26.96c.03.61.39,1.48.25,2.08-.26,1.09-.51-.18-.25-2.08Z"/>
              <path class="cls-10" d="M41.44,56.8l1.75,1.08c-.1.28-1.66-.67-1.75-1.08Z"/>
              <path class="cls-10" d="M65.95,17.13c.27-.01.23.03.25.25.06.71-2.36,1.87-.25-.25Z"/>
              <path class="cls-10" d="M67.28,51.46c.03.31-.16,1.23-.25,1.42-.7,1.5-.94.5.25-1.42Z"/>
              <path class="cls-10" d="M73.45,57.63c2.99,1.41.45,1.13,0,.33-.06-.1-.2-.16,0-.33Z"/>
              <path class="cls-21" d="M75.03,62.96c.06-.46-.42-.82.58-.67.29.04.94.91-.58.67Z"/>
              <path class="cls-10" d="M33.19,41.8c-.89-2.6.84-.32.67.08-.11.26-.36-.13-.67-.08Z"/>
              <path class="cls-18" d="M82.28,56.96c.82-.09.52.75.33.83-.47.2-1.15-.75-.33-.83Z"/>
              <path class="cls-6" d="M84.36,33.63c-2.66,3.45-.68-.4-.08-.33.14.02.07.33.08.33Z"/>
              <path class="cls-10" d="M25.78,57.96l1.92.42c-.02.1-1.85.08-1.92-.42Z"/>
              <path class="cls-10" d="M60.45,27.29c1.28,2.7.56,3.24-.08.08l.08-.08Z"/>
              <path class="cls-10" d="M24.78,41.46c.43-.02,1.07,2.38-.08.92-.24-.31-.17-.91.08-.92Z"/>
              <path class="cls-10" d="M73.11,59.8c.17.03.4-.04.5,0,.68.28,1.49,2.53-.5,0Z"/>
              <path class="cls-10" d="M26.69,27.29c-.25-.48.78-.13.92,0,.62.55.43,1.28-.92,0Z"/>
              <path class="cls-10" d="M33.19,52.46l.17.25c-.29.25-1.53-.36-1.83-.67.62-.26,1.06.3,1.67.42Z"/>
              <path class="cls-10" d="M50.28,55.63c.05.7.43,1.47.17,2.17-.34.91-.32-.76-.17-2.17Z"/>
              <path class="cls-10" d="M36.11,45.96c.68-.31,1.19,2.89.08.75-.07-.14-.29-.66-.08-.75Z"/>
              <path class="cls-6" d="M28.28,28.96l.67,1.67c-.47-.38-.9-1.01-.67-1.67Z"/>
              <path class="cls-10" d="M53.28,23.13c.05,2.74-.94,3.19-.08.08l.08-.08Z"/>
              <path class="cls-10" d="M84.45,56.46c.42-.09,1.1.18,1.08.25-.12.51-2.96.18-1.08-.25Z"/>
              <path class="cls-13" d="M21.28,45.3c.62-.35,1.05.9.83,1-.13.06-1.06-.64-.83-1Z"/>
              <path class="cls-10" d="M26.78,51.96c2.44.47.95,1.03.17.5-.14-.1-.4-.38-.17-.5Z"/>
              <path class="cls-10" d="M64.11,48.13c.1.23.14.92.08,1.08-.19.51-1.35,1.08-.08-1.08Z"/>
              <path class="cls-10" d="M24.36,56.96c-.16-.05-.14.52-1-.42.62-.08,1.18-.4,1.33-.42l-.33.83Z"/>
              <path class="cls-10" d="M64.03,27.13c.18-.76.39-1.47.75-2.17.2.04-.3,2.12-.75,2.17Z"/>
              <path class="cls-6" d="M64.86,17.96c-.12.41.31.58-.75,1.33-.23-.92.71-1.26.75-1.33Z"/>
              <path class="cls-10" d="M28.78,58.46c.78-.23,1.3,1.03,1,1.17-.07.03-1.01-.96-1-1.17Z"/>
              <path class="cls-10" d="M22.94,34.96c.16-.08.91.69.92.75.18,1.15-1.33-.55-.92-.75Z"/>
              <path class="cls-10" d="M34.28,20.13s.74.86.75.92c.31,1.38-1.21-.59-.75-.92Z"/>
              <path class="cls-18" d="M68.7,57.3c.12-.22.58-1.33.92-1.17l-.75,1.92c-.32.23-.08-.43-.17-.75Z"/>
              <path class="cls-6" d="M26.61,56.13l2.25.42c-.79-.17-1.96.15-2.25-.42Z"/>
              <path class="cls-10" d="M33.11,25.13c.08.27.91,1.01.92,1.08.18,1.15-1.16-.47-.92-1.08Z"/>
              <path class="cls-10" d="M85.78,38.63c.26.09-.36.84-.5,1-1.17,1.34-.86.22.5-1Z"/>
              <path class="cls-21" d="M57.19,38.3c-.75.5-.85,1.1-.25-1,.34.24.29.66.25,1Z"/>
              <path class="cls-21" d="M44.78,41.13s.4.52.42.58c.6,2.46-1.1-.17-.42-.58Z"/>
              <path class="cls-10" d="M34.28,41.3c1.18,1.78.91,2.23.25,1.25-.12-.18-.52-1.13-.25-1.25Z"/>
              <path class="cls-21" d="M56.61,36.63c.22,2.14-1.02,2.48-.08.08l.08-.08Z"/>
              <path class="cls-10" d="M43.78,34.46c1.59,3.4.09,1.91-.08.58-.02-.13-.04-.56.08-.58Z"/>
              <path class="cls-6" d="M80.7,58.96c-.14.19.26.4.08.5-1.16.66-.93-.56-.5-.83.03-.02.25.35.42.33Z"/>
              <path class="cls-10" d="M30.61,29.96c.61-.01,1.02,2.34-.08.75-.22-.31-.14-.75.08-.75Z"/>
              <path class="cls-10" d="M42.94,54.13c.21.03.5-.05.67,0,1.16.32.11,1.38-.67,0Z"/>
              <path class="cls-10" d="M86.53,52.13c.08-.06.14-.72,1.67-.58-.57.53-1.53.53-1.67.58Z"/>
              <path class="cls-10" d="M55.44,19.79l-.17,2.17c-.11-.75-.45-1.54.17-2.17Z"/>
              <path class="cls-6" d="M36.94,45.8c1.49,1.94,1.08,2.72-.08.08l.08-.08Z"/>
              <path class="cls-13" d="M70.61,37.3c.04,2.72-.89,2.9-.08.08l.08-.08Z"/>
              <path class="cls-10" d="M59.36,14.96c-1.55,2.13.02-1.43.33-.75-.09.32-.23.37-.33.75Z"/>
              <path class="cls-10" d="M40.94,43.13c1.13,1.96.34,2.62-.08.08l.08-.08Z"/>
              <path class="cls-10" d="M33.36,64.13c-.84.43-1.12,1.18-1.5.58l1.5-.58Z"/>
              <path class="cls-21" d="M46.11,56.8s.75.86.75.92c-.04.67-1.39-.43-.75-.92Z"/>
              <path class="cls-10" d="M60.03,19.29c.07-.13.68-1.03.75-1-.44,1.48-.41,2.17-.75,1Z"/>
              <path class="cls-6" d="M69.11,25.46l-.67,2c-.24-.57.37-1.43.67-2Z"/>
              <path class="cls-10" d="M68.28,16.96c.41-.08.03.94-.5,1.5l.5-1.5Z"/>
              <path class="cls-10" d="M49.03,39.13c.53.29,1.24,1.32.92,1.5-.52-.38-.64-.99-.92-1.5Z"/>
              <path class="cls-10" d="M28.44,27.63c.2-.02.68,1.1.17,1.17-.4.05-.5-1.13-.17-1.17Z"/>
              <path class="cls-10" d="M43.53,57.3c-.52-.67,1.08-.19,1.33.58-.08.17-.67-.41-1.33-.58Z"/>
              <path class="cls-17" d="M37.44,44.63c1.5,1.91.8,2.38-.08.08l.08-.08Z"/>
              <path class="cls-10" d="M56.11,18.79c.32,2.43-.59,2.59-.08.25v-.17l.08-.08Z"/>
              <path class="cls-10" d="M78.95,58.3c.87.1-.72,1.65-.58.58,0-.04.54-.59.58-.58Z"/>
              <path class="cls-6" d="M66.78,44.96c.52.23-1.83,3.02-.08.08.04-.05.07-.09.08-.08Z"/>
              <path class="cls-13" d="M64.86,17.96c.18-.65.11-1.37.42-2,.32.77-.08,1.36-.42,2Z"/>
              <path class="cls-10" d="M39.61,34.96c1.56,1.69.73,2.12-.08.08l.08-.08Z"/>
              <path class="cls-6" d="M33.44,44.96c1.84,1.2,1.44,2.04-.08.08l.08-.08Z"/>
              <path class="cls-10" d="M35.53,60.3c-.34-.35-1.27-.51-.92-1.17.28-.18.82,1.02.92,1.17Z"/>
              <path class="cls-6" d="M21.61,49.46l1.42.42c-.45.23-1.14.01-1.42-.42Z"/>
              <path class="cls-21" d="M72.11,56.96c.23-.03.75.19.75.25,0,.7-2.52-.01-.75-.25Z"/>
              <path class="cls-10" d="M53.28,52.46c.46,0,.21.34,0,.5-1.35,1.01-1.07-.52,0-.5Z"/>
              <path class="cls-10" d="M29.94,27.79s.74.7.75.75c.27,1.05-1.33-.5-.75-.75Z"/>
              <path class="cls-10" d="M44.61,55.46c.54,1.59-.1,2.49-.25,1.08,0-.07.2-.59.25-1.08Z"/>
              <path class="cls-6" d="M83.11,56.13c.33-.07.93.2.92.25-.1.48-2.34.06-.92-.25Z"/>
              <path class="cls-16" d="M39.78,57.46c1,.09,2.44,1.35.67.5-.2-.09-.99-.36-.67-.5Z"/>
              <path class="cls-6" d="M66.36,57.96c-.21-.63-.31-1.08.08-1.67l-.08,1.67Z"/>
              <path class="cls-6" d="M30.36,54.8c-.43-.57.49-.44,1.33.25-.09.28-.63-.15-1.33-.25Z"/>
              <path class="cls-10" d="M35.69,57.3c.02.85-1.21-.18-1.17-.25.25-.38.78.21,1.17.25Z"/>
              <path class="cls-10" d="M34.19,60.96c-.09-.72-.5-.87-.25-1,.54-.28.96,1.01.25,1Z"/>
              <path class="cls-6" d="M31.19,40.13c.2.27,1.38,1.49.92,1.67-.47-.47-.62-1.13-.92-1.67Z"/>
              <path class="cls-10" d="M20.78,45.8c.06-.03,1.1.69,1.08.75-.11.36-1.73-.41-1.08-.75Z"/>
              <path class="cls-13" d="M87.61,47.13c.72.01-1.21,1.19-1.42.75l1.42-.75Z"/>
              <path class="cls-6" d="M31.36,20.96c.34.13,1.27,1.72.92,1.83l-.92-1.83Z"/>
              <path class="cls-21" d="M22.28,53.96c.05,0,.94.53.92.58-.27.57-2.07-.63-.92-.58Z"/>
              <path class="cls-13" d="M66.78,17.13c.08.1.25.21.25.25,0,.3-1.71,2.57-.25-.25Z"/>
              <path class="cls-18" d="M22.11,53.13c.31.13.91.26,1,.33.71.61.16.96-1-.33Z"/>
              <path class="cls-10" d="M80.7,61.3c0,.14-.7.04-.75,0-.99-.77.78-.61.75,0Z"/>
              <path class="cls-10" d="M34.86,62.63c-.53-.88-.3-2.43.17-.58.15.58-.17.55-.17.58Z"/>
              <path class="cls-21" d="M66.78,49.3c.64-.08-.83,2.38-.42.58.01-.06.35-.57.42-.58Z"/>
              <path class="cls-6" d="M70.53,58.8c.07-.03,1.5-.95,1-.08-.12.21-.87-.27-.92.92-.18,0-.02-.72-.08-.83Z"/>
              <path class="cls-10" d="M22.61,48.46c.76.24,1.15.87,0,.67-.5-.09.1-.34,0-.67Z"/>
              <path class="cls-10" d="M29.78,60.96c.68-.2,1.98.88-.17.33-.17-.05.09-.31.17-.33Z"/>
              <path class="cls-10" d="M65.61,56.8c.28,0,.36,1.05.17,1.17-.16.1-.7-1.17-.17-1.17Z"/>
              <path class="cls-16" d="M33.94,21.13c.05-.02.57.85.58.92.26,1.46-.95-.79-.58-.92Z"/>
              <path class="cls-10" d="M63.95,18.13c.28.09-.47.98-.5,1.67-.38-.7.37-1.71.5-1.67Z"/>
              <path class="cls-6" d="M26.61,29.63c.38-.1,1.08,1.25.83,1.33-.11.04-.79-1.05-.83-1.33Z"/>
              <path class="cls-10" d="M40.61,48.96c.38-.17,1.07,2.1.08.75-.08-.11-.28-.66-.08-.75Z"/>
              <path class="cls-10" d="M60.95,39.13c.58.33-.07,1.31-.33,1.17-.1-.05.29-.99.33-1.17Z"/>
              <path class="cls-6" d="M31.61,22.79c.31-.14,1.35,1.7.5,1-.09-.08-.62-.95-.5-1Z"/>
              <path class="cls-18" d="M26.78,51.13l1.25.75c-.02.2-1.26-.19-1.25-.75Z"/>
              <path class="cls-6" d="M43.53,57.3l.75.83c-.87-.44-2.1-1.18-.75-.83Z"/>
              <path class="cls-6" d="M55.94,12.29c-.03,2.18-.82,2.54-.08.08l.08-.08Z"/>
              <path class="cls-6" d="M23.28,38.8c.23.03,1.16.54,1.08.75-.09.26-1.12-.34-1.08-.75Z"/>
              <path class="cls-13" d="M24.44,52.63l1.25.42c-.3.54-1.1.03-1.25-.42Z"/>
              <path class="cls-6" d="M82.95,36.8c-.12,1.87-1.17,1.68-.08.08l.08-.08Z"/>
              <path class="cls-14" d="M42.28,43.46c.32-.14.48,3.28-.08.08.02-.04.05-.07.08-.08Z"/>
              <path class="cls-6" d="M38.28,19.63c1.85,1.59.03.86-.08.42-.03-.11-.03-.35.08-.42Z"/>
              <path class="cls-10" d="M76.11,60.96c1.6.29-.76.95-.58.25,0-.03.55-.26.58-.25Z"/>
              <path class="cls-13" d="M76.61,58.13c.06-.04.56.21.58.25.69,1.32-1.09.06-.58-.25Z"/>
              <path class="cls-10" d="M26.11,53.13c.53.03,1.02.72-.5.5-.2-.14.46-.5.5-.5Z"/>
              <path class="cls-18" d="M35.28,19.29c.12-.07.43.99.42,1.08-.14.91-.71-.91-.42-1.08Z"/>
              <path class="cls-21" d="M73.28,62.8s.58.54.58.58c.12.92-1.15-.18-.58-.58Z"/>
              <path class="cls-6" d="M55.44,53.96l.33.83c-.81-.1-1.01-.28-.33-.83Z"/>
              <path class="cls-13" d="M65.11,61.46c1.34-.25-.31,1.15-.42.42,0-.03.39-.41.42-.42Z"/>
              <path class="cls-10" d="M50.78,53.96c.11,0,.15,1.93.08,2.08-.19.44-.25-2.08-.08-2.08Z"/>
              <path class="cls-10" d="M75.95,61.8c.06-.02,1.05.84.67,1-.17.07-1.03-.9-.67-1Z"/>
              <path class="cls-10" d="M30.61,23.79c1.08,1.4.41,1.97-.08.08l.08-.08Z"/>
              <path class="cls-10" d="M81.95,42.46c.11.06.12.48.08.58-.17.45-1.48.97-.08-.58Z"/>
              <path class="cls-10" d="M42.78,42.8l.5,1.5c-.35.14-.68-1.46-.5-1.5Z"/>
              <path class="cls-10" d="M26.61,38.8s.57.54.58.58c.26,1-1.27-.58-.58-.58Z"/>
              <path class="cls-6" d="M36.78,58.3c1.34,1.17,1.26,1.64.33.67-.25-.27-.58-.45-.33-.67Z"/>
              <path class="cls-13" d="M33.78,48.13c1.08,1.45.59,1.73.08.75-.07-.13-.29-.7-.08-.75Z"/>
              <path class="cls-6" d="M25.03,46.13c-.15-.02-.2.23-.42.17-.73-.22-.88-1.25.42-.17Z"/>
              <path class="cls-10" d="M85.45,54.63c.63-.09.76.06.17.33-1.23.56-1.35-.17-.17-.33Z"/>
              <path class="cls-13" d="M42.44,55.8c.12-.04,1.2.37,1.25.42.63.66-1.57-.31-1.25-.42Z"/>
              <path class="cls-13" d="M70.95,57.13c.74.02-.97.92-1.08.58-.03-.1,1.02-.59,1.08-.58Z"/>
              <path class="cls-6" d="M72.11,54.46c.16-.04,1.07-.03,1.08.08-.44.44-2.18.17-1.08-.08Z"/>
              <path class="cls-13" d="M56.61,15.46c.26.22-.08.37-.08.42-.1,2.04-.72,1.26.08-.42Z"/>
              <path class="cls-10" d="M65.45,48.3c.74.09-.91,1.3-.58.42.03-.08.55-.42.58-.42Z"/>
              <path class="cls-10" d="M23.61,53.3c.24-.09,1.09.04.92.42-.06.13-1.06-.08-.92-.42Z"/>
              <path class="cls-10" d="M25.78,51.63s.77.19.75.42c-.04.52-1.48-.28-.75-.42Z"/>
              <path class="cls-16" d="M69.28,19.79c-.13.49.13,2.08-.17,1.5-.21-.41-.1-1.53.17-1.5Z"/>
              <path class="cls-10" d="M31.19,40.13c-.14-.19-.96-.72-.75-1.17.73.57.72,1.11.75,1.17Z"/>
              <path class="cls-13" d="M39.11,56.3c1.53.79,1.74,1.16,0,.33v-.33Z"/>
              <path class="cls-14" d="M73.45,51.13c.11-.03.37-.03.42.08-1.91,1.52-.9.04-.42-.08Z"/>
              <path class="cls-10" d="M35.94,62.46c.07,0,.77.53.75.58-.2.45-1.48-.57-.75-.58Z"/>
              <path class="cls-10" d="M71.45,62.46c.1-.05.77-.11.75.25-.02.42-1.33.06-.75-.25Z"/>
              <path class="cls-13" d="M86.61,50.46c1.01-.38.4.78-.17.5-.23-.12.04-.45.17-.5Z"/>
              <path class="cls-10" d="M23.53,55.96c2.35-.06.2.36.08.33-.14-.03-.07-.33-.08-.33Z"/>
              <path class="cls-10" d="M31.94,45.13c.49-.16,1.06,2.08.08.58-.07-.1-.24-.53-.08-.58Z"/>
              <path class="cls-6" d="M35.94,23.63c.12-.04.65.88.33,1.33.01-.21-.64-1.23-.33-1.33Z"/>
              <path class="cls-10" d="M34.44,26.13c.35-.18.32.92.17,1-.35.18-.32-.92-.17-1Z"/>
              <path class="cls-10" d="M28.44,30.96c.35-.2.77.54.75.58-.1.24-1.08-.39-.75-.58Z"/>
              <path class="cls-10" d="M63.61,50.3c.5.23-.78,1.69-.42.42,0-.03.39-.43.42-.42Z"/>
              <path class="cls-13" d="M57.61,18.29c-.04,1.46-1.11,1.96-.08.08l.08-.08Z"/>
              <path class="cls-21" d="M67.36,17.63c-.19,1.13-.51.97-.5.42,0-.37.48-.39.5-.42Z"/>
              <path class="cls-10" d="M54.61,52.63s.25.23.25.25c-.02,1.3-1.63-.26-.25-.25Z"/>
              <path class="cls-13" d="M68.45,55.63l.25.08c-.82,1.36-1.24,1.39-.25-.08Z"/>
              <path class="cls-1" d="M41.11,55.8c.42-.21,1.79,1.21.42.42-.22-.13-.66-.3-.42-.42Z"/>
              <path class="cls-10" d="M26.61,52.46c.61-.06,1.14.86,0,.5-.29-.09-.22-.48,0-.5Z"/>
              <path class="cls-10" d="M34.28,19.29c.18-.04.33.12.42.25.46.66-.11,1.25-.42-.25Z"/>
              <path class="cls-6" d="M79.45,57.96c.21.03,1.06-.08,1.08.08.01.07-1.48.56-1.08-.08Z"/>
              <path class="cls-6" d="M85.36,53.96s.33-.78.67-.25c.43.68-.62.24-.67.25Z"/>
              <path class="cls-10" d="M44.11,58.3c.18.03.41-.04.5,0,.6.29.2,1.15-.5,0Z"/>
              <path class="cls-18" d="M81.95,58.8c.3,0,.26.78-.33.67-.53-.1.28-.67.33-.67Z"/>
              <path class="cls-10" d="M62.78,50.13c.2.09-.03.69-.08.75-.8.81-.2-.88.08-.75Z"/>
              <path class="cls-18" d="M40.44,56.63c.89.25,1.17.84.5.67-.04-.01-.65-.56-.5-.67Z"/>
              <path class="cls-6" d="M64.95,47.46c.39.14-.68,1.94-.42.58,0-.04.37-.6.42-.58Z"/>
              <path class="cls-10" d="M35.53,27.79c.01.06.75.55.58,1.17-.35-.31-.44-.75-.58-1.17Z"/>
              <path class="cls-6" d="M27.53,32.79c.28.28.73.73.58,1.17-.22-.23-.62-.9-.58-1.17Z"/>
              <path class="cls-10" d="M83.28,57.13c.16-.11.58.13.58.25,0,.51-1.15.13-.58-.25Z"/>
              <path class="cls-1" d="M38.78,57.63c.18-.06.82.61.83.67.13.56-1.05-.6-.83-.67Z"/>
              <path class="cls-6" d="M85.36,46.8c.06-.03-.01-.79,1-.58.01.06-.89.5-1,.58Z"/>
              <path class="cls-17" d="M34.94,43.46c.18-.06.82.61.83.67.13.56-1.05-.6-.83-.67Z"/>
              <path class="cls-13" d="M82.45,38.8c.42.12-.73,2.02-.25.58.03-.08.05-.64.25-.58Z"/>
              <path class="cls-10" d="M33.61,58.46c.2.15.89.84.5,1-.05.02-.68-.8-.5-1Z"/>
              <path class="cls-10" d="M34.44,24.79c.05,0,.26.87.25.92-.15,1.03-.58-.92-.25-.92Z"/>
              <path class="cls-10" d="M29.11,59.8s.59.37.58.42c-.1.41-1.71-.4-.58-.42Z"/>
              <path class="cls-10" d="M28.11,60.13s.3.2.17.33c-.81.79-1.22-.47-.17-.33Z"/>
              <path class="cls-21" d="M66.61,37.63c.26,0,.29,1.08-.17.83-.25-.13.12-.83.17-.83Z"/>
              <path class="cls-17" d="M41.53,58.96v.17c-.94-.78-1.37-1.16,0-.17Z"/>
              <path class="cls-10" d="M35.53,60.3c.19.2.79.68.58,1-.76-.57-.55-.95-.58-1Z"/>
              <path class="cls-6" d="M83.03,55.63s.81-.41.83.08c.02.57-.74-.04-.83-.08Z"/>
              <path class="cls-13" d="M50.28,25.63c.05,0,.17.9.17,1-.03,1.19-.51-1-.17-1Z"/>
              <path class="cls-16" d="M28.19,53.46c-.41-.1-.94.03-1.33-.25l1.33.25Z"/>
              <path class="cls-16" d="M86.11,48.3s.74.05.75.08c.1.42-1.42.5-.75-.08Z"/>
              <path class="cls-21" d="M23.53,55.96c-.05,0-1.04.2-.83-.25.17-.37.79.24.83.25Z"/>
              <path class="cls-13" d="M58.45,48.8c.38-.17.29.99.17,1-.06,0-.36-.91-.17-1Z"/>
              <path class="cls-10" d="M64.45,49.63c.36.2-.29.86-.33.83-.36-.2.29-.86.33-.83Z"/>
              <path class="cls-20" d="M78.95,59.63c.2.02.45-.04.5,0,.4.28-.23.95-.5,0Z"/>
              <path class="cls-18" d="M75.2,56.8c.19.13.76-.25.83.25.08.52-.67-.09-.83-.25Z"/>
              <path class="cls-10" d="M86.11,41.3c.11-.02.22-.02.25.08-1.36,1.54-.69,0-.25-.08Z"/>
              <path class="cls-6" d="M29.61,29.29c1.17-.36-.05.72-.17.67-.21-.09-.06-.6.17-.67Z"/>
              <path class="cls-6" d="M87.36,39.8c-.03.06.13.68-.58.83-.09-.1.27-.6.58-.83Z"/>
              <path class="cls-6" d="M42.94,15.63s.25.41.25.75c0,1.07-.52-.63-.25-.75Z"/>
              <path class="cls-10" d="M41.11,15.79c.44.05-.56,2.38-.08.08.03-.05.06-.09.08-.08Z"/>
              <path class="cls-17" d="M64.45,32.29c.49-.25.04,1.2-.08.92-.06-.13-.02-.87.08-.92Z"/>
              <path class="cls-10" d="M75.86,58.13c-.56.13-.74-.09-1.17-.33.39-.03.87.06,1.17.33Z"/>
              <path class="cls-13" d="M85.86,50.46c.6.21-.24.82-.5.42-.1-.15.47-.43.5-.42Z"/>
              <path class="cls-10" d="M54.86,54.13c.02-.09.29-1.79.5-.42.01.09-.48.39-.5.42Z"/>
              <path class="cls-1" d="M40.11,43.13s.25.41.25.75c0,1.07-.52-.63-.25-.75Z"/>
              <path class="cls-6" d="M77.86,53.96l-1.17.25c.35-.23.8-.17,1.17-.25Z"/>
              <path class="cls-21" d="M51.78,54.13s.42.39.42.42c0,.66-1.07-.42-.42-.42Z"/>
              <path class="cls-21" d="M52.86,55.3c-.16-.04-.5-.38-.5-.42,0-.39.86-.11.5.42Z"/>
              <path class="cls-10" d="M77.95,58.8s.59.9.17.83c-.25-.04-.37-.74-.17-.83Z"/>
              <path class="cls-17" d="M33.53,35.8s-.46-.56-.67-.83c.73.41.64.79.67.83Z"/>
              <path class="cls-17" d="M73.95,62.96c.84-.16.59.46.33.5-.03,0-.51-.42-.33-.5Z"/>
              <path class="cls-10" d="M85.53,56.13c-.25.17-.55.27-.83.08.57-.58.79-.09.83-.08Z"/>
              <path class="cls-1" d="M78.7,41.96c.21-.01.2.22.17.42-.09.64-.69,1.06-.17-.42Z"/>
              <path class="cls-6" d="M81.53,58.13c.03-.24-.33-1.43.33-.08-.03.15-.31.06-.33.08Z"/>
              <path class="cls-13" d="M84.11,51.13c.12-.02.37-.04.42.08.19.51-1.89.19-.42-.08Z"/>
              <path class="cls-16" d="M54.11,53.8c.62-.02-.41.8-.58.42-.02-.04.55-.42.58-.42Z"/>
              <path class="cls-10" d="M49.61,57.63s.41.72.17.83c-.34.16-.32-.77-.17-.83Z"/>
              <path class="cls-10" d="M70.95,62.3c.38-.01.31.57.17.67-.18.13-.55-.66-.17-.67Z"/>
              <path class="cls-17" d="M35.11,58.63c.25-.08.53.58.33.67-.04.02-.64-.57-.33-.67Z"/>
              <path class="cls-13" d="M30.11,32.46c.1-.02.58.79.33.83-.1.02-.58-.79-.33-.83Z"/>
              <path class="cls-10" d="M38.78,63.63c.25.07-.12.85-.17.83-.25-.11,0-.88.17-.83Z"/>
              <path class="cls-10" d="M66.95,46.63c.29-.06.19.8-.17.67-.2-.08.13-.66.17-.67Z"/>
              <path class="cls-13" d="M56.94,50.3c.97-.15-.2.7-.42.25-.01-.02.39-.25.42-.25Z"/>
              <path class="cls-6" d="M79.7,57.3c0,.06,1.12.9-.17.25-.05-.3.17-.24.17-.25Z"/>
              <path class="cls-6" d="M19.94,46.3s.6.54.58.58c-.12.35-.93-.46-.58-.58Z"/>
              <path class="cls-10" d="M28.94,31.96c.46-.14.91,1.2.17.33-.16-.18-.36-.27-.17-.33Z"/>
              <path class="cls-6" d="M41.78,46.46s.25.68.25.75c-.02.72-.58-.72-.25-.75Z"/>
              <path class="cls-13" d="M45.94,53.8c.31-.14.35.56.17.67-.08.05-.44-.54-.17-.67Z"/>
              <path class="cls-10" d="M65.78,47.3c.47.21-.42,1.01-.42.42,0-.03.39-.43.42-.42Z"/>
              <path class="cls-21" d="M34.78,63.46c.51-.07.11.62-.17.5-.23-.1.06-.49.17-.5Z"/>
              <path class="cls-7" d="M83.03,55.63c-.3-.14-.51-.34-.83-.42.72-.38.75.38.83.42Z"/>
              <path class="cls-13" d="M85.11,35.63c.11-.02.22-.01.25.08.23.76-1.74.22-.25-.08Z"/>
              <path class="cls-18" d="M83.2,51.3c-.35.44-.39.88-.67.58.35-.74.63-.55.67-.58Z"/>
              <path class="cls-13" d="M52.28,49.46c.07-.04.53-.03.58.08.12.24-1.47.46-.58-.08Z"/>
              <path class="cls-10" d="M79.7,57.3c-.01-.12-.23-.19.08-.83.43.85-.09.78-.08.83Z"/>
              <path class="cls-10" d="M38.11,17.96c.05.14.24.58.17.67-.22.27-.6-.34-.17-.67Z"/>
              <path class="cls-10" d="M80.7,58.96c.05,0,1.06-1.22.42,0-.02.04-.39-.03-.42,0Z"/>
              <path class="cls-3" d="M35.53,40.46s-.6,0-.42-.67c.24.16.27.45.42.67Z"/>
              <path class="cls-10" d="M64.45,57.3c.06-.02.37.35.25.58-.14.28-.55-.5-.25-.58Z"/>
              <path class="cls-10" d="M28.11,30.13s.36.22.17.5c-.31.45-.35-.39-.17-.5Z"/>
              <path class="cls-10" d="M27.94,28.96c.25.11.03,1.36-.17.5-.04-.18.14-.51.17-.5Z"/>
              <path class="cls-13" d="M45.11,26.79s.63.56.33.67c-.04.01-.63-.56-.33-.67Z"/>
              <path class="cls-10" d="M24.94,55.3c.57-.3.75.41.17.33-.04,0-.33-.25-.17-.33Z"/>
              <path class="cls-18" d="M44.44,25.46c.43-.04.2,1.55,0,.33,0-.02-.21-.31,0-.33Z"/>
              <path class="cls-13" d="M59.11,24.96c.13,0,.13,1,0,1s-.13-1,0-1Z"/>
              <path class="cls-10" d="M41.86,59.46c-.1-.08-.2-.22-.33-.33v-.17c.2.14,1.13.39.33.5Z"/>
              <path class="cls-16" d="M74.53,59.46l-.25-.5c.54.17.78.59.25.5Z"/>
              <path class="cls-10" d="M67.2,20.96s-.44.27-.5.33c.02-.1-.02-.23,0-.33l.42-.33c.11.03.11.24.08.33Z"/>
              <path class="cls-10" d="M80.03,40.63s-.09-.29.42-.67l-.42.67Z"/>
              <path class="cls-17" d="M37.78,59.8c.18-.06.6.38.58.42-.11.31-.8-.35-.58-.42Z"/>
              <path class="cls-6" d="M37.11,62.96c.32-.03.19.66-.17.5-.23-.1.06-.49.17-.5Z"/>
              <path class="cls-18" d="M62.78,53.3c.25.07-.12.85-.17.83-.25-.07.12-.85.17-.83Z"/>
              <path class="cls-17" d="M35.03,60.46c-.28-.01-.1.53-.25.5-.06-.01-.41-1.15.25-.5Z"/>
              <path class="cls-6" d="M84.28,53.46c.96-.31-.32.73-.42.25,0-.02.39-.24.42-.25Z"/>
              <path class="cls-6" d="M65.45,61.13c.52-.23,1.29.4.33.17-.17-.04-.63-.04-.33-.17Z"/>
              <path class="cls-10" d="M51.61,54.8s.36.22.17.5c-.31.45-.35-.39-.17-.5Z"/>
              <path class="cls-10" d="M47.19,14.46c-.12-.12.2-.85.25-.83.27.07-.14.95-.25.83Z"/>
              <path class="cls-10" d="M57.95,50.13c.35-.12.59.17.33.33-.15.09-.53-.27-.33-.33Z"/>
              <path class="cls-17" d="M86.28,45.46c.34.12-.3.75-.42.42,0-.03.39-.43.42-.42Z"/>
              <path class="cls-13" d="M85.2,50.46s-.16.56-.67.25c.26-.21.64-.23.67-.25Z"/>
              <path class="cls-6" d="M60.28,17.79c.09-.03.38-.03.42.08.08.27-1.23.19-.42-.08Z"/>
              <path class="cls-10" d="M77.36,43.8l.5-.42c-.07.16-.48.39-.5.42Z"/>
              <path class="cls-13" d="M39.44,55.8s.41.23.42.25c.22.47-.86-.07-.42-.25Z"/>
              <path class="cls-17" d="M34.28,42.8c.46-.12.58.89.08.25-.09-.12-.27-.2-.08-.25Z"/>
              <path class="cls-6" d="M85.36,53.96s-.72.72-.5-.08c.06-.21.21.18.5.08Z"/>
              <path class="cls-14" d="M30.61,29.46c.14-.08.43.23.42.25-.13.28-.79-.02-.42-.25Z"/>
              <path class="cls-13" d="M35.28,51.96c.51-.2.83.67.17.17-.02-.01-.43-.06-.17-.17Z"/>
              <path class="cls-10" d="M52.44,53.63c.63-.09-.05.69-.25.25,0-.02.23-.25.25-.25Z"/>
              <path class="cls-13" d="M69.61,17.29c.1.01.25.69-.17.67-.07,0,.13-.67.17-.67Z"/>
              <path class="cls-10" d="M54.19,55.13c-.05-.03-.51.02-.33-.25.47-.73.32.22.33.25Z"/>
              <path class="cls-13" d="M78.45,49.13c.11-.03.23,0,.25.08.15.57-1.15.19-.25-.08Z"/>
              <path class="cls-10" d="M31.28,27.96c.16-.1.33.04.17.33-.23.42-.39-.2-.17-.33Z"/>
              <path class="cls-10" d="M52.11,55.3c.09-.03.38-.03.42.08.08.27-1.23.19-.42-.08Z"/>
              <path class="cls-17" d="M47.78,54.13s.24.66.17.67c-.41.02-.27-.66-.17-.67Z"/>
              <path class="cls-6" d="M28.53,62.63s.04-.37.83-.08c-.23.19-.74.02-.83.08Z"/>
              <path class="cls-16" d="M22.28,39.8c.16-.02.4.6.17.67-.04.01-.37-.65-.17-.67Z"/>
              <path class="cls-13" d="M67.61,59.13c.29-.09.54.68.17.5-.05-.02-.28-.47-.17-.5Z"/>
              <path class="cls-16" d="M68.36,57.13s-.29-.03-.17-.25c.67-1.14.15.2.17.25Z"/>
              <path class="cls-10" d="M27.78,52.8c.08-.03.59.22.58.25-.08.32-.88-.15-.58-.25Z"/>
              <path class="cls-17" d="M21.86,48.3v.17c-.57-.31-.7-.81,0-.17Z"/>
              <path class="cls-17" d="M66.11,18.79c.32.08-.15.88-.25.58-.03-.08.22-.59.25-.58Z"/>
              <path class="cls-1" d="M35.78,57.96c.06-.04.37-.03.42.08.13.27-.96.28-.42-.08Z"/>
              <path class="cls-10" d="M35.69,57.3c-.46-.63.51-.13.5-.08-.02.12-.37.1-.5.08Z"/>
              <path class="cls-6" d="M25.03,46.13c.05,0,.11-.01.17,0l.33.42c-.5.27-.47-.39-.5-.42Z"/>
              <path class="cls-13" d="M87.11,52.3s.34.24.17.33c-.43.23-.48-.3-.17-.33Z"/>
              <path class="cls-14" d="M32.44,21.46c.13,0,.13.67,0,.67s-.13-.67,0-.67Z"/>
              <path class="cls-10" d="M63.28,20.29c.28.03-.15.67-.25.42-.06-.17.22-.42.25-.42Z"/>
              <path class="cls-18" d="M68.95,19.13c.13,0,.13.67,0,.67s-.13-.67,0-.67Z"/>
              <path class="cls-14" d="M86.45,48.96c.28.03-.15.67-.25.42-.06-.17.22-.42.25-.42Z"/>
              <path class="cls-6" d="M77.11,61.3c.43-.23.48.3.17.33-.02,0-.34-.24-.17-.33Z"/>
              <path class="cls-10" d="M35.94,61.63c.17-.06.42.22.42.25-.03.28-.67-.15-.42-.25Z"/>
              <path class="cls-13" d="M54.86,54.13c-.08.1.16.82-.33.25.19-.26.33-.23.33-.25Z"/>
              <path class="cls-13" d="M33.61,40.3s.31.25.25.42c-.1.26-.53-.39-.25-.42Z"/>
              <path class="cls-1" d="M28.11,47.8s.31.25.25.42c-.1.26-.53-.39-.25-.42Z"/>
              <path class="cls-13" d="M74.36,55.46s-.09-.27.25-.5c.29.32-.25.47-.25.5Z"/>
              <path class="cls-17" d="M72.45,57.63c.11-.05.58-.01.58.08,0,.19-.91.07-.58-.08Z"/>
              <path class="cls-6" d="M80.28,55.3c.25-.1.37.25.17.33-.25.1-.37-.25-.17-.33Z"/>
              <path class="cls-13" d="M23.94,44.96s.31.25.25.42c-.1.26-.53-.39-.25-.42Z"/>
              <path class="cls-17" d="M25.78,32.46s.31.25.25.42c-.1.26-.53-.39-.25-.42Z"/>
              <path class="cls-13" d="M28.19,31.63s-.4-.32-.25-.5l.25.5Z"/>
              <path class="cls-14" d="M29.44,30.29c.13,0,.13.67,0,.67s-.13-.67,0-.67Z"/>
              <path class="cls-13" d="M70.45,57.96c.25-.1.37.25.17.33-.25.1-.37-.25-.17-.33Z"/>
              <path class="cls-13" d="M27.28,28.29c.17-.06.42.22.42.25-.03.28-.67-.15-.42-.25Z"/>
              <path class="cls-13" d="M77.78,43.8c.28.03-.15.67-.25.42-.06-.17.22-.42.25-.42Z"/>
              <path class="cls-6" d="M31.28,27.29c.25-.1.37.25.17.33-.25.1-.37-.25-.17-.33Z"/>
              <path class="cls-6" d="M71.36,55.8c.15,0,.17-.15.33-.17-.02.83-.05.4-.33.17Z"/>
              <path class="cls-6" d="M21.86,48.46v-.17c.25.23.54.46,0,.17Z"/>
              <path class="cls-6" d="M86.28,40.8h.17l.08.08-.08.08-.08.08-.08.08-.08-.08v-.17l.08-.08Z"/>
              <path class="cls-10" d="M77.28,44.46l.08.08v.17l-.08.08h-.17l-.08-.08.08-.08.08-.08.08-.08Z"/>
              <path class="cls-13" d="M75.28,61.3c.13,0,.13.5,0,.5s-.13-.5,0-.5Z"/>
              <path class="cls-10" d="M69.45,63.63l.08.08.08.08.08.08-.08.08h-.17l-.08-.08v-.17l.08-.08Z"/>
              <path class="cls-10" d="M79.28,61.13h.17l.08.08v.17l-.08.08-.08-.08-.08-.08-.08-.08.08-.08Z"/>
              <path class="cls-13" d="M63.53,14.79c-.04.07.12.39-.25.33l.25-.33Z"/>
              <path class="cls-16" d="M77.45,62.46l.08.08.08.08.08.08-.08.08h-.17l-.08-.08v-.17l.08-.08Z"/>
              <path class="cls-13" d="M40.53,64.3c.1.06.34-.4.33.08-.13.17-.32.13-.33-.08Z"/>
              <path class="cls-18" d="M64.45,17.46h.17l.08.08-.08.08-.08.08-.08.08-.08-.08v-.17l.08-.08Z"/>
              <path class="cls-13" d="M39.28,48.8l.08.08.08.08.08.08-.08.08h-.17l-.08-.08v-.17l.08-.08Z"/>
              <path class="cls-6" d="M57.61,49.46h.17l.08.08v.17l-.08.08-.08-.08-.08-.08-.08-.08.08-.08Z"/>
              <path class="cls-18" d="M25.78,42.96l.08.08.08.08.08.08-.08.08h-.17l-.08-.08v-.17l.08-.08Z"/>
              <path class="cls-18" d="M69.45,18.29c.13,0,.13.5,0,.5s-.13-.5,0-.5Z"/>
              <path class="cls-10" d="M86.45,52.96l.08.08v.17l-.08.08h-.17l-.08-.08.08-.08.08-.08.08-.08Z"/>
              <path class="cls-13" d="M81.53,58.13s-.32.83-.33.08c0-.13.33-.07.33-.08Z"/>
              <path class="cls-13" d="M85.61,49.46h.17l.08.08-.08.08-.08.08-.08.08-.08-.08v-.17l.08-.08Z"/>
              <path class="cls-18" d="M37.44,21.13l.08.08.08.08.08.08-.08.08h-.17l-.08-.08v-.17l.08-.08Z"/>
              <path class="cls-1" d="M32.69,50.13l.08-.33.25.25-.33.08Z"/>
              <path class="cls-13" d="M59.78,51.13c.1-.05.42,0,.42.08,0,.19-.71.06-.42-.08Z"/>
              <path class="cls-6" d="M22.61,42.13l.08.08.08.08.08.08-.08.08h-.17l-.08-.08v-.17l.08-.08Z"/>
              <path class="cls-6" d="M59.28,49.96h.17l.08.08-.08.08-.08.08-.08.08-.08-.08v-.17l.08-.08Z"/>
              <path class="cls-14" d="M66.95,61.96l.08.08.08.08.08.08-.08.08h-.17l-.08-.08v-.17l.08-.08Z"/>
              <path class="cls-10" d="M84.28,57.3h.17l.08.08-.08.08-.08.08-.08.08-.08-.08v-.17l.08-.08Z"/>
              <path class="cls-16" d="M78.95,61.46c.13,0,.13.5,0,.5s-.13-.5,0-.5Z"/>
              <g>
                <path class="cls-10" d="M60.03,19.29c-.39.7-.59,1.46-.67,2.25l1.5-1.5c.21.98-.59,6.83.75,6.75.78-.04-.08-6.6.83-1.67.28-.04-.62-2.95.75-3.42-.65,3.44-.84,3.9.67.42l-.08-1c-.29.39.16.77.08,1-.55,1.71-1.37-.56,1.08-3l-.33,1.83c1.23-3.82.41.62.08,2.25-.14.69.36.05.33.5-1.23,1.16-1.61,4.55-1,3.42-.13.55-.43,1.08-.25,1.5,2.08-2.91-.53,1.07,0,1.33.99-1.84,1.64-2.45,2.25-4.5.06-.09.26.29.33.08-.01-1.25-.03-1.09-.33-.08-1.29,1.87-1.5,1.37-.83-1.42.02-.08.88-1.07.83-1.33-.16-.87-1.02,1.37-1,.17,0-.19.79-3.1,1.42-3.42.49.24-2.2,4.3.25,1.83-.1.64-.94,1.88-.25,1.83.3-.72.37-1.46.75-2.17,1.03-1.93-.27,2.07-.33,2.42-.1,5.32.24-1.76,1.67-4-.18.93-1.16,5.07-.33,3.17.16-.37.46-2.42.58-2.42.63,2.31-1.02,3.08-1.08,3.25-.19.48-.14,3.08-1.33,2.83-.97,2.83-3.19,4.97-4.5,7.67-.17.34.6-.06.33.5-2.77,5.71-4.45,5.34-5.33,6.67l-2.75,5.42c-1.73-2.09-2.96-6.94-3.75-9.75.87,1.01,1.78,4.93,2,5.33.37.68.24-2.52.17-3-.26-1.73-1.19-2.8-1.33-3.33-.18-.66-.41-4.16.33-1.67.14.47.2,2.48.42,2.58,3.06-4.99,1.69-2.61,1.58-1.75-.04.29-.06,2.41.25,2.42l1-4.67c-.07,6.02.3,3.54.25-1.08h.33c-.32,3.08.59,1.09.83-.5.12-.78-.29-1.45-.17-2,.26-1.15.44.6.67.17-.07-2.43.21-4.87.75-7.25-.19.73-.15,9.96-.83,9.67.13-2.05-1.49,3.33-1.25,5.58-1.45-.21-2.28,2.1-2.33,3.17-.07,1.36,1.31-1.64,0,1-.23.55.4,4.64,1.08,4.42.52-1.1,1.49-2.5,1.92-3.58.14-.36,1.15-3.71,1.17-3.92,1.18-.78,1.01-1.25,1.58-2.5l-.5,3.67c.73-.78,1.72-1.52,2.08-2.58.49-1.44.8-6.7.58-1.75,1.23-1.22.79-5.49,1.17-5.5.95,4.1.68,1.03.42-1.25.81-.2.33-1.03.67-2,.45,1.02.36-.83.5-1.33.16-.57,1.19-3.31,1.17-3.5-.2-1.73-.89,1.56-1,1.83-.73,1.86-1.72,3.66-2.5,5.5l-2-4.67c-.25-.92.15-1.65-.5-3,1.25-3.34-.86,2.11-1.5.33.59-4.74.19,1.02.67-.83.49-1.9.82-3.84,1.33-5.75.73,1.78-2.9,8.53.58,3.83.16.03.04.35.08.5Z"/>
                <g>
                  <path class="cls-9" d="M52.94,35.63c.2.75.58,1.66.58,1.75-.02,2.6-1.73,1.21-.58-1.75Z"/>
                  <path class="cls-9" d="M60.45,20.96l-.17,4.17c-.5-1.46-.86-2.84.17-4.17Z"/>
                  <path class="cls-9" d="M66.7,21.29c.06-.06.49-.3.5-.33-.38.71-.45,1.44-.75,2.17-.69.05.15-1.19.25-1.83Z"/>
                  <path class="cls-9" d="M57.78,38.63c.12.12.11.42.08.58-.17.97-1.99,2.27-.08-.58Z"/>
                  <path class="cls-22" d="M66.11,23.63c.41.18-.86,3.21-.58,1.25.02-.13.41-.87.58-1.25Z"/>
                  <path class="cls-14" d="M63.86,22.13c.07-.23-.38-.61-.08-1l.08,1Z"/>
                  <path class="cls-22" d="M66.03,25.46c.3-1.01.32-1.16.33.08-.08.2-.27-.17-.33-.08Z"/>
                </g>
              </g>
              <g>
                <path class="cls-10" d="M81.2,35.13c-.04.1-1.39,1.16-1.5,1.58l.08.25c2.22-1.42.79-.13-.33.83-.1-1.35-.66,1.09-.5,1.17,3.09-3.95,1.47-.24.08.83.01-.12.04-.47-.08-.5-.78,1.05-.85,1.22.08.5-.03.29-4.23,6.2-2,3.58,1.25-1.47,3.02-5.25,1.67-1.42-1.08.88-2.09,1.94-1.33,1.83-.41.67-.7,1.36-1,2.08l1.75-1.75c-.17,3.92.55-1.61,1.92-3.5-.17.32-.42,1.03-.5,1.42,2.09-2.87-.79,3.43,1.5-1.33l.75-.58c-1.01,2.38-4.17,7.62-6.33,9-1.61,1.03-6.11,2.37-.92.92l-2.25,1.08c.48.39-1.34,2.02-1.33.67-4.53,3.47,1.36-1.27,1.25-1.58-.04-.11-1.03-.08-.42-.58.93.44,2.19-1.22,3.67-1.83-4.5,3.57.36,1.02,1.58-.75.13-.19.89-1.43.58-1.58-4.47,3.36-3.78,3.45-1.17-.83-3.22,3.51.28-1.83.75-3.25.15-.46.41-3.65.75-3.58-.71,6.99.02,1.38,1.25-.92.37-.69,1.37-1.46,1.92-2.08.09,0,.12.22.08.33Z"/>
                <path class="cls-9" d="M79.03,39.8c-.93.72-.86.55-.08-.5.13.03.09.38.08.5Z"/>
                <path class="cls-9" d="M76.78,43.96c.28.03-.15.67-.25.42-.06-.17.22-.42.25-.42Z"/>
                <path class="cls-14" d="M72.78,49.8c.1-.01.22-.02.25.08.14.48-1,.02-.25-.08Z"/>
              </g>
              <path class="cls-9" d="M66.86,60.96s.64.13.83.25c-.3.44-.55.04-.83-.25Z"/>
              <g>
                <path class="cls-6" d="M75.2,56.8c-.96-.91-.2-2.02-.08-2,.3.04-.87,1.2,1.5,1.17-1.5-.22,1.83-2.09,2-2,.2.1-.11.97-.17,1-.23.14-1.28-.36-1.25.08.02.26.6.22.67.33.07.12-1.14,1.17.83,1.33-.49-.88.41-2.53,1.17-3.33-.03-.1-1.11.38-2,.58.44-.28,1.92-1.18,2.25-1.33.07-.03.05.46.33.33.84-.38,3.21-2.39.5.33-.05.05-.77.22-1.08.58,1.35,1.75.85-1.33,5.92-2.75.77.49-2.71.97-3.92,2.42.29.54,2.6-2.15,0,1,.67-.26,3.37-1,1,0,1.7.67-4.34-.36-3,1-2.74.82,1.24.2-1.5,1.5,1.27.86-2.31.87-2.33.67-.12-.91.65-.14.83-.33.03-.03-.28-.74.08-.75.3,0,.2.75.33.83.92.55.09-1.3,0-1.33-.27-.12-.94.49-1,.5-.67.09-.08-.43-.5-.5-.89-.15-.96.42-.58.67Z"/>
                <path class="cls-9" d="M76.78,55.46c.57-.27.92.56.17.17-.06-.03-.42-.05-.17-.17Z"/>
              </g>
              <path class="cls-1" d="M39.86,40.46c-.07.21-.36.05-.42.83.16-3.08.22-.88.42-.83Z"/>
              <path class="cls-15" d="M40.36,47.13l-.08.5c-.27-.5.08-.47.08-.5Z"/>
              <g>
                <path class="cls-10" d="M35.53,27.79c-.56-1.6-.33-1.99.08-3.67,2.32,4.73.1,1.36,1.92-1.25.03-.63-1.79-2.76.5-.33-.85,1.41-.18,3.13,0,4.67.63-1.64,1.41,5.38,1.08,5.42-.73-.66-2.42-3.41-2.08-4.08-1.51-.4-1.56-3.95-1.67-2.17,0,.07.15,1.33.17,1.42Z"/>
                <path class="cls-22" d="M37.11,24.79l1.33,4.67c-.52-.79-.58-2.12-1.42-2.25l.08-2.42Z"/>
                <path class="cls-9" d="M37.28,27.96c.22.25,1.92,3.22,1.5,3.33-.63-1.35-2.07-2.96-1.5-3.33Z"/>
                <path class="cls-9" d="M35.94,25.63c.33.18.92,1.92.67,2l-.67-2Z"/>
              </g>
              <g>
                <path class="cls-10" d="M51.69,29.63c.15.63,1.33,1.87.5,5.92-.43.35-.09-5.32-1-5.83.19,1.11.35,4.24-.25,1.58-.05,2.23-.39.65-.58,1.08-.24.54,1.24,3.71.58,4.92l-.58-3.08c-.24,3.98-.6-2.63-.92-2.75-.07-.03-.23.66-.75-.08-.48-3.5.25-1.08,1.42.92,1.36-2.16.22-2.87.25-5.08.22,1.23.67,1.59,1.33,2.42Z"/>
                <path class="cls-17" d="M50.11,33.29c.13,0,.13.67,0,.67s-.13-.67,0-.67Z"/>
              </g>
              <path class="cls-9" d="M45.69,38.8c-.22-.5-.27-.54-.5-1.17.86.44.47,1.1.5,1.17Z"/>
              <path class="cls-1" d="M62.86,16.29c-.05.07.09.38-.08.5-.27-.47.08-.47.08-.5Z"/>
              <path class="cls-1" d="M40.53,25.63c-.29.02-.8-.32-.58-.67.25.16.39.47.58.67Z"/>
              <path class="cls-9" d="M28.69,38.13c-.21-.06-.66-.44-.42-.67.5.38.4.63.42.67Z"/>
              <path class="cls-16" d="M51.69,57.46s-.28.03-.33-.08c-.48-1.05.66-.17.33.08Z"/>
              <path class="cls-1" d="M32.19,62.3s-1.05-.66-.08-.33c.15.05.06.33.08.33Z"/>
              <g>
                <path class="cls-10" d="M81.53,45.63c.69-.69.66-1.57,1.42-2.33.06-.06,1.41-1.01,1.5-1,1.1.09-2.06,3.83-2.92,3.33Z"/>
                <path class="cls-8" d="M83.95,42.96c.72.13-1.09.82-1.17,2-.42-.91.68-1.37,1.17-2Z"/>
              </g>
              <g>
                <path class="cls-10" d="M28.61,42.8c.58.72,2.44,2.04,2.75,2.58,1.82,3.2-3.71-1.96-2.75-2.58Z"/>
                <path class="cls-1" d="M29.44,43.96c.17-.06.42.22.42.25-.03.28-.67-.15-.42-.25Z"/>
              </g>
              <path class="cls-9" d="M27.36,41.63c-.36.03-.45-.22-.67-.42.35-.26.52.26.67.42Z"/>
              <g>
                <path class="cls-10" d="M43.44,61.46c.3-.32,3.25,2.01,2.67,3.33-.96-.58-1.16-2.26-1.5-2.17-.27.07.26.56,0,.67-.1.04-1.61-1.32-1.58-1.42.08-.27.44.15.58.08.24-.11-.35-.31-.17-.5Z"/>
                <path class="cls-1" d="M44.11,61.96s.31.25.25.42c-.1.26-.53-.39-.25-.42Z"/>
              </g>
              <path class="cls-9" d="M32.86,34.96c.2.28.65.78.67.83,1.05,2.39-.76-.05-1-.75l.33-.08Z"/>
              <g>
                <path class="cls-10" d="M25.28,43.63c.44.35,1.11.36,1.42.92.51.92-.3.27-.33.5-.02.16,1.88,1.37,1.58,2.42-.05-.84-3.54-3.23-2.67-3.83Z"/>
                <path class="cls-9" d="M25.61,44.3c.18-.06.6.38.58.42-.11.31-.8-.35-.58-.42Z"/>
              </g>
              <g>
                <path class="cls-10" d="M40.78,60.63c1.09.1,4.75,4.58-.75.25,1.08.42.54-.27.75-.25Z"/>
                <path class="cls-9" d="M40.94,61.3c.13-.05.76.34.75.42-.05.27-1.04-.31-.75-.42Z"/>
              </g>
              <path class="cls-15" d="M33.03,42.46l.58.67c-.6-.12-.55-.59-.58-.67Z"/>
              <path class="cls-9" d="M25.69,37.46s.69.57.58.83c-.51-.01-.51-.72-.58-.83Z"/>
              <path class="cls-9" d="M34.69,48.3s-.43-.25-.5-.42l.5.42Z"/>
            </g>
          </g>
        </g>
        <path class="cls-6" d="M75.86,52.46c-.47.34-1.45.95-2,.92l2-.92Z"/>
      </g>
      <path class="cls-22" d="M37.11,16.29c.33-.09.33.43.17.5-.06.03-.42-.43-.17-.5Z"/>
    </g>
  </g>
</svg>