<?xml version="1.0" encoding="UTF-8"?>
<svg id="Ebene_2" data-name="Ebene 2" xmlns="http://www.w3.org/2000/svg" viewBox="0 0 85.98 97.58">
  <defs>
    <style>
      .cls-1 {
        fill: #d4801b;
      }

      .cls-1, .cls-2, .cls-3, .cls-4, .cls-5, .cls-6, .cls-7, .cls-8, .cls-9, .cls-10, .cls-11, .cls-12, .cls-13, .cls-14, .cls-15, .cls-16, .cls-17, .cls-18, .cls-19, .cls-20, .cls-21, .cls-22, .cls-23, .cls-24, .cls-25, .cls-26, .cls-27, .cls-28, .cls-29, .cls-30, .cls-31, .cls-32, .cls-33, .cls-34, .cls-35, .cls-36, .cls-37, .cls-38, .cls-39, .cls-40, .cls-41, .cls-42, .cls-43, .cls-44, .cls-45, .cls-46, .cls-47, .cls-48, .cls-49, .cls-50, .cls-51, .cls-52, .cls-53, .cls-54, .cls-55, .cls-56, .cls-57, .cls-58, .cls-59, .cls-60, .cls-61, .cls-62, .cls-63, .cls-64, .cls-65, .cls-66, .cls-67, .cls-68, .cls-69, .cls-70, .cls-71, .cls-72, .cls-73, .cls-74, .cls-75, .cls-76, .cls-77, .cls-78, .cls-79, .cls-80, .cls-81, .cls-82 {
        stroke-width: 0px;
      }

      .cls-2 {
        fill: #dedddd;
      }

      .cls-3 {
        fill: #979898;
      }

      .cls-4 {
        fill: #fefefe;
      }

      .cls-5 {
        fill: #040405;
      }

      .cls-6 {
        fill: #619094;
      }

      .cls-7 {
        fill: #1b1c17;
      }

      .cls-8 {
        fill: #414141;
      }

      .cls-9 {
        fill: #ffe88c;
      }

      .cls-10 {
        fill: #525152;
      }

      .cls-11 {
        fill: #263b41;
      }

      .cls-12 {
        fill: #98989a;
      }

      .cls-13 {
        fill: #dcdbdc;
      }

      .cls-14 {
        fill: #bab8b9;
      }

      .cls-15 {
        fill: #2f2f2c;
      }

      .cls-16 {
        fill: #e14b41;
      }

      .cls-17 {
        fill: #d9dbdb;
      }

      .cls-18 {
        fill: #f49525;
      }

      .cls-19 {
        fill: #8a8c89;
      }

      .cls-20 {
        fill: #f9d483;
      }

      .cls-21 {
        fill: #7b7c75;
      }

      .cls-22 {
        fill: #9f6115;
      }

      .cls-23 {
        fill: #d0cfcf;
      }

      .cls-24 {
        fill: #4c7e82;
      }

      .cls-25 {
        fill: #c3c2c2;
      }

      .cls-26 {
        fill: #ef7e38;
      }

      .cls-27 {
        fill: #b0afaf;
      }

      .cls-28 {
        fill: #b7b7b7;
      }

      .cls-29 {
        fill: #72a1a6;
      }

      .cls-30 {
        fill: #090a09;
      }

      .cls-31 {
        fill: #8d4114;
      }

      .cls-32 {
        fill: #fce9ce;
      }

      .cls-33 {
        fill: #1b1819;
      }

      .cls-34 {
        fill: #091916;
      }

      .cls-35 {
        fill: #f3bd2c;
      }

      .cls-36 {
        fill: #050f15;
      }

      .cls-37 {
        fill: #646968;
      }

      .cls-38 {
        fill: #ede8aa;
      }

      .cls-39 {
        fill: #d4332e;
      }

      .cls-40 {
        fill: #36666b;
      }

      .cls-41 {
        fill: #f9b334;
      }

      .cls-42 {
        fill: #b93818;
      }

      .cls-43 {
        fill: #c42c33;
      }

      .cls-44 {
        fill: #9d9d9d;
      }

      .cls-45 {
        fill: #9f5718;
      }

      .cls-46 {
        fill: #294f54;
      }

      .cls-47 {
        fill: #828386;
      }

      .cls-48 {
        fill: #0d2d31;
      }

      .cls-49 {
        fill: #c0870f;
      }

      .cls-50 {
        fill: #fdeb3e;
      }

      .cls-51 {
        fill: #62270c;
      }

      .cls-52 {
        fill: #eee;
      }

      .cls-53 {
        fill: #4b5454;
      }

      .cls-54 {
        fill: #17262b;
      }

      .cls-55 {
        fill: #cbe8f3;
      }

      .cls-56 {
        fill: #ecd425;
      }

      .cls-57 {
        fill: #a6a6a6;
      }

      .cls-58 {
        fill: #140c07;
      }

      .cls-59 {
        fill: #f5b265;
      }

      .cls-60 {
        fill: #b0d6da;
      }

      .cls-61 {
        fill: #282414;
      }

      .cls-62 {
        fill: #706e6f;
      }

      .cls-63 {
        fill: #e8652e;
      }

      .cls-64 {
        fill: #909191;
      }

      .cls-65 {
        fill: #041c25;
      }

      .cls-66 {
        fill: #6d7d7d;
      }

      .cls-67 {
        fill: #b24917;
      }

      .cls-68 {
        fill: #9e9f9e;
      }

      .cls-69 {
        fill: #fdfdfd;
      }

      .cls-70 {
        fill: #78170e;
      }

      .cls-71 {
        fill: #586f6f;
      }

      .cls-72 {
        fill: #a81927;
      }

      .cls-73 {
        fill: #fad6a4;
      }

      .cls-74 {
        fill: #2d2d32;
      }

      .cls-75 {
        fill: #931e14;
      }

      .cls-76 {
        fill: #ffd15a;
      }

      .cls-77 {
        fill: #99a7a3;
      }

      .cls-78 {
        fill: #92b6ba;
      }

      .cls-79 {
        fill: #521010;
      }

      .cls-80 {
        fill: #d4ccbc;
      }

      .cls-81 {
        fill: #626060;
      }

      .cls-82 {
        fill: #878988;
      }
    </style>
  </defs>
  <g id="_1._Evalstufe" data-name="1. Evalstufe">
    <g>
      <g>
        <g>
          <path class="cls-17" d="M42.6,9.48c.04.39-.21.32-.22.34-.03.02-.05.15-.2.17l.42-.5Z"/>
          <path class="cls-28" d="M41.97,10.35s-.05.03-.08-.13c0-.04,0-.22,0-.27,0-.02.05-.18.06-.18.15-.14-.07.31.03.57Z"/>
        </g>
        <g>
          <path class="cls-69" d="M48.57,13.15l-.06-.08c.13-.05.23-.26.18-.28l-.29.25c-.08-.12.24-.35.36-.45.02-.02.04-.04.06-.06l.18-.11c-.22.57.28-.26.13.21-.09.27-.34.4-.56.52Z"/>
          <path class="cls-7" d="M48.52,13.06s-.09.01-.11-.03l.29-.25s-.05.23-.18.28Z"/>
          <path class="cls-30" d="M47.96,10.44c.12.16,1.26.75,1.26.83,0,.01-.15.17-.17.21-.09-.09-.21-.15-.34-.17-.02-.05-.06-.01-.08-.04.79-.08.04-.12-.13-.21-.07-.04-.13-.33-.35-.25-.07-.15-.21-.25-.28-.39.06,0,.06.03.08.03Z"/>
          <path class="cls-28" d="M50.13,11.39c.11-.04.09.25-.03.22-.08-.02.02-.22.03-.22Z"/>
          <path class="cls-30" d="M46.25,10.21c.44.41.88.82,1.37,1.16-.02.06-1.07-.61-1.13-.66-.22-.17.22.06.03-.11-.03-.03-.33-.23-.32-.17-.53-.39.27.15-.22-.28.01,0-.02-.02.28.06Z"/>
          <path class="cls-30" d="M47.59,10.44c.77.41.54.66-.31-.06,0,0-.02-.08.07-.08.06.07.16.1.24.14Z"/>
          <path class="cls-30" d="M48.27,11.11s.03.03.03.03c-.05,0-.11,0-.17,0-.45-.19-.66.23-.62.04,0-.02.11-.1.14-.14-.21-.16.42,0,.62.07Z"/>
          <path class="cls-30" d="M47.94,10.88c.15-.02.21.16-.03.08-.07-.02,0-.08.03-.08Z"/>
          <path class="cls-81" d="M46.2,10.44c.27.2.11.15.04.08-.03-.03-.05-.04-.04-.08Z"/>
          <path class="cls-62" d="M47.9,11.92c.07-.05.2.01.2-.11.42.07.04.12-.01.14-.12.04-.15.22-.18-.03Z"/>
          <path class="cls-17" d="M47.5,12.36c.2-.04.32.14.11.2-.27.07.1-.07-.11-.2Z"/>
          <path class="cls-69" d="M47.69,11.97c.05-.02.05.15.04.21-.07.3-.14-.07-.04-.21Z"/>
          <path class="cls-17" d="M48.1,11.81c0,.12-.12.06-.2.11-.01-.11.06-.13.2-.11Z"/>
          <path class="cls-19" d="M48.14,12c.12-.04.09.14.08.14-.01,0-.24-.09-.08-.14Z"/>
          <path class="cls-53" d="M48.06,12.28c.15,0,.02.16-.03.2-.03-.02,0-.2.03-.2Z"/>
          <path class="cls-28" d="M48.06,12.56s0,.14-.01.15c-.09.18-.16.11.01-.15Z"/>
        </g>
      </g>
      <g>
        <g>
          <path class="cls-7" d="M59.76,12.48c.07.03.05.1.21.08.16-.01.19-.17.43-.17-.22.23.03.08.04.08.26.16-.42.12-.52.14-.27.07.12.38.31.32-.22.16-.39-.17-.28.1l-.34.08s-.06-.12-.1-.14c-.02,0-.2.11-.29-.17-.01-.04.03-.13-.03-.2.06,0,.27-.19.31-.25.18-.03.08.1.13.14.03.03.12-.03.13-.03Z"/>
          <path class="cls-69" d="M60.46,12.39c.05.08.12.16.22.14-.2.3.19.46-.34.31.03-.13-.17-.12-.34-.17-.02-.01-.1.03-.08-.06.09-.02.78.03.52-.14-.01,0-.26.14-.04-.08.02,0,.04,0,.06,0Z"/>
          <path class="cls-69" d="M59.17,13.46c-.18.13-.36-.22-.56-.38,0-.06.04-.03.06-.04.03-.02,0,.05.14-.08.11.13.4.37.36.5Z"/>
          <path class="cls-30" d="M59.96,13.04c.08.19.25.39.48.27-.23.35-.59-.03-.81-.18l.34-.08Z"/>
          <path class="cls-30" d="M60.35,12.84c-.22-.06-.17-.07-.34-.17.16.05.36.04.34.17Z"/>
          <path class="cls-69" d="M59.51,11.86s-.02-.09-.22.17c.05-.35.07-.59-.52-.28v-.04c.11-.11.58-.36.7-.21.75-.35-.38-.07-.08-.34.31-.28,1.26-.46,1.69-.32-.34.3-.75.48-1.13.71-.05.03-.12.13-.17.17-.01,0-.12-.02-.2.03-.04.03-.06.11-.07.11Z"/>
          <path class="cls-30" d="M56.64,12.17c.52.07.15.24.39.39,0,0,.27,0,.11.06-.19.06-.22-.19-.39-.17-.02,0-.05.09-.41.1.11.17.42-.05.46-.04.27.06-.65.3-.81.31-.51.02-.07-.09.24-.21-.79,0-.26-.2.48-.36l-.07-.07Z"/>
          <path class="cls-15" d="M55.66,12.81c.13,0,.3.2-.15.13-.03-.04.14-.13.15-.13Z"/>
          <path class="cls-30" d="M58.21,11.81s.02.09.01.13c-.03.18-.25.25-.01-.13Z"/>
          <g>
            <path class="cls-10" d="M59.51,11.86s0,.04.03.06c0,0,.03,0,.06,0,0,.07-.05.4-.08.45-.04.07-.25.24-.31.25-.06,0-.11-.05-.11-.06.18-.03.13-.09.14-.17.23.12.2-.5.07-.08l-.07-.06c.03-.15.05-.21.06-.22.2-.26.21-.16.22-.17Z"/>
            <path class="cls-69" d="M59.23,12.39s0-.1,0-.14l.07.06c.13-.42.16.21-.07.08Z"/>
            <path class="cls-12" d="M59.59,11.92s-.05,0-.06,0c0-.03.04-.07.07-.06.06.03-.01.05-.01.06Z"/>
            <path class="cls-17" d="M59.47,12.17s.02.13,0,.17c-.07.1-.05-.2,0-.17Z"/>
          </g>
        </g>
        <g>
          <g>
            <g>
              <path class="cls-17" d="M59.68,1.6c-.04.09-.06.08-.14.06,0-.15-.05-.04-.11.08-.07-.02-.08-.12-.13-.14,0,0-.16.1-.04-.01l-.2-.15s.03-.06.04-.08c.19-.03.38.19.7-.08-.05.18-.12.13-.13.34Z"/>
              <path class="cls-12" d="M59.54,1.65c0,.22-.28.42-.11.08.06-.12.12-.23.11-.08Z"/>
            </g>
            <path class="cls-10" d="M59.51,2.13c-.2.18-.12.09-.2-.03.03-.04.17,0,.2.03Z"/>
          </g>
          <path class="cls-8" d="M59.59,2.58s-.11-.09-.11-.14c.09-.02.11.06.11.14Z"/>
          <path class="cls-54" d="M57.66,9.29c.09.01.19.06.28.08.06.02.26.14.32.11,0,0-.03-.12.03-.11.02,0-.03.04.27.17,0,0-.01.05.01.06.03.01.69.19.59.06.16.09.64.05.76.08.03,0,.15.16.29.2-.02.13.31.27.42.28.18.2-.18.02-.24.06-.05.03.02.09.01.1-.07.09-.33-.18-.35-.18-.08,0,.06.22-.39-.14-.23.19-1.16-.62-.55.01-.04.08-.79-.43-.87-.34-.02.03.28.32-.46-.1.25.56-.25-.1-.49-.18l.06-.08c-.24-.09.24-.08.31-.07Z"/>
          <path class="cls-8" d="M63.82,9.29c-.01.07.1.1.14.11v.03c.03.15.21.21.22.22.01.01-.03.04-.03.04.18.19.41.4.67.49.1.05.12.08.13.08.02,0,0-.04.04-.06l.25.22s.03.07-.07.06c-.02,0-.27-.12-.34-.14-.51-.12-1.7-.37-1.08-.42.17.1-.13-.32-.15-.34-.26-.2-1.3-.28-1.66-.39,0,0,.01-.04.04-.06.03-.01.12.11.21-.08.05.01.33.09.35.08.03-.01.03-.16.1-.17.47.19.67.26,1.17.31Z"/>
          <path class="cls-46" d="M59.9,9.26c.22.05,1.1.17,1.09,0,.33.2.86.32,1.12.67-.36-.01-.87-.41-.84-.2-.05.02-.76-.31-.88-.34-.37-.07-.03.14.01.22-.23.04-.38-.04-.62-.11-.19-.06-.39-.14-.59-.2,0,0-.01-.07-.08-.06.45-.33.74-.01.78,0Z"/>
          <path class="cls-15" d="M63.76,9.93c-.7-.28-1.45-.39-2.15-.66,0-.03.18-.03.34-.07.36.11,1.4.19,1.66.39.02.01.32.44.15.34Z"/>
          <path class="cls-15" d="M63.59,9.09c.09.08.23.1.34.14.04.02.03.03.03.03l-.03.06c-.09,0-.1-.03-.11-.03-.51-.05-.71-.12-1.17-.31-.43-.17-.73-.22-.7-.39,0-.04.06-.09.06-.14.41.12,1.27.57,1.59.64Z"/>
          <path class="cls-54" d="M62.11,9.93v.06c-.21.06-.32.02-.52,0,.3.24-.1.1-.39.14-.01,0,0,.18-.18.03-.03-.02-.07-.18-.06-.22.09-.24.48.01.31-.2-.03-.21.48.18.84.2Z"/>
          <path class="cls-15" d="M62.64,8.98c-.07,0-.06.16-.1.17-.02,0-.3-.07-.35-.08-.14-.04-.72-.23-.59-.34.03-.02.05-.03.08-.06,0,0,.03,0,.03-.03.14.05.12.03.22-.06-.04.17.27.22.7.39Z"/>
          <path class="cls-11" d="M58.95,9.26c-.12,0-.17.06-.18.06-.29,0-.54-.06-.83.06-.09-.02-.19-.07-.28-.08-.14-.06.04-.11.03-.13-.03-.05-.25-.01.03-.13.19,0,.39.21.39-.03.28.1.04.2.46.17.04.25.24-.03.38.08Z"/>
          <path class="cls-11" d="M56.8,8.65c.15.33-.23.23.11.39.47.5-.25-.08,0,.27-.02.05-.43-.29-.48-.35.07-.08.04-.08.06-.17.05-.31-.14-.21.25-.07l-.15-.27c.06.02.19.15.21.2Z"/>
          <path class="cls-30" d="M60.96,9.93s.03.2.06.22c-.23.18-.33-.14-.39.06-.11,0-.44-.15-.42-.28.06.01.24,0,.31-.03.01.02.08.03.08.04,0,.02-.08.32.07-.04.25.11.14-.11.29.03Z"/>
          <path class="cls-46" d="M56.24,8.53h.06s.05-.02.08.04c0,.03-.21-.08,0,.13-.17.09,0,.1-.01.14-.2.16-.18-.09-.24.06-.13-.09-.22-.17-.34-.28.08-.08.19.06.21.06.1-.03-.08-.21.24-.14Z"/>
          <path class="cls-40" d="M56.24,8.53c-.32-.07-.14.11-.24.14-.02,0-.13-.14-.21-.06-.03-.03-.08-.06-.11-.08,0,0-.04-.03-.11-.14.42.09.51-.16.67.14Z"/>
          <g>
            <path class="cls-30" d="M56.88,2.21c.14.09.26.07.43.11-.26.26.04.1.08.11.02,0,.2.16.32.22.14.08.28.21.36.11.29.4-.04-.23-.15-.31-.34-.15-.61-.3-1.02-.25-.12-.13,0-.11,0-.13.04-.33-.24-.06-.2-.22.23-.07.2.02.24.01.03,0,.45-.27.39-.11-.57.24-.2.17-.18.21,0,.01-.15.13.13.07,0,0,.1-.17.04-.01.11.05.29-.37.2.11.18.13.27-.16.42-.13-.01.03-.07.13-.06.15,0,.02.37.22.41.21.01,0,.16-.14.18-.17l-.07.14c.21,0,.67.52.43.07.42-.04-.18-.12.06-.14-.07-.07-.16-.09-.17-.1.17-.08-.1-.29.14-.11.07.16.31.52.42.7-.29.07-.05.19-.13.22-.4-.24-.08.11-.1.13-.06.07-.18-.14-.21.27-.07,0-.1-.46-.1-.01-.16.02-.03.08-.06.14-.01.03-.19-.07-.06.07-.34.08-.3.53-.24.56.05.02.05-.09.08-.08.05,0,0,.49.29-.39.09.05.05.09.1.08.09-.37.41-.44.57-.73.29.43.62.75.62.8,0,.06-.48.35.01.1l.1.06c-.29.2-.65.29-.48.32-.22,0-.16.07-.17.07-.02,0-.16.01-.18.03-.03.03.05.06.04.07-.02.05-.07-.03-.1-.01-.01,0-.02.08-.06.08-.06.01-.26-.01-.42.03-.19.05-.34.24-.56.14-.13.15-.73.33-.57.53-.11.17.08.18.13.34.11-.14.36-.14.32-.25l.41-.31c.1,0-.06.09,0,.11.01,0,.07-.04.18-.06-.34.22-.36.32.1.28.01,0,.13-.15.27-.06,0,.02.04.04.03.06-.06.15.03.06.03.1,0,.04-.08-.02-.15.01-.03.01.05.06,0,.08-.09.04-.34-.21-.43-.1-.02.03.34.2-.2.03.14.13-.06,0-.27.01.09.24-.02.08-.03.08-.03.02,0,.1-.03.11,0,0-.04-.11-.06-.11-.11-.04-.09.13-.11.14,0,0-.07-.07-.1-.04,0,0-.06.16-.06.17.05.13.34-.04.38.1.1-.17.38,0,.62-.22.32.27.73-.08.87-.11.09-.02.05.07.11.06.18-.04.56-.18.7-.14.07.03.01.05.01.06-.29.04.11.12-.2.1.26.13-.06.15-.24.01-.13-.01-.19.08-.2.08-.06,0-.23-.19-.87.2l-.39-.11c-.18.1-.39.11-.57.17-.05.02-.07-.05-.08-.01-.01.05.16.12.08.01.28.19.98,1.04.94.73.34.16.25-.14.6-.29-.42-.06-.02,0,.13-.1.14-.11,0-.13.03-.17.02-.02.57-.25.55-.1,0,.07-.3.1-.32.15-.03.07.14.06.13.1-.02.07-.4,0,.03.22-.17-.02.04.31.15.32.28-.16.57.08.39-.31.16.15.24.14.46.11.15.12.63.62.78.27.13-.29-.15-.26-.17-.27.14-.18-.04-.08.06-.17.24-.03.25.25.42-.03.06-.03.08.25.08.27.03.06.2.19.27.27.11-.67-.13-.04-.21-.32,0,0,.05-.08.06-.1.17-.31.17.03.25.13.05.06.11-.19.06.2.34.39.58.86.89,1.27-.06.2-.45-.03-.74-.06-.46-.04.53.3.62.28.05-.01.1-.15.15-.17.08.1.23-.11-.01.36-.07.04-.62-.11-.74-.14-.47-.14-.7-.27-.06.03l.83.25c-.28.14.02,0,.17.25.03-.09.13-.13.18-.2.22.3-.02.34-.31.28-.32-.07-1.18-.53-1.59-.64-.03-.17-.23-.25-.36-.34-.08-.06-.17-.11-.25-.17.15-.24.41.31.6.2.23-.14-.08-.3-.18-.36-.01-.08.04-.05.06-.06,0,0,.1,0,.14-.11.08-.19-.03-.15-.08-.2-.01-.01,0-.05-.11-.08.06-.14.18-.21.1-.25-.36.1-.53,0-.8,0-.2-.16-.2-.29-.46-.22-.04.03.33.13-.21.48-.1-.06.09-.1.11-.13,0,0-.04-.03-.03-.04,0,0,.09,0,.11-.1-.03-.12-.64-.2-.7-.01,0,0,.01.03-.17-.03-.04-.01-.07-.15-.18-.06-.27-.48-.09-.09-.06.14,0-.06-.24-.22-.25-.22-.36-.09-.02.16-.25.34-.06,0,.12-.35-.06-.31-.02,0-.27.33-.13.35-.05.13-.09-.06-.1-.07-.01,0-.04.19-.13-.13.6.04-.13-.46-.36-.2.18.05.54.65.66.63.08-.01,0-.2.13.03,0,0-.06,0-.01.06.02.03.58.44.62.45.34.06-.29-.42-.43-.5.06,0,.08,0,.11,0,.19.13.44.4.53.48.19.15.18.03.21.06.39.26.05.24.04.27-.03.05.95.56,1.02.63.09.02.13-.06.21-.08.02,0,.13-.05.14-.06.05-.02.09-.06.14-.08-.13.1.45.3.59.34-.09.2-.18.07-.21.08-.03.01-.04.06-.04.06-.16.04-.34.04-.34.07.7.26,1.45.38,2.15.66-.63.05.57.3,1.08.42.07.02.31.14.34.14.1.02.07-.05.07-.06.02-.01.31-.33.31-.35-.02-.08-.28-.03.14-.13.03,0,.06,0,.08,0-.04.08-.16.2-.22.29.1.09.29-.04.31-.04,0,0,0,.08,0,.08-.13-.03-.51.17-.5.29,0,.04.56.49.6.49.01,0,.22-.18.04.01.54.48,1.14.94,1.68,1.44.67.63.99.76.64,1.15-.29.11-.32.02-.55-.17.26.3-.05.64-.6.2-.31-.24-1.38-1.36-.55-.28-.37-.33-.69-.3-.6-.55.08-.22.77.08.01-.27l-1.68-1.45c-.4.03-.71-.26-1.09-.28-.34-.43-.83,0-.56-.28-.13.04-.16.07-.31.03l.11.14c-.76-.39-1.1.2-1.73.53-.53.28,0-.07.41-.32-.16.08-.92.43-.99.49-.24.18.18-.03.2-.03.04.02.08.31.11-.03.29.23,1.04-.29.36.25-.43-.13-1.03.26-.87.36.43-.49.48-.03.91.06.22.05.49.04.7-.03.09.25.53-.18.57-.17.12.03-.07.2-.07.21.04.15,1.39-.01.52.32-.42-.12-.31.32-1.03.03-.07.07-.22.08-.31.03-.04.06-.13.07-.18.11.03-.33.49-.06.56-.35-.22.08-.44.08-.67.07-.15,0-.25-.05-.42,0-.02-.12.11-.02.15-.14-.16-.09-.61-.12-.57.04.02.1.59.09-.13.15-.32-.37-.13-.25-.21.01-.01.05-.13-.09-.06.1,0,0-.09.05-.13.03-.05-.04.05-.17-.13-.14.03-.05.08-.37.08-.45,0,0,.07-.03.01-.06-.03-.01-.07.03-.07.06-.03-.02-.04-.01-.03-.06.01,0,.03-.08.07-.11.07-.05.18-.02.2-.03.05-.03.12-.14.17-.17.38-.23.79-.41,1.13-.71-.43-.14-1.38.05-1.69.32-.3.26.84-.02.08.34-.12-.15-.59.1-.71.21v.04c.6-.31.58-.07.53.28,0,.01-.03.08-.06.22,0,.04,0,.1,0,.14-.01.07.04.14-.14.17-.35-.18.07-.27-.21-.53-.08.02-.02.24-.38.18.58.48.16.1.1.38-.1-.31-.07.01-.07.03,0,0-.07,0-.08.04-.04.17.14.11.17.14.02.03-.06.12-.03.17.02.04.15-.03.08.07-.01,0-.07-.02-.06.04.2.16.38.5.56.38-.11.43-.64-.16-.69-.17,0,0,0,.09-.14.06-.17-.04-.25-.57-.22-.11-.11-.09-.16-.23-.18-.36,0-.03-.03-.23-.03-.24.06-.21.36-.05-.62-.11-.07-.1.56-.02.49-.18-.77.03-1.05.06-.36-.5.12.06-.23.23-.25.31.25.04.88-.14.91.04,0,.06-.39.32-.07.24.02,0,.13-.21.14-.25.11.06-.08.19.03.2.13,0,.09-.15.15-.21-.29-.01-.18-.12.08-.06-.26-.31-.17-.39.14-.52-.01.19.21,0,.25-.1-.03-.02-.12.05-.25.1,0-.04.48-.41.55-.45.69-.42,1.35-.4.25-.45-.24-.16-.34-.07-.39-.08-.36-.07-.5-.16-.62-.2-.03-.01-.06.05-.11.03-.05-.02-.77-.42-.98-.48-.69-.45-1.09-.76-1.58-1.43.04.02.08.05.11.08.11.11.21.18.34.28.05.03.15.16.29.22-.13-.31,0-.15.01-.17.04.06.46.4.48.35-.25-.34.47.23,0-.27.38.17.41.03.43.03.1,0,.06.06.08.06.13-.02.31-.22.29-.08-.28.11-.05.08-.03.13,0,.02-.17.06-.03.13-.07,0-.55-.02-.31.07l-.06.08c.24.09.74.74.49.18.74.42.44.12.46.1.08-.09.83.41.87.34-.62-.64.32.18.55-.01.45.36.31.15.39.14.02,0,.28.27.35.18,0,0-.07-.06-.01-.1.06-.04.42.14.24-.06.06-.2.17.12.39-.06.18.15.17-.03.18-.03.29-.04.69.1.39-.14.2.02.31.06.5,0v-.06c-.25-.36-.78-.47-1.1-.67-.44-.27-.86-.57-1.29-.87-.25-.17-1.07-.77-1.26-.92-.05-.04-.09-.07-.14-.11-.16-.13-.3-.4-.5-.45.08-.06.05-.19.28-.18-.26-.41-.28.29-.36-.28.29-.2.37.28.49.32.12.04.57-.04.24-.13-.09-.4-.27-.2-.29-.21-.01,0-.01-.19-.14-.25,0,0-.21.07-.07-.01-.3-.07-.53.15-.42.45-.02.08-.34.13-.14.46-.33.32-.02.24-.06.29-.01.02-.14-.05-.39.25-.03.03-.02.12-.03.13-.65.76-.85.49-.62.78h-.06c-.17-.3-.25-.05-.67-.14-.04-.07-.1-.13-.14-.2.03,0,.03-.03.06-.03.1.01.23.18.36.07-.27-.31.01.01.27-.01.05,0,.27-.12.32-.17.02-.02.04-.04.06-.06.13-.15.18-.12-.06-.32.34.2.52,0,.25-.22.61-.07.41-.44.42-.48,0-.01.05-.06.14-.27,0-.02.02-.04.03-.06.02-.04.49-.53-.03-.59-.03,0-.06.01-.06-.03.13-.06.14-.18.25-.25-.02.12-.15.28.1.17.17-.07.22-.4.06-.45-.05-.02-.42.07-.43.08-.04.03,0,.07-.11.17l-.03-.03c.18-.23-.25-.27-.5-.11-.01,0-.05-.03-.06-.03-.05-.06-.05-.13-.06-.14.02,0,.04,0,.06,0,.13.03.34-.02.49,0,.2-.39.21-.41.08.03.54.08.79-.27.35-.45v-.03s.05,0,.06-.01c.1-.37-.45-.31-.66-.27-.11.03-.25.14-.27.14-.1.03-.16.02-.17.03.06-.18-.09-.08-.1-.08-.01,0-.04-.13-.18-.18.04-.1.29.05.35.1.49-.32-.1-.29.06-.36.17-.08.18.34.53.03.04.08.17.03.24,0,.3-.14.05-.24.03-.28-.22-.47.27-.07.32-.08.02,0,.33-.16.2-.25.03-.02.19.13.43-.43-.22.14,0-.26,0-.28,0-.02-.42-.24-.43-.13-.37-.43-.86-.07-1.01-.03-.12.03-.24.03-.36.03,0,0-.05.06-.06.06-.04,0-.02-.29-.18-.04.08-.32-.13-.1-.15-.1,0,0-.03-.08-.06-.08-.03,0-.05.08-.06.08-.01,0-.14-.09-.22-.06-.06.03-.15.18-.22.14-.07-.04.12-.17,0-.2-.06-.01-.27.38-.27.41,0,.02.23.06.1.15-.21.16.02-.12-.11-.11-.03,0-.08.14-.08.14-.03-.01.02-.18-.13-.25-.05-.22.02-.17-.14-.27.21-.13-.82-.45-1.09-.77.54.02,1.87.59,1.97.59.07,0,.03-.04,0-.06-.21-.13-1.36-.43-.53-.39-.12-.03-.23-.05-.35-.08.38,0,.17-.09-.06-.15.38-.02.3-.32.73-.6l-.08.27c-.18-.2-.09.24-.25.36.22.29.19.05.21.04.03-.01.11.01.13,0,.11.25.45-.03.25-.21.15-.11.17.33.34.22-.08.21.04.1.06-.06.04-.06.33-.04.31-.31.31-.03-.04-.29-.38.21-.11,0,.22-.67.28-.45.31-.39-.02.07.06.11.11.04.34-.12.38-.04,0,0-.18.06-.06.14-.38.19.09.27-.43.43-.29.39.17-.15.42-.03.05.02.06.11.15.17Z"/>
            <g>
              <g>
                <path class="cls-69" d="M59.09,12.56s.05.06.11.06c.05.07.01.15.03.2-.08-.01-.32-.05-.34-.06-.12-.03-.23-.12-.36-.14,0-.02-.03-.34.07-.03.06-.28.48.1-.1-.38.36.05.3-.16.38-.18.28.26-.14.35.21.53Z"/>
                <path class="cls-69" d="M61.84,12.31c.45-.08.6.31-.07.04.02,0,.07-.04.07-.04Z"/>
                <path class="cls-17" d="M60.03,11.61c.26-.03-.23.06-.22.39-.06-.15.08-.37.22-.39Z"/>
                <path class="cls-69" d="M58.56,11.58c.13-.05.22-.12.25-.1-.04.1-.26.29-.25.1Z"/>
                <path class="cls-17" d="M58.96,11.3s0,.15-.01.18c-.09.19-.15.11.01-.18Z"/>
                <path class="cls-17" d="M59.16,11.3c.13,0-.11.15-.13.1,0-.01.12-.1.13-.1Z"/>
              </g>
              <g>
                <path class="cls-8" d="M66.98,12.56l-.08.03c-.54-.47-1.05-.97-1.59-1.44,0-.09.57-.32.03-.13-.09-.02-.09-.12-.06-.2.13-.28.48.27.55.34.85.77,1.71,1.52,2.56,2.28.05.14-.33-.12-.49-.24-.52-.39-2.21-2.06-2.35-2.13-.05-.02-.08-.05-.13.01.55.46,1.04.99,1.57,1.47Z"/>
                <path class="cls-12" d="M54.84,2.1c.12.03.23.05.35.08-.83-.03.33.26.53.39.03.02.07.05,0,.06-.1,0-1.43-.57-1.97-.59-.14-.17.05-.06.55-.17.76.1-.51.1.39.14.1.02.14.08.15.08Z"/>
                <path class="cls-54" d="M62.52,9.88c.64.17.16.1.18.21.48.16-.28.01.25.31l-.74-.07.34.2-.53-.06-.04-.04.55-.55Z"/>
                <path class="cls-8" d="M59.45,3.02c-.17.29-.48.35-.57.73-.05.01,0-.03-.1-.08-.02-.01-.13-.08-.14-.08-.14-.14.04-.04.06-.07.03-.06-.11-.12.06-.14,0-.44.03.02.1.01.03-.41.15-.19.21-.27.01-.02-.3-.37.1-.13.08-.04-.16-.15.13-.22.05.08.11.17.17.25Z"/>
                <path class="cls-11" d="M64.46,11.08l-.03.06c-.34-.24-.11-.04-.24,0-.04.01-.54-.31-.67-.36-.03-.01-.04.22-.35-.27.48-.29.24-.06.32.01.03.03.72.43.76.31.02,0,.16.21.21.25Z"/>
                <path class="cls-11" d="M64.82,10.52c.15.1.27.25.45.31-.03.07-.03.18.06.2-.59.02.03-.12-.35-.14-.01,0-.04.07-.08.06-.42-.29-.65-.26-.38-.45.06.06.25.09.31.03Z"/>
                <path class="cls-15" d="M58.78,3.67c-.29.88-.24.4-.29.39-.03,0-.04.1-.08.08-.06-.03-.1-.48.24-.56,0,0,.12.07.14.08Z"/>
                <path class="cls-15" d="M59.5,3.25c-.13.27.01.21.01.24,0,.05-.71.78-.73.48.01-.03.38-.58.13-.01l.59-.7Z"/>
                <path class="cls-17" d="M64.43,11.13l.03-.06c.16.13,1.33,1.07,1.31,1.16,0,.02-.04.04-.07.04-.09,0-.79-.81-1.27-1.15Z"/>
                <path class="cls-77" d="M61.1,7.08c-.05,0-.12,0-.17,0-.09.01-.22.05-.06.14,0,.02,0,.03-.03.03-.06,0-.07,0-.14.03-.07.03-.14.05-.14.14-.04-.03-.08-.08-.14-.08.54-.35.17-.45.21-.48.26-.07.26.06.46.22Z"/>
                <path class="cls-10" d="M66.89,12.59l.08-.03c.33.3.68.57,1.02.87-.38-.11-.79-.57-1.1-.84Z"/>
                <path class="cls-53" d="M62.67,7.72c.12.18.38.03.56.42-.61-.27-1.31-.6-.56-.42Z"/>
                <path class="cls-37" d="M62.59,7.44c.14.14.39.08.45.31-.24.04-.8-.44-1.05-.53.14-.03.42.18.6.22Z"/>
                <path class="cls-28" d="M63.51,8.2s.02.05.03.06c-.06.02-.1.15-.15.17-.08.02-1.07-.32-.62-.28.29.03.69.26.74.06Z"/>
                <path class="cls-28" d="M62.01,6.99c.23.03.44.16.67.08.15.05-.39.15.08.14-.26.1.21.28-.08.2-.04-.01-.55-.38-.67-.42Z"/>
                <path class="cls-11" d="M56.49,8.78c-.01.09.01.09-.06.17-.01.01-.15-.14-.01.17-.15-.06-.25-.19-.29-.22.06-.15.04.11.24-.06.02-.04-.15-.05.01-.14.03.03.08.06.11.08Z"/>
                <path class="cls-17" d="M63.23,8.14c-.18-.39-.44-.24-.56-.42.15.03.34.2.49.06.02.05.16.35.07.36Z"/>
                <path class="cls-17" d="M63.03,7.75c-.06-.23-.31-.16-.45-.31.42.11.18-.19.5.29h-.06Z"/>
                <g>
                  <path class="cls-56" d="M59.2,7.53c.14.08.77.57.43.5-.04,0-.59-.42-.62-.45-.04-.06.02-.05.01-.06.11-.04.16,0,.17,0Z"/>
                  <path class="cls-38" d="M61.91,7.41c.05.04.16,0,.08.2-.05-.16-.18-.13-.31-.2.02,0,.1-.07.22,0Z"/>
                </g>
                <path class="cls-37" d="M64.82,10.52c-.06.06-.25.03-.31-.03.22-.15.14-.08.31.03Z"/>
                <path class="cls-71" d="M58.07,6.83s.09.01.11.03c.21.14.4.62-.11-.03Z"/>
                <path class="cls-37" d="M62.78,8.48l-.06.03c-.65-.3-.42-.17.06-.03Z"/>
                <path class="cls-10" d="M62.04,7.81l.35.1c-.07.02-.39,0-.35-.1Z"/>
                <path class="cls-15" d="M59.16,4.09s.04,0,.04.04c-.55.51-.08-.04-.04-.04Z"/>
                <path class="cls-15" d="M57.93,4.25h.35s-.32.08-.35,0Z"/>
                <g>
                  <path class="cls-11" d="M58.08,2.77c-.12-.17-.4-.55-.36-.11-.12-.07-.3-.22-.32-.22-.05-.02-.35.15-.08-.11-.17-.04-.29-.02-.43-.11h.03c.41-.05.68.1,1.02.25.12.08.45.71.15.31Z"/>
                  <g>
                    <path class="cls-78" d="M58.73,2.18s.1.03.17.1c-.23.02.36.1-.06.14.23.45-.23-.08-.43-.07l.07-.14s.02,0,.03-.03c0-.02,0-.04,0-.06.21-.05.11-.01.22.06Z"/>
                    <path class="cls-78" d="M58.38,2.38c.17-.01.26.18.36.25.15.11.64.26-.11.14-.07-.01-.4-.15-.38-.24.02-.09.12-.01.14-.06,0-.01-.22-.08-.01-.1Z"/>
                  </g>
                  <path class="cls-7" d="M58.08,2.77c-.08.1-.22-.03-.36-.11-.03-.44.24-.05.36.11Z"/>
                  <path class="cls-12" d="M56.95,2.49c.09.03-.38.61-.66.07,0-.12.14.16.21.18.17.04.34-.14.45-.25Z"/>
                  <path class="cls-69" d="M57.24,4.39c-.05-.11,0-.11,0-.14.04-.07.1-.08,0-.08,0-.02.02-.03.03-.06.02.04.27.14-.03.28Z"/>
                  <path class="cls-69" d="M56.61,2.21c.08-.01.24.14-.06.08,0-.02.05-.08.06-.08Z"/>
                </g>
                <path class="cls-8" d="M59.36,3.83c.11,0-.05.14-.06.14-.05-.03.03-.14.06-.14Z"/>
                <g>
                  <path class="cls-29" d="M57.8,6.91s-.41.24-.42.17c-.2-.33.12-.38.14-.46-.11-.3.12-.52.42-.45-.14.08.06,0,.07.01.13.07.13.25.14.25.02,0,.2-.19.29.21.33.08-.11.17-.24.13-.12-.04-.2-.52-.49-.32.08.57.1-.13.36.28-.23-.01-.2.12-.28.18Z"/>
                  <path class="cls-29" d="M59.47,6.55c.32-.08.5.48.25.17-.21.09-.07,0-.17-.06-.05-.03-.32-.06-.08-.11Z"/>
                  <path class="cls-29" d="M57.71,5.96c.14-.05.23.16-.17.2.05-.05.16-.19.17-.2Z"/>
                  <path class="cls-66" d="M58.27,5.26s.04,0,.04.01c-.14.33-.12.02-.04-.01Z"/>
                  <path class="cls-37" d="M57.94,6.02c.07.1-.1.04-.08-.01.02-.03.03.03.08.01Z"/>
                </g>
              </g>
            </g>
          </g>
          <path class="cls-30" d="M63.66,8.45c.17.25.26.25.03.45.14-.32-.1-.18-.03-.45Z"/>
          <g>
            <path class="cls-40" d="M57.64,8.06s.03.06.11.07c.03.12,0,.15,0,.15-.11-.01-.17-.17-.24.11-.07-.05-.15.12-.32.13.5.03.41-.2.46-.21.36.27.11,0,.1-.03.41.06.12-.04.21-.08.02,0,.08.02.18-.03-.01.04.02.05.03.08,0,.02-.07.13.22.03.39.17.26.22.28.25.01.02.02.04.04.06.25-.11.11.05.24-.08,0,0,0,0,.03-.03.1-.02.29,0,.31-.14.14.06.27.04.42.06.42.3.84.6,1.29.87.01.17-.87.05-1.09,0-.1-.34-.07-.16-.1-.17-.6-.07-.58.03-.46-.11,0,0,.07.02.06-.04-.03-.03-.05.04-.06.04-.04,0-.07,0-.1-.03-.06.04-.1.22-.22.22-.19,0,.34-.23,0-.11.07-.22-.04.07-.53.08-.47-.23.41-.15-.15-.21.06-.16-.02-.07-.03-.07-.18-.04-.4-.07-.57-.11-.07-.02-.09-.08-.1-.08-.07-.02-.22-.08-.25-.08-.13-.02-.43.05-.59.06-.02-.04-.15-.18-.21-.2l.15.27c-.39-.14-.2-.24-.25.07-.04-.02-.08-.05-.11-.08-.21-.2,0-.09,0-.13-.04-.06-.08-.04-.08-.04-.24-.3-.03-.02.62-.78.25-.02.55.13.73.31Z"/>
            <path class="cls-54" d="M59.34,8.98c-.12.14-.14.05.46.11.03,0,0-.17.1.17-.04-.01-.33-.33-.78,0-.1-.02-.13,0-.17,0-.14-.11-.34.17-.38-.08-.42.04-.18-.06-.46-.17-.02,0-.07,0-.1,0-.03-.16.25.09.29-.14,0,0,.09-.09.03.07.56.06-.32-.02.15.21.49-.01.6-.3.53-.08.34-.12-.19.12,0,.11.13,0,.17-.19.22-.22.02.04.06.03.1.03Z"/>
            <path class="cls-54" d="M57.75,8.28s.27.3-.1.03c-.05.01.04.24-.46.21.17,0,.25-.18.32-.13.07-.29.13-.13.24-.11Z"/>
            <path class="cls-54" d="M57.68,8.42c.08-.02.05.16-.03.11-.04-.02,0-.11.03-.11Z"/>
            <path class="cls-54" d="M59.34,8.98s.02-.07.06-.04c.01.06-.05.04-.06.04Z"/>
          </g>
          <g>
            <path class="cls-24" d="M58.31,7.36c-.29.12-.07.3.14.11.19.15,1.01.75,1.26.92-.15-.01-.28,0-.42-.06-.14.05-.2.07-.31.14-.03.02-.02.02-.03.03-.15-.08-.12-.03-.28.03-.02-.03.11-.08-.28-.25-.09-.04-.12-.08-.22-.03,0-.03-.04-.04-.03-.08.57-.26-.12.06-.15-.11-.31.15.22-.26-.11-.06-.09,0,.17-.3-.15-.04.2.14.12.14-.08.1-.18-.18-.47-.33-.73-.31,0,0,0-.09.03-.13.26-.3.38-.23.39-.25.04-.06-.27.03.06-.29,0,.08.37-.14.42-.17.2.05.35.31.5.45Z"/>
            <g>
              <path class="cls-6" d="M58.31,7.36s.09.07.14.11c-.21.18-.43,0-.14-.11Z"/>
              <path class="cls-54" d="M58.14,8.17c-.1.05-.16.02-.18.03-.09.04.2.14-.21.08,0,0,.03-.03,0-.15-.08-.01-.07-.03-.11-.07.2.04.28.04.08-.1.32-.26.06.04.15.04.33-.21-.2.21.11.06.03.18.72-.15.15.11Z"/>
              <path class="cls-54" d="M58.95,8.51c-.13.13.01-.03-.24.08-.02-.01-.03-.04-.04-.06.16-.06.13-.11.28-.03Z"/>
              <path class="cls-54" d="M59.29,8.34c-.02.14-.21.12-.31.14.1-.07.17-.09.31-.14Z"/>
              <path class="cls-48" d="M58.39,8.28c-.3.1-.22,0-.22-.03.11-.05.13-.01.22.03Z"/>
              <path class="cls-34" d="M57.73,7.39c.44-.1.02.29-.41.18.3-.04.36-.17.41-.18Z"/>
              <path class="cls-65" d="M57.65,7.86s.07.04.07.04c.02.09-.19-.03-.07-.04Z"/>
            </g>
          </g>
          <path class="cls-11" d="M59.2,9.32c.19.05.39.14.59.2.04.14.45.21.59.28.08.05.08.04.14.11-.07.04-.24.04-.31.03-.14-.03-.27-.19-.29-.2-.11-.03-.6,0-.76-.08.1.13-.56-.04-.59-.06-.03,0-.01-.05-.01-.06-.07-.26.09-.09.18-.11-.02-.15.36-.04.46-.11Z"/>
          <path class="cls-30" d="M59.12,9.26c.07-.01.08.05.08.06-.11.07-.48-.03-.46.11-.09.02-.26-.15-.18.11-.3-.12-.25-.17-.27-.17-.05,0-.02.11-.03.11-.07.03-.26-.1-.32-.11.29-.11.53-.05.83-.06,0,0,.06-.05.18-.06.04,0,.07-.02.17,0Z"/>
          <path class="cls-46" d="M61.27,9.74c.17.21-.22-.04-.31.2-.16-.13-.05.09-.29-.03-.15.36-.06.06-.07.04,0-.01-.07-.02-.08-.04-.06-.07-.06-.07-.14-.11-.06-.15.1-.03.03-.17-.04-.08-.38-.29-.01-.22.12.02.83.35.88.34Z"/>
          <path class="cls-54" d="M60.4,9.62c.08.14-.09.02-.03.17-.14-.07-.54-.14-.59-.28.24.07.38.15.62.11Z"/>
          <g>
            <path class="cls-46" d="M57.38,8.59c.09.24-.13.07-.17.13,0,0,.14.16.15.15.08,0,0-.23.27-.2,0,0,.03.07.1.08.17.05.4.07.57.11-.05.23-.32-.02-.29.14.03,0,.08,0,.1,0,0,.23-.2.03-.39.03.01-.14-.17.07-.29.08-.02,0,.02-.06-.08-.06-.02,0-.05.14-.43-.03-.35-.16.04-.07-.11-.39.16,0,.46-.07.59-.06Z"/>
            <path class="cls-54" d="M57.64,8.67c-.26-.03-.19.19-.27.2-.01,0-.16-.14-.15-.15.04-.06.25.11.17-.13.04,0,.18.06.25.08Z"/>
            <path class="cls-54" d="M57.09,8.78c.16-.04.26.14.03.08-.06-.01-.09-.07-.03-.08Z"/>
            <path class="cls-65" d="M57.57,8.73h.01v.04h-.01s-.01.01-.03.01h-.01s0-.02.01-.03h.01s0-.02.01-.03Z"/>
          </g>
          <g>
            <path class="cls-39" d="M55.54,5.37s.13.05.07.11c-.67.2-.2.13.14,0,.18-.07.37-.39.28.11.26-.22.27-.27.38-.14,0,0,.01.08.06.14-.53.58-.37.08-.63.11-.04,0-.53.33-.64.39-.62.63.97-.82.71-.1.11.14.58-.36.62-.38.26-.16.68-.12.5.11-.28.36-.4.21-.71.25-.05,0,.07.2-.25.22-.4.04-.16-.13-.25-.14-.05,0-.27.26-.34.28-.22.06-.63-.08-.1.1-.33.15-.45.25,0,.08l-.39.27c-.09-.89.11-1.17.14-1.4.03.09.12-.08.15-.08.07-.02.15.05.27.06Z"/>
            <path class="cls-39" d="M57.38,5.04c.44.17.19.52-.35.45.13-.44.11-.42-.08-.03-.15-.02-.36.03-.49,0-.18-.18.27-.56.43-.53.04,0,.12.16.17.17.08.01.11-.14.32-.06Z"/>
            <path class="cls-79" d="M57.38,5.01v.03c-.21-.08-.24.07-.32.06-.05,0-.13-.16-.17-.17-.16-.03-.62.35-.43.53-.02,0-.04,0-.06,0-.1-.13-.12-.08-.38.14.09-.5-.1-.18-.28-.11-.34.13-.81.2-.14,0,.06-.06-.05-.07-.07-.11.11,0,.15.06.21.06.18-.02.34-.44.39,0,1.04-.84-.14-.18-.62-.11-.03.01,0,.02.01.06-.11,0-.2-.07-.27-.06-.03,0-.12.17-.15.08,0-.07.02-.13.03-.2.16,0,.47-.03.46-.14.12.17.17-.03.2-.03.04,0-.06.11.21.03.12-.04.11-.08.11-.08.08-.03.15-.06.22-.08.01,0,.06,0,.17-.03.05.25.27-.01.38,0,.08,0,.14.16.17.17.02,0,.25-.21.32-.03Z"/>
            <path class="cls-39" d="M57.38,5.01c-.07-.18-.3.03-.32.03-.03,0-.09-.16-.17-.17-.11-.01-.33.25-.38,0,.01,0,.16-.11.27-.14.2-.04.76-.11.66.27,0,.02-.04.01-.06.01Z"/>
            <path class="cls-39" d="M57.44,5.79c-.11.08-.12.19-.25.25-.2.09-.39-.02-.39-.04,0-.02.22-.2.25-.24.1-.1.07-.14.11-.17l.32.11s-.04.08-.04.08Z"/>
            <path class="cls-16" d="M57.44,5.79s.07-.06.04-.08l-.32-.11s.38-.1.43-.08c.16.05.11.37-.06.45-.24.11-.12-.05-.1-.17Z"/>
            <path class="cls-79" d="M56.52,5.62s-.51.52-.62.38c.25-.72-1.33.72-.71.1.12-.06.6-.39.64-.39.26-.03.1.47.63-.11,0,0,.04.03.06.03Z"/>
            <path class="cls-39" d="M55.34,8.03c-.13-.28-.24-.61-.31-.92.05,0,.3.11.31.13.02.04.1.81,0,.8Z"/>
            <path class="cls-39" d="M55.48,6.74l-.28.36c-.07-.02-.12-.08-.2-.08,0-.04,0-.08,0-.11.41-.33.38-.4.48-.17Z"/>
            <g>
              <path class="cls-39" d="M57.27,6.66c-.24-.09-.24-.07-.03.06-.09.2-.13.25-.14.27-.01.04.19.4-.42.48.27.22.09.43-.25.22.23.2.19.17.06.32l-.28-.15.22.21c-.05.04-.28.16-.32.17-.25.02-.54-.29-.27.01-.13.11-.26-.06-.36-.07l-.06-.57c1.05-.62.45-.57.5-.84,0-.02.22-.21.24-.21.11,0-.06.21.5.06.04-.23.37-.4.57-.53.51.06.04.55.03.59Z"/>
              <path class="cls-70" d="M56.49,8s-.03.04-.06.06l-.22-.21.28.15Z"/>
              <path class="cls-70" d="M57.27,6.66s-.02.04-.03.06c-.22-.13-.21-.14.03-.06Z"/>
              <path class="cls-70" d="M56.81,7.05c.08-.04.24.22.06.06,0,0-.1-.03-.06-.06Z"/>
            </g>
            <g>
              <path class="cls-79" d="M57.05,5.76s-.26.22-.25.24c0,.03.19.14.39.04,0,.04.03.02.06.03-.2.13-.53.3-.57.53-.56.15-.39-.06-.5-.06-.02,0-.23.19-.24.21-.05.26.55.22-.5.84l.06.57s-.03.03-.06.03c-.03-.06-.06-.11-.08-.17.1,0,.02-.76,0-.8,0-.02-.26-.13-.31-.13-.01-.05-.03-.07-.03-.08.07,0,.13.06.2.08.05.02.09.06.1.06.03,0,.27-.21.18-.42-.09-.23-.06-.16-.48.17,0,0-.01.03-.03-.11l.39-.27c-.45.16-.33.07,0-.08-.53-.17-.12-.04.1-.1.06-.02.29-.28.34-.28.09,0-.15.18.25.14.32-.03.2-.22.25-.22.31-.04.43.11.71-.25l.03.03Z"/>
              <path class="cls-39" d="M56.64,6.07c.13,0,.24,0,.35.07-.52.47-.64.71-.87.11.01-.06.44-.18.52-.18Z"/>
              <path class="cls-39" d="M55.83,6.8c.31.16.12.63-.08.34.06.26-.12.24-.31.39-.13-.41.01-.6.39-.73Z"/>
              <path class="cls-39" d="M55.72,6.27c.43-.14,0,.23-.03.36.2-.16.26-.35.28-.36.11-.06.41.25-.17.5-.46.2-.38-.41-.08-.5Z"/>
              <path class="cls-16" d="M55.2,7.11l.28-.36c.08.21-.15.41-.18.42,0,0-.04-.04-.1-.06Z"/>
            </g>
            <path class="cls-16" d="M55.54,5.37s-.04-.04-.01-.06c.48-.07,1.65-.73.62.11-.05-.44-.21-.02-.39,0-.06,0-.1-.05-.21-.06Z"/>
          </g>
          <g>
            <path class="cls-58" d="M59.76,7.02c.18.06.16.03.17.03.03,0,.05,0,.07-.03.14.14.33.16.52.14-.01.01.03.04.03.04-.02.03-.21.06-.11.13.06,0,.1.05.14.08.53.39.68-.22,1.23-.08.11.03.1.07.11.08-.12-.07-.2,0-.22,0-.05,0-.36.04-.36.07l.53.24s-.07-.02-.06.06c-.56-.33-1.04-.26-.8-.06.07.06.27.15.38.22.08.06.17.11.25.17-.49-.14-.67-.56-1.06-.32.18.12,1.08.83,1.15.85,0,.03-.02.03-.03.03-.27-.11-1.14-.89-1.34-.87.14-.05-.07-.1-.24-.25-.53,0-.16.1.1.31.41.33.8.69,1.26.95-.01,0-.12.05-.14.06-.35-.33-.76-.61-1.15-.89-.14-.1-.36-.33-.55-.45-.11-.07-.15-.02-.27-.03-.01-.05.05-.07.08-.08.18-.05.33.27.38.03.35-.03.69.53.92.14-.3-.2-.53-.07-.7-.39-.3.04-.42.02-.69.14-.37.16.04.02.01-.22.4.26.18-.11.38-.08Z"/>
            <path class="cls-56" d="M61.64,8.11c.13.09.33.17.36.34,0,.05-.05.1-.06.14-.11.08-.09.11-.22.06-.07-.02-.97-.74-1.15-.85.4-.24.57.18,1.06.32Z"/>
            <path class="cls-56" d="M60.18,7.97c.39.29.79.56,1.15.89-.08.03-.12.1-.21.08-.07-.07-1.05-.58-1.02-.63.01-.02.35,0-.04-.27-.03-.02-.02.09-.21-.06l.34-.03Z"/>
            <path class="cls-56" d="M61.69,8.67s-.05.04-.08.06c-.05.03-.09.06-.14.08-.46-.26-.85-.62-1.26-.95.04-.01.12-.05.14-.06.2-.02,1.07.76,1.34.87Z"/>
            <path class="cls-56" d="M61.1,7.08c.26,0,.43.1.8,0,.09.04-.04.11-.1.25-.55-.14-.7.48-1.23.08,0-.09.07-.11.14-.14.09.08.26.12.35.03l-.21-.06s.03,0,.03-.03c.02,0,.3.11.32.11.48.07-.51-.15-.27-.25.05,0,.12,0,.17,0Z"/>
            <path class="cls-56" d="M61.8,7.78c.1.06.41.22.18.36-.19.12-.45-.43-.6-.2-.1-.07-.31-.17-.38-.22-.25-.21.24-.27.8.06Z"/>
            <path class="cls-56" d="M60.18,7.97l-.34.03c-.09-.07-.34-.35-.53-.48,0,0-.01-.03.06-.03.11,0,.16-.04.27.03.19.12.41.35.55.45Z"/>
            <path class="cls-50" d="M60.52,7.16c-.19.02-.37,0-.52-.14-.02.03-.04.04-.07.03.06-.19.67-.1.7.01-.02.11-.11.09-.11.1Z"/>
            <path class="cls-50" d="M61.69,7.41c.13.07.25.03.31.2-.04.1-.13.11-.14.11l-.53-.24s.31-.06.36-.07Z"/>
            <path class="cls-56" d="M59.45,7.41l-.08-.08c.27-.12.39-.1.69-.14.17.33.4.19.7.39-.24.39-.57-.17-.92-.14-.04.24-.2-.08-.38-.03Z"/>
            <path class="cls-56" d="M60.35,7.81s-.1.04-.14.06c-.25-.2-.63-.3-.1-.31.17.15.38.2.24.25Z"/>
            <path class="cls-61" d="M60.94,7.08c-.25.1.74.32.27.25-.02,0-.31-.1-.32-.11-.17-.09-.03-.13.06-.14Z"/>
            <path class="cls-58" d="M60.85,7.25l.21.06c-.09.09-.26.06-.35-.03.07-.03.08-.02.14-.03Z"/>
          </g>
          <g>
            <path class="cls-30" d="M64.12,9.12s.27.43.35.53c.31-.41.05.09.14.08.15-.21,0,.08.01.1.01.03.23.04.03.17.25-.04.2.03.35.15.05.04.19-.03-.01.06-.04.02-.02.06-.04.06,0,0-.03-.03-.13-.08-.12-.06-.31-.22-.39-.34,0,0,.1-.07-.08-.06-.15-.1.16-.19-.17-.14-.01-.01-.19-.08-.22-.22.08.13.28.03.28.01,0-.05-.24-.03-.28-.04-.04,0-.15-.04-.14-.11.01,0,.03.02.11.03.04,0,.22.03.22.01-.05-.06-.13-.04-.2-.07,0,0,.01-.01-.03-.03.12-.2.09-.23.2-.11Z"/>
            <g>
              <path class="cls-12" d="M64.35,9.79s.01.03.08.06c.08.12.27.28.39.34-.26-.09-.49-.29-.67-.49,0,0,.04-.03.03-.04.32-.05.02.04.17.14Z"/>
              <path class="cls-69" d="M63.96,9.43v-.03s.28-.01.28.04c0,.02-.2.12-.28-.01Z"/>
              <path class="cls-12" d="M63.93,9.32l.03-.06c.06.03.15,0,.2.07,0,.02-.19-.01-.22-.01Z"/>
              <path class="cls-69" d="M64.22,9.51c.17.01-.07.13-.13.04.07,0,.12-.04.13-.04Z"/>
              <path class="cls-69" d="M64.43,9.85c-.07-.02-.08-.05-.08-.06.18-.01.08.05.08.06Z"/>
            </g>
          </g>
          <g>
            <g>
              <g>
                <path class="cls-78" d="M58.06,1.4c-.21.18.05.33.28.32,0,.24-.2.18-.06.11-.1-.06-.08-.02-.08-.01-.11.03-.2.1-.25.2-.15-.04-.24.26-.42.13.09-.48-.09-.06-.2-.11.06-.16-.03.01-.04.01-.28.06-.12-.06-.13-.07-.02-.04-.38.03.18-.21.06-.16-.36.1-.39.11-.03,0,0-.09-.24-.01-.05.17.23-.11.2.22,0,.02-.12,0,0,.13h-.03c-.09-.06-.1-.14-.15-.17-.25-.12-.71.42-.42.03.52-.17.05-.24.43-.43-.13-.08.06-.13.06-.14-.04-.08-.27.08-.38.04-.07-.04.25-.5-.06-.11-.06-.22-.39.45-.28.45.34-.5.69-.24.38-.21.02.27-.27.25-.31.31-.02.15-.13.27-.06.06-.17.11-.19-.33-.34-.22.2.18-.15.46-.25.21,0,0,.02.02.11-.07,0,0,.01-.23.04.04.21-.31-.27-.25-.15.03-.02.01-.1-.01-.13,0-.02,0,.01.25-.21-.04.16-.12.07-.56.25-.36l.08-.27s.09-.07.13-.11c.07.1.27.12.38.06.03.01.11.06.13.06.16-.31-.01-.05-.03-.06-.01,0-.02-.14-.21-.08,0-.04.28-.47.21-.14.17-.31.09-.11.2-.14.01,0,.08-.12.17-.17.07.04-.46.7.11.14.16-.04-.09.2.03.2.02,0,.3-.28.36-.31.1.01-.1.11.08.14.38-.4,0,.28.31-.08.06.41.08.02.14.03.04,0-.01.16.15.13-.03.2.26-.06.39.41Z"/>
                <g>
                  <path class="cls-29" d="M56.01,1.29s-.1-.04-.11-.08c.19-.05.2.08.21.08.02,0,.19-.26.03.06-.02,0-.1-.04-.13-.06Z"/>
                  <path class="cls-46" d="M57.37,1.43l-.13.15c.53-.05-.14.14-.17.08l.29-.24Z"/>
                  <path class="cls-54" d="M55.51,2.02c-.12-.28.37-.34.15-.03-.03-.27-.03-.05-.04-.04-.09.09-.11.07-.11.07Z"/>
                  <path class="cls-54" d="M55.94,1.43c.21-.05-.04.27-.06.28-.17.09.02-.27.06-.28Z"/>
                  <path class="cls-48" d="M56.75,1.35c.05.06-.15.16-.27.07l.27-.07Z"/>
                  <path class="cls-54" d="M55.75,1.4s.06.04.1.04c-.34.25-.15-.03-.1-.04Z"/>
                  <path class="cls-34" d="M56.89,1.65c.17,0-.09.16-.13.1-.02-.04.11-.1.13-.1Z"/>
                  <path class="cls-40" d="M57.15,1.18c.12,0-.11.13-.13.07,0-.01.12-.07.13-.07Z"/>
                  <path class="cls-40" d="M56.92,1.32c.13-.03.06.1-.03.06-.03-.01.02-.05.03-.06Z"/>
                  <path class="cls-40" d="M57.09,1.51s.06.04.03.06c-.07.04-.08-.05-.03-.06Z"/>
                  <path class="cls-46" d="M56.95,1.51s.06,0,.07.01c.02.04-.17.03-.07-.01Z"/>
                </g>
              </g>
              <g>
                <path class="cls-78" d="M58.87,2.07c-.24-.18.04.03-.14.11-.12-.07-.01-.1-.22-.06-.23.05-.25.12,0,.06,0,.04-.03.03-.03.03-.02.02-.17.16-.18.17-.04,0-.4-.19-.41-.21-.01-.02.04-.12.06-.15.02,0,.04-.05.06-.01-.12.42.26-.16.04.04-.05-.13.15-.1.15-.22,0,0-.02-.05.08.01-.15.07.06.13.06-.11-.23.01-.49-.14-.28-.32.97-.04-.02.08.45.15-.24.21.09.12.36.34,0,.06,0,.16,0,.18Z"/>
                <path class="cls-30" d="M57.94,2.02c.05-.1.14-.17.25-.2,0,.12-.2.09-.15.22.22-.2-.16.38-.04-.04-.01-.03-.03.02-.06.01Z"/>
                <path class="cls-40" d="M58.32,1.9l.15.04c-.14.32-.25,0-.15-.04Z"/>
                <path class="cls-46" d="M58.5,2.13s0,.04,0,.06c-.25.06-.23,0,0-.06Z"/>
                <path class="cls-46" d="M58.18,2.04c.1-.02-.08.16-.1.1,0,0,.09-.1.1-.1Z"/>
              </g>
            </g>
            <g>
              <path class="cls-60" d="M55.34,4.42s.02,0,.03,0c.03.24-.2.23-.03.35-.12.39.13-.09.18.29.04-.19.09,0,.25-.22.11.2.26-.02.24.22-.27.09-.17-.02-.21-.03-.03,0-.07.2-.2.03,0,.11-.3.13-.46.14.04-.3.07-.53.06-.84.08-.01.07.03.14.06Z"/>
              <path class="cls-78" d="M55.76,4.14s.03.03.03.03c0,0,.04.16.03.2,0,.04-.03.03-.03.03,0,0-.08.1-.08.11-.13-.03-.21-.04-.34-.08,0,0-.02,0-.03,0,0-.01.03-.05.03-.06.12-.08.16.03.22-.22.04,0,.15-.02.17,0Z"/>
              <g>
                <path class="cls-78" d="M57.27,4.11s-.02.04-.03.06c-.04.09,0,.08,0,.08,0,.03-.05.03,0,.14-.07.03-.2.08-.24,0-.35.31-.36-.11-.53-.03-.15.08.43.04-.06.36-.06-.05-.31-.2-.35-.1.14.05.17.17.18.18.01,0,.16-.1.1.08-.08.03-.15.06-.22.08-.14-.18.17-.16-.18-.25-.1.19-.26-.08-.24-.22,0,0,.08-.11.08-.11l.13.17c-.1-.22.24-.21.25-.06.19.03.37.13.14-.11-.02-.02-.05.03-.06.03-.06-.05-.1-.16-.11-.17-.08-.03-.09.1-.32.11,0-.04-.02-.19-.03-.2.4-.22.03-.26-.03-.03-.02-.02-.13,0-.17,0-.31.02-.09.1-.15.14-.01,0-.31-.08-.07.08,0,0-.03.04-.03.06-.07-.03-.06-.07-.14-.06-.02-.42-.12-.88-.22-1.29.14.07.1.24.13.25,0,0,.05-.14.08-.14.13-.01-.09.27.11.11.13-.1-.09-.13-.1-.15,0-.02.21-.42.27-.41.12.02-.07.16,0,.2.07.04.16-.11.22-.14.09-.04.21.06.22.06,0,0,.03-.08.06-.08.03,0,.05.08.06.08.02,0,.23-.22.15.1.16-.24.15.03.18.04,0,0,.05-.06.06-.06.12,0,.24,0,.36-.03.14-.04.63-.41,1.01.03.01-.11.43.1.43.13,0,.02-.22.42,0,.28-.24.57-.4.42-.43.43.13.09-.18.25-.2.25-.05,0-.54-.39-.32.08Z"/>
                <g>
                  <path class="cls-60" d="M56.85,3.41s-.02.09.06.06c.09-.04,0-.07.38-.14.02,0,.01.05.01.06-.07.11-.07.21-.03.34-.11-.05-.23-.06-.29-.22-.02,0-.04.05-.04.06-.09.03-.36.24-.36.27,0,.01.05.03.06.04,0,.02-.02.03-.03.06-.06.05-.12.02-.14.03-.2-.62.07-.07.18-.36.43-.04-.28-.06-.18-.18.05-.06.16.08.24-.1.04.12.07.07.17.06.03.02-.03.04-.01.06Z"/>
                  <path class="cls-54" d="M55.79,4.39s.02.01.03-.03c.23-.01.24-.14.32-.11,0,0,.06.11.11.17,0,0,.04-.05.06-.03.24.24.05.14-.14.11-.02-.15-.36-.17-.25.06l-.13-.17Z"/>
                  <path class="cls-60" d="M56.21,3.36l-.03.03s-.03.02-.08.03c-.12-.05-.11,0-.11,0,0,0-.02,0-.03,0-.03,0-.04-.04-.08-.03.16-.41.12-.37.34-.03Z"/>
                  <path class="cls-34" d="M57.27,3.72c-.04-.13-.05-.23.03-.34.24.18-.15.31.28.41-.11.09-.13,0-.31-.07Z"/>
                  <path class="cls-11" d="M56.63,3.86s-.06-.03-.06-.04c0-.02.28-.24.36-.27-.08.3.06.33-.15.17-.03.02.03.3-.15.14Z"/>
                  <path class="cls-30" d="M55.38,3.78c.06,0,.14.19.13.21-.55.24-.17,0-.17-.03,0-.01-.14-.19.04-.18Z"/>
                  <path class="cls-54" d="M55.59,4.14c-.06.26-.1.15-.22.22-.24-.16.06-.08.07-.08.07-.04-.15-.12.15-.14Z"/>
                  <path class="cls-54" d="M55.22,3.47c.15.11.23.27.11.28-.15.02,0-.16-.15-.24l.04-.04Z"/>
                  <path class="cls-54" d="M55.96,3.41c-.15.16.13.27.14.29.03.11-.35-.1-.22-.32.05-.01.06.03.08.03Z"/>
                  <path class="cls-54" d="M56.46,3.95s.08.02.14-.03c-.03.11-.19.27-.25.1.15-.01.11-.07.11-.07Z"/>
                  <path class="cls-36" d="M57.68,3.16c.05.05,0,.28-.08.22-.04-.03.03-.2.08-.22Z"/>
                  <path class="cls-54" d="M55.79,4.17s-.03-.03-.03-.03c.06-.23.43-.19.03.03Z"/>
                  <path class="cls-54" d="M56.14,3.78c.31.1-.04.24-.01.13.02-.09.12.08.01-.13Z"/>
                  <path class="cls-54" d="M55.52,3.61c.07-.01.24.13.08.06-.07.28-.15-.04-.08-.06Z"/>
                  <path class="cls-54" d="M55.61,3.16c.13-.03.34.29-.03.06-.03,0,.02-.05.03-.06Z"/>
                  <path class="cls-60" d="M56.88,3.95c.1.17-.17.19-.06,0h.06Z"/>
                  <path class="cls-54" d="M56.87,4.28c.21-.04.07.05-.06.14-.05-.04.03-.14.06-.14Z"/>
                  <path class="cls-54" d="M55.44,3.25c.07-.05.15.07.08.11-.02.02-.15-.07-.08-.11Z"/>
                  <path class="cls-54" d="M55.3,3.08c.25.01.05.12,0,.08-.02-.02-.02-.07,0-.08Z"/>
                  <path class="cls-46" d="M57.03,4.23s.09.04.1.04c.06.12-.2.02-.1-.04Z"/>
                  <path class="cls-54" d="M55.38,3.39c.08-.04.18.2.03.08-.02-.02-.07-.07-.03-.08Z"/>
                  <path class="cls-46" d="M56.59,4.11c.06.07-.14.14-.15.1,0,0,.12-.04.15-.1Z"/>
                  <path class="cls-55" d="M55.73,3.95c.01.1-.1.13-.08,0h.08Z"/>
                  <path class="cls-54" d="M56.64,3.02s.06.12.03.14c0,0-.1-.15-.03-.14Z"/>
                  <path class="cls-54" d="M56.1,3.41s.02.12-.11,0c0,0,0-.05.11,0Z"/>
                  <path class="cls-48" d="M56.87,2.91s.06.03.07.04c.04.11-.1.05-.07-.04Z"/>
                  <path class="cls-54" d="M56.18,3.39l.03-.03c.1.15.02.01-.03.03Z"/>
                  <path class="cls-40" d="M56.88,3.95h-.06s-.02-.11.04-.08c.03.01,0,.07.01.08Z"/>
                  <path class="cls-46" d="M56.2,3.64c.05-.02.11.1.03.08,0,0-.05-.08-.03-.08Z"/>
                  <path class="cls-54" d="M55.73,3.95h-.08c0-.09.07-.06.08,0Z"/>
                  <path class="cls-11" d="M57.85,3.3c.06.02-.05.13-.07.07,0,0,.07-.07.07-.07Z"/>
                  <path class="cls-46" d="M57.34,3.08s.06,0,.03.06c-.04.07-.07-.03-.03-.06Z"/>
                  <path class="cls-11" d="M56.91,3.47c-.08.04-.04-.04-.06-.06l.06.06Z"/>
                  <path class="cls-11" d="M57.24,4.25s-.04,0,0-.08c.1,0,.04.02,0,.08Z"/>
                  <path class="cls-11" d="M57.9,3.11s.04,0,.04.01c.02.08-.17,0-.04-.01Z"/>
                  <path class="cls-11" d="M56.64,4.14h.04v.04h-.01s0,0-.01,0h-.01s0-.02-.01-.03h.01Z"/>
                  <path class="cls-46" d="M56.67,4.31h.04s0,.02-.01.03h-.01s0,.02-.01.03h-.01v-.04h.01Z"/>
                </g>
              </g>
              <g>
                <path class="cls-54" d="M55.71,4.51c-.02.15.14.41.24.22.36.1.04.08.18.25,0,0,0,.05-.11.08.02-.24-.13-.02-.24-.22-.17.23-.21.04-.25.22-.05-.38-.3.09-.18-.29-.18-.12.06-.1.03-.35.12.04.21.06.34.08Z"/>
                <path class="cls-60" d="M55.44,4.51c.17-.07.37.5.11.39-.01,0-.21-.22-.21-.24,0,0,.09-.15.1-.15Z"/>
              </g>
            </g>
          </g>
          <g>
            <path class="cls-78" d="M60.29,5.04c-.07.18-.09.06-.14.1.05.14-.11.13.06.21-.21,0,.37.19.39.15-.13-.13.09-.15.22-.1,0,0,.05.08.14.13l-.22.24s-.11.02-.18-.03c0,0-.01-.07-.15-.17,0,0,.05-.02-.01-.06-.14-.04-.52.1-.7.14-.06.01-.02-.08-.11-.06-.14.03-.55.38-.87.11-.24.22-.51.06-.62.22-.04-.14-.33.03-.38-.1,0,0,.05-.16.06-.17.03-.02.09.05.1.04.02-.01,0-.18.11-.14.02,0,.05.12.06.11.03-.02,0-.09.03-.11,0,0,.12.16.03-.08.21,0,.4.11.27-.01.54.17.17,0,.2-.03.09-.12.34.14.43.1.05-.02-.03-.07,0-.08.07-.04.15.03.15-.01,0-.04-.09.05-.03-.1.4,0,.25.3.8-.2.5.05-.27-.09.38-.11Z"/>
            <path class="cls-29" d="M59.57,4.93s0,.08,0,.11c0,0,0,.02,0,.03-.44.08.06.24-.04.31-.56-.05-.01-.36-.43-.08-.14-.1-.25.05-.27.06-.45.04-.44-.06-.1-.28.12-.02.12-.06.15-.06,0,.28.03.04.15-.03,0,0,.17-.05.2-.06.02,0,.04,0,.06,0-.23.23.04.06.17.03.04-.01.02-.03.04-.06.02.04.05.02.07.03Z"/>
            <path class="cls-29" d="M58.89,4.81s.06-.03.08-.03c.02,0,.04,0,.06,0v.2c-.13.07-.15.31-.15.03-.04,0-.04.04-.15.06-.11.02-.17.06-.18.06-.06-.02.1-.12,0-.11l-.41.31c-.1-.26.6-.47.06-.34l.18-.14c.24.04.17-.07.22-.08.06-.01.07.08.08.08.01,0,.12-.18.14-.17.05.04-.04.1.07.14Z"/>
            <path class="cls-78" d="M61.69,6.52c-.1.09.08-.01-.06.17-.37-.14-.26-.02-.32,0-.11.03-.02-.07-.08-.08-.13-.04-.15.05-.15.06,0,0,.02.02-.06.03.13-.16.04-.2.06-.28,0,0,.04,0,.03-.06.53,0,.83-.04.59.17Z"/>
            <path class="cls-24" d="M61.64,6.69s.3-.03.17.27c-.15.35-.63-.14-.78-.27.08-.01.05-.03.06-.03.37.23.31-.03.38.03.03.03,0,.12.03.14.01,0,.06-.1.08-.11,0,0,.05.06.06.06.03-.01,0-.07.01-.08Z"/>
            <path class="cls-29" d="M58.14,5.32c.03.11-.22.11-.32.25-.04-.16-.24-.16-.13-.34.16.21.21-.07.22-.08.04,0,.2,0,.11-.08.05-.04-.05-.03.17-.08.54-.13-.16.08-.06.34Z"/>
            <g>
              <path class="cls-29" d="M60.4,5.57c.14.1.14.16.15.17.07.04.17.02.18.03.02.01-.08.06.42.22,0,0,.02.06.13.08.08.01.1-.05.11-.06.05,0-.03.09.15-.03,0,.03.01.06.03.08.07.09.3.11.39.03.09.04.08.11.08.11-.46.01-.23.1.06.14,0,.05.09,0,0,.14-.17.27-.18,0-.42.03.24-.21-.06-.16-.59-.17-.04,0-.58-.13-.57.2.15-.1.38-.16.55-.14-.02.08.07.12-.06.28-.22.03-.3.04-.46-.11.18.39-.11.15-.39.31-.12-.01-.33-.35-.15-.32-.43-.22-.05-.16-.03-.22.01-.04-.15-.03-.13-.1.02-.05.31-.08.32-.15.02-.15-.53.08-.55.1-.03.03.12.06-.03.17-.14.11-.54.03-.13.1-.35.15-.26.46-.6.29.04.31-.66-.53-.94-.73.18-.06.4-.07.57-.17l.39.11c.64-.38.81-.2.87-.2.01,0,.06-.1.2-.08.17.14.49.11.24-.01.31.03-.1-.06.2-.1Z"/>
              <g>
                <path class="cls-30" d="M58.33,6.13c.05.02.16.1.21.14.44.02.02.05.01.1-.01.08.36.31.34-.29.1.02.07.11.06.18.22-.14.11.21.28.31-.25-.1-.06.08-.13.1-.01,0-.07-.16-.14-.17-.22-.02.07.23-.22.06.37.48-.55-.45-.5-.48.03.03.06.04.1.06Z"/>
                <path class="cls-30" d="M60.26,6.24h-.03s-.05-.07-.03-.21c-.22-.19.15-.02.21.13-.03-.58.03-.21.06-.2.04.03.1-.14.24-.07-.13.03-.3.14-.24.29.07-.28.15-.1.18-.13.05-.04-.01-.27.2.03l-.29.07c.19.11-.17.1-.2.08-.03-.02,0-.12-.03-.14,0,0-.04.09-.07.14Z"/>
                <path class="cls-40" d="M58.33,6.13c.12.05.53-.06.56-.06.02.61-.35.37-.34.29,0-.05.42-.08-.01-.1-.05-.04-.16-.12-.21-.14Z"/>
                <path class="cls-34" d="M59.33,5.85c.09.02-.12.08.15.15-.75-.04.21.11-.43.15.15-.17-.05-.14-.04-.18,0-.03.3-.13.32-.13Z"/>
                <path class="cls-54" d="M61.1,6.35c.01.07-.03.05-.03.06-.16-.02-.4.04-.55.14,0-.32.54-.2.57-.2Z"/>
                <path class="cls-54" d="M62.05,6.21c.12.15.05.1.06.14-.28-.04-.51-.13-.06-.14Z"/>
                <path class="cls-11" d="M60.5,6.27c.19,0-.05.14-.1.07-.02-.03.09-.07.1-.07Z"/>
                <path class="cls-55" d="M60.24,6.24h.03s.01.05-.04.08c-.1-.1.01-.08.01-.08Z"/>
                <path class="cls-54" d="M61.84,6.35c.12-.08.09.12,0,.06-.02-.02-.02-.04,0-.06Z"/>
                <path class="cls-54" d="M61.37,6.1s.07,0,.07.01c0,.03-.12.01-.07-.01Z"/>
              </g>
            </g>
            <g>
              <path class="cls-60" d="M61.8,5.46s.02.05.03.06c-.36-.06-.16.07-.2.21.25.03.31.24.55.46.11.11.18-.09.13.42-.01.02-.06.09-.06.1.08.28.32-.35.21.32-.06-.08-.23-.21-.27-.27,0-.01-.02-.3-.08-.27.09-.14,0-.09,0-.14,0-.04.06,0-.06-.14,0,0,0-.08-.08-.11-.13-.05-.21.03-.27,0-.03-.01.14-.16-.13-.03-.02-.02-.03-.05-.03-.08.39-.25-.18.05-.39,0-.5-.16-.4-.21-.42-.22l.22-.24c-.09-.04-.13-.12-.14-.13.04,0,.02-.03.03-.06.08-.01.15-.13.22-.18,0-.03-.08,0-.08-.01-.14-.26,0-.39-.18-.48-.01,0-.24-.03-.27-.03v-.08q-.1.08-.22.17c.21-.37-.06-.04.06-.27-.03.15-.38-.28-.34-.11,0,0,.11.06.14.1.02.06-.17.03-.38.11.04-.16-.17-.03-.27-.2,0,0-.05-.06.17-.07-.17-.03.19-.12.48-.32.01.21,1.01.81,1.01.88,0,.02-.3.15.07.15.13.34.39.32.55.45Z"/>
              <g>
                <path class="cls-36" d="M61.55,5.99c-.18.12-.1.02-.15.03-.01,0-.04.07-.11.06-.11-.02-.12-.08-.13-.08.21.05.78-.25.39,0Z"/>
                <path class="cls-54" d="M61.97,6.1c-.09.08-.33.07-.39-.03.27-.13.1.02.13.03.06.03.13-.05.27,0Z"/>
                <path class="cls-6" d="M60.32,4.73l-.06-.03s.09-.07-.06-.1c.09-.06.02-.09-.03-.15-.03-.04-.14-.09-.14-.1-.05-.17.3.26.34.11-.12.23.16-.11-.06.27Z"/>
                <path class="cls-54" d="M61.19,5.51c.41,0-.1.08.28.18-.18.04-.3.03-.28-.18Z"/>
                <path class="cls-54" d="M60.98,5.65c.05.16.23.1.35.18-.14,0-.42.02-.35-.18Z"/>
                <path class="cls-54" d="M61.19,5.51c-.18.01.03-.18.07-.17.04.02-.06.09-.07.17Z"/>
                <path class="cls-46" d="M61.06,5.6h.04v.04h-.01s0,0-.01,0h-.01s0-.02-.01-.03h.01Z"/>
              </g>
            </g>
            <g>
              <path class="cls-78" d="M59.54,4.37c.1.17.3.04.27.2.21-.08.4-.05.38-.11.05.07.12.1.03.15.15.03.06.05.06.1,0,.13,0,.21-.07.08-.14.4-.04-.11-.14-.11-.01,0-.01.11-.06.11-.01,0,0-.07-.2-.06-.03.08.31.2.27.27-.07.1-.17-.13-.22-.01-.1-.19-.09-.1-.17-.1.2.14.12.41-.13.38-.23-.03.02-.04.01-.2,0,0,0-.02,0-.03.16.18.22-.07,0-.11-.02,0-.05.01-.07-.03-.02.02,0,.05-.04.06-.18.08.08-.28-.17-.03-.02,0-.04,0-.06,0l.15-.25c-.3.29-.18.08-.22.08,0,0,.02.03-.13.03-.02,0-.04,0-.06,0l.04-.11-.13.14c-.11-.04-.02-.1-.07-.14-.02-.01-.13.17-.14.17-.01,0-.02-.1-.08-.08-.05,0,.02.12-.22.08l-.18.14c-.22.05-.11.04-.17.08-.03.02-.04,0-.11.08-.01.01-.07.29-.22.08-.16-.2.44-.38.57-.53.22.1.37-.09.56-.14.16-.04.36-.01.42-.03.03,0,.04-.08.06-.08.03-.01.07.06.1.01,0,0-.07-.04-.04-.07.02-.02.16-.02.18-.03Z"/>
              <g>
                <path class="cls-36" d="M59.23,4.93s-.19.05-.2.06v-.2c.15,0,.12-.03.13-.03.05,0-.07.21.22-.08l-.15.25Z"/>
                <path class="cls-46" d="M59.58,4.62s.08.14.08.14c0,0,.07-.1.1-.04.1.23-.46-.06-.18-.1Z"/>
                <path class="cls-54" d="M59.45,4.95c-.12.03-.4.2-.17-.03.25-.25-.02.11.17.03Z"/>
                <path class="cls-54" d="M59.57,5.04s0-.07,0-.11c.22.04.16.29,0,.11Z"/>
                <path class="cls-54" d="M58.98,4.79s-.04.04-.08.03l.13-.14-.04.11Z"/>
                <path class="cls-11" d="M58.03,5.07c.08.08-.07.07-.11.08.08-.09.08-.06.11-.08Z"/>
                <path class="cls-60" d="M59.13,4.62c.07-.04.08.05.03.06,0,0-.06-.04-.03-.06Z"/>
              </g>
            </g>
            <g>
              <path class="cls-24" d="M59.76,7.02c-.2-.03.03.34-.38.08.03.25-.38.39-.01.22l.08.08s-.1.03-.08.08c-.07,0-.05.03-.06.03-.03,0-.05,0-.11,0,0,0-.05-.04-.17,0-.12-.23-.04-.04-.13-.03-.12.02-.48-.58-.66-.63.24-.27.97.23.36.2.09.31.12.12.13.13,0,0,.05.2.1.07-.14-.02.1-.34.13-.35.18-.05,0,.31.06.31.23-.18-.11-.43.25-.34.02,0,.25.17.25.22-.03-.23-.22-.62.06-.14.11-.1.14.04.18.06Z"/>
              <path class="cls-34" d="M59.16,7.02c.2-.01.14.11.08.11,0,0-.14-.07-.08-.11Z"/>
            </g>
            <g>
              <path class="cls-54" d="M60.54,4.65s-.05.05-.06.06c-.06,0-.13.05-.17.1.08.04.16-.09.17-.1.26,0-.38.18.1.14.02,0,0,.06.03.06.04,0-.04-.11.21-.1-.13.17-.27.09-.45.14.36.24.23.09-.08.1-.64.02.12.16-.38.11-.54.49-.4.2-.8.2,0-.02-.03-.03-.03-.06.42-.27-.12.03.43.08.1-.06-.39-.23.04-.31,0,.15-.24.16-.01.2.24.03.33-.24.13-.38.08,0,.07-.1.17.1,0,0-.02.17-.01.17.15-.12.02-.16.01-.17.05-.12.15.11.22.01.05-.06-.29-.18-.27-.27.2-.01.18.06.2.06.04,0,.04-.11.06-.11.1,0,0,.51.14.11.06.13.07.05.07-.08l.06.03.24-.17v.08Z"/>
              <path class="cls-29" d="M60.19,4.87c.08-.02.18.3.01.1,0,0-.04-.09-.01-.1Z"/>
              <path class="cls-78" d="M59.85,4.98s.14.05-.01.17c0,0,.01-.16.01-.17Z"/>
              <path class="cls-29" d="M60.49,4.7s-.09.14-.17.1c.04-.05.1-.1.17-.1Z"/>
            </g>
            <path class="cls-54" d="M61.64,6.69s.01.07-.01.08c0,0-.05-.06-.06-.06-.03.02-.07.12-.08.11-.03-.02,0-.11-.03-.14-.07-.06-.01.21-.38-.03,0,0,.03-.09.15-.06.07.02-.02.11.08.08.06-.02-.05-.14.32,0Z"/>
            <g>
              <path class="cls-78" d="M60.99,5.15c-.09.06-.11.09-.14.2-.39.07-.19-.36-.41,0-.08-.07-.07.08-.24,0-.16-.08,0-.07-.06-.21.05-.04.07.08.14-.1.31,0,.44.15.08-.1.17-.05.32.03.45-.14-.25,0-.17.09-.21.1-.02,0,0-.06-.03-.06-.47.04.17-.13-.1-.14,0,0,0-.05.06-.06.02,0,.25.02.27.03.19.08.04.22.18.48Z"/>
              <path class="cls-54" d="M60.85,5.34s.01.06-.03.06c-.13-.05-.35-.03-.22.1-.02.04-.6-.15-.39-.15.17.08.15-.07.24,0,.22-.36.01.07.41,0Z"/>
              <path class="cls-11" d="M60.85,5.34c.03-.11.05-.13.14-.2,0,0,.08-.01.08.01-.07.05-.15.17-.22.18Z"/>
              <path class="cls-46" d="M60.67,4.98s.16.03.15.04c-.02.05-.2-.02-.15-.04Z"/>
              <path class="cls-46" d="M60.67,5.18s.04,0,.04.01c.02.08-.17,0-.04-.01Z"/>
            </g>
          </g>
        </g>
      </g>
      <g>
        <path class="cls-69" d="M41.92,13.2c-.29.09-.6.34-.45-.03.47.05.66-.64.45.03Z"/>
        <path class="cls-17" d="M41.05,13.6c-.07,0-.13.01-.2-.03-.14-.08-.04-.07-.03-.17.19.06-.1.29.45-.08.01.11-.14.2-.22.28Z"/>
        <path class="cls-7" d="M44.21,8.76c-.36.42.1,0,.06.28-.18.06-.38.07-.48.25-.37.09-1.08.33-1.12.15-.02-.09.14-.21.27-.1.06-.07.13-.11.21-.14,0,0,0,.06.07.03.07-.03.41-.29.64-.39.02,0,.13,0,.35-.08Z"/>
        <path class="cls-17" d="M49.22,3.81c-.02.16.05.09.08.14-.28,0-.47-.03-.49-.03-.02,0-.07.06-.07.06-.21.03-.43.12-.64.17,0,0-.02,0-.03,0,0-.03-.03-.03-.03-.03-.06-.23,0-.15.08-.17.37-.1.48-.04.39-.17,0,0,0-.03,0-.06.78.21.65.08.7.08Z"/>
        <path class="cls-7" d="M48.52,3.78c.09.13-.02.07-.39.17-.41-.25-.65-.15-1.02.17-.06-.13.14-.16.2-.25-.26.08-.51.16-.77.22-.03,0-.18.09-.2.04.3-.14.35-.53.5-.31-.59.31.49.03.67-.06-.56-.22.5.13.96.07l-.08-.08.13.03Z"/>
        <path class="cls-15" d="M46.85,3.5c.07-.05.1.27.06.31-.08-.12-.27-.18-.04-.13.01-.05-.07-.15-.01-.18Z"/>
        <path class="cls-7" d="M47.3,3.36s-.18.26-.2.25c-.11-.07.14-.22.2-.25Z"/>
        <path class="cls-15" d="M47.08,3.3l-.11.31c-.04-.09.05-.23.11-.31Z"/>
        <path class="cls-74" d="M47.3,3.5l-.11.22c-.04-.07.06-.17.11-.22Z"/>
        <path class="cls-37" d="M47.11,3.75s.07.06.03.08c-.37-.02-.05-.09-.03-.08Z"/>
        <path class="cls-10" d="M47.16,3.33s.06,0,.07.01c.02.04-.17.03-.07-.01Z"/>
        <path class="cls-69" d="M48.77,4.42c-.23.12-1.54.75-1.61.81-.41.42,1.59-.55,1.78-.73.17,0,0,.03,0,.2-.4.16-1.49.69-.77.48.24-.07.89-.48.84-.31-.41.26-.81.54-1.31.39-.3.09-.39.19-.42.2-.15.02-.18-.14-.28-.14-.13,0-.46.27.01.1.07.16-.67.2-.41-.04.05-.05,1.05-.55,1.22-.64.28-.15.59-.23.87-.39l.08.08Z"/>
        <path class="cls-15" d="M49.3,6.63s-.05.23-.39.5c-.2.16-.5.32-.76.36.02-.01.09-.12.11-.14.34-.27.65-.55.92-.89,0,0,.02,0,.03,0,.03.06,0,.18.08.17Z"/>
        <path class="cls-28" d="M49.3,3.95c.17,0,.27-.07.25.03-.29.14-.39.43-.48.73-.07-.02-.07,0-.14,0,0-.17.17-.2,0-.2.22-.38.31-.34-.17-.08l-.08-.08c.2-.12.55-.36.31-.28-.04-.04-.17-.06-.22-.06l-.03-.03s.05-.05.07-.06c.02,0,.21.03.49.03Z"/>
        <path class="cls-30" d="M48.69,4.34c-.28.16-.59.24-.87.39-.07,0-.06,0-.03-.06.4-.2.78-.48,1.2-.62.24-.08-.1.16-.31.28Z"/>
        <g>
          <path class="cls-30" d="M47.79,4.67c-.03.05-.05.06.03.06-.17.09-1.17.6-1.22.64-.26.24.48.2.41.04-.48.17-.14-.1-.01-.1.1,0,.13.16.28.14.02,0,.12-.11.42-.2.5.15.91-.13,1.31-.39.05-.17-.6.24-.84.31-.72.22.37-.31.77-.48.07,0,.07-.02.14,0,.01,0,.08.1.22.15-.22.18.23.54.27.55,0,0,.05-.02.13-.03-.01.14-.27.33-.28.35-.03.11,0,.9.08.39,0-.02-.05-.08-.03-.18.26.26.13.53.17.73-.38.4-1.07,1.32-1.61,1.17-.46.56-1.18,1.02-1.87,1.23-.22.26-.51.49-.8.67-.28.18-.59.3-.88.45-1.11,1.14-.15.28-.17,1.03-.03-.03-.36-.19-.35-.21.02-.03.15.02.1-.07-.22-.19-.9.64-.55.49-.06.09-.21.09-.27.13-.06.04-.93,1.01-.96,1.08-.22.41.17.24.17.17,0-.06-.24-.07.01-.27.09-.07.53-.21.56-.2.03.02-.02.21-.03.22-.02.02-.56.07-.46.24.06.1.3-.17.35-.18.2-.04-.12.1.24.07-.32.13-1.13.24-1.15.49-.02,0-.03.02-.06.03.21-.66.03.03-.45-.03-.07-.07-.14.1-.2.14-.54.37-.26.15-.45.08-.01,0-.04.03-.17,0,0-.01.03-.05.03-.06.22-.23.48-.42.67-.69l-.7.66c-.18-.03-.12-.08-.18-.11,0,0-.05.06-.06.06-.04-.02,0-.14-.13-.14,0-.02.04-.07.06-.11.16-.42.78-.92,1.01-1.22,0,0,.03-.14.08-.2.1-.09.03.04.07.07.02.01.23-.3.34-.36.11.14.09-.15.55-.43-.12-.06-.24-.17-.25-.18l.03-.03s.25.17.27.17l1.72-1.61c0-.1-.18.02-.36.07.09-.18.29-.19.48-.25,1.21-.39,2.85-.77,3.89-1.54.26-.04.55-.2.76-.36.16.03-.37.38-.62.52.24.08,1.62-1.19,1.24-1.27-.05-.01-.2.21-.24.25-.08.01-.05-.11-.08-.17.17-.14.11-.4.04-.42-.17-.04.02.22-.1.42-.04.08-.8.75-.95.87-1.11.83-2.52,1.13-3.8,1.52.18-.18,1.76-.63,1.79-.73.15-.48-1.14.03-1.3.1-.17.08-.38.25-.41.17,0,0,.05-.07.06-.08l1.17-.43c-.26-.13-.92.2-1.23.35-.02,0-.33,0-.06.2-.02.01.05.04.01.06-.05.04-.44.21-.34.25.27-.11,1.74-.76,1.85-.76,0,0,.04.04.07.04-.63.2-1.21.49-1.82.74-.22.09-.33.08-.35.08-.23.1-.58.36-.64.39-.06.03-.07-.03-.07-.03.07-.11-.06-.06,0-.24.06-.16.77-.93.95-1.23.01-.02-.04-.25.22-.36-.06-.1.36-.72.42-.78.07-.08.13.01.25-.14.02-.02.06-.46.28.11.05-.26.11-.27-.17-.39.17-.37.41-.61.7-.91.13-.14.29-.26.42-.41.02-.13-.52.43-.31.07.12-.21.27-.18.28-.21.04-.13-.29.08.06-.32,0,.01,0,.04,0,.06-.08.27.04.35.03.38-.01.06-.34.37-.21.35.39-.42.87-.73,1.41-.91-.54-.19-.82.56-1.02.29-.27.32-.13.18-.15-.03.09-.17.36-.05.38-.06.03,0,.35-.3.53-.34.02,0,.29.1.38-.04-.32-.16.38.02.06.06.27.04-.19.21-.55.32-.12.38-.7.35-.76.73-.61-.03-.99.72-.5.22.36-.16.09.16.1.18.1.14.24-.4.31-.28-.14.32.16-.01.6-.24.31-.15.63-.27.94-.42Z"/>
          <g>
            <path class="cls-17" d="M44.17,11.02s.1.09.1.1c-.02.06-.16-.08-.1-.1Z"/>
            <g>
              <path class="cls-15" d="M46.42,7.81c.11.06.07-.07.08-.11.05.04.25-.23.45-.38h-.06q.18-.2.36-.38s.02-.06.07-.06c.14.41.38.09.55-.11,0,0,.02-.05.03-.06.06-.07.07-.04.11-.08.23.12.48.01.71-.03.02,0,0,.06.03.06.06-.01.14-.18.13-.07,0,.09-1.19,1.04-1.36,1.13-.14.07-1.16.48-1.22.43-.15-.14.1-.27.11-.35Z"/>
              <path class="cls-15" d="M48.27,7.36s-.09.12-.11.14c-1.04.77-2.68,1.15-3.89,1.54.05-.28-.41.14-.06-.28.6-.25,1.19-.54,1.82-.74-.03,0-.07-.04-.07-.04-.11,0-1.58.65-1.85.76-.1-.04.28-.21.34-.25.03-.02-.03-.04-.01-.06.01,0,.04-.02.06-.03.03.08.23-.09.41-.17.16-.07,1.45-.58,1.3-.1-.03.09-1.61.55-1.79.73,1.29-.4,2.69-.7,3.8-1.52l.06.03Z"/>
              <path class="cls-17" d="M46.25,4.45c.05.01.05.04.06.08.02.21-.11.35.15.03.2.27.49-.48,1.02-.29-.54.18-1.03.49-1.41.91-.13.02.19-.29.21-.35,0-.03-.11-.11-.03-.38Z"/>
              <path class="cls-7" d="M48.91,7.13c.34-.27.36-.46.39-.5.03-.04.19-.26.24-.25.38.09-1,1.35-1.24,1.27.24-.13.78-.48.62-.52Z"/>
              <path class="cls-15" d="M45.6,7.3c.24-.04.05.28.1.38l-.66.24c.05-.09.52-.61.56-.62Z"/>
              <path class="cls-8" d="M44.55,8.31l-.06-.08c.31-.15.97-.48,1.23-.35l-1.17.43Z"/>
              <path class="cls-47" d="M44.74,7.19l.03-.06c.17-.1.27.11.13.22-.02.02-.06-.05-.08-.03-.01,0-.03.31-.17.25-.18-.08.15-.3.1-.39Z"/>
              <path class="cls-10" d="M46.25,6.77c.07-.28.05-.15,0-.17,0,0,.02-.03-.06-.03,0-.03,0-.07,0-.08,0,0,.07-.01.06-.11.13-.07.16-.17.18-.17.17,0-.1.56-.18.56Z"/>
              <path class="cls-37" d="M49.19,6.46c-.27.35-.58.62-.92.89l-.06-.03c.15-.11.91-.79.95-.87h.03Z"/>
              <path class="cls-19" d="M45.96,6.72c.21.01-.06.44-.17.39-.15-.06.07-.4.17-.39Z"/>
              <path class="cls-47" d="M45.6,6.69c.08,0,.1.12.1.18-.03.27-.32.3-.22-.06.01-.05.1-.13.13-.13Z"/>
              <path class="cls-80" d="M49.47,5.93c-.02.1.03.16.03.18-.09.51-.12-.29-.08-.39,0-.02.27-.21.28-.35,0,0,.03-.14.11-.01-.22.23-.28.28-.34.57Z"/>
              <path class="cls-12" d="M44.84,7.64c.1.03.1.36-.06.34-.17-.03-.05-.37.06-.34Z"/>
              <path class="cls-37" d="M46.6,6.66c.15,0-.02.4-.11.36-.13-.05.04-.36.11-.36Z"/>
              <path class="cls-37" d="M47.54,5.93c.03.23.09.01.11-.11.32.16-.1.44-.17.24-.03-.1.05-.12.06-.13Z"/>
              <path class="cls-12" d="M46.18,6.99c.14.02,0,.34-.06.34-.14,0-.1-.36.06-.34Z"/>
              <path class="cls-69" d="M49.22,6.46s-.02,0-.03,0h-.03c.12-.2-.07-.46.1-.42.07.02.13.28-.04.42Z"/>
              <path class="cls-37" d="M46.59,5.99c.1-.01.13-.04.11-.14.31-.01-.35.67-.11.14Z"/>
              <path class="cls-17" d="M48.7,6.24s.06.23.04.29c-.06.17-.28,0-.04-.29Z"/>
              <path class="cls-37" d="M46.73,6.35l.17-.08c.1.23-.22.43-.17.08Z"/>
              <path class="cls-69" d="M47.8,6.27c.05.02.06.15.03.17-.04-.12-.36,0-.38-.04-.06-.1.33-.13.35-.13Z"/>
              <path class="cls-17" d="M45.79,7.44s.09.08.1.1c.06.27-.26.4-.1-.1Z"/>
              <path class="cls-17" d="M48.53,5.9c.01.05.1.3.1.32-.02.24-.25-.03-.1-.32Z"/>
              <path class="cls-8" d="M48.97,5.57s.04.07.07.08c.02,0,.07,0,.1,0,.03,0,.05.03.06.06-.2.01-.32.13-.31-.17.04.03.08.03.08.03Z"/>
              <path class="cls-62" d="M45.25,7.11l.08-.08s.04-.06.06.01c.08.3-.2.34-.14.07Z"/>
              <path class="cls-10" d="M45.22,7.5c-.1.04-.08.11-.08.11-.03.05-.07.11-.11.08v-.2s.03-.03.03-.03l.11-.08s.05.07.06.11Z"/>
              <path class="cls-47" d="M46.53,7.55c-.15.13-.07.05-.17.03.01-.11.19-.46.17-.03Z"/>
              <path class="cls-69" d="M43.95,8.51c.15-.04.11.25.03.25-.08,0-.13-.22-.03-.25Z"/>
              <path class="cls-10" d="M44.27,8.11v-.08c.09-.02.19-.06.28-.04,0,.02-.14.22-.28.13Z"/>
              <path class="cls-69" d="M44.49,8.23l.06.08s-.05.08-.06.08c-.01,0-.04.02-.06.03-.27-.2.04-.19.06-.2Z"/>
              <path class="cls-17" d="M47.11,5.82c.1.01-.21.52-.18.21,0-.02.11-.18.18-.21Z"/>
              <path class="cls-69" d="M48.11,6.3c.34.07.18-.03.14.28l-.14-.28Z"/>
              <path class="cls-28" d="M46.91,6.52c.17-.01-.03.29-.08.25-.06-.05.02-.25.08-.25Z"/>
              <path class="cls-69" d="M43.78,8.23s.23.13.14.2c-.12.08-.27-.17-.14-.2Z"/>
              <path class="cls-69" d="M46.5,7.69s.03.17-.08.11c.01-.1-.07-.11-.06-.22.1.02.02.1.17-.03,0,.1-.02.11-.03.14Z"/>
              <path class="cls-69" d="M47.39,6.86c.52-.03.31.14.11.11,0,0-.14-.07-.11-.11Z"/>
              <path class="cls-12" d="M47.26,6.94l-.36.36h-.08s0-.03,0-.06c.17-.06.29-.22.45-.31Z"/>
              <path class="cls-69" d="M43.47,8.67c.13-.03.17.1.08.14-.16.08-.23-.11-.08-.14Z"/>
              <g>
                <path class="cls-37" d="M46.22,6.18c-.13-.21.06-.19.03-.36.11,0,.16.3-.03.36Z"/>
                <path class="cls-28" d="M46.22,6.18c-.17.05-.07-.37.03-.36.03.18-.15.16-.03.36Z"/>
              </g>
              <path class="cls-69" d="M47.65,5.82c-.02.12-.08.34-.11.11.04-.14-.06-.2.11-.11Z"/>
              <path class="cls-17" d="M48.2,5.99c.09-.06.2.13.14.17-.12.07-.19-.14-.14-.17Z"/>
              <path class="cls-69" d="M48.97,5.57s-.04,0-.08-.03c.01-.27.27-.22.08.03Z"/>
              <path class="cls-47" d="M46.2,6.49s0,.05,0,.08c-.02,0-.34.15-.14-.11.03.07.08.07.14.03Z"/>
              <path class="cls-69" d="M46.25,6.38c.02.1-.05.11-.06.11-.06.04-.11.05-.14-.03.09-.12.18-.08.2-.08Z"/>
              <path class="cls-17" d="M47.02,6.66c.17-.03.02.25-.06.2-.05-.03.02-.19.06-.2Z"/>
              <path class="cls-21" d="M49.19,5.71s-.03-.05-.06-.06c.14-.15.26.07.15.11-.04.01-.09-.06-.1-.06Z"/>
              <path class="cls-28" d="M48.22,5.62c.09.02.06.23-.06.2-.09-.03.01-.21.06-.2Z"/>
              <path class="cls-10" d="M48.55,5.57l.11-.14c.11.14-.09.39-.11.14Z"/>
              <path class="cls-10" d="M45.13,6.88l.14-.11c.1.06,0,.36-.14.11Z"/>
              <path class="cls-69" d="M46.81,7.25s0,.05,0,.06c-.04.05-.03.06-.07.11-.18-.31.05-.16.07-.17Z"/>
              <path class="cls-47" d="M47.34,6.52c-.02.13-.18.24-.17.07,0,0,.08-.09.08-.1l.08.03Z"/>
              <path class="cls-69" d="M47.34,6.52l-.08-.03s-.09-.14.04-.17c.05.01.05.15.04.2Z"/>
              <path class="cls-37" d="M45.61,6.04l.06-.08c.25-.05-.03.32-.06.08Z"/>
              <path class="cls-10" d="M44.99,6.72l.08-.11c.16.09.08.23-.08.11Z"/>
              <path class="cls-17" d="M45.99,6.07s.07.21-.06.17c-.09-.03,0-.16.06-.17Z"/>
              <path class="cls-69" d="M46.9,6.27l-.17.08c.02-.12.11-.23.17-.08Z"/>
              <path class="cls-69" d="M48.45,5.71c.09.02.02.19-.06.17-.11-.03.04-.17.06-.17Z"/>
              <path class="cls-66" d="M45.08,6.6l-.08.11c-.14-.1-.06-.19.08-.11Z"/>
              <path class="cls-37" d="M45.9,7.3s.14.11.11.14c-.05.08-.18-.08-.11-.14Z"/>
              <path class="cls-69" d="M48.66,5.43l-.11.14c-.01-.13.06-.2.11-.14Z"/>
              <path class="cls-12" d="M45.27,6.77l-.14.11c-.07-.13.1-.13.14-.11Z"/>
              <g>
                <path class="cls-28" d="M40.66,13.32s.03,0,.03.03c0,0-.02.04-.03.06-.03,0-.37.03-.36-.28.12,0,.09.12.13.14,0,0,.05-.06.06-.06.06.04,0,.08.18.11Z"/>
                <path class="cls-54" d="M44.67,9.74c.51.11.24.06-.14.28-.08-.1.09-.18.14-.28Z"/>
                <path class="cls-15" d="M40.69,13.34s0-.02-.03-.03l.7-.66c-.19.26-.45.46-.67.69Z"/>
                <path class="cls-7" d="M44.36,9.9s.06,0,.07.01c-.24.27-.17.01-.07-.01Z"/>
              </g>
              <path class="cls-12" d="M46.25,6.77c-.12,0-.03-.13,0-.17.05.01.07-.11,0,.17Z"/>
              <path class="cls-69" d="M45.02,7.69c-.15-.09,0-.19,0-.2v.2Z"/>
              <path class="cls-28" d="M46.59,5.99s.05-.14.11-.14c.02.1-.01.13-.11.14Z"/>
              <path class="cls-69" d="M45.76,6.16s.03.14-.03.14c-.08,0-.01-.14.03-.14Z"/>
              <path class="cls-17" d="M45.16,7.39l-.11.08s0-.15.11-.08Z"/>
              <path class="cls-28" d="M45.13,7.61s-.01-.07.08-.11c0,.1,0,.16-.08.11Z"/>
              <path class="cls-62" d="M48.67,6.07s.05-.01.07.01c.06.09-.08.14-.07-.01Z"/>
              <path class="cls-69" d="M44.27,8.03v.08c-.18-.13,0-.08,0-.08Z"/>
              <path class="cls-17" d="M45.43,6.18c.09-.04.08.08.03.08-.06,0-.05-.07-.03-.08Z"/>
              <path class="cls-17" d="M45.33,7.02l-.08.08c.02-.07,0-.07.08-.08Z"/>
              <path class="cls-12" d="M45.79,7.19c.05-.01.06.07.03.08-.01,0-.07-.07-.03-.08Z"/>
              <path class="cls-28" d="M45.61,6.04s.01-.08.06-.08l-.06.08Z"/>
              <path class="cls-17" d="M48.01,6.63h-.06c.12-.12.05,0,.06,0Z"/>
              <path class="cls-17" d="M45.6,6.41s.04,0,.04.01c.02.08-.17,0-.04-.01Z"/>
              <path class="cls-12" d="M47.9,6.72s-.02.05-.03.06c-.06-.02-.02-.07.03-.06Z"/>
              <path class="cls-69" d="M44.74,7.19c0-.06.02-.05.03-.06l-.03.06Z"/>
            </g>
          </g>
        </g>
        <path class="cls-80" d="M49.97,3.81c-.1.1-.26.09-.42.17.02-.1-.08-.03-.25-.03-.03-.05-.11.02-.08-.14.09,0,.02.01.04.06.26-.01.45,0,.71-.06Z"/>
        <g>
          <path class="cls-39" d="M50.2,7.75s.05,0,.06,0c.39.24.72.42,1.2.34-.24.79.11-.1.2-.22.16-.05.31.2.66.06.1-.04.15-.28.15,0-.39.88-1.45,1.81-2.04,1.9l.5-.55c.43-.67-.03-.12-.24.04,0,0-.1.05-.1,0,.09-.1.15-.17.22-.28.31-.45-.27.11-.28-.07.89-.8-.05,0-.18.04-.04,0-.28-.03-.34-.06-.29.25-.61.19-.95.2-.06,0-.25.12-.24,0,.07-.05.18-.13.11-.14.19-.16.04-.1.06-.18.01-.05.3-.16-.17.04-.66.29-1.32.7-2.04.74.1-.1,0-.09,0-.11,0-.02.05-.01.06-.01.45-.05.86-.25,1.26-.46-.42.11-.82.34-1.26.38-.9.07-.33-.06.04-.28.8-.47,2.05-1.29,2.64-1.99.04-.04.03-.05.03-.06.25.32.28.44.64.67Z"/>
          <path class="cls-72" d="M49.66,6.74c-.08.05-.18.31-.14.39-.59.69-1.84,1.51-2.64,1.99-.37.22-.94.35-.04.28,0,.03,0,.07,0,.08,0,0-.05-.01-.06.01,0,.02.1.02,0,.11.73-.04,1.38-.45,2.04-.74-.3.36-.84.39-1.2.69.37-.13,1.03-.31,1.31-.55.06,0-.04.09-.11.14-.1.08-.21.16-.31.24.44-.01.45-.01.06.2.27.16.7-.13.77-.13.13,0,.06.1.08.11.05.02.9-.25,1.09-.36.11-.06.17-.19.29-.17-.08.11-.14.18-.22.28-.28.33-.58.49-.45.64-.49.27-.67.27-1.19.36-.02,0,0,.05-.03.06-.11.02-.42,0-.5,0-.03,0,.14.09-.46.06-.02,0-.02-.02-.08-.03-.12,0-.28,0-.28.03-.08-.04-.17-.07-.24-.14-.09,0-.06.08-.07.08-.38,0-.68-.08-1.03-.17-.3-.08-.27-.05-.28-.06-.26-.09-.45-.2-.62-.42.29-.18.58-.41.8-.67.69-.21,1.41-.67,1.87-1.23.54.14,1.23-.78,1.61-1.17,0,.02.02.04.03.08Z"/>
          <path class="cls-72" d="M50.42,9.82s-.05-.05-.1-.03c-.01,0,.19-.04-.18.17-.13-.16.16-.31.45-.64,0,.05.09,0,.1,0,.21-.17.66-.71.24-.04l-.5.55Z"/>
          <path class="cls-72" d="M52.46,7.92c0-.28-.05-.04-.15,0-.35.15-.49-.11-.66-.06.27-.42.4.06.59-.2.14-.03.18-.11.22-.14.07-.05.12-.12.2-.17-.06.18-.12.39-.2.56Z"/>
          <path class="cls-43" d="M50.81,9.04c-.12-.03-.19.1-.29.17-.19.11-1.04.39-1.09.36-.02-.01.05-.11-.08-.11-.07,0-.49.29-.77.13.39-.21.38-.21-.06-.2.1-.08.21-.16.31-.24-.02.12.18,0,.24,0,.34,0,.66.06.95-.2.06.03.3.07.34.06.14-.03,1.08-.85.18-.04.01.18.59-.38.28.07Z"/>
          <path class="cls-72" d="M51.45,8.09c-.48.08-.81-.1-1.2-.34.19-.38.64.34,1.38-.06-.05.14-.14.25-.18.39Z"/>
          <path class="cls-72" d="M50.2,7.75c-.36-.23-.4-.35-.64-.67.04-.05.07-.11.1-.17h.07c.24.55.8.52.48.84Z"/>
          <path class="cls-39" d="M48.94,9.01c-.28.23-.95.42-1.31.55.36-.29.9-.32,1.2-.69.47-.21.18-.1.17-.04-.02.08.13.02-.06.18Z"/>
          <path class="cls-79" d="M46.84,9.48s0-.05,0-.08c.44-.03.83-.27,1.26-.38-.4.21-.81.41-1.26.46Z"/>
        </g>
        <g>
          <path class="cls-17" d="M48.13,3.95c-.08.02-.14-.07-.08.17-.3,0-.41.12.03.03,0,0,.02,0,.03,0-.27.35-.9.3-1.13.67.56.03,1.38-.76,1.8-.81.05,0,.18.02.22.06-.43.14-.81.42-1.2.62-.31.15-.63.27-.94.42-.45.22-.74.55-.6.24-.06-.12-.21.42-.31.28-.01-.02.26-.34-.1-.18-.48.5-.11-.25.5-.22.05-.37.64-.35.76-.73.35-.11.82-.28.55-.32.32-.03-.37-.22-.06-.06-.09.14-.36.04-.38.04-.18.04-.5.33-.53.34-.02,0-.29-.11-.38.06,0-.04,0-.07-.06-.08,0-.02,0-.04,0-.06,0-.01,0-.05.03-.08.1,0,.25-.05.27-.06.23-.02.18.18.46-.1l-.25-.04.06-.04s-.05.04-.06.04c-.16.06-.21.05-.22.06v-.08c.26-.07.51-.15.77-.22-.05.09-.25.12-.2.25.37-.32.61-.42,1.02-.17Z"/>
          <g>
            <path class="cls-30" d="M46.76,4.11l.25.04c-.28.28-.23.08-.46.1-.01,0-.16.06-.27.06.06-.08.17-.1.25-.14.01,0,.07,0,.22-.06Z"/>
            <path class="cls-30" d="M46.97,4.87s.06,0,.07.01c-1.07.59-.32,0-.07-.01Z"/>
            <path class="cls-30" d="M48.04,4.11s.03,0,.03.03c-.44.09-.32-.02-.03-.03Z"/>
            <path class="cls-10" d="M47.5,3.89c.06-.04.52.22,0,.06v-.06Z"/>
            <path class="cls-7" d="M47.69,3.86s.23.06.24.07c.1.11-.29-.05-.24-.07Z"/>
            <path class="cls-30" d="M46.76,4.11s.03-.07.06-.04l-.06.04Z"/>
          </g>
        </g>
        <path class="cls-30" d="M48.94,4.51c-.18.17-2.19,1.14-1.78.73.06-.06,1.38-.69,1.61-.81.47-.25.39-.29.17.08Z"/>
        <g>
          <path class="cls-37" d="M52.91,1.46c-.18.11-.34.26-.55.34-.23.09-.48.11-.57.14.34-.2.73-.37,1.12-.48Z"/>
          <g>
            <path class="cls-30" d="M50.27.14c.38.09.89.18,1.1.55l-1.1-.55Z"/>
            <path class="cls-30" d="M50.35.03c.39-.17,1.22.4.73.34-.04,0-.41-.28-.73-.34Z"/>
            <path class="cls-30" d="M51.38.45c.07.13.46.42.43.55-.05.25-.38-.39-.43-.55Z"/>
            <path class="cls-30" d="M51.11.7l.29.24c-.08.02-.3-.15-.29-.24Z"/>
          </g>
          <path class="cls-47" d="M52.17,1.32h.04s0,.02-.01.03h-.01s0,.02-.01.03h-.01v-.04h.01Z"/>
          <path class="cls-15" d="M50,1.49c-.05.04-.08.14-.14.18h.06s.04.08-.15.24c-.52.01-1.28.38-1.47.85.26.03.27.46.04.55-.48.18-.63-.19-.67-.2-.03,0-.22.2-.1-.07.02-.06.35-.43.45-.53,0-.19-.34.3.03-.21-.13.43.38-.34.53-.45.2-.15.18-.03.03.13l.04.04c.24-.17,1.11-.59,1.36-.53Z"/>
          <path class="cls-15" d="M48.41,1.82l.17.03c-.15.11-.66.88-.53.45.11-.16.23-.32.34-.48h.03Z"/>
          <g>
            <path class="cls-12" d="M49.75.7c.34.31-.27.04.22.34-.36.17-.73.31-1.12.39.68-.43.41-.47-.14,0,.12-.35.58-.51.64-.67.14-.01.24-.07.39-.06Z"/>
            <path class="cls-17" d="M49.36.73v.03c-.06.17-.53.32-.64.67-.21.18.06.05.14,0,.39-.08.76-.23,1.12-.39.1.19-1.37.47-1.57.78h-.03c.11-.16.16-.39.28-.55.02-.03.57-.53.6-.55,0,0,0,.04.1,0Z"/>
            <path class="cls-10" d="M48.85,1.43c-.08.05-.35.18-.14,0,.55-.47.82-.43.14,0Z"/>
          </g>
          <g>
            <path class="cls-30" d="M49.36.73c-.1.04-.09,0-.1,0-.04.02-.58.51-.6.55-.12.16-.17.38-.28.55-.11.16-.22.32-.34.48-.37.51-.04.02-.03.21-.1.1-.42.48-.45.53-.12.27.07.06.1.07.04,0,.19.38.67.2.23-.09.22-.51-.04-.55.19-.48.95-.84,1.47-.85.19-.16.14-.21.15-.22.28-.27.41-.33.73-.04-.1-.3-.42-.32-.64-.15-.25-.06-1.12.36-1.36.53l-.04-.04c.16-.16.17-.27-.03-.13l-.17-.03c.2-.31,1.67-.6,1.57-.78-.49-.29.11-.02-.22-.34.24.02.43.39.77.34.01-.09-.59-.47-.42-.45.05.12,1.55.68.84.67-.11,0-.48-.21-.62-.2-.48.04.59.51.67.31.27.26,1.03,0,.96-.41-.01-.06-.49-.61-.59-.7l.04-.04c.21.26.85.57.64.87.33,0,.61.28.11.11-.78,1.05-.51.29.83.1-.39.21-1,.39-1.36.6-.53.32-.06.09.15.03.09-.03.35-.05.57-.14.2-.08.36-.23.55-.34.16-.1.55-.4.56-.27,0,.07-1,.79-1.06.83-.26.14-.18.09-.45.08-.39,0-.22.09-.29.14,0,0-.05-.06-.06-.06-.08.07-.51.58-.55.67-.06.04-.11.1-.17.14-.09.07-.29.12-.28.39,0,.07.24.17.29.17.11,0,.37-.28.18-.03-.04,0-.04.07-.22.06-.17-.02-.19-.16-.36-.06-.15.09-.12.16-.39.25-.07.02-.09.02-.14.03-.26.05-.46.04-.71.06-.02-.04.05-.05-.04-.06-.05,0,.08.12-.7-.08-.36-.1-.46-.19-.49-.2-.09-.02.06.11-.03.08-.08-.02-.31-.28-.34-.28-.02,0,0,.09-.03.08-.04,0-.45-.21-.52-.29.47-.64,1.01-1.83,1.55-2.34.53-.5,1.77-.96,1.47-.57.94.47,1.6,1.16.71.71-.31-.15-.68-.66-1.05-.46.32.32.03.12-.21.15-.04,0-.17.09-.24.11Z"/>
            <g>
              <g>
                <path class="cls-12" d="M50.66,1.82c.06.6-.65.53-.71.27-.07-.31.14.07.18.1.23.15.53-.11.53-.36Z"/>
                <path class="cls-12" d="M49.92,1.68h-.06c.06-.05.09-.16.14-.2.22-.16.55-.15.64.15-.32-.29-.44-.23-.73.04Z"/>
                <path class="cls-69" d="M50.29,1.63c.09,0,.18.09.18.1,0,.09-.47-.08-.18-.1Z"/>
              </g>
              <path class="cls-37" d="M51.19,2.38s.02.05.01.07c-.03.1-.47.4-.01-.07Z"/>
              <g>
                <path class="cls-17" d="M48.91,2.46c0,.1-.24.1-.28.21-.04.11.08.35.17.43.26.24.59.21.89.17.33-.05.98-.16.67-.25-.15-.05-.31-.01-.46-.06-.06-.02-.46-.26-.46-.29,0-.24.28.18.46.24.24.07.36,0,.38,0,.87.11-.71.86-.99.56-.46.51-.46-.1-.83-.07.43-.49.33.43.74.01.5.17.83-.1.59-.08-.05,0-.46.23-.89-.06-.17-.11-.37-.45-.38-.66.02-.05.33-.13.39-.15Z"/>
                <path class="cls-28" d="M50.25,2.88c-.17-.05-.01,0,.04-.03.03-.02,0-.08.01-.08.08.09.25.05.38.08-.59-.15-.07-.06.01-.22-.08-.08-.38.01-.6-.06-.14-.04-.07-.27-1.02-.2.45-.13.57-.03.63-.14.2-.01.36.3.62.31.41,0,.62-.65.59-.34.25-.2-.07.07.27.04-.51.31-.1.76-.92.63Z"/>
                <path class="cls-30" d="M49.69,3.28v-.06c.2-.03.47-.14.67-.2.31.09-.35.21-.67.25Z"/>
                <g>
                  <path class="cls-12" d="M50.7,2.63c-.12.05-.28.06-.39.14,0,0,.01.07-.01.08-.05.03-.21-.02-.04.03,0,0,0,.03.03.03-.02,0-.13.07-.38,0-.18-.05-.46-.47-.46-.24,0,.04.4.28.46.29.15.04.31,0,.46.06-.2.05-.47.17-.67.2-.12.02-.59,0-.69-.03-.38-.14.3,0-.17-.22-.09-.02.07.17-.04.14-.09-.08-.2-.32-.17-.43.03-.11.28-.11.28-.21,0,0,.04-.05.17-.08.95-.07.88.15,1.02.2.22.07.52-.03.6.06Z"/>
                  <path class="cls-10" d="M49.69,3.22v.06c-.3.04-.64.07-.89-.17.11.03-.05-.16.04-.14.47.22-.22.09.17.22.09.03.57.04.69.03Z"/>
                  <path class="cls-28" d="M49.15,2.69c.45.33.8.32.42.34-.13-.09-.41-.16-.42-.34Z"/>
                  <path class="cls-10" d="M50.7,2.63c-.09.16-.6.07-.01.22-.13-.03-.3,0-.38-.08.11-.08.27-.09.39-.14Z"/>
                  <path class="cls-8" d="M49.15,3l.35.07s-.33.02-.35-.07Z"/>
                </g>
              </g>
            </g>
          </g>
        </g>
        <g>
          <path class="cls-63" d="M52.38,2.52c-.14.09-.15.26-.14.41-.35.08.02.07.03.08,0,.02-.16.16.03.34-.21.04.14.31-.15.13-.1.09-.01.13-.13.25-.05.05-.11.05-.11.06l.13-.2c-.12.01-.21.1-.32.14l.08-.17s0-.13.07,0c.08-.25-.03-.16-.04-.17-.05-.17-.11-.1,0-.25.19.15,0,.44.22.04-.08-.02-.1-.01-.14-.1,0,0,0-.05,0-.06,0,0,.02-.06.03-.08.02-.08.11-.18.11-.2-.04-.25-.65.34-.48-.18.01-.04.31-.38.39-.46.27,0,.19.06.45-.08.06.17-.02.34-.03.5Z"/>
          <path class="cls-35" d="M52.38,2.52c-.04.79.2.82.08,1.15-.07-.07-.12-.08-.2-.06-.05.02-.05.05-.06.06-.11.06-.08.18-.2.06.11-.12.03-.16.13-.25.29.19-.06-.09.15-.13-.18-.17-.02-.32-.03-.34,0-.02-.38,0-.03-.08-.01-.15,0-.32.14-.41Z"/>
          <path class="cls-18" d="M51.82,3.39s.12-.09.04.17c-.06-.13-.06,0-.07,0-.01,0-.09-.05-.15.14-.16-.02-.31.06-.46.08-.14.02-.31.08-.32.08,0,0,.02-.07-.15-.06,0-.1-.17-.17-.2-.28.18-.1.2.04.36.06.07.16.15.1.32.06.49-.13.51-.18.32-.25-.5-.19.27.05-.06-.18.06-.14.3.12.36.18Z"/>
          <path class="cls-18" d="M50.7,3.81s-.02,0-.03,0c-.27.02-.26.11-.53.06,0-.05-.01-.05-.03-.08.27-.09.24-.16.39-.25.02.11.19.18.2.28Z"/>
          <path class="cls-67" d="M51.9,3.78s-.28.18-.25.07c.25-.2-.35.15-.45-.01.17-.02.34-.06.5-.11.11-.04.2-.13.32-.14l-.13.2Z"/>
          <path class="cls-73" d="M51.79,3.55l-.08.17c-.16.06-.33.1-.5.11-.01-.02-.02-.04-.03-.06.15-.03.3-.1.46-.08.06-.19.14-.13.15-.14Z"/>
          <path class="cls-32" d="M50.67,3.81c-.1.21-.35.13-.53.11-.05-.06,0-.03,0-.06.27.06.26-.03.53-.06Z"/>
          <g>
            <path class="cls-18" d="M52.46,3.67c.05.05.15.32.2.42-.04,0-.07,0-.11,0-.24-.19-.18-.06-.2-.06-.02,0-.03.02-.06.03-.07.02-.17.08-.18.08-.07,0-.23-.16-.27-.1-.04.06.17.24.42.1,0,.21.12.08.15.11.11.09.16.24.24.35-.15.22.06.23-.22.25.21.33.01.04.36.06-.04.15,0,.52,0,.55l-.03.06s-.07.04-.08.07c-.03.07.05.22-.11.22.34.16-.11.35,0,.56.01.02.08-.06.14.03.09.15-.29.76.01.57l.04.17s-.06.08-.11.22c-.07.05-.13.11-.2.17,0-.02,0-.14-.04-.14-.13.01-.14.23-.15-.08,0-.12,0-.21-.08-.03-.06,0-.07.06-.2-.06.09-.33.13-.69.11-1.03.15-.03.14-.15-.03-.08-.09-.94.01.23-.03.56-.2.07-.08.34-.14.49-.03.09-.18-.04-.06.21-.48.89-1.99.08-2.18-.62-.01-.04-.02-.07-.03-.08-.04-.2.09-.46-.17-.73.06-.29.11-.34.34-.57-.09-.13-.1.01-.11.01-.07.01-.12.03-.13.03-.03,0-.49-.37-.27-.55-.15-.05-.21-.15-.22-.15.08-.3.19-.58.48-.73.16-.08.32-.06.42-.17.05,0,.07,0,.14-.03.01.03.03.04.03.08,0,.02-.05,0,0,.06.12.15.57.12.56-.11.18-.01.14.06.15.06.02,0,.18-.06.32-.08,0,.02.02.04.03.06.1.16.7-.19.45.01-.03.11.23-.06.25-.07,0,0,.06,0,.11-.06.12.12.09,0,.2-.06.09.02.11.04.06-.06.08-.02.13-.01.2.06Z"/>
            <g>
              <path class="cls-79" d="M52.07,6.1s.03.02.03.08c.02.34-.03.7-.11,1.03-.01.05-.42.6.25.45-.19.25-.32-.22-.59.2-.08.13-.43,1.01-.2.22.04-.15.13-.25.18-.39-.75.4-1.19-.32-1.38.06,0,0-.05,0-.06,0,.32-.32-.24-.29-.48-.83h-.07s-.06.1-.1.15c0,0,0,.01-.03.06-.04-.09.06-.34.14-.39.19.69,1.7,1.5,2.18.62.14-.25.15-.42.2-.7.04-.33-.06-1.49.03-.56Z"/>
              <g>
                <path class="cls-31" d="M51.08,3.89c.11-.02.06.03-.04.07.13.13.52.14.55-.07.06.19.04.1.21.18-.77.11-.97-.13-.71-.18Z"/>
                <path class="cls-31" d="M52.29,4.06s-.03.06-.03.08c-.25.14-.46-.04-.42-.1.04-.06.2.1.27.1.01,0,.11-.06.18-.08Z"/>
                <path class="cls-1" d="M52.22,3.75c.13-.02.25.22-.04.18.24-.08-.16-.15.04-.18Z"/>
                <path class="cls-38" d="M51.87,4.73l-.11-.06c-.03-.18.14-.05.11.06Z"/>
                <path class="cls-70" d="M51.87,4.73c-.04.15-.09.08-.11-.06l.11.06Z"/>
                <g>
                  <path class="cls-22" d="M51.9,5.12c.15.62.1.61-.06,0h.06Z"/>
                  <path class="cls-56" d="M52.27,7.3c-.1.01-.08-.03-.08-.03.08-.18.08-.09.08.03Z"/>
                  <path class="cls-50" d="M52.1,6.18c0-.06-.03-.06-.03-.08.17-.07.18.05.03.08Z"/>
                  <path class="cls-35" d="M52.11,5.15s.08.08.01.13c-.06.04-.08-.13-.01-.13Z"/>
                  <path class="cls-56" d="M52.34,5.43c.06-.03.1.06.06.08-.06.03-.1-.06-.06-.08Z"/>
                  <path class="cls-20" d="M51.75,4.25s.07.05.01.1c-.06.04-.05-.1-.01-.1Z"/>
                  <path class="cls-79" d="M51.9,5.12h-.06c.07-.16.05,0,.06,0Z"/>
                  <path class="cls-35" d="M52.2,4.93s.06.04.03.08c-.05.07-.06-.07-.03-.08Z"/>
                  <path class="cls-9" d="M52.03,5.6s.06.05.04.07c-.04.06-.09-.05-.04-.07Z"/>
                </g>
                <path class="cls-45" d="M52.21,3.67s0-.04.06-.06c.05.1.03.08-.06.06Z"/>
                <g>
                  <path class="cls-20" d="M52.04,6.66c-.04.28-.06.45-.2.7-.12-.25.02-.12.06-.21.06-.15-.06-.42.14-.49Z"/>
                  <path class="cls-51" d="M50.14,3.92c.18.02.43.1.53-.11,0,0,.02,0,.03,0,.01.23-.44.26-.56.11Z"/>
                  <path class="cls-9" d="M51.72,4.93l.06.22c-.06.02-.1-.18-.06-.22Z"/>
                  <path class="cls-35" d="M51.92,6.41c.09.01,0,.17-.06.14-.06-.03.04-.14.06-.14Z"/>
                  <path class="cls-20" d="M50.07,4.17c.11-.02.15.12,0,.08-.05-.01-.04-.08,0-.08Z"/>
                  <path class="cls-38" d="M50.99,4.39s.12.04.1.07c-.03.06-.16-.04-.1-.07Z"/>
                  <path class="cls-9" d="M51.44,6.63c.17-.02-.03.19-.04.04,0,0,.04-.04.04-.04Z"/>
                  <path class="cls-9" d="M51.58,4.93c.16-.01-.03.17-.04.04,0,0,.04-.04.04-.04Z"/>
                  <path class="cls-20" d="M49.71,4.37c.11-.01.11.08.06.08,0,0-.11-.05-.06-.08Z"/>
                  <path class="cls-9" d="M51.13,6.04s.07.06.07.07c0,.11-.18-.07-.07-.07Z"/>
                  <path class="cls-38" d="M51.41,5.62c.11-.01.1.08.06.08,0,0-.09-.07-.06-.08Z"/>
                  <path class="cls-9" d="M50.32,5.09s.07.07.03.08c-.09.04-.08-.08-.03-.08Z"/>
                  <path class="cls-35" d="M49.93,5.57c.05-.03.09.09.03.08-.06,0-.05-.07-.03-.08Z"/>
                  <path class="cls-35" d="M50.35,5.57c.08,0,.03.09-.01.07-.05-.02,0-.07.01-.07Z"/>
                  <path class="cls-38" d="M51.24,5.37s.09,0,.07.04c-.02.04-.13,0-.07-.04Z"/>
                  <path class="cls-9" d="M51.05,6.38c.06-.03.06.11,0,.08-.02-.01-.02-.07,0-.08Z"/>
                  <path class="cls-38" d="M50.83,5.68c.06-.03.08.09.03.08-.02,0-.07-.07-.03-.08Z"/>
                  <path class="cls-9" d="M50.6,4.98c.06-.03.06.11,0,.08-.02-.01-.02-.07,0-.08Z"/>
                  <path class="cls-76" d="M50.69,6.07c.05-.01.06.07.03.08-.01,0-.07-.07-.03-.08Z"/>
                  <path class="cls-9" d="M51.24,4.87c.05-.01.06.07.03.08-.01,0-.07-.07-.03-.08Z"/>
                  <path class="cls-41" d="M51.58,6.21s.06.04.03.06c-.04.02-.06-.04-.03-.06Z"/>
                  <path class="cls-9" d="M50.04,6.02s.02.12-.03.06c-.02-.03.02-.06.03-.06Z"/>
                  <path class="cls-41" d="M51.19,6.8h.01v.04h-.01s-.01.01-.03.01h-.01s0-.02.01-.03h.01s0-.02.01-.03Z"/>
                </g>
              </g>
            </g>
          </g>
          <path class="cls-67" d="M50.87,3.58c.19.02.19-.05.22-.06.04,0,.16-.09.42-.14.19.07.17.13-.32.25-.17.04-.25.1-.32-.06Z"/>
          <path class="cls-26" d="M50.87,3.25s-.06,0,.06.11c-.08.05-.22.08-.31.03,0-.27.18-.32.28-.39.03.13-.05.07-.03.25Z"/>
          <g>
            <path class="cls-18" d="M52.18,7.27s-.01.04.08.03c.01.31.02.1.15.08.03,0,.03.12.04.14-.04.03-.09.11-.22.14-.67.16-.26-.4-.25-.45.13.11.13.05.2.06Z"/>
            <g>
              <path class="cls-35" d="M52.55,4.09s.07,0,.11,0c.14.31.26.65.31.99.02.18-.03.21-.03.22,0,.02.05,0,.06.03.05.72,0,1.13-.22,1.8l-.04-.17c-.3.19.08-.42-.01-.57-.06-.09-.13,0-.14-.03-.11-.21.34-.4,0-.56.16,0,.08-.15.11-.22.01-.03.08-.06.08-.07,0,0,.02-.02.03-.06,0-.03-.04-.39,0-.55-.35-.02-.15.28-.36-.06.29-.02.07-.03.22-.25-.08-.11-.13-.26-.24-.35-.04-.03-.15.1-.15-.11,0-.03.04-.04.03-.08.02,0,.03-.02.06-.03.02.08.12.05.2.06Z"/>
              <path class="cls-31" d="M52.55,4.09c-.08,0-.17.03-.2-.06.01,0-.04-.14.2.06Z"/>
              <path class="cls-56" d="M52.77,5.51l.03-.06s-.03.05-.03.06Z"/>
              <path class="cls-49" d="M52.76,5.62s.06.04.03.06c-.07.04-.08-.05-.03-.06Z"/>
            </g>
          </g>
          <path class="cls-67" d="M51.9,3.08c.04.08.06.07.14.1-.23.4-.03.1-.22-.04.02-.03.03-.07.08-.06Z"/>
          <g>
            <path class="cls-26" d="M51.96,2.1c-.08.08-.38.43-.39.46-.18.53.43-.07.48.18-.18-.07-.29.26-.11.2,0,.03-.03.08-.03.08-.27,0-.09.14-.18.17-.09.02-.11-.12-.25-.08-.04.01-.17.27-.22-.11-.09-.05-.08.11-.21-.04.1-.11.03-.09.03-.1.03-.09.46-.6.55-.67,0,0,.05.06.06.06.08-.05-.1-.14.29-.14Z"/>
            <path class="cls-42" d="M52.04,2.74s-.09.12-.11.2c-.18.07-.07-.27.11-.2Z"/>
            <path class="cls-75" d="M51.69,2.8c.09,0-.01.28-.08.25l.08-.25Z"/>
            <path class="cls-75" d="M51.38,2.86c.06,0,.01.15-.03.14-.06,0-.01-.15.03-.14Z"/>
          </g>
          <g>
            <path class="cls-59" d="M51.9,3.02s0,.05,0,.06c-.06-.01-.06.02-.08.06-.11.16-.05.08,0,.25-.06-.07-.3-.32-.36-.18.33.23-.45,0,.06.18-.25.05-.38.13-.42.14.19-.26-.08.03-.18.03-.06,0-.29-.1-.29-.17.08.06.23.02.31-.03.15-.09.09-.13-.06-.11-.02-.18.06-.13.03-.25.06-.04.1-.1.17-.14,0,0,.07,0-.03.1.13.16.12,0,.21.04.06.39.18.12.22.11.14-.04.17.11.25.08.09-.02-.09-.16.18-.17Z"/>
            <path class="cls-67" d="M50.92,3.36c-.12-.11-.05-.07-.06-.11.15-.01.2.02.06.11Z"/>
            <path class="cls-67" d="M50.99,3.11c.07-.02.42.01-.03.08-.04-.02,0-.08.03-.08Z"/>
            <path class="cls-67" d="M51.24,3.19c.13,0-.14.16-.15.07,0,0,.15-.07.15-.07Z"/>
          </g>
        </g>
        <g>
          <path class="cls-30" d="M48.74,3.97l.03.03c-.42.05-1.24.84-1.8.81.23-.37.87-.33,1.13-.67.21-.05.43-.13.64-.17Z"/>
          <path class="cls-17" d="M47.72,4.45c.22-.03-.33.26-.32.13.08-.03.29-.12.32-.13Z"/>
        </g>
      </g>
    </g>
  </g>
</svg>